<?xml version="1.0" encoding="UTF-8" standalone="no"?>
<svg
   width="257.56mm"
   height="167.33mm"
   version="1.1"
   viewBox="0 0 257.56 167.33"
   id="svg266"
   sodipodi:docname="background.svg"
   inkscape:version="1.1.2 (0a00cf5339, 2022-02-04, custom)"
   xmlns:inkscape="http://www.inkscape.org/namespaces/inkscape"
   xmlns:sodipodi="http://sodipodi.sourceforge.net/DTD/sodipodi-0.dtd"
   xmlns="http://www.w3.org/2000/svg"
   xmlns:svg="http://www.w3.org/2000/svg">
  <defs
     id="defs270" />
  <sodipodi:namedview
     id="namedview268"
     pagecolor="#ffffff"
     bordercolor="#666666"
     borderopacity="1.0"
     inkscape:pageshadow="2"
     inkscape:pageopacity="0.0"
     inkscape:pagecheckerboard="0"
     inkscape:document-units="mm"
     showgrid="false"
     inkscape:zoom="1.269709"
     inkscape:cx="487.11947"
     inkscape:cy="316.21418"
     inkscape:window-width="1920"
     inkscape:window-height="1055"
     inkscape:window-x="1920"
     inkscape:window-y="0"
     inkscape:window-maximized="1"
     inkscape:current-layer="svg266" />
  <g
     transform="translate(48.66416,-89.46118)"
     id="g264">
    <g
       transform="matrix(1.0468,0,0,1.0468,200.8,-38.743)"
       id="g262">
      <path
         d="m -49.196,131.58 c 0,0 -45.029,-0.14793 -68.79,0.0202 -9.6883,0.14892 -17.132,8.9865 -17.258,16.039 -0.3313,15.381 0,142.22 0,142.22"
         fill="none"
         stroke="#ffffff"
         stroke-opacity="0.25"
         id="path2" />
      <path
         d="m -126.5,156.75 c 9.6883,0.14892 17.132,8.9865 17.258,16.039 0.3313,15.381 0,51.608 0,51.608"
         fill="none"
         stroke="#ffffff"
         stroke-opacity="0.25"
         id="path4" />
      <path
         d="m -48.651,268.05 c 0,0 -19.575,0.14793 -43.336,-0.0202 -9.6883,-0.14892 -17.132,-8.9865 -17.258,-16.039 -0.3313,-15.381 0.001,-27.589 0.001,-27.589"
         fill="none"
         stroke="#ffffff"
         stroke-opacity="0.25"
         id="path6" />
      <path
         d="m -75.672,197.08 c 0,0 -53.944,-0.14793 -77.705,0.0202 -9.6883,0.14892 -17.132,8.9865 -17.258,16.039 -0.3313,15.381 0,77.088 0,77.088"
         fill="none"
         stroke="#ffffff"
         stroke-opacity="0.25"
         id="path8" />
      <path
         d="m -48.651,237.6 c 0,0 -139.17,-0.14793 -162.93,0.0202 -9.6883,0.14892 -17.132,8.9865 -17.258,16.039 -0.3313,15.381 0,36.871 0,36.871"
         fill="none"
         stroke="#ffffff"
         stroke-opacity="0.25"
         id="path10" />
      <rect
         x="-118.54"
         y="230.14999"
         width="18.382999"
         height="18.382999"
         rx="2"
         ry="2"
         fill="#00b199"
         stroke="#ffffff"
         stroke-dasharray="0.265, 0.265"
         stroke-linecap="round"
         stroke-opacity="0.078693"
         id="rect12" />
      <rect
         x="-90.135002"
         y="187.63"
         width="18.382999"
         height="18.382999"
         rx="2"
         ry="2"
         fill="#6db981"
         stroke="#ffffff"
         stroke-dasharray="0.265, 0.265"
         stroke-linecap="round"
         stroke-opacity="0.078693"
         id="rect14" />
      <rect
         x="-145.37"
         y="188.8"
         width="18.382999"
         height="18.382999"
         rx="2"
         ry="2"
         fill="#4f72b7"
         stroke="#ffffff"
         stroke-dasharray="0.265, 0.265"
         stroke-linecap="round"
         stroke-opacity="0.078693"
         id="rect16" />
      <rect
         x="-179.89"
         y="229.62"
         width="18.382999"
         height="18.382999"
         rx="2"
         ry="2"
         fill="#ee4d7a"
         stroke="#ffffff"
         stroke-dasharray="0.265, 0.265"
         stroke-linecap="round"
         stroke-opacity="0.078693"
         id="rect18" />
      <rect
         x="-144.71001"
         y="147.42999"
         width="18.382999"
         height="18.382999"
         rx="2"
         ry="2"
         fill="#f26f54"
         stroke="#ffffff"
         stroke-dasharray="0.265, 0.265"
         stroke-linecap="round"
         stroke-opacity="0.078693"
         id="rect20" />
      <g
         transform="matrix(0.41655,-0.042897,0.042897,0.41655,-952.52,343.31)"
         stroke-width="2.7176"
         id="g54">
        <path
           transform="matrix(-0.99474,-0.10244,-0.10244,0.99474,3936,203.5)"
           d="m 1997.1,-257.18 -23.44,0.30289 -1.0289,18.578 24.7,1.046 z"
           fill="#ccdae0"
           fill-rule="evenodd"
           id="path22" />
        <ellipse
           transform="rotate(5.2913,-233.96,42692)"
           cx="-1989.4"
           cy="-264.14999"
           rx="1.7581"
           ry="1.5895"
           fill="#333333"
           id="ellipse24" />
        <ellipse
           transform="rotate(5.2913,-233.96,42692)"
           cx="-1975.8"
           cy="-264.22"
           rx="1.7465"
           ry="1.5791"
           fill="#333333"
           id="ellipse26" />
        <path
           transform="matrix(-0.99474,-0.10244,-0.10244,0.99474,3936,203.5)"
           d="m 1998.3,-247.22 a 4.3361,4.3005 0.58843 0 1 3.1117,4.1688 4.3361,4.3005 0.58843 0 1 -3.1966,4.1008 z"
           fill="#3897c0"
           id="path28" />
        <path
           transform="matrix(-0.99474,-0.10244,-0.10244,0.99474,3936,203.5)"
           d="m 1972.3,-248.29 a 4.3361,4.3005 0.58843 0 0 -3.1966,4.104 4.3361,4.3005 0.58843 0 0 3.1116,4.1656 z"
           fill="#3897c0"
           id="path30" />
        <path
           transform="matrix(0.26319,0.027104,-0.027104,0.26319,2544.4,-315.02)"
           d="m -2040.6,521.94 -60.814,5.3086 0.1914,40.316 h 65.178 l 0.6875,-0.0488 z"
           fill="#333333"
           fill-rule="evenodd"
           id="path32" />
        <path
           transform="matrix(-0.99474,-0.10244,-0.10244,0.99474,3936,203.5)"
           d="m 1986.2,-268.61 c 0.5204,1.1208 0.078,2.5375 0.178,3.7706 0.051,2.2124 0.015,4.4282 0.032,6.6419 -0.6603,0.1606 -2.0066,0.54872 -2.0596,-0.51046 0.3786,-3.1427 0.7516,-6.3379 1.2778,-9.4298 0.2063,-0.13452 0.3217,-0.41187 0.5718,-0.47221 z"
           fill="#474747"
           fill-rule="evenodd"
           id="path34" />
        <path
           transform="matrix(-0.99474,-0.10244,-0.10244,0.99474,3936,203.5)"
           d="m 1985.4,-259.72 a 7.4299,4.9197 0.58843 0 1 6.2244,2.3308 l -12.504,-0.12842 a 7.4299,4.9197 0.58843 0 1 6.2794,-2.2024 z"
           fill="#acc3ce"
           id="path36" />
        <ellipse
           transform="rotate(5.2913,-233.96,42692)"
           cx="-1983.1"
           cy="-287.54001"
           rx="1.5685"
           ry="1.4181"
           fill="#3897c0"
           id="ellipse38" />
        <path
           transform="matrix(-0.99474,-0.10244,-0.10244,0.99474,3936,203.5)"
           d="m 1991.1,-237.67 -0.094,2.447 -12.197,-1.1078 0.4581,-1.6739 z"
           fill="#6e96a8"
           fill-rule="evenodd"
           id="path40" />
        <path
           transform="matrix(0.26319,0.027104,-0.027104,0.26319,2544.4,-315.02)"
           d="m -2111.3,541.96 c -5.9335,4.2749 -11.603,9.5716 -14.201,16.58 -0.9757,2.73 -1.4989,5.7497 -1.2109,8.6621 h 4.1367 c -0.5267,-1.6491 -0.6862,-3.3862 -0.2051,-5.1133 1.2178,-4.5405 5.1829,-7.4424 8.2032,-10.764 2.0526,-2.2135 4.0649,-4.8808 4.1953,-8.0098 -0.057,-0.51273 -0.2788,-1.3872 -0.916,-1.3555 z"
           fill="#6e96a8"
           fill-rule="evenodd"
           id="path42" />
        <path
           transform="matrix(-0.99474,-0.10244,-0.10244,0.99474,3936,203.5)"
           d="m 1994.1,-232.77 c -0.1936,1.8507 0.1676,7.0674 0.1676,7.0674 0,0 3.2034,0.71535 3.269,-2.1865 0.066,-2.9019 -3.4366,-4.8809 -3.4366,-4.8809 z"
           fill="#333333"
           fill-rule="evenodd"
           id="path44" />
        <path
           transform="matrix(-0.99474,-0.10244,-0.10244,0.99474,3936,203.5)"
           d="m 1986.7,-224.03 c 0.011,-0.0128 0.017,-0.45093 0.028,-0.973 0.01,-0.52207 0.028,-1.1081 0.035,-1.3025 l 0.014,-0.35341 0.4493,-0.0613 c 1.0828,-0.14784 2.1311,-0.29753 2.1397,-0.30556 2e-4,-0.005 8e-4,-0.0196 -0.019,-0.0331 -0.015,-0.0134 -0.1027,-0.0902 -0.194,-0.17059 -0.091,-0.0804 -0.4192,-0.36106 -0.7288,-0.62367 -0.7724,-0.65507 -1.0252,-0.87801 -1.0241,-0.90335 8e-4,-0.0277 0.1827,-0.34613 0.6679,-1.1716 0.3946,-0.67107 0.6118,-1.0545 0.6129,-1.0817 4e-4,-0.01 -0.016,-0.0124 -0.045,-0.008 -0.2065,0.0347 -0.7327,0.13887 -1.5127,0.29964 -0.5077,0.10465 -0.9449,0.19348 -0.9716,0.19739 -0.043,0.006 -0.05,0.003 -0.065,-0.0327 -0.01,-0.0219 -0.2089,-0.53374 -0.4439,-1.1374 -0.235,-0.60371 -0.4418,-1.1344 -0.4595,-1.1794 -0.026,-0.0672 -0.036,-0.0786 -0.051,-0.0644 -0.028,0.0263 -0.2665,0.46663 -0.6003,1.1097 -0.1647,0.31733 -0.3719,0.71219 -0.4602,0.87745 l -0.1607,0.30049 -0.2621,-0.0791 c -0.2338,-0.0705 -1.875,-0.58139 -2.1269,-0.66206 l -0.099,-0.0317 v 0.0279 c 0,0.0463 0.1469,0.39338 0.6043,1.41 l 0.4359,0.96887 -0.6077,0.40916 c -1.2276,0.8265 -1.5525,1.0567 -1.5351,1.0876 0.012,0.0207 0.7249,0.20383 1.8378,0.4719 0.6896,0.16611 0.6382,0.15525 0.6389,0.13483 3e-4,-0.009 -0.042,-0.1156 -0.093,-0.23618 -0.1752,-0.41059 -0.2292,-0.63724 -0.2452,-1.0288 -0.023,-0.55697 0.1502,-1.1281 0.4761,-1.5735 0.3004,-0.41047 0.753,-0.73879 1.2091,-0.87705 0.3097,-0.0939 0.5579,-0.11992 0.9016,-0.0945 0.4486,0.0332 0.8816,0.18407 1.1972,0.41723 0.2356,0.17398 0.5343,0.49353 0.6705,0.71722 0.2924,0.48038 0.4362,1.1256 0.3604,1.6168 -0.1216,0.79072 -0.5387,1.4426 -1.1687,1.8282 -0.1527,0.0935 -0.388,0.19796 -0.4572,0.20299 -0.099,0.007 -0.1103,-0.0145 -0.3234,-0.66054 -0.1074,-0.32578 -0.274,-0.88272 -0.2728,-0.91196 2e-4,-0.007 0.031,-0.0307 0.068,-0.0537 0.3193,-0.1978 0.4838,-0.48211 0.4504,-0.77819 -0.022,-0.18966 -0.1496,-0.41243 -0.2963,-0.51501 -0.26,-0.18175 -0.6505,-0.1613 -0.8747,0.0458 -0.1384,0.12792 -0.2205,0.28705 -0.2389,0.46322 -0.027,0.25763 0.085,0.49444 0.3338,0.70811 l 0.1054,0.0904 -0.013,0.0833 c -0.016,0.12424 -0.3933,1.0615 -0.5348,1.3268 l -0.074,0.13908 -0.052,-0.002 c -0.1673,-0.007 -0.5512,-0.28305 -0.8962,-0.64284 l -0.1884,-0.19649 -0.013,0.0757 c -0.012,0.0414 -0.032,0.30874 -0.055,0.5936 -0.037,0.45576 -0.055,0.7099 -0.1227,1.6787 0,0.12185 -0.01,0.22907 -0.01,0.2383 0.011,0.0199 0.017,0.0153 0.8866,-0.64031 0.674,-0.50859 1.0746,-0.80448 1.1618,-0.85815 l 0.055,-0.0341 0.1019,0.0855 c 0.1167,0.098 0.5932,0.54003 1.303,1.2087 0.2701,0.25454 0.4999,0.46819 0.5104,0.47475 0.013,0.007 0.023,0.004 0.03,-0.0118 z"
           fill="#3897c0"
           stroke-width="3.6558"
           id="path46" />
        <path
           d="m 1996.1,-229.84 c 1.5699,1.1311 3.07,2.5326 3.7575,4.3869 0.3985,1.115 0.5193,2.4139 -0.01,3.5064 -0.3532,0.59983 -1.0387,1.0886 -1.7612,0.97213 -0.2774,-0.2182 -0.011,-0.58957 0.1712,-0.77823 0.6501,-0.73972 1.1592,-1.7599 0.8802,-2.7615 -0.3222,-1.2014 -1.3715,-1.9689 -2.1706,-2.8476 -0.5431,-0.58566 -1.0757,-1.2915 -1.1102,-2.1194 0.015,-0.13566 0.074,-0.36708 0.2426,-0.35868 z"
           fill="#6e96a8"
           fill-rule="evenodd"
           id="path48" />
        <path
           d="m 1994.1,-232.77 c -0.1936,1.8507 0.1676,7.0674 0.1676,7.0674 0,0 3.2034,0.71535 3.269,-2.1865 0.066,-2.9019 -3.4366,-4.8809 -3.4366,-4.8809 z"
           fill="#333333"
           fill-rule="evenodd"
           id="path50" />
        <path
           transform="matrix(0.26319,0.027104,-0.027104,0.26319,2544.4,-315.02)"
           d="m -2017.3,558.35 a 9.6292,9.3621 82.012 0 0 -1.5957,0.082 9.6292,9.3621 82.012 0 0 -8.0059,8.9492 h 18.686 a 9.6292,9.3621 82.012 0 0 -0.07,-0.71484 9.6292,9.3621 82.012 0 0 -9.0137,-8.3164 z"
           fill="#ccdae0"
           id="path52" />
      </g>
      <g
         transform="matrix(-0.42161,-0.043419,-0.043419,0.42161,746.49,385.64)"
         stroke-width="2.7176"
         id="g88">
        <path
           transform="matrix(-0.99474,-0.10244,-0.10244,0.99474,3936,203.5)"
           d="m 1997.1,-257.18 -23.44,0.30289 -1.0289,18.578 24.7,1.046 z"
           fill="#ccdae0"
           fill-rule="evenodd"
           id="path56" />
        <ellipse
           transform="rotate(5.2913,-233.96,42692)"
           cx="-1989.4"
           cy="-264.14999"
           rx="1.7581"
           ry="1.5895"
           fill="#333333"
           id="ellipse58" />
        <ellipse
           transform="rotate(5.2913,-233.96,42692)"
           cx="-1975.8"
           cy="-264.22"
           rx="1.7465"
           ry="1.5791"
           fill="#333333"
           id="ellipse60" />
        <path
           transform="matrix(-0.99474,-0.10244,-0.10244,0.99474,3936,203.5)"
           d="m 1998.3,-247.22 a 4.3361,4.3005 0.58843 0 1 3.1117,4.1688 4.3361,4.3005 0.58843 0 1 -3.1966,4.1008 z"
           fill="#3897c0"
           id="path62" />
        <path
           transform="matrix(-0.99474,-0.10244,-0.10244,0.99474,3936,203.5)"
           d="m 1972.3,-248.29 a 4.3361,4.3005 0.58843 0 0 -3.1966,4.104 4.3361,4.3005 0.58843 0 0 3.1116,4.1656 z"
           fill="#3897c0"
           id="path64" />
        <path
           transform="matrix(0.26319,0.027104,-0.027104,0.26319,2544.4,-315.02)"
           d="m -2040.6,521.94 -60.814,5.3086 0.1914,40.316 h 65.178 l 0.6875,-0.0488 z"
           fill="#333333"
           fill-rule="evenodd"
           id="path66" />
        <path
           transform="matrix(-0.99474,-0.10244,-0.10244,0.99474,3936,203.5)"
           d="m 1986.2,-268.61 c 0.5204,1.1208 0.078,2.5375 0.178,3.7706 0.051,2.2124 0.015,4.4282 0.032,6.6419 -0.6603,0.1606 -2.0066,0.54872 -2.0596,-0.51046 0.3786,-3.1427 0.7516,-6.3379 1.2778,-9.4298 0.2063,-0.13452 0.3217,-0.41187 0.5718,-0.47221 z"
           fill="#474747"
           fill-rule="evenodd"
           id="path68" />
        <path
           transform="matrix(-0.99474,-0.10244,-0.10244,0.99474,3936,203.5)"
           d="m 1985.4,-259.72 a 7.4299,4.9197 0.58843 0 1 6.2244,2.3308 l -12.504,-0.12842 a 7.4299,4.9197 0.58843 0 1 6.2794,-2.2024 z"
           fill="#acc3ce"
           id="path70" />
        <ellipse
           transform="rotate(5.2913,-233.96,42692)"
           cx="-1983.1"
           cy="-287.54001"
           rx="1.5685"
           ry="1.4181"
           fill="#3897c0"
           id="ellipse72" />
        <path
           transform="matrix(-0.99474,-0.10244,-0.10244,0.99474,3936,203.5)"
           d="m 1991.1,-237.67 -0.094,2.447 -12.197,-1.1078 0.4581,-1.6739 z"
           fill="#6e96a8"
           fill-rule="evenodd"
           id="path74" />
        <path
           transform="matrix(0.26319,0.027104,-0.027104,0.26319,2544.4,-315.02)"
           d="m -2111.3,541.96 c -5.9335,4.2749 -11.603,9.5716 -14.201,16.58 -0.9757,2.73 -1.4989,5.7497 -1.2109,8.6621 h 4.1367 c -0.5267,-1.6491 -0.6862,-3.3862 -0.2051,-5.1133 1.2178,-4.5405 5.1829,-7.4424 8.2032,-10.764 2.0526,-2.2135 4.0649,-4.8808 4.1953,-8.0098 -0.057,-0.51273 -0.2788,-1.3872 -0.916,-1.3555 z"
           fill="#6e96a8"
           fill-rule="evenodd"
           id="path76" />
        <path
           transform="matrix(-0.99474,-0.10244,-0.10244,0.99474,3936,203.5)"
           d="m 1994.1,-232.77 c -0.1936,1.8507 0.1676,7.0674 0.1676,7.0674 0,0 3.2034,0.71535 3.269,-2.1865 0.066,-2.9019 -3.4366,-4.8809 -3.4366,-4.8809 z"
           fill="#333333"
           fill-rule="evenodd"
           id="path78" />
        <path
           transform="matrix(-0.99474,-0.10244,-0.10244,0.99474,3936,203.5)"
           d="m 1986.7,-224.03 c 0.011,-0.0128 0.017,-0.45093 0.028,-0.973 0.01,-0.52207 0.028,-1.1081 0.035,-1.3025 l 0.014,-0.35341 0.4493,-0.0613 c 1.0828,-0.14784 2.1311,-0.29753 2.1397,-0.30556 2e-4,-0.005 8e-4,-0.0196 -0.019,-0.0331 -0.015,-0.0134 -0.1027,-0.0902 -0.194,-0.17059 -0.091,-0.0804 -0.4192,-0.36106 -0.7288,-0.62367 -0.7724,-0.65507 -1.0252,-0.87801 -1.0241,-0.90335 8e-4,-0.0277 0.1827,-0.34613 0.6679,-1.1716 0.3946,-0.67107 0.6118,-1.0545 0.6129,-1.0817 4e-4,-0.01 -0.016,-0.0124 -0.045,-0.008 -0.2065,0.0347 -0.7327,0.13887 -1.5127,0.29964 -0.5077,0.10465 -0.9449,0.19348 -0.9716,0.19739 -0.043,0.006 -0.05,0.003 -0.065,-0.0327 -0.01,-0.0219 -0.2089,-0.53374 -0.4439,-1.1374 -0.235,-0.60371 -0.4418,-1.1344 -0.4595,-1.1794 -0.026,-0.0672 -0.036,-0.0786 -0.051,-0.0644 -0.028,0.0263 -0.2665,0.46663 -0.6003,1.1097 -0.1647,0.31733 -0.3719,0.71219 -0.4602,0.87745 l -0.1607,0.30049 -0.2621,-0.0791 c -0.2338,-0.0705 -1.875,-0.58139 -2.1269,-0.66206 l -0.099,-0.0317 v 0.0279 c 0,0.0463 0.1469,0.39338 0.6043,1.41 l 0.4359,0.96887 -0.6077,0.40916 c -1.2276,0.8265 -1.5525,1.0567 -1.5351,1.0876 0.012,0.0207 0.7249,0.20383 1.8378,0.4719 0.6896,0.16611 0.6382,0.15525 0.6389,0.13483 3e-4,-0.009 -0.042,-0.1156 -0.093,-0.23618 -0.1752,-0.41059 -0.2292,-0.63724 -0.2452,-1.0288 -0.023,-0.55697 0.1502,-1.1281 0.4761,-1.5735 0.3004,-0.41047 0.753,-0.73879 1.2091,-0.87705 0.3097,-0.0939 0.5579,-0.11992 0.9016,-0.0945 0.4486,0.0332 0.8816,0.18407 1.1972,0.41723 0.2356,0.17398 0.5343,0.49353 0.6705,0.71722 0.2924,0.48038 0.4362,1.1256 0.3604,1.6168 -0.1216,0.79072 -0.5387,1.4426 -1.1687,1.8282 -0.1527,0.0935 -0.388,0.19796 -0.4572,0.20299 -0.099,0.007 -0.1103,-0.0145 -0.3234,-0.66054 -0.1074,-0.32578 -0.274,-0.88272 -0.2728,-0.91196 2e-4,-0.007 0.031,-0.0307 0.068,-0.0537 0.3193,-0.1978 0.4838,-0.48211 0.4504,-0.77819 -0.022,-0.18966 -0.1496,-0.41243 -0.2963,-0.51501 -0.26,-0.18175 -0.6505,-0.1613 -0.8747,0.0458 -0.1384,0.12792 -0.2205,0.28705 -0.2389,0.46322 -0.027,0.25763 0.085,0.49444 0.3338,0.70811 l 0.1054,0.0904 -0.013,0.0833 c -0.016,0.12424 -0.3933,1.0615 -0.5348,1.3268 l -0.074,0.13908 -0.052,-0.002 c -0.1673,-0.007 -0.5512,-0.28305 -0.8962,-0.64284 l -0.1884,-0.19649 -0.013,0.0757 c -0.012,0.0414 -0.032,0.30874 -0.055,0.5936 -0.037,0.45576 -0.055,0.7099 -0.1227,1.6787 0,0.12185 -0.01,0.22907 -0.01,0.2383 0.011,0.0199 0.017,0.0153 0.8866,-0.64031 0.674,-0.50859 1.0746,-0.80448 1.1618,-0.85815 l 0.055,-0.0341 0.1019,0.0855 c 0.1167,0.098 0.5932,0.54003 1.303,1.2087 0.2701,0.25454 0.4999,0.46819 0.5104,0.47475 0.013,0.007 0.023,0.004 0.03,-0.0118 z"
           fill="#3897c0"
           stroke-width="3.6558"
           id="path80" />
        <path
           d="m 1996.1,-229.84 c 1.5699,1.1311 3.07,2.5326 3.7575,4.3869 0.3985,1.115 0.5193,2.4139 -0.01,3.5064 -0.3532,0.59983 -1.0387,1.0886 -1.7612,0.97213 -0.2774,-0.2182 -0.011,-0.58957 0.1712,-0.77823 0.6501,-0.73972 1.1592,-1.7599 0.8802,-2.7615 -0.3222,-1.2014 -1.3715,-1.9689 -2.1706,-2.8476 -0.5431,-0.58566 -1.0757,-1.2915 -1.1102,-2.1194 0.015,-0.13566 0.074,-0.36708 0.2426,-0.35868 z"
           fill="#6e96a8"
           fill-rule="evenodd"
           id="path82" />
        <path
           d="m 1994.1,-232.77 c -0.1936,1.8507 0.1676,7.0674 0.1676,7.0674 0,0 3.2034,0.71535 3.269,-2.1865 0.066,-2.9019 -3.4366,-4.8809 -3.4366,-4.8809 z"
           fill="#333333"
           fill-rule="evenodd"
           id="path84" />
        <path
           transform="matrix(0.26319,0.027104,-0.027104,0.26319,2544.4,-315.02)"
           d="m -2017.3,558.35 a 9.6292,9.3621 82.012 0 0 -1.5957,0.082 9.6292,9.3621 82.012 0 0 -8.0059,8.9492 h 18.686 a 9.6292,9.3621 82.012 0 0 -0.07,-0.71484 9.6292,9.3621 82.012 0 0 -9.0137,-8.3164 z"
           fill="#ccdae0"
           id="path86" />
      </g>
      <g
         transform="matrix(1.203,0,0,1.203,134.63,65.26)"
         id="g126">
        <g
           transform="matrix(0.36604,-0.037696,0.037696,0.36604,-920.62,308.43)"
           stroke-width="2.7176"
           id="g122">
          <path
             transform="matrix(-0.99474,-0.10244,-0.10244,0.99474,3936,203.5)"
             d="m 1997.1,-257.18 -23.44,0.30289 -1.0289,18.578 24.7,1.046 z"
             fill="#ccdae0"
             fill-rule="evenodd"
             id="path90" />
          <ellipse
             transform="rotate(5.2913,-233.96,42692)"
             cx="-1989.4"
             cy="-264.14999"
             rx="1.7581"
             ry="1.5895"
             fill="#333333"
             id="ellipse92" />
          <ellipse
             transform="rotate(5.2913,-233.96,42692)"
             cx="-1975.8"
             cy="-264.22"
             rx="1.7465"
             ry="1.5791"
             fill="#333333"
             id="ellipse94" />
          <path
             transform="matrix(-0.99474,-0.10244,-0.10244,0.99474,3936,203.5)"
             d="m 1998.3,-247.22 a 4.3361,4.3005 0.58843 0 1 3.1117,4.1688 4.3361,4.3005 0.58843 0 1 -3.1966,4.1008 z"
             fill="#3897c0"
             id="path96" />
          <path
             transform="matrix(-0.99474,-0.10244,-0.10244,0.99474,3936,203.5)"
             d="m 1972.3,-248.29 a 4.3361,4.3005 0.58843 0 0 -3.1966,4.104 4.3361,4.3005 0.58843 0 0 3.1116,4.1656 z"
             fill="#3897c0"
             id="path98" />
          <path
             transform="matrix(0.26319,0.027104,-0.027104,0.26319,2544.4,-315.02)"
             d="m -2040.6,521.94 -60.814,5.3086 0.1914,40.316 h 65.178 l 0.6875,-0.0488 z"
             fill="#333333"
             fill-rule="evenodd"
             id="path100" />
          <path
             transform="matrix(-0.99474,-0.10244,-0.10244,0.99474,3936,203.5)"
             d="m 1986.2,-268.61 c 0.5204,1.1208 0.078,2.5375 0.178,3.7706 0.051,2.2124 0.015,4.4282 0.032,6.6419 -0.6603,0.1606 -2.0066,0.54872 -2.0596,-0.51046 0.3786,-3.1427 0.7516,-6.3379 1.2778,-9.4298 0.2063,-0.13452 0.3217,-0.41187 0.5718,-0.47221 z"
             fill="#474747"
             fill-rule="evenodd"
             id="path102" />
          <path
             transform="matrix(-0.99474,-0.10244,-0.10244,0.99474,3936,203.5)"
             d="m 1985.4,-259.72 a 7.4299,4.9197 0.58843 0 1 6.2244,2.3308 l -12.504,-0.12842 a 7.4299,4.9197 0.58843 0 1 6.2794,-2.2024 z"
             fill="#acc3ce"
             id="path104" />
          <ellipse
             transform="rotate(5.2913,-233.96,42692)"
             cx="-1983.1"
             cy="-287.54001"
             rx="1.5685"
             ry="1.4181"
             fill="#3897c0"
             id="ellipse106" />
          <path
             transform="matrix(-0.99474,-0.10244,-0.10244,0.99474,3936,203.5)"
             d="m 1991.1,-237.67 -0.094,2.447 -12.197,-1.1078 0.4581,-1.6739 z"
             fill="#6e96a8"
             fill-rule="evenodd"
             id="path108" />
          <path
             transform="matrix(0.26319,0.027104,-0.027104,0.26319,2544.4,-315.02)"
             d="m -2111.3,541.96 c -5.9335,4.2749 -11.603,9.5716 -14.201,16.58 -0.9757,2.73 -1.4989,5.7497 -1.2109,8.6621 h 4.1367 c -0.5267,-1.6491 -0.6862,-3.3862 -0.2051,-5.1133 1.2178,-4.5405 5.1829,-7.4424 8.2032,-10.764 2.0526,-2.2135 4.0649,-4.8808 4.1953,-8.0098 -0.057,-0.51273 -0.2788,-1.3872 -0.916,-1.3555 z"
             fill="#6e96a8"
             fill-rule="evenodd"
             id="path110" />
          <path
             transform="matrix(-0.99474,-0.10244,-0.10244,0.99474,3936,203.5)"
             d="m 1994.1,-232.77 c -0.1936,1.8507 0.1676,7.0674 0.1676,7.0674 0,0 3.2034,0.71535 3.269,-2.1865 0.066,-2.9019 -3.4366,-4.8809 -3.4366,-4.8809 z"
             fill="#333333"
             fill-rule="evenodd"
             id="path112" />
          <path
             transform="matrix(-0.99474,-0.10244,-0.10244,0.99474,3936,203.5)"
             d="m 1986.7,-224.03 c 0.011,-0.0128 0.017,-0.45093 0.028,-0.973 0.01,-0.52207 0.028,-1.1081 0.035,-1.3025 l 0.014,-0.35341 0.4493,-0.0613 c 1.0828,-0.14784 2.1311,-0.29753 2.1397,-0.30556 2e-4,-0.005 8e-4,-0.0196 -0.019,-0.0331 -0.015,-0.0134 -0.1027,-0.0902 -0.194,-0.17059 -0.091,-0.0804 -0.4192,-0.36106 -0.7288,-0.62367 -0.7724,-0.65507 -1.0252,-0.87801 -1.0241,-0.90335 8e-4,-0.0277 0.1827,-0.34613 0.6679,-1.1716 0.3946,-0.67107 0.6118,-1.0545 0.6129,-1.0817 4e-4,-0.01 -0.016,-0.0124 -0.045,-0.008 -0.2065,0.0347 -0.7327,0.13887 -1.5127,0.29964 -0.5077,0.10465 -0.9449,0.19348 -0.9716,0.19739 -0.043,0.006 -0.05,0.003 -0.065,-0.0327 -0.01,-0.0219 -0.2089,-0.53374 -0.4439,-1.1374 -0.235,-0.60371 -0.4418,-1.1344 -0.4595,-1.1794 -0.026,-0.0672 -0.036,-0.0786 -0.051,-0.0644 -0.028,0.0263 -0.2665,0.46663 -0.6003,1.1097 -0.1647,0.31733 -0.3719,0.71219 -0.4602,0.87745 l -0.1607,0.30049 -0.2621,-0.0791 c -0.2338,-0.0705 -1.875,-0.58139 -2.1269,-0.66206 l -0.099,-0.0317 v 0.0279 c 0,0.0463 0.1469,0.39338 0.6043,1.41 l 0.4359,0.96887 -0.6077,0.40916 c -1.2276,0.8265 -1.5525,1.0567 -1.5351,1.0876 0.012,0.0207 0.7249,0.20383 1.8378,0.4719 0.6896,0.16611 0.6382,0.15525 0.6389,0.13483 3e-4,-0.009 -0.042,-0.1156 -0.093,-0.23618 -0.1752,-0.41059 -0.2292,-0.63724 -0.2452,-1.0288 -0.023,-0.55697 0.1502,-1.1281 0.4761,-1.5735 0.3004,-0.41047 0.753,-0.73879 1.2091,-0.87705 0.3097,-0.0939 0.5579,-0.11992 0.9016,-0.0945 0.4486,0.0332 0.8816,0.18407 1.1972,0.41723 0.2356,0.17398 0.5343,0.49353 0.6705,0.71722 0.2924,0.48038 0.4362,1.1256 0.3604,1.6168 -0.1216,0.79072 -0.5387,1.4426 -1.1687,1.8282 -0.1527,0.0935 -0.388,0.19796 -0.4572,0.20299 -0.099,0.007 -0.1103,-0.0145 -0.3234,-0.66054 -0.1074,-0.32578 -0.274,-0.88272 -0.2728,-0.91196 2e-4,-0.007 0.031,-0.0307 0.068,-0.0537 0.3193,-0.1978 0.4838,-0.48211 0.4504,-0.77819 -0.022,-0.18966 -0.1496,-0.41243 -0.2963,-0.51501 -0.26,-0.18175 -0.6505,-0.1613 -0.8747,0.0458 -0.1384,0.12792 -0.2205,0.28705 -0.2389,0.46322 -0.027,0.25763 0.085,0.49444 0.3338,0.70811 l 0.1054,0.0904 -0.013,0.0833 c -0.016,0.12424 -0.3933,1.0615 -0.5348,1.3268 l -0.074,0.13908 -0.052,-0.002 c -0.1673,-0.007 -0.5512,-0.28305 -0.8962,-0.64284 l -0.1884,-0.19649 -0.013,0.0757 c -0.012,0.0414 -0.032,0.30874 -0.055,0.5936 -0.037,0.45576 -0.055,0.7099 -0.1227,1.6787 0,0.12185 -0.01,0.22907 -0.01,0.2383 0.011,0.0199 0.017,0.0153 0.8866,-0.64031 0.674,-0.50859 1.0746,-0.80448 1.1618,-0.85815 l 0.055,-0.0341 0.1019,0.0855 c 0.1167,0.098 0.5932,0.54003 1.303,1.2087 0.2701,0.25454 0.4999,0.46819 0.5104,0.47475 0.013,0.007 0.023,0.004 0.03,-0.0118 z"
             fill="#3897c0"
             stroke-width="3.6558"
             id="path114" />
          <path
             d="m 1996.1,-229.84 c 1.5699,1.1311 3.07,2.5326 3.7575,4.3869 0.3985,1.115 0.5193,2.4139 -0.01,3.5064 -0.3532,0.59983 -1.0387,1.0886 -1.7612,0.97213 -0.2774,-0.2182 -0.011,-0.58957 0.1712,-0.77823 0.6501,-0.73972 1.1592,-1.7599 0.8802,-2.7615 -0.3222,-1.2014 -1.3715,-1.9689 -2.1706,-2.8476 -0.5431,-0.58566 -1.0757,-1.2915 -1.1102,-2.1194 0.015,-0.13566 0.074,-0.36708 0.2426,-0.35868 z"
             fill="#6e96a8"
             fill-rule="evenodd"
             id="path116" />
          <path
             d="m 1994.1,-232.77 c -0.1936,1.8507 0.1676,7.0674 0.1676,7.0674 0,0 3.2034,0.71535 3.269,-2.1865 0.066,-2.9019 -3.4366,-4.8809 -3.4366,-4.8809 z"
             fill="#333333"
             fill-rule="evenodd"
             id="path118" />
          <path
             transform="matrix(0.26319,0.027104,-0.027104,0.26319,2544.4,-315.02)"
             d="m -2017.3,558.35 a 9.6292,9.3621 82.012 0 0 -1.5957,0.082 9.6292,9.3621 82.012 0 0 -8.0059,8.9492 h 18.686 a 9.6292,9.3621 82.012 0 0 -0.07,-0.71484 9.6292,9.3621 82.012 0 0 -9.0137,-8.3164 z"
             fill="#ccdae0"
             id="path120" />
        </g>
        <path
           d="m -202.13,143.61 c -0.43602,-0.046 -0.84992,-0.20162 -1.3633,-0.51261 -0.38909,-0.2357 -1.0075,-0.63926 -1.1528,-0.75234 -0.15284,-0.11892 -0.18073,-0.13616 -0.23745,-0.14682 -0.0422,-0.008 -0.0362,-0.0134 0.1579,-0.14173 0.34734,-0.22973 0.72137,-0.37134 2.0853,-0.78952 0.45382,-0.13913 1.4684,-0.42682 1.8691,-0.52999 0.44358,-0.11419 0.84798,-0.16796 1.2671,-0.16844 0.35545,-4.1e-4 0.55759,0.0374 0.89835,0.16823 0.0837,0.0321 0.16433,0.0584 0.17916,0.0584 0.0149,0 0.0311,0.012 0.0362,0.0265 0.0194,0.0554 0.10632,0.11108 0.34339,0.21996 0.13471,0.0619 0.40374,0.19279 0.59787,0.29094 0.19411,0.0981 0.47206,0.23464 0.61765,0.30332 0.49337,0.23274 0.74152,0.37225 0.88585,0.49804 0.0513,0.0446 0.10623,0.10029 0.12204,0.12351 0.0284,0.0418 0.0767,0.15273 0.0664,0.15273 -0.003,0 -0.0224,-0.0264 -0.0432,-0.0587 -0.092,-0.14254 -0.34806,-0.34826 -0.54578,-0.43857 -0.4037,-0.18438 -1.0066,-0.23159 -1.5515,-0.12148 -0.31121,0.0629 -0.8572,0.23925 -1.0206,0.32965 -0.0575,0.0318 -0.17395,0.0956 -0.25888,0.14172 -0.25968,0.1411 -0.48262,0.28012 -0.70589,0.44015 -0.42243,0.30279 -0.55032,0.39032 -0.72534,0.49651 -0.20118,0.12205 -0.53369,0.2734 -0.79994,0.36411 l -0.17966,0.0612 -0.2174,-0.002 c -0.11957,-7.8e-4 -0.26568,-0.007 -0.3247,-0.0131 z m 5.7839,-0.63203 c -0.009,-0.003 -0.0577,-0.0147 -0.1103,-0.0278 -0.12493,-0.031 -0.42264,-0.14478 -0.69854,-0.2669 -0.35934,-0.15908 -0.77409,-0.41003 -0.9503,-0.57504 -0.0264,-0.0248 -0.0617,-0.0457 -0.0783,-0.0464 -0.048,-0.003 0.21038,-0.0751 0.36923,-0.10447 0.25621,-0.0472 0.46984,-0.0605 0.67716,-0.0424 0.42943,0.0379 0.74576,0.16389 0.98527,0.39272 0.0576,0.055 0.1217,0.13304 0.14555,0.17713 0.0396,0.0733 0.0428,0.0907 0.0452,0.2492 l 0.003,0.1704 -0.0571,0.0265 c -0.0718,0.0333 -0.27527,0.0622 -0.33046,0.0471 z m -11.006,-0.13507 c -0.1184,-0.12208 -0.12631,-0.19848 -0.0939,-0.90653 0.025,-0.54518 0.0469,-0.72543 0.14455,-1.1879 0.16131,-0.76414 0.35378,-1.2467 0.67238,-1.6858 0.27994,-0.38582 0.70013,-0.75877 1.1646,-1.0337 0.33549,-0.19857 0.75024,-0.39098 1.0294,-0.47758 0.097,-0.0301 0.19999,-0.0693 0.22873,-0.0872 0.0612,-0.038 0.13303,-0.0462 0.10135,-0.0115 -0.0105,0.0115 -0.0727,0.0497 -0.13821,0.0848 -0.22375,0.11995 -0.37786,0.21534 -0.42825,0.26508 -0.0587,0.058 -0.1427,0.19764 -0.18341,0.30506 -0.0974,0.25684 -0.14714,0.95753 -0.0948,1.3335 0.0445,0.31898 0.093,0.48016 0.28926,0.96043 0.1913,0.46814 0.2572,0.63941 0.27641,0.7184 0.0236,0.0973 0.0902,0.63744 0.0815,0.66214 -0.004,0.0119 -0.0637,0.0468 -0.13237,0.0778 -0.0686,0.0309 -0.22909,0.12634 -0.35651,0.21208 l -0.23168,0.15588 -0.29699,0.0977 c -0.16335,0.0537 -0.42152,0.1303 -0.57372,0.1702 -0.15219,0.0399 -0.37267,0.10382 -0.48995,0.14206 -0.36008,0.1174 -0.79869,0.25086 -0.85433,0.25995 -0.0493,0.008 -0.057,0.005 -0.11425,-0.0547 z m 3.0715,-1.1101 c -1e-5,-0.0687 -0.0556,-0.51368 -0.0755,-0.60396 -0.0156,-0.0708 -0.18075,-0.49724 -0.33468,-0.86407 -0.24489,-0.58358 -0.30875,-1.0784 -0.22379,-1.7338 0.038,-0.29321 0.069,-0.4081 0.14834,-0.5515 0.0799,-0.14421 0.1434,-0.20328 0.33068,-0.30758 0.0857,-0.0477 0.2135,-0.12041 0.28405,-0.16153 0.12475,-0.0728 0.13186,-0.075 0.25957,-0.0837 0.17804,-0.0121 0.41735,-0.0657 0.49983,-0.11192 0.008,-0.005 0.085,-0.01 0.17008,-0.0116 0.0851,-0.002 0.20101,-0.009 0.25763,-0.0171 0.23577,-0.0322 0.78545,-0.0129 1.1373,0.04 0.98957,0.14886 1.8134,0.66251 2.4349,1.5182 0.24989,0.344 0.43787,0.67629 0.71473,1.2635 0.10573,0.22422 0.1807,0.40488 0.21184,0.51053 0.0265,0.0899 0.0465,0.1635 0.0445,0.1635 -0.002,0 -0.0589,-0.0215 -0.12639,-0.0478 -0.48035,-0.18753 -0.80572,-0.22628 -1.3917,-0.16578 -0.39291,0.0406 -0.50506,0.0602 -0.83999,0.1469 -0.98031,0.2538 -3.0226,0.87201 -3.352,1.0146 -0.0675,0.0292 -0.12872,0.0532 -0.13603,0.0532 -0.008,0 -0.0133,-0.0225 -0.0133,-0.0501 z m 0.14707,-4.335 c 0,-0.0337 0.0405,-0.0951 0.0825,-0.12507 0.0548,-0.0391 0.30764,-0.11078 0.39549,-0.11207 0.0814,-0.002 0.1235,0.0156 0.20616,0.0821 0.0652,0.0525 0.0645,0.0533 -0.0959,0.10157 -0.12275,0.0369 -0.24922,0.0557 -0.45221,0.0668 -0.11711,0.006 -0.13603,0.005 -0.13603,-0.0134 z"
           fill="#22292c"
           id="path124" />
      </g>
      <path
         d="m -82.283,187.19 -1.1371,4.3589 h 5.7802 l -0.85282,-4.1694 z"
         fill="#cc3e12"
         fill-rule="evenodd"
         id="path128" />
      <path
         d="m -78.472,187.7 2.5657,2.4 -0.55067,1.4256 z"
         fill="#333333"
         fill-rule="evenodd"
         id="path130" />
      <g
         transform="matrix(1.176,0,0,1.176,23.766,-60.251)"
         id="g170">
        <g
           transform="matrix(-0.36604,-0.037696,-0.037696,0.36604,581.82,383.25)"
           stroke-width="2.7176"
           id="g164">
          <path
             transform="matrix(-0.99474,-0.10244,-0.10244,0.99474,3936,203.5)"
             d="m 1997.1,-257.18 -23.44,0.30289 -1.0289,18.578 24.7,1.046 z"
             fill="#ccdae0"
             fill-rule="evenodd"
             id="path132" />
          <ellipse
             transform="rotate(5.2913,-233.96,42692)"
             cx="-1989.4"
             cy="-264.14999"
             rx="1.7581"
             ry="1.5895"
             fill="#333333"
             id="ellipse134" />
          <ellipse
             transform="rotate(5.2913,-233.96,42692)"
             cx="-1975.8"
             cy="-264.22"
             rx="1.7465"
             ry="1.5791"
             fill="#333333"
             id="ellipse136" />
          <path
             transform="matrix(-0.99474,-0.10244,-0.10244,0.99474,3936,203.5)"
             d="m 1998.3,-247.22 a 4.3361,4.3005 0.58843 0 1 3.1117,4.1688 4.3361,4.3005 0.58843 0 1 -3.1966,4.1008 z"
             fill="#3897c0"
             id="path138" />
          <path
             transform="matrix(-0.99474,-0.10244,-0.10244,0.99474,3936,203.5)"
             d="m 1972.3,-248.29 a 4.3361,4.3005 0.58843 0 0 -3.1966,4.104 4.3361,4.3005 0.58843 0 0 3.1116,4.1656 z"
             fill="#3897c0"
             id="path140" />
          <path
             transform="matrix(0.26319,0.027104,-0.027104,0.26319,2544.4,-315.02)"
             d="m -2040.6,521.94 -60.814,5.3086 0.1914,40.316 h 65.178 l 0.6875,-0.0488 z"
             fill="#333333"
             fill-rule="evenodd"
             id="path142" />
          <path
             transform="matrix(-0.99474,-0.10244,-0.10244,0.99474,3936,203.5)"
             d="m 1986.2,-268.61 c 0.5204,1.1208 0.078,2.5375 0.178,3.7706 0.051,2.2124 0.015,4.4282 0.032,6.6419 -0.6603,0.1606 -2.0066,0.54872 -2.0596,-0.51046 0.3786,-3.1427 0.7516,-6.3379 1.2778,-9.4298 0.2063,-0.13452 0.3217,-0.41187 0.5718,-0.47221 z"
             fill="#474747"
             fill-rule="evenodd"
             id="path144" />
          <path
             transform="matrix(-0.99474,-0.10244,-0.10244,0.99474,3936,203.5)"
             d="m 1985.4,-259.72 a 7.4299,4.9197 0.58843 0 1 6.2244,2.3308 l -12.504,-0.12842 a 7.4299,4.9197 0.58843 0 1 6.2794,-2.2024 z"
             fill="#acc3ce"
             id="path146" />
          <ellipse
             transform="rotate(5.2913,-233.96,42692)"
             cx="-1983.1"
             cy="-287.54001"
             rx="1.5685"
             ry="1.4181"
             fill="#3897c0"
             id="ellipse148" />
          <path
             transform="matrix(-0.99474,-0.10244,-0.10244,0.99474,3936,203.5)"
             d="m 1991.1,-237.67 -0.094,2.447 -12.197,-1.1078 0.4581,-1.6739 z"
             fill="#6e96a8"
             fill-rule="evenodd"
             id="path150" />
          <path
             transform="matrix(0.26319,0.027104,-0.027104,0.26319,2544.4,-315.02)"
             d="m -2111.3,541.96 c -5.9335,4.2749 -11.603,9.5716 -14.201,16.58 -0.9757,2.73 -1.4989,5.7497 -1.2109,8.6621 h 4.1367 c -0.5267,-1.6491 -0.6862,-3.3862 -0.2051,-5.1133 1.2178,-4.5405 5.1829,-7.4424 8.2032,-10.764 2.0526,-2.2135 4.0649,-4.8808 4.1953,-8.0098 -0.057,-0.51273 -0.2788,-1.3872 -0.916,-1.3555 z"
             fill="#6e96a8"
             fill-rule="evenodd"
             id="path152" />
          <path
             transform="matrix(-0.99474,-0.10244,-0.10244,0.99474,3936,203.5)"
             d="m 1994.1,-232.77 c -0.1936,1.8507 0.1676,7.0674 0.1676,7.0674 0,0 3.2034,0.71535 3.269,-2.1865 0.066,-2.9019 -3.4366,-4.8809 -3.4366,-4.8809 z"
             fill="#333333"
             fill-rule="evenodd"
             id="path154" />
          <path
             transform="matrix(-0.99474,-0.10244,-0.10244,0.99474,3936,203.5)"
             d="m 1986.7,-224.03 c 0.011,-0.0128 0.017,-0.45093 0.028,-0.973 0.01,-0.52207 0.028,-1.1081 0.035,-1.3025 l 0.014,-0.35341 0.4493,-0.0613 c 1.0828,-0.14784 2.1311,-0.29753 2.1397,-0.30556 2e-4,-0.005 8e-4,-0.0196 -0.019,-0.0331 -0.015,-0.0134 -0.1027,-0.0902 -0.194,-0.17059 -0.091,-0.0804 -0.4192,-0.36106 -0.7288,-0.62367 -0.7724,-0.65507 -1.0252,-0.87801 -1.0241,-0.90335 8e-4,-0.0277 0.1827,-0.34613 0.6679,-1.1716 0.3946,-0.67107 0.6118,-1.0545 0.6129,-1.0817 4e-4,-0.01 -0.016,-0.0124 -0.045,-0.008 -0.2065,0.0347 -0.7327,0.13887 -1.5127,0.29964 -0.5077,0.10465 -0.9449,0.19348 -0.9716,0.19739 -0.043,0.006 -0.05,0.003 -0.065,-0.0327 -0.01,-0.0219 -0.2089,-0.53374 -0.4439,-1.1374 -0.235,-0.60371 -0.4418,-1.1344 -0.4595,-1.1794 -0.026,-0.0672 -0.036,-0.0786 -0.051,-0.0644 -0.028,0.0263 -0.2665,0.46663 -0.6003,1.1097 -0.1647,0.31733 -0.3719,0.71219 -0.4602,0.87745 l -0.1607,0.30049 -0.2621,-0.0791 c -0.2338,-0.0705 -1.875,-0.58139 -2.1269,-0.66206 l -0.099,-0.0317 v 0.0279 c 0,0.0463 0.1469,0.39338 0.6043,1.41 l 0.4359,0.96887 -0.6077,0.40916 c -1.2276,0.8265 -1.5525,1.0567 -1.5351,1.0876 0.012,0.0207 0.7249,0.20383 1.8378,0.4719 0.6896,0.16611 0.6382,0.15525 0.6389,0.13483 3e-4,-0.009 -0.042,-0.1156 -0.093,-0.23618 -0.1752,-0.41059 -0.2292,-0.63724 -0.2452,-1.0288 -0.023,-0.55697 0.1502,-1.1281 0.4761,-1.5735 0.3004,-0.41047 0.753,-0.73879 1.2091,-0.87705 0.3097,-0.0939 0.5579,-0.11992 0.9016,-0.0945 0.4486,0.0332 0.8816,0.18407 1.1972,0.41723 0.2356,0.17398 0.5343,0.49353 0.6705,0.71722 0.2924,0.48038 0.4362,1.1256 0.3604,1.6168 -0.1216,0.79072 -0.5387,1.4426 -1.1687,1.8282 -0.1527,0.0935 -0.388,0.19796 -0.4572,0.20299 -0.099,0.007 -0.1103,-0.0145 -0.3234,-0.66054 -0.1074,-0.32578 -0.274,-0.88272 -0.2728,-0.91196 2e-4,-0.007 0.031,-0.0307 0.068,-0.0537 0.3193,-0.1978 0.4838,-0.48211 0.4504,-0.77819 -0.022,-0.18966 -0.1496,-0.41243 -0.2963,-0.51501 -0.26,-0.18175 -0.6505,-0.1613 -0.8747,0.0458 -0.1384,0.12792 -0.2205,0.28705 -0.2389,0.46322 -0.027,0.25763 0.085,0.49444 0.3338,0.70811 l 0.1054,0.0904 -0.013,0.0833 c -0.016,0.12424 -0.3933,1.0615 -0.5348,1.3268 l -0.074,0.13908 -0.052,-0.002 c -0.1673,-0.007 -0.5512,-0.28305 -0.8962,-0.64284 l -0.1884,-0.19649 -0.013,0.0757 c -0.012,0.0414 -0.032,0.30874 -0.055,0.5936 -0.037,0.45576 -0.055,0.7099 -0.1227,1.6787 0,0.12185 -0.01,0.22907 -0.01,0.2383 0.011,0.0199 0.017,0.0153 0.8866,-0.64031 0.674,-0.50859 1.0746,-0.80448 1.1618,-0.85815 l 0.055,-0.0341 0.1019,0.0855 c 0.1167,0.098 0.5932,0.54003 1.303,1.2087 0.2701,0.25454 0.4999,0.46819 0.5104,0.47475 0.013,0.007 0.023,0.004 0.03,-0.0118 z"
             fill="#3897c0"
             stroke-width="3.6558"
             id="path156" />
          <path
             d="m 1996.1,-229.84 c 1.5699,1.1311 3.07,2.5326 3.7575,4.3869 0.3985,1.115 0.5193,2.4139 -0.01,3.5064 -0.3532,0.59983 -1.0387,1.0886 -1.7612,0.97213 -0.2774,-0.2182 -0.011,-0.58957 0.1712,-0.77823 0.6501,-0.73972 1.1592,-1.7599 0.8802,-2.7615 -0.3222,-1.2014 -1.3715,-1.9689 -2.1706,-2.8476 -0.5431,-0.58566 -1.0757,-1.2915 -1.1102,-2.1194 0.015,-0.13566 0.074,-0.36708 0.2426,-0.35868 z"
             fill="#6e96a8"
             fill-rule="evenodd"
             id="path158" />
          <path
             d="m 1994.1,-232.77 c -0.1936,1.8507 0.1676,7.0674 0.1676,7.0674 0,0 3.2034,0.71535 3.269,-2.1865 0.066,-2.9019 -3.4366,-4.8809 -3.4366,-4.8809 z"
             fill="#333333"
             fill-rule="evenodd"
             id="path160" />
          <path
             transform="matrix(0.26319,0.027104,-0.027104,0.26319,2544.4,-315.02)"
             d="m -2017.3,558.35 a 9.6292,9.3621 82.012 0 0 -1.5957,0.082 9.6292,9.3621 82.012 0 0 -8.0059,8.9492 h 18.686 a 9.6292,9.3621 82.012 0 0 -0.07,-0.71484 9.6292,9.3621 82.012 0 0 -9.0137,-8.3164 z"
             fill="#ccdae0"
             id="path162" />
        </g>
        <path
           d="m -134.47,222.47 c -0.57885,-0.032 -1.2469,-0.27776 -1.7118,-0.62965 l -0.088,-0.0667 -0.10978,0.0801 c -0.38415,0.2804 -0.86331,0.4842 -1.3636,0.57998 -0.14342,0.0275 -0.2083,0.0312 -0.54167,0.0312 -0.30805,-4e-5 -0.40491,-0.005 -0.519,-0.0259 -0.58628,-0.10822 -0.97119,-0.36015 -1.1171,-0.73118 -0.0812,-0.20636 -0.0709,-0.45617 0.0269,-0.65139 0.14105,-0.28164 0.57767,-0.47505 0.81051,-0.35902 0.0695,0.0346 0.13794,0.11679 0.1557,0.18697 0.0112,0.0444 1.7e-4,0.0505 -0.0471,0.026 -0.0741,-0.0383 -0.21822,-0.0685 -0.28427,-0.0595 -0.13892,0.0189 -0.2249,0.12904 -0.2249,0.28808 0,0.23375 0.16388,0.39857 0.37202,0.37416 0.25659,-0.0301 0.68197,-0.26782 1.1569,-0.64656 0.21934,-0.1749 0.405,-0.24613 0.71165,-0.27304 0.15801,-0.0139 0.35834,-0.002 0.4727,0.0285 0.16572,0.0439 0.34668,0.13874 0.44535,0.23342 l 0.0516,0.0496 0.0746,-0.0653 c 0.21567,-0.18875 0.548,-0.2799 0.89963,-0.24674 0.31991,0.0301 0.49176,0.0976 0.72937,0.28598 0.57737,0.45787 1.0428,0.6871 1.2706,0.62576 0.24697,-0.0665 0.32973,-0.47855 0.12352,-0.615 -0.0923,-0.0611 -0.2167,-0.0515 -0.42014,0.0324 -0.055,0.0226 -0.004,-0.10873 0.0688,-0.17799 0.20598,-0.1955 0.72144,-0.009 0.88016,0.31846 0.0583,0.12021 0.0781,0.20749 0.0783,0.34413 6.7e-4,0.69287 -0.7728,1.1256 -1.901,1.0632 z"
           fill="#333333"
           id="path166" />
        <path
           d="m -131.77,222.66 c 0.007,-0.0284 -0.006,-0.0751 -0.0309,-0.10548 -0.0584,-0.0721 -0.17215,-0.0481 -0.19452,0.041 -0.0222,0.0885 0.005,0.1154 0.11489,0.1154 0.0759,0 0.1001,-0.0112 0.11049,-0.0509 z m -0.46386,-0.12867 c 0.0352,-0.0659 -0.0282,-0.17617 -0.10133,-0.17617 -0.10112,0 -0.1655,0.13049 -0.0978,0.19821 0.0499,0.0499 0.16757,0.0369 0.19912,-0.022 z m 0.7351,-0.1745 c 0.0357,-0.0668 0.0332,-0.0928 -0.0136,-0.13961 -0.058,-0.058 -0.13084,-0.049 -0.17729,0.0219 -0.0315,0.0481 -0.0343,0.0735 -0.0124,0.11435 0.0372,0.0695 0.16676,0.0717 0.2033,0.003 z m -0.83766,-0.3066 c 0.0626,-0.0626 0.0631,-0.0808 0.004,-0.15348 -0.0627,-0.0774 -0.17405,-0.0529 -0.19831,0.0438 -0.0131,0.052 -0.004,0.078 0.0405,0.11396 0.0726,0.0588 0.0909,0.0583 0.15348,-0.004 z m -0.0559,-0.5133 c 0.0713,-0.0713 0.0176,-0.1982 -0.0839,-0.1982 -0.0294,0 -0.0671,0.0137 -0.0839,0.0305 -0.0168,0.0168 -0.0305,0.0545 -0.0305,0.0839 0,0.0293 0.0137,0.0671 0.0305,0.0838 0.0168,0.0168 0.0545,0.0305 0.0839,0.0305 0.0293,0 0.0671,-0.0137 0.0839,-0.0305 z m 0.061,-0.54232 c 0.0251,-0.0552 0.0217,-0.0724 -0.0236,-0.11769 -0.10242,-0.10242 -0.25312,0.004 -0.18527,0.13051 0.0419,0.0782 0.17103,0.0703 0.20891,-0.0128 z m -1.0666,-0.15279 c 0.29325,-0.0711 0.56431,-0.2618 0.73838,-0.51952 0.0425,-0.0629 0.0796,-0.11758 0.0824,-0.12152 0.003,-0.004 0.057,0.007 0.12039,0.0237 0.0998,0.0267 0.12407,0.025 0.18129,-0.0125 0.05,-0.0328 0.0661,-0.0646 0.0661,-0.13106 0,-0.0946 -0.0537,-0.14682 -0.18422,-0.1789 -0.0696,-0.0171 -0.0699,-0.018 -0.0699,-0.24086 0,-0.37997 -0.11665,-0.64987 -0.39438,-0.91253 -0.2647,-0.25035 -0.65523,-0.3709 -1.0096,-0.31165 -0.61251,0.10242 -1.0406,0.60098 -1.0406,1.212 0,0.79549 0.73954,1.3797 1.5101,1.1929 z m -0.62464,-0.16448 c -0.34806,-0.1075 -0.61819,-0.39853 -0.71872,-0.77432 -0.14127,-0.52804 0.19004,-1.1192 0.71872,-1.2825 0.20241,-0.0625 0.45676,-0.0667 0.64602,-0.0106 0.5132,0.15204 0.86038,0.70003 0.76578,1.2087 -0.12394,0.66647 -0.76735,1.0578 -1.4118,0.8588 z m 1.5591,-0.50751 c -0.0612,-0.0612 -0.0636,-0.0976 -0.0113,-0.17222 0.0468,-0.0669 0.12878,-0.073 0.19349,-0.0144 0.0578,0.0523 0.0596,0.13003 0.004,0.19099 -0.0548,0.0606 -0.12334,0.059 -0.18664,-0.004 z m 0.23041,0.40336 c 0.0454,-0.0848 -0.007,-0.17466 -0.10192,-0.17466 -0.11306,0 -0.16552,0.11181 -0.0886,0.18877 0.0574,0.0574 0.15611,0.0501 0.19048,-0.0141 z"
           id="path168" />
      </g>
      <g
         transform="matrix(1.1863,0,0,1.1863,31.574,-66.924)"
         id="g212">
        <g
           transform="matrix(0.36604,-0.037696,0.037696,0.36604,-888.69,421.71)"
           stroke-width="2.7176"
           id="g202">
          <path
             transform="matrix(-0.99474,-0.10244,-0.10244,0.99474,3936,203.5)"
             d="m 1997.1,-257.18 -23.44,0.30289 -1.0289,18.578 24.7,1.046 z"
             fill="#ccdae0"
             fill-rule="evenodd"
             id="path172" />
          <ellipse
             transform="rotate(5.2913,-233.96,42692)"
             cx="-1989.4"
             cy="-264.14999"
             rx="1.7581"
             ry="1.5895"
             fill="#333333"
             id="ellipse174" />
          <ellipse
             transform="rotate(5.2913,-233.96,42692)"
             cx="-1975.8"
             cy="-264.22"
             rx="1.7465"
             ry="1.5791"
             fill="#333333"
             id="ellipse176" />
          <path
             transform="matrix(-0.99474,-0.10244,-0.10244,0.99474,3936,203.5)"
             d="m 1998.3,-247.22 a 4.3361,4.3005 0.58843 0 1 3.1117,4.1688 4.3361,4.3005 0.58843 0 1 -3.1966,4.1008 z"
             fill="#3897c0"
             id="path178" />
          <path
             transform="matrix(-0.99474,-0.10244,-0.10244,0.99474,3936,203.5)"
             d="m 1972.3,-248.29 a 4.3361,4.3005 0.58843 0 0 -3.1966,4.104 4.3361,4.3005 0.58843 0 0 3.1116,4.1656 z"
             fill="#3897c0"
             id="path180" />
          <path
             d="m 1977.4,-232.17 -0.5726,5.5598 15.839,0.0579 0.2963,-6.1502 z"
             fill="#6e96a8"
             fill-rule="evenodd"
             id="path182" />
          <path
             transform="matrix(0.71524,0.073657,-0.073657,0.71524,2519.7,-892.59)"
             d="m -638.15,987.85 -14.551,1.4043 c 1.2218,2.8559 -1.2762,6.5576 -3.8105,6.6328 -0.0978,-9.9e-4 -0.19552,-0.006 -0.29297,-0.0137 l 0.041,9.0837 h 23.984 l 0.25195,-0.019 -1.2852,-11.771 c -0.32727,0.10131 -0.66842,0.15334 -1.0117,0.1543 -3.3172,-0.76265 -3.5669,-3.2706 -3.3262,-5.4707 z"
             fill="#22292c"
             fill-rule="evenodd"
             id="path184" />
          <path
             transform="matrix(-0.99474,-0.10244,-0.10244,0.99474,3936,203.5)"
             d="m 1986.2,-268.61 c 0.5204,1.1208 0.078,2.5375 0.178,3.7706 0.051,2.2124 0.015,4.4282 0.032,6.6419 -0.6603,0.1606 -2.0066,0.54872 -2.0596,-0.51046 0.3786,-3.1427 0.7516,-6.3379 1.2778,-9.4298 0.2063,-0.13452 0.3217,-0.41187 0.5718,-0.47221 z"
             fill="#474747"
             fill-rule="evenodd"
             id="path186" />
          <path
             transform="matrix(-0.99474,-0.10244,-0.10244,0.99474,3936,203.5)"
             d="m 1985.4,-259.72 a 7.4299,4.9197 0.58843 0 1 6.2244,2.3308 l -12.504,-0.12842 a 7.4299,4.9197 0.58843 0 1 6.2794,-2.2024 z"
             fill="#acc3ce"
             id="path188" />
          <ellipse
             transform="rotate(5.2913,-233.96,42692)"
             cx="-1983.1"
             cy="-287.54001"
             rx="1.5685"
             ry="1.4181"
             fill="#3897c0"
             id="ellipse190" />
          <path
             transform="matrix(-0.99474,-0.10244,-0.10244,0.99474,3936,203.5)"
             d="m 1991.1,-237.67 -0.094,2.447 -12.197,-1.1078 0.4581,-1.6739 z"
             fill="#6e96a8"
             fill-rule="evenodd"
             id="path192" />
          <path
             transform="matrix(0.26319,0.027104,-0.027104,0.26319,2544.4,-315.02)"
             d="m -2108.2,536.82 c -2.5793,1.0312 -5.1578,2.0646 -7.7284,3.1173 -0.6295,0.26507 -1.2871,0.48097 -1.8588,0.86361 -0.7577,0.49245 -1.5258,0.97034 -2.2622,1.4947 -0.5735,0.42569 -1.1287,0.8764 -1.6526,1.3622 -0.4918,0.45817 -0.9374,0.96386 -1.3804,1.4689 -0.4534,0.55728 -0.9022,1.1218 -1.2675,1.7424 -0.4448,0.72967 -0.8697,1.4727 -1.2342,2.2461 -0.3444,0.714 -0.6132,1.4618 -0.903,2.199 -0.265,0.72363 -0.4223,1.4798 -0.6247,2.222 -0.1566,0.66126 -0.373,1.3098 -0.4841,1.9808 -0.2446,1.4074 -0.4156,2.8269 -0.5338,4.2503 -0.055,1.3057 -0.1022,2.6117 -0.1426,3.918 1.3562,-1.1302 2.7123,-2.2604 4.0684,-3.3906 -0.074,-0.69727 -0.1484,-1.3945 -0.2227,-2.0918 0.033,-0.97726 0.016,-1.9603 0.1648,-2.9294 0.094,-0.64248 0.1866,-1.2872 0.3402,-1.9185 0.1826,-0.68731 0.3904,-1.3682 0.6458,-2.0322 0.2527,-0.61963 0.5451,-1.2246 0.8634,-1.8136 0.2881,-0.58959 0.6919,-1.1117 1.0793,-1.6384 0.4072,-0.57753 0.8962,-1.0913 1.4136,-1.5708 0.4645,-0.46606 0.9763,-0.88204 1.5162,-1.2574 0.7682,-0.54939 1.5607,-1.0677 2.4033,-1.4966 0.8593,-0.44861 1.745,-0.84467 2.6252,-1.2499 0.7859,-0.35317 1.5764,-0.69547 2.3778,-1.012 2.3709,-0.96008 4.7688,-1.8516 7.154,-2.7754 1.2072,-0.45878 2.3935,-0.97134 3.5612,-1.5226 0.6016,-0.29123 1.1917,-0.61336 1.717,-1.0298 0.4499,-0.36831 0.8825,-0.82059 1.0386,-1.3959 0.1496,-0.4982 -0.2572,-0.9897 -0.7566,-1.0202 -0.6015,-0.13198 -1.1398,0.26693 -1.7058,0.40709 -2.7371,0.95763 -5.4743,1.9153 -8.2114,2.8729 z"
             fill="#6e96a8"
             fill-rule="evenodd"
             id="path194" />
          <path
             transform="matrix(-0.99474,-0.10244,-0.10244,0.99474,3936,203.5)"
             d="m 1986.7,-224.03 c 0.011,-0.0128 0.017,-0.45093 0.028,-0.973 0.01,-0.52207 0.028,-1.1081 0.035,-1.3025 l 0.014,-0.35341 0.4493,-0.0613 c 1.0828,-0.14784 2.1311,-0.29753 2.1397,-0.30556 2e-4,-0.005 8e-4,-0.0196 -0.019,-0.0331 -0.015,-0.0134 -0.1027,-0.0902 -0.194,-0.17059 -0.091,-0.0804 -0.4192,-0.36106 -0.7288,-0.62367 -0.7724,-0.65507 -1.0252,-0.87801 -1.0241,-0.90335 8e-4,-0.0277 0.1827,-0.34613 0.6679,-1.1716 0.3946,-0.67107 0.6118,-1.0545 0.6129,-1.0817 4e-4,-0.01 -0.016,-0.0124 -0.045,-0.008 -0.2065,0.0347 -0.7327,0.13887 -1.5127,0.29964 -0.5077,0.10465 -0.9449,0.19348 -0.9716,0.19739 -0.043,0.006 -0.05,0.003 -0.065,-0.0327 -0.01,-0.0219 -0.2089,-0.53374 -0.4439,-1.1374 -0.235,-0.60371 -0.4418,-1.1344 -0.4595,-1.1794 -0.026,-0.0672 -0.036,-0.0786 -0.051,-0.0644 -0.028,0.0263 -0.2665,0.46663 -0.6003,1.1097 -0.1647,0.31733 -0.3719,0.71219 -0.4602,0.87745 l -0.1607,0.30049 -0.2621,-0.0791 c -0.2338,-0.0705 -1.875,-0.58139 -2.1269,-0.66206 l -0.099,-0.0317 v 0.0279 c 0,0.0463 0.1469,0.39338 0.6043,1.41 l 0.4359,0.96887 -0.6077,0.40916 c -1.2276,0.8265 -1.5525,1.0567 -1.5351,1.0876 0.012,0.0207 0.7249,0.20383 1.8378,0.4719 0.6896,0.16611 0.6382,0.15525 0.6389,0.13483 3e-4,-0.009 -0.042,-0.1156 -0.093,-0.23618 -0.1752,-0.41059 -0.2292,-0.63724 -0.2452,-1.0288 -0.023,-0.55697 0.1502,-1.1281 0.4761,-1.5735 0.3004,-0.41047 0.753,-0.73879 1.2091,-0.87705 0.3097,-0.0939 0.5579,-0.11992 0.9016,-0.0945 0.4486,0.0332 0.8816,0.18407 1.1972,0.41723 0.2356,0.17398 0.5343,0.49353 0.6705,0.71722 0.2924,0.48038 0.4362,1.1256 0.3604,1.6168 -0.1216,0.79072 -0.5387,1.4426 -1.1687,1.8282 -0.1527,0.0935 -0.388,0.19796 -0.4572,0.20299 -0.099,0.007 -0.1103,-0.0145 -0.3234,-0.66054 -0.1074,-0.32578 -0.274,-0.88272 -0.2728,-0.91196 2e-4,-0.007 0.031,-0.0307 0.068,-0.0537 0.3193,-0.1978 0.4838,-0.48211 0.4504,-0.77819 -0.022,-0.18966 -0.1496,-0.41243 -0.2963,-0.51501 -0.26,-0.18175 -0.6505,-0.1613 -0.8747,0.0458 -0.1384,0.12792 -0.2205,0.28705 -0.2389,0.46322 -0.027,0.25763 0.085,0.49444 0.3338,0.70811 l 0.1054,0.0904 -0.013,0.0833 c -0.016,0.12424 -0.3933,1.0615 -0.5348,1.3268 l -0.074,0.13908 -0.052,-0.002 c -0.1673,-0.007 -0.5512,-0.28305 -0.8962,-0.64284 l -0.1884,-0.19649 -0.013,0.0757 c -0.012,0.0414 -0.032,0.30874 -0.055,0.5936 -0.037,0.45576 -0.055,0.7099 -0.1227,1.6787 0,0.12185 -0.01,0.22907 -0.01,0.2383 0.011,0.0199 0.017,0.0153 0.8866,-0.64031 0.674,-0.50859 1.0746,-0.80448 1.1618,-0.85815 l 0.055,-0.0341 0.1019,0.0855 c 0.1167,0.098 0.5932,0.54003 1.303,1.2087 0.2701,0.25454 0.4999,0.46819 0.5104,0.47475 0.013,0.007 0.023,0.004 0.03,-0.0118 z"
             fill="#3897c0"
             stroke-width="3.6558"
             id="path196" />
          <path
             d="m 1991.3,-230.29 c -0.141,0.0847 -0.2039,0.2764 -0.1349,0.42689 0.053,0.16054 0.15,0.3043 0.2736,0.41882 0.138,0.12875 0.2941,0.23592 0.4567,0.331 0.2325,0.14404 0.4786,0.26369 0.721,0.3897 0.6658,0.31321 1.3347,0.61977 2.002,0.92969 0.2708,0.13859 0.5311,0.29643 0.7937,0.44985 0.2285,0.13204 0.4422,0.28742 0.6596,0.43655 0.1454,0.1029 0.2979,0.19647 0.4298,0.31706 0.1372,0.11794 0.2795,0.23119 0.4056,0.36106 0.1183,0.12023 0.2321,0.24473 0.346,0.36907 0.1077,0.13822 0.2108,0.27981 0.3087,0.4251 0.104,0.16194 0.2158,0.3222 0.2792,0.50558 0.066,0.16781 0.1262,0.33841 0.1692,0.51362 0.026,0.15529 0.049,0.31253 0.046,0.47037 0,0.1642 -0.016,0.32872 -0.044,0.49073 -0.042,0.28554 -0.1236,0.56298 -0.1809,0.84544 -0.034,0.15189 -0.054,0.30981 -0.031,0.46478 0.022,0.16723 0.085,0.32816 0.1721,0.47188 0.087,0.14222 0.2187,0.25156 0.3704,0.31885 0.1589,0.0682 0.3329,0.1222 0.5075,0.10282 0.1758,-0.0147 0.3505,-0.0767 0.4836,-0.19475 0.1326,-0.10769 0.2274,-0.25433 0.2967,-0.40898 0.064,-0.13651 0.088,-0.28746 0.1031,-0.43614 0.013,-0.16372 0.027,-0.32856 0.013,-0.49263 -0.016,-0.16781 -0.045,-0.33414 -0.076,-0.49985 -0.03,-0.17797 -0.081,-0.35148 -0.1364,-0.52295 -0.077,-0.24422 -0.1832,-0.47805 -0.2865,-0.71207 -0.079,-0.15802 -0.159,-0.31526 -0.2497,-0.46678 -0.094,-0.16245 -0.2002,-0.31796 -0.3082,-0.47163 -0.1223,-0.16665 -0.2528,-0.32722 -0.3835,-0.48737 -0.1751,-0.19676 -0.3502,-0.39398 -0.5414,-0.57534 -0.1366,-0.13439 -0.2761,-0.26606 -0.4185,-0.39422 -0.2402,-0.20216 -0.4903,-0.39192 -0.7431,-0.57788 -0.1604,-0.11949 -0.3249,-0.2335 -0.4894,-0.34703 -0.2839,-0.18505 -0.5791,-0.35175 -0.872,-0.52196 -0.2198,-0.1224 -0.4386,-0.2466 -0.6631,-0.36006 -0.3978,-0.20429 -0.7997,-0.40037 -1.1993,-0.60112 -0.6338,-0.31619 -1.2676,-0.63238 -1.9014,-0.94856 -0.058,-0.0143 -0.1173,-0.0349 -0.1777,-0.0195 z"
             fill="#6e96a8"
             fill-rule="evenodd"
             id="path198" />
          <path
             d="m 1998.3,-222.19 a 2.5477,2.4771 87.892 0 0 -0.4222,-0.0217 2.5477,2.4771 87.892 0 0 -2.3497,2.1384 l 4.9179,0.50646 a 2.5477,2.4771 87.892 0 0 0,-0.19004 2.5477,2.4771 87.892 0 0 -2.1469,-2.4331 z"
             fill="#ccdae0"
             id="path200" />
        </g>
        <path
           d="m -173.63,259.7 c -0.4015,-0.0876 -0.78972,-0.4216 -0.94516,-0.813 -0.15715,-0.39569 -0.18347,-1.0418 -0.0549,-1.3474 0.12756,-0.30316 0.35293,-0.47503 0.74203,-0.56593 0.69802,-0.16304 5.5569,-0.24782 6.2104,-0.10854 0.39156,0.0835 0.61376,0.24295 0.75053,0.53839 0.13928,0.30085 0.13575,0.94753 -0.007,1.3485 -0.23967,0.67159 -0.97875,1.0347 -1.7605,0.86491 -0.81617,-0.17728 -1.5703,-0.98777 -1.6807,-1.8064 -0.0176,-0.13047 -0.0418,-0.26007 -0.0539,-0.28798 -0.0639,-0.1489 -0.4055,-0.20563 -0.58257,-0.0968 -0.11573,0.0712 -0.12781,0.10177 -0.15724,0.39875 -0.0443,0.4472 -0.2598,0.87821 -0.63517,1.2704 -0.50625,0.52897 -1.1683,0.74831 -1.8256,0.60481 z m 2.8472,-2.4656 c 0.0919,-0.002 0.19193,0.0253 0.28196,0.076 l 0.13959,0.0786 0.0339,-0.0782 c 0.0479,-0.11026 0.22866,-0.2446 0.43408,-0.32262 l 0.17528,-0.0665 -2.1401,0.0378 0.17752,0.0603 c 0.20804,0.0707 0.39342,0.1986 0.44518,0.30711 l 0.0367,0.077 0.13673,-0.0834 c 0.0882,-0.0538 0.18727,-0.0843 0.27909,-0.0859 z"
           fill="#333333"
           id="path204" />
        <path
           d="m -175.2,256.99 0.90895,0.27631 0.3272,0.15998 -1.2507,-0.2327 z"
           fill="#333333"
           fill-rule="evenodd"
           id="path206" />
        <path
           d="m -166.31,256.72 -0.90895,0.27631 -0.3272,0.15998 1.2507,-0.2327 z"
           fill="#333333"
           fill-rule="evenodd"
           id="path208" />
        <path
           d="m -172.65,261.88 c 0,0 0.61975,0.98127 1.9109,0.98127 1.29115,0 2.0658,-1.4977 2.0658,-1.4977"
           fill="none"
           stroke="#f59232"
           stroke-dasharray="0.264583, 0.529167"
           stroke-linecap="round"
           stroke-width="0.26458"
           id="path210" />
      </g>
      <path
         d="m -49.196,131.58 c 0,0 41.996,-0.14793 65.757,0.0202"
         fill="none"
         stroke="#ffffff"
         stroke-opacity="0.25"
         id="path214" />
      <path
         d="m -14.466,290.7 c 0,0 0.14793,-11.778 -0.0202,-35.539 -0.14892,-9.6883 -8.9865,-17.132 -16.039,-17.258 -15.381,-0.3313 -18.126,-0.29934 -18.126,-0.29934"
         fill="none"
         stroke="#ffffff"
         stroke-opacity="0.25"
         id="path216" />
      <path
         d="m -49.014,290.74 c 0,0 0.14793,-52.65 -0.0202,-76.411 -0.14892,-9.6883 -8.5485,-16.508 -15.808,-16.929 -5.6818,-0.16423 -20.136,-0.12076 -20.136,-0.12076"
         fill="none"
         stroke="#ffffff"
         stroke-opacity="0.25"
         id="path218" />
      <rect
         x="-58.144001"
         y="230.03999"
         width="18.382999"
         height="18.382999"
         rx="2"
         ry="2"
         fill="#a066a9"
         stroke="#ffffff"
         stroke-dasharray="0.265, 0.265"
         stroke-linecap="round"
         stroke-opacity="0.078693"
         id="rect220" />
      <g
         transform="matrix(1.1134,0,0,1.1134,59.041,91.115)"
         id="g258">
        <g
           transform="matrix(-0.36604,-0.037696,-0.037696,0.36604,620.96,297)"
           stroke-width="2.7176"
           id="g254">
          <path
             transform="matrix(-0.99474,-0.10244,-0.10244,0.99474,3936,203.5)"
             d="m 1997.1,-257.18 -23.44,0.30289 -1.0289,18.578 24.7,1.046 z"
             fill="#ccdae0"
             fill-rule="evenodd"
             id="path222" />
          <ellipse
             transform="rotate(5.2913)"
             cx="1950.3"
             cy="-424.48001"
             rx="1.7581"
             ry="1.5895"
             fill="#333333"
             id="ellipse224" />
          <ellipse
             transform="rotate(5.2913)"
             cx="1961.2"
             cy="-424.57001"
             rx="1.7465"
             ry="1.5791"
             fill="#333333"
             id="ellipse226" />
          <path
             transform="matrix(-0.99474,-0.10244,-0.10244,0.99474,3936,203.5)"
             d="m 1998.3,-247.22 a 4.3361,4.3005 0.58843 0 1 3.1117,4.1688 4.3361,4.3005 0.58843 0 1 -3.1966,4.1008 z"
             fill="#3897c0"
             id="path228" />
          <path
             transform="matrix(-0.99474,-0.10244,-0.10244,0.99474,3936,203.5)"
             d="m 1972.3,-248.29 a 4.3361,4.3005 0.58843 0 0 -3.1966,4.104 4.3361,4.3005 0.58843 0 0 3.1116,4.1656 z"
             fill="#3897c0"
             id="path230" />
          <path
             transform="matrix(0.26319,0.027104,-0.027104,0.26319,2544.4,-315.02)"
             d="m -2040.6,521.94 -60.814,5.3086 0.1914,40.316 h 65.178 l 0.6875,-0.0488 z"
             fill="#333333"
             fill-rule="evenodd"
             id="path232" />
          <path
             transform="matrix(-0.99474,-0.10244,-0.10244,0.99474,3936,203.5)"
             d="m 1986.2,-268.61 c 0.5204,1.1208 0.078,2.5375 0.178,3.7706 0.051,2.2124 0.015,4.4282 0.032,6.6419 -0.6603,0.1606 -2.0066,0.54872 -2.0596,-0.51046 0.3786,-3.1427 0.7516,-6.3379 1.2778,-9.4298 0.2063,-0.13452 0.3217,-0.41187 0.5718,-0.47221 z"
             fill="#474747"
             fill-rule="evenodd"
             id="path234" />
          <path
             transform="matrix(-0.99474,-0.10244,-0.10244,0.99474,3936,203.5)"
             d="m 1985.4,-259.72 a 7.4299,4.9197 0.58843 0 1 6.2244,2.3308 l -12.504,-0.12842 a 7.4299,4.9197 0.58843 0 1 6.2794,-2.2024 z"
             fill="#acc3ce"
             id="path236" />
          <ellipse
             transform="rotate(5.2913,-233.96,42692)"
             cx="-1983.1"
             cy="-287.54001"
             rx="1.5685"
             ry="1.4181"
             fill="#3897c0"
             id="ellipse238" />
          <path
             transform="matrix(-0.99474,-0.10244,-0.10244,0.99474,3936,203.5)"
             d="m 1991.1,-237.67 -0.094,2.447 -12.197,-1.1078 0.4581,-1.6739 z"
             fill="#6e96a8"
             fill-rule="evenodd"
             id="path240" />
          <path
             transform="matrix(0.26319,0.027104,-0.027104,0.26319,2544.4,-315.02)"
             d="m -2111.3,541.96 c -5.9335,4.2749 -11.603,9.5716 -14.201,16.58 -0.9757,2.73 -1.4989,5.7497 -1.2109,8.6621 h 4.1367 c -0.5267,-1.6491 -0.6862,-3.3862 -0.2051,-5.1133 1.2178,-4.5405 5.1829,-7.4424 8.2032,-10.764 2.0526,-2.2135 4.0649,-4.8808 4.1953,-8.0098 -0.057,-0.51273 -0.2788,-1.3872 -0.916,-1.3555 z"
             fill="#6e96a8"
             fill-rule="evenodd"
             id="path242" />
          <path
             transform="matrix(-0.99474,-0.10244,-0.10244,0.99474,3936,203.5)"
             d="m 1994.1,-232.77 c -0.1936,1.8507 0.1676,7.0674 0.1676,7.0674 0,0 3.2034,0.71535 3.269,-2.1865 0.066,-2.9019 -3.4366,-4.8809 -3.4366,-4.8809 z"
             fill="#333333"
             fill-rule="evenodd"
             id="path244" />
          <path
             transform="matrix(-0.99474,-0.10244,-0.10244,0.99474,3936,203.5)"
             d="m 1986.7,-224.03 c 0.011,-0.0128 0.017,-0.45093 0.028,-0.973 0.01,-0.52207 0.028,-1.1081 0.035,-1.3025 l 0.014,-0.35341 0.4493,-0.0613 c 1.0828,-0.14784 2.1311,-0.29753 2.1397,-0.30556 2e-4,-0.005 8e-4,-0.0196 -0.019,-0.0331 -0.015,-0.0134 -0.1027,-0.0902 -0.194,-0.17059 -0.091,-0.0804 -0.4192,-0.36106 -0.7288,-0.62367 -0.7724,-0.65507 -1.0252,-0.87801 -1.0241,-0.90335 8e-4,-0.0277 0.1827,-0.34613 0.6679,-1.1716 0.3946,-0.67107 0.6118,-1.0545 0.6129,-1.0817 4e-4,-0.01 -0.016,-0.0124 -0.045,-0.008 -0.2065,0.0347 -0.7327,0.13887 -1.5127,0.29964 -0.5077,0.10465 -0.9449,0.19348 -0.9716,0.19739 -0.043,0.006 -0.05,0.003 -0.065,-0.0327 -0.01,-0.0219 -0.2089,-0.53374 -0.4439,-1.1374 -0.235,-0.60371 -0.4418,-1.1344 -0.4595,-1.1794 -0.026,-0.0672 -0.036,-0.0786 -0.051,-0.0644 -0.028,0.0263 -0.2665,0.46663 -0.6003,1.1097 -0.1647,0.31733 -0.3719,0.71219 -0.4602,0.87745 l -0.1607,0.30049 -0.2621,-0.0791 c -0.2338,-0.0705 -1.875,-0.58139 -2.1269,-0.66206 l -0.099,-0.0317 v 0.0279 c 0,0.0463 0.1469,0.39338 0.6043,1.41 l 0.4359,0.96887 -0.6077,0.40916 c -1.2276,0.8265 -1.5525,1.0567 -1.5351,1.0876 0.012,0.0207 0.7249,0.20383 1.8378,0.4719 0.6896,0.16611 0.6382,0.15525 0.6389,0.13483 3e-4,-0.009 -0.042,-0.1156 -0.093,-0.23618 -0.1752,-0.41059 -0.2292,-0.63724 -0.2452,-1.0288 -0.023,-0.55697 0.1502,-1.1281 0.4761,-1.5735 0.3004,-0.41047 0.753,-0.73879 1.2091,-0.87705 0.3097,-0.0939 0.5579,-0.11992 0.9016,-0.0945 0.4486,0.0332 0.8816,0.18407 1.1972,0.41723 0.2356,0.17398 0.5343,0.49353 0.6705,0.71722 0.2924,0.48038 0.4362,1.1256 0.3604,1.6168 -0.1216,0.79072 -0.5387,1.4426 -1.1687,1.8282 -0.1527,0.0935 -0.388,0.19796 -0.4572,0.20299 -0.099,0.007 -0.1103,-0.0145 -0.3234,-0.66054 -0.1074,-0.32578 -0.274,-0.88272 -0.2728,-0.91196 2e-4,-0.007 0.031,-0.0307 0.068,-0.0537 0.3193,-0.1978 0.4838,-0.48211 0.4504,-0.77819 -0.022,-0.18966 -0.1496,-0.41243 -0.2963,-0.51501 -0.26,-0.18175 -0.6505,-0.1613 -0.8747,0.0458 -0.1384,0.12792 -0.2205,0.28705 -0.2389,0.46322 -0.027,0.25763 0.085,0.49444 0.3338,0.70811 l 0.1054,0.0904 -0.013,0.0833 c -0.016,0.12424 -0.3933,1.0615 -0.5348,1.3268 l -0.074,0.13908 -0.052,-0.002 c -0.1673,-0.007 -0.5512,-0.28305 -0.8962,-0.64284 l -0.1884,-0.19649 -0.013,0.0757 c -0.012,0.0414 -0.032,0.30874 -0.055,0.5936 -0.037,0.45576 -0.055,0.7099 -0.1227,1.6787 0,0.12185 -0.01,0.22907 -0.01,0.2383 0.011,0.0199 0.017,0.0153 0.8866,-0.64031 0.674,-0.50859 1.0746,-0.80448 1.1618,-0.85815 l 0.055,-0.0341 0.1019,0.0855 c 0.1167,0.098 0.5932,0.54003 1.303,1.2087 0.2701,0.25454 0.4999,0.46819 0.5104,0.47475 0.013,0.007 0.023,0.004 0.03,-0.0118 z"
             fill="#3897c0"
             stroke-width="3.6558"
             id="path246" />
          <path
             d="m 1996.1,-229.84 c 1.5699,1.1311 3.07,2.5326 3.7575,4.3869 0.3985,1.115 0.5193,2.4139 -0.01,3.5064 -0.3532,0.59983 -1.0387,1.0886 -1.7612,0.97213 -0.2774,-0.2182 -0.011,-0.58957 0.1712,-0.77823 0.6501,-0.73972 1.1592,-1.7599 0.8802,-2.7615 -0.3222,-1.2014 -1.3715,-1.9689 -2.1706,-2.8476 -0.5431,-0.58566 -1.0757,-1.2915 -1.1102,-2.1194 0.015,-0.13566 0.074,-0.36708 0.2426,-0.35868 z"
             fill="#6e96a8"
             fill-rule="evenodd"
             id="path248" />
          <path
             d="m 1994.1,-232.77 c -0.1936,1.8507 0.1676,7.0674 0.1676,7.0674 0,0 3.2034,0.71535 3.269,-2.1865 0.066,-2.9019 -3.4366,-4.8809 -3.4366,-4.8809 z"
             fill="#333333"
             fill-rule="evenodd"
             id="path250" />
          <path
             transform="matrix(0.26319,0.027104,-0.027104,0.26319,2544.4,-315.02)"
             d="m -2017.3,558.35 a 9.6292,9.3621 82.012 0 0 -1.5957,0.082 9.6292,9.3621 82.012 0 0 -8.0059,8.9492 h 18.686 a 9.6292,9.3621 82.012 0 0 -0.07,-0.71484 9.6292,9.3621 82.012 0 0 -9.0137,-8.3164 z"
             fill="#ccdae0"
             id="path252" />
        </g>
        <path
           d="m -99.486,134.75 c -0.4539,-0.0594 -0.87807,-0.26196 -1.0537,-0.50335 -0.0714,-0.0981 -0.11119,-0.18685 -0.20244,-0.45116 -0.0904,-0.26183 -0.14496,-0.45642 -0.20726,-0.73901 -0.054,-0.24461 -0.0779,-0.29913 -0.19541,-0.44488 -0.12651,-0.15689 -0.15068,-0.22437 -0.1506,-0.42061 1e-5,-0.09 0.006,-0.19213 0.0121,-0.22702 l 0.0128,-0.0634 0.17025,-0.0251 c 0.0936,-0.0138 0.32229,-0.0504 0.50812,-0.0813 0.44195,-0.0735 0.64771,-0.0968 0.90555,-0.10268 0.42935,-0.01 1.0777,0.0908 1.773,0.27499 0.83194,0.22041 1.1071,0.22883 2.1785,0.0666 0.99983,-0.15135 1.2992,-0.15704 1.913,-0.0364 0.25727,0.0506 0.38522,0.0828 0.5969,0.15063 0.09984,0.032 0.25309,0.0766 0.34056,0.0993 0.12515,0.0324 0.16664,0.0495 0.19478,0.0803 0.03558,0.0389 0.0357,0.0401 0.02512,0.27569 l -0.01065,0.23661 -0.11399,0.10029 c -0.1011,0.089 -0.11948,0.11309 -0.16256,0.21358 -0.02671,0.0623 -0.0959,0.26676 -0.15374,0.45431 -0.05783,0.18756 -0.1236,0.38597 -0.14614,0.4409 -0.20332,0.49561 -0.59443,0.793 -1.1694,0.88925 -0.17435,0.0292 -0.62012,0.01 -0.79225,-0.0349 -0.75725,-0.19546 -1.1322,-0.6192 -1.3853,-1.5657 -0.05689,-0.21275 -0.11552,-0.33462 -0.18598,-0.38666 -0.04177,-0.0308 -0.06527,-0.0358 -0.19465,-0.0416 -0.23448,-0.0104 -0.22862,-0.0182 -0.42929,0.5654 -0.05221,0.15178 -0.20678,0.42528 -0.34957,0.61843 -0.11958,0.16175 -0.34848,0.38112 -0.48223,0.46215 -0.21556,0.13058 -0.44631,0.19567 -0.74901,0.21126 -0.1564,0.008 -0.3643,0.001 -0.49644,-0.0161 z m 0.62575,-0.27741 c 0.14659,-0.0327 0.21023,-0.0532 0.32291,-0.10379 0.34345,-0.1542 0.54955,-0.37278 0.76609,-0.8125 0.21734,-0.44134 0.27627,-0.68849 0.21772,-0.91308 -0.02274,-0.0872 -0.0384,-0.11318 -0.12428,-0.20702 -0.0755,-0.0824 -0.12612,-0.12219 -0.21812,-0.17128 -0.33562,-0.17913 -0.78204,-0.28192 -1.2286,-0.28293 -0.75357,-0.002 -1.1767,0.0824 -1.3657,0.2716 -0.11274,0.11284 -0.13386,0.17725 -0.1448,0.44165 -0.009,0.22388 -9.6e-4,0.32715 0.0471,0.58662 0.14405,0.77676 0.36037,1.0411 0.96326,1.1769 0.16542,0.0373 0.62246,0.0455 0.76432,0.0138 z m 4.4237,0.20971 c 0.26299,-0.0333 0.41172,-0.0872 0.56783,-0.20575 0.16674,-0.12664 0.27256,-0.29109 0.37949,-0.58981 0.12289,-0.3433 0.18024,-0.60492 0.19292,-0.88001 0.01265,-0.27414 -0.03772,-0.406 -0.20192,-0.52879 -0.21117,-0.15792 -0.72089,-0.27175 -1.3556,-0.30272 -0.32717,-0.0156 -0.42653,-0.009 -0.70644,0.0476 -0.32586,0.0662 -0.52536,0.15013 -0.66686,0.28057 -0.23746,0.21889 -0.23663,0.51918 0.003,1.1291 0.04864,0.12382 0.11717,0.27626 0.15222,0.33873 0.07595,0.1354 0.27928,0.36424 0.39644,0.44622 0.16402,0.11474 0.37416,0.20608 0.57228,0.24877 0.13553,0.0292 0.49453,0.0378 0.66652,0.0161 z"
           fill="#474747"
           id="path256" />
      </g>
      <path
         d="m -48.651,268.05 c 0,0 12.301,-0.24534 36.062,-0.0772 9.6883,0.14892 17.132,8.9865 17.258,16.039 0.3313,15.381 0,0.0461 0,0.0461"
         fill="none"
         stroke="#ffffff"
         stroke-opacity="0.25"
         id="path260" />
    </g>
  </g>
</svg>
