<?xml version="1.0" encoding="UTF-8"?>
<svg width="107.6mm" height="90.543mm" version="1.1" viewBox="0 0 107.6 90.543" xmlns="http://www.w3.org/2000/svg" xmlns:cc="http://creativecommons.org/ns#" xmlns:dc="http://purl.org/dc/elements/1.1/" xmlns:rdf="http://www.w3.org/1999/02/22-rdf-syntax-ns#">
<metadata>
<rdf:RDF>
<cc:Work rdf:about="">
<dc:format>image/svg+xml</dc:format>
<dc:type rdf:resource="http://purl.org/dc/dcmitype/StillImage"/>
<dc:title/>
</cc:Work>
</rdf:RDF>
</metadata>
<g transform="translate(-32.726 -44.665)">
<g transform="translate(-1173 752.82)">
<g transform="translate(512.69 -.18546)">
<path d="m747.23-692.74c-2.8666 0.0331-5.7322 0.22641-8.5749 0.59978-3.7999 0.5006-7.5641 1.3048-11.215 2.4778-1.8362 0.59153-3.6433 1.277-5.3994 2.0765-1.1838 0.542-2.2794 1.2585-3.3177 2.04-2.3214 1.7668-4.2831 3.9783-5.8858 6.4093-1.8174 2.7517-3.185 5.7875-4.1557 8.9353-0.73062 2.3797-1.2293 4.8307-1.478 7.3077-0.32133 3.1797-0.24148 6.4114 0.37158 9.5524 0.45712 2.3426 1.2138 4.6388 2.3665 6.7342 1.1196 2.0516 2.63 3.9052 4.4921 5.3266 1.8891 1.4552 4.1226 2.4395 6.4509 2.9349 0.97198 0.20781 1.9491 0.39092 2.9229 0.59011 3.1096 0.61865 6.22 1.2343 9.3416 1.7897 3.1878 0.56724 6.3878 1.0699 9.601 1.4704 3.3627 0.419 6.741 0.72649 10.128 0.85198 2.094 0.0731 4.1909 0.0809 6.2843-0.0141 2.4773-0.10079 4.9491-0.36105 7.3888-0.80538 2.011-0.3761 3.9996-0.88664 5.9254-1.5802 2.1937-0.79384 4.3066-1.8278 6.2352-3.1447 1.2531-0.85462 2.4283-1.8242 3.4952-2.9028 1.6925-1.6966 3.1087-3.6593 4.2459-5.7664 1.0093-1.8603 1.7965-3.8351 2.4242-5.8544 0.67935-2.511 1.2749-4.697 1.5605-7.0303 0.0119-0.42063-0.10019-0.83083-0.14496-1.2467-0.34634-2.2475-0.84106-4.4757-1.5508-6.6376-0.79724-2.4555-1.8532-4.8304-3.1879-7.0418-0.8469-1.4053-1.8097-2.7407-2.8704-3.9924-1.0768-1.2662-2.258-2.4437-3.5277-3.5164-2.2007-1.8712-4.6615-3.4257-7.257-4.6882-2.3761-1.1541-4.8681-2.061-7.4121-2.7673-1.8488-0.51414-3.7273-0.91843-5.6197-1.2344-1.7883-0.29563-3.5891-0.51606-5.3965-0.65382-2.076-0.16378-4.1588-0.23151-6.241-0.21983z" fill="#a3d1e4" fill-rule="evenodd"/>
<ellipse cx="775.13" cy="-630.86" rx="21.538" ry="2.5646" opacity=".1"/>
</g>
<path d="m1216.2-686.61 23.411 1.2061 0.3121 18.604-24.722 0.0933z" fill="#ccdae0" fill-rule="evenodd"/>
<rect transform="rotate(23.405)" x="866.25" y="-1084.5" width="1.7242" height="15.517" fill="#6e96a8"/>
<rect transform="matrix(-.91772 .39722 .39722 .91772 0 0)" x="-1389.2" y="-107.44" width="1.7242" height="15.517" fill="#6e96a8"/>
<path d="m1219-662.95 16.112-0.7836 1.2997 17.113-17.979 0.42356z" fill="#ccdae0" fill-rule="evenodd"/>
<ellipse transform="matrix(.99536 -.096245 .081733 .99665 0 0)" cx="1277.3" cy="-510.67" rx="18.955" ry="2.4476" opacity=".1"/>
<path d="m1220.3-640.23c-4.5715 0.23932-7.9655 4.324-7.8008 8.2348 0.1278 0.52889 0.4597 0.94626 0.9027 1.249l11.955-0.37827c1.7604-1.6822 1.734-4.5061 0.3694-6.4056-1.2463-1.5442-3.2463-2.6886-5.426-2.6999z" fill="#ccdae0" fill-rule="evenodd"/>
<ellipse transform="rotate(1.6204)" cx="1201.3" cy="-707.19" rx="1.7581" ry="1.5895" fill="#333"/>
<ellipse transform="rotate(1.6204)" cx="1214.8" cy="-707.25" rx="1.7465" ry="1.5791" fill="#333"/>
<path d="m1238.1-641.22c-2.1795 0.0192-4.1844 0.99656-5.4371 2.3086-1.4123 1.6599-1.4124 4.1421 0.4986 5.539 0.1029 0.0492 0.2073 0.0942 0.3122 0.13762l11.555-0.038c0.4072-0.25381 0.713-0.59177 0.8356-1.0145 0.1814-3.3096-3.1948-6.7506-7.7647-6.9327z" fill="#ccdae0" fill-rule="evenodd"/>
<path d="m1237.7-657.63c2.8602 1.3509 6.6302 2.332 9.3779 0.21548 1.0118-0.74631-0.1618-3.2069-0.7609-1.2308-1.7325 2.5262-4.9652 1.2093-7.1831 0.28393-0.5693-0.0898-1.2324 0.14384-1.4339 0.73137z" fill="#6e96a8" fill-rule="evenodd"/>
<path d="m1235.9-663.41 0.5065 7.7452s2.7544 0.36773 3.3809-2.2096c0.6264-2.5773-3.8874-5.5356-3.8874-5.5356z" fill="#333" fill-rule="evenodd"/>
<path d="m1216.2-659.24c-1.6124 1.0697-3.1654 2.4124-3.9238 4.2388-0.4412 1.0988-0.612 2.3921-0.1257 3.5041 0.3299 0.613 0.996 1.1278 1.7225 1.0393 0.2856-0.20735 0.034-0.5887-0.1411-0.78425-0.6211-0.76423-1.0905-1.8033-0.7731-2.7934 0.3682-1.188 1.4463-1.9146 2.2787-2.7619 0.5653-0.5643 1.1247-1.2491 1.1911-2.075-0.01-0.13615-0.06-0.36967-0.2286-0.36776z" fill="#6e96a8" fill-rule="evenodd"/>
<path d="m1218-662.22c0.2673 1.8415 0.1144 7.0685 0.1144 7.0685s-3.1724 0.84253-3.3536-2.0544c-0.1812-2.897 3.2392-5.014 3.2392-5.014z" fill="#333" fill-rule="evenodd"/>
<path d="m1214.6-676.69a4.3361 4.3005 1.6204 0 0-3.27 4.0458 4.3361 4.3005 1.6204 0 0 3.0361 4.2209z" fill="#3897c0"/>
<path d="m1240.7-676.76a4.3361 4.3005 1.6204 0 1 3.0361 4.2241 4.3361 4.3005 1.6204 0 1-3.2699 4.0425z" fill="#3897c0"/>
<path d="m1235.1-663.81-16.133 0.78305-0.4024 11.885 17.456-0.56491z" fill="#333" fill-rule="evenodd"/>
<path d="m1227.5-697.6c-0.5632 1.0999-0.1757 2.5326-0.3232 3.761-0.1366 2.2088-0.1855 4.4243-0.288 6.6357 0.6536 0.18593 1.984 0.62565 2.0778-0.4307-0.2572-3.155-0.5068-6.3621-0.9134-9.4721-0.201-0.14237-0.3056-0.42396-0.5532-0.49389z" fill="#474747" fill-rule="evenodd"/>
<path d="m1228-688.69a7.4299 4.9197 1.6204 0 0-6.3096 2.0892l12.5 0.35358a7.4299 4.9197 1.6204 0 0-6.1899-2.4427z" fill="#acc3ce"/>
<ellipse transform="rotate(1.6204)" cx="1207.7" cy="-732.76" rx="1.5685" ry="1.4181" fill="#3897c0"/>
<path d="m1221.5-666.75 0.044 2.4484 12.215-0.87989-0.4268-1.6822z" fill="#6e96a8" fill-rule="evenodd"/>
<ellipse transform="rotate(4.3167)" cx="1161.5" cy="-739.23" rx="2.4771" ry="2.5477" fill="#ccdae0"/>
<ellipse transform="rotate(1.6204)" cx="1229.3" cy="-694.23" rx="2.4771" ry="2.5477" fill="#ccdae0"/>
<path d="m1225.3-653.08c-0.01-0.0132 0-0.45127 0.01-0.97334s0.015-1.1084 0.015-1.3029l-6e-4 -0.3537-0.4466-0.0786c-1.0763-0.18946-2.1181-0.37944-2.1264-0.3878 0-5e-3 0-0.0196 0.02-0.0324 0.016-0.0128 0.1061-0.0862 0.2004-0.16299 0.094-0.0768 0.4328-0.34463 0.7523-0.59512 0.7971-0.62481 1.0583-0.83784 1.0582-0.8632 3e-4 -0.0277-0.1692-0.35292-0.6223-1.1964-0.3684-0.68577-0.5707-1.0773-0.5707-1.1046 0-0.01 0.016-0.0118 0.045-6e-3 0.2051 0.0426 0.7269 0.16701 1.5001 0.35772 0.5033 0.12414 0.9367 0.22975 0.9632 0.23469 0.043 8e-3 0.05 5e-3 0.066-0.0302 0.01-0.0215 0.2293-0.5253 0.4874-1.1195 0.2581-0.5942 0.4852-1.1166 0.5046-1.1608 0.029-0.0661 0.039-0.0772 0.053-0.0624 0.027 0.0274 0.2483 0.47656 0.5571 1.132 0.1524 0.32345 0.3442 0.726 0.4261 0.89454l0.149 0.30646 0.2649-0.0689c0.2363-0.0614 1.896-0.50869 2.1508-0.5796l0.1003-0.0279 3e-4 0.0279c-2e-4 0.0463-0.1619 0.38743-0.6582 1.3856l-0.4729 0.95135 0.5915 0.43228c1.1948 0.8732 1.5106 1.1158 1.492 1.146-0.013 0.0202-0.7322 0.17574-1.8546 0.40072-0.6955 0.1394-0.6437 0.13053-0.6436 0.1101 0-9e-3 0.046-0.11391 0.102-0.23242 0.1909-0.40353 0.2536-0.62793 0.2847-1.0186 0.044-0.55569-0.1066-1.133-0.4151-1.5907-0.2844-0.42175-0.724-0.76727-1.1744-0.923-0.3059-0.10578-0.5529-0.14134-0.8973-0.12917-0.4496 0.0159-0.888 0.14996-1.2124 0.37078-0.2421 0.16477-0.5529 0.47257-0.6976 0.69084-0.3107 0.46876-0.4793 1.1079-0.4225 1.6017 0.091 0.79482 0.4827 1.4623 1.0974 1.8719 0.149 0.0993 0.3801 0.21276 0.449 0.22046 0.099 0.0111 0.1108-0.0102 0.3486-0.64759 0.1199-0.3214 0.3079-0.8715 0.3078-0.90077 1e-4 -7e-3 -0.03-0.0319-0.066-0.0563-0.3114-0.20996-0.4649-0.5004-0.4201-0.79497 0.029-0.18869 0.1654-0.40636 0.316-0.50321 0.2668-0.17159 0.6562-0.13611 0.8722 0.0795 0.1334 0.13316 0.2093 0.29533 0.2209 0.47208 0.017 0.25848-0.1036 0.49081-0.3608 0.69472l-0.1088 0.0863 0.01 0.0837c0.011 0.12476 0.3521 1.0758 0.4833 1.3464l0.069 0.14184 0.052-2.3e-4c0.1675-1e-3 0.5617-0.2616 0.9204-0.60782l0.1958-0.18909 0.01 0.0761c0.01 0.0418 0.02 0.30975 0.032 0.59528 0.02 0.45687 0.028 0.71151 0.058 1.6822v0.23847c-0.012 0.0195-0.018 0.0146-0.8613-0.674-0.6539-0.53419-1.0428-0.8453-1.1279-0.90229l-0.054-0.0362-0.1051 0.0815c-0.1204 0.0934-0.6136 0.51676-1.3486 1.1576-0.2798 0.24394-0.5176 0.44858-0.5284 0.45472-0.013 7e-3 -0.023 3e-3 -0.029-0.0129z" fill="#3897c0" stroke-width="1.3453"/>
<g transform="matrix(.62928 0 0 .62928 349.65 -243.46)" stroke-width="1.5891">
<path d="m1485-658.76c-0.01 14.063-0.014 28.126-0.022 42.189l11.322-0.48828c-0.021-13.915-0.042-27.831-0.062-41.746-3.7461 0.015-7.4922 0.0299-11.238 0.0449z" fill="#8dbd63"/>
<path d="m1468.7-690.28c-0.058 0.15205-0.2494 0.0998-0.3704 0.0745-1.3154-0.13893-2.6577-0.17692-3.9599 0.092-1.727 0.30262-3.3928 0.94468-4.8798 1.8731-1.8558 1.1648-3.4306 2.7784-4.5307 4.6746-1.0528 1.797-1.6775 3.8381-1.8329 5.9139-0.019 0.21963-0.038 0.43927-0.057 0.65891-0.068 0.0719-0.2316 0.017-0.2461 0.14257v24.703c24.106-0.34766 48.211-0.69531 72.316-1.043 0.1048-7.3398 0.2097-14.68 0.3145-22.02-0.1133-1.3044-0.2829-2.6222-0.7576-3.851-0.7081-1.9734-1.9333-3.7441-3.4631-5.1705-1.511-1.3974-3.3345-2.4473-5.29-3.0836-0.4318-0.15352-0.8806-0.2507-1.3174-0.38713-0.1115-0.0628-0.076-0.19966-0.074-0.30273 0-0.0946-0.089-0.15997-0.1802-0.14513-0.5304-0.0399-1.0626-0.0433-1.5936-0.0736-3.628-0.15682-7.2558-0.31862-10.882-0.50678-6.0318-0.31474-12.062-0.66309-18.095-0.9474-5.034-0.23133-10.069-0.43778-15.104-0.64935 0 0.0156 0.01 0.0312 0.01 0.0469z" fill="#8dbd63"/>
<path d="m1468.1-685.83c-2.8321 0.0768-5.6095 1.3546-7.5124 3.4534-1.6106 1.7603-2.6214 4.0723-2.7625 6.4586-0.072 1.0916-0.019 2.1859-0.034 3.2788v17.788c7.1035-0.0163 14.207-0.0326 21.31-0.0488v-18.943c0-0.54264 0.01-1.0859-0.01-1.6282-0.096-1.2584-0.312-2.5243-0.8217-3.6865-0.9026-2.1708-2.5169-4.0508-4.5606-5.2216-1.1845-0.68252-2.4954-1.147-3.8494-1.3416-0.5834-0.082-1.1735-0.12389-1.7627-0.10856z" fill="#7faa59"/>
<path d="m1485-652.34c0 1.0625-0.01 2.125-0.01 3.1875 3.683-0.12435 7.3659-0.2487 11.049-0.37305 0-1.0273 0-2.0547 0.01-3.082-3.6816 0.0892-7.3633 0.17839-11.045 0.26758z" fill="#7faa59"/>
</g>
<g transform="matrix(.90474 0 0 .90474 118.72 -64.069)" stroke-width="1.1053">
<path d="m1270.2-672.54c-4.2808 0.17438-8.5619 0.341-12.841 0.55329-1.2959 0.0632-2.5919 0.12573-3.8875 0.19377-0.8504 0.10106-1.6404 0.55269-2.2021 1.1929-0.3795 0.42869-0.6607 0.94436-0.8071 1.4985-0.1268 0.46849-0.1528 0.95589-0.2011 1.4368-0.116 1.3107-0.2345 2.6212-0.3265 3.9338-0.093 1.3763-0.1854 2.7528-0.254 4.1305-0.01 0.54456 0.1197 1.096 0.4019 1.5648 0.4348 0.75447 1.2024 1.3062 2.0546 1.4824 0.3425 0.0711 0.6934 0.0794 1.0419 0.0695 5.8566-0.0175 11.713-0.0369 17.57-0.0583 0.8518-0.0574 1.6924-0.41633 2.2828-1.0399 0.5673-0.59328 0.8874-1.4101 0.8895-2.2298-0.01-0.7044-0.022-1.4089-0.032-2.1133-0.026-1.6738-0.045-3.3477-0.054-5.0216 0-0.83147 5e-4 -1.6631-0.015-2.4945-0.01-0.42398-0.1359-0.83954-0.3183-1.2202-0.2453-0.49581-0.6151-0.92971-1.071-1.2439-0.6467-0.44969-1.4456-0.66881-2.231-0.63491z" fill="#fbd58a"/>
<path d="m1261.2-663.65c-3.2623-2.4395-6.5247-4.8789-9.7871-7.3184-0.3406 0.33289-0.6376 0.7184-0.83 1.1562-0.062 0.0548-0.031 0.15986 0.042 0.18696 3.4559 2.715 6.9118 5.43 10.368 8.1451 3.9518-3.4271 7.9037-6.8542 11.856-10.281-0.3186-0.25558-0.6356-0.55204-1.0474-0.64124-0.2684-0.0614-0.5414-0.10039-0.814-0.13806-3.2623 2.9635-6.5247 5.9271-9.7871 8.8906z" fill="#f9c526" fill-rule="evenodd"/>
<path d="m1250.1-657.62c0.1666 0.27447 0.3422 0.57959 0.6513 0.71195 0.1552 0.0736 0.3146 0.13753 0.4737 0.20212 2.666-2.3132 5.332-4.6263 7.998-6.9395-0.3802-0.23502-0.7604-0.47005-1.1406-0.70508l-7.9824 6.7305z" fill="#f9c526" fill-rule="evenodd"/>
<path d="m1263.3-663.84c2.9564 2.3301 5.9127 4.6602 8.8691 6.9902 0.3182-0.12816 0.6732-0.23819 0.8926-0.51953 0.1013-0.13967 0.1933-0.28567 0.2851-0.43164-2.9335-2.2754-5.8671-4.5508-8.8007-6.8262-0.4154 0.26237-0.8308 0.52474-1.2461 0.78711z" fill="#f9c526" fill-rule="evenodd"/>
</g>
<rect x="1294.7" y="-688.08" width="2.0319" height="17.271" rx="1.016" ry="1.016" fill="#fbd58a"/>
<circle cx="1295.6" cy="-670.61" r="2.6415" fill="#f9c526"/>
<path transform="scale(.26458)" d="m4897.4-2600.6c-2.1273 0-3.8398 1.7126-3.8398 3.8398v19.967c0 2.1273 1.7125 3.8399 3.8398 3.8399h36.094c2.1272 0 3.8398-1.7126 3.8398-3.8399v-1.455l-5.75-6.0996c-1.4591-1.5481-1.3859-3.9687 0.1621-5.4278l5.5879-5.2676v-1.7168c0-2.1272-1.7126-3.8398-3.8398-3.8398z" fill="#dd4814"/>
<ellipse transform="matrix(-.9996 -.028277 -.028277 .9996 0 0)" cx="-1230.4" cy="-696.13" rx="1.3691" ry="1.1182" fill="#ccdae0"/>
</g>
</g>
</svg>
