<?xml version="1.0" encoding="UTF-8" standalone="no"?>
<!-- Created with Inkscape (http://www.inkscape.org/) -->

<svg
   width="200.77478mm"
   height="2.3590775mm"
   viewBox="0 0 200.77478 2.3590775"
   version="1.1"
   id="svg9188"
   inkscape:version="1.2.1 (bb430fac43, 2022-11-05, custom)"
   sodipodi:docname="divider-slash.svg"
   xmlns:inkscape="http://www.inkscape.org/namespaces/inkscape"
   xmlns:sodipodi="http://sodipodi.sourceforge.net/DTD/sodipodi-0.dtd"
   xmlns="http://www.w3.org/2000/svg"
   xmlns:svg="http://www.w3.org/2000/svg">
  <sodipodi:namedview
     id="namedview9190"
     pagecolor="#ffffff"
     bordercolor="#666666"
     borderopacity="1.0"
     inkscape:showpageshadow="2"
     inkscape:pageopacity="0.0"
     inkscape:pagecheckerboard="0"
     inkscape:deskcolor="#d1d1d1"
     inkscape:document-units="mm"
     showgrid="false"
     inkscape:zoom="1.0444209"
     inkscape:cx="372.4552"
     inkscape:cy="135.00304"
     inkscape:window-width="1920"
     inkscape:window-height="1016"
     inkscape:window-x="0"
     inkscape:window-y="27"
     inkscape:window-maximized="1"
     inkscape:current-layer="g90242-7-6-8-7-0-2-2" />
  <defs
     id="defs9185" />
  <g
     inkscape:label="Layer 1"
     inkscape:groupmode="layer"
     id="layer1"
     transform="translate(-22.639191,-31.830765)">
    <g
       id="g90242-7-6-8-7-0-2-2"
       transform="matrix(0.20889555,0,0,0.20593872,-89.530686,77.367628)">
      <g
         aria-label="///////////////////////////////////////////////////////////////////////"
         transform="translate(-301.33018,-398.3178)"
         id="text223603-8-3-1-1-3-7-9-8-8-9-7-7-0-1-8-0-8-8-2"
         style="font-size:12.7564px;line-height:0.85;letter-spacing:6px;white-space:pre;inline-size:984.637;display:inline;fill:#cccccc;stroke-width:1.89505">
        <path
           d="m 839.21497,188.65453 4.43923,-11.45524 h -0.91846 l -4.43923,11.45524 z"
           style="font-family:'IBM Plex Mono';-inkscape-font-specification:'IBM Plex Mono'"
           id="path9701" />
        <path
           d="m 852.86879,188.65453 4.43923,-11.45524 h -0.91846 l -4.43923,11.45524 z"
           style="font-family:'IBM Plex Mono';-inkscape-font-specification:'IBM Plex Mono'"
           id="path9703" />
        <path
           d="m 866.52261,188.65453 4.43923,-11.45524 h -0.91846 l -4.43923,11.45524 z"
           style="font-family:'IBM Plex Mono';-inkscape-font-specification:'IBM Plex Mono'"
           id="path9705" />
        <path
           d="m 880.17643,188.65453 4.43923,-11.45524 h -0.91846 l -4.43923,11.45524 z"
           style="font-family:'IBM Plex Mono';-inkscape-font-specification:'IBM Plex Mono'"
           id="path9707" />
        <path
           d="m 893.83025,188.65453 4.43923,-11.45524 h -0.91846 l -4.43923,11.45524 z"
           style="font-family:'IBM Plex Mono';-inkscape-font-specification:'IBM Plex Mono'"
           id="path9709" />
        <path
           d="m 907.48408,188.65453 4.43923,-11.45524 h -0.91847 l -4.43922,11.45524 z"
           style="font-family:'IBM Plex Mono';-inkscape-font-specification:'IBM Plex Mono'"
           id="path9711" />
        <path
           d="m 921.13789,188.65453 4.43923,-11.45524 h -0.91846 l -4.43923,11.45524 z"
           style="font-family:'IBM Plex Mono';-inkscape-font-specification:'IBM Plex Mono'"
           id="path9713" />
        <path
           d="m 934.79172,188.65453 4.43923,-11.45524 h -0.91847 l -4.43922,11.45524 z"
           style="font-family:'IBM Plex Mono';-inkscape-font-specification:'IBM Plex Mono'"
           id="path9715" />
        <path
           d="m 948.44553,188.65453 4.43923,-11.45524 h -0.91846 l -4.43923,11.45524 z"
           style="font-family:'IBM Plex Mono';-inkscape-font-specification:'IBM Plex Mono'"
           id="path9717" />
        <path
           d="m 962.09936,188.65453 4.43923,-11.45524 h -0.91847 l -4.43922,11.45524 z"
           style="font-family:'IBM Plex Mono';-inkscape-font-specification:'IBM Plex Mono'"
           id="path9719" />
        <path
           d="m 975.75318,188.65453 4.43923,-11.45524 h -0.91846 l -4.43923,11.45524 z"
           style="font-family:'IBM Plex Mono';-inkscape-font-specification:'IBM Plex Mono'"
           id="path9721" />
        <path
           d="m 989.40701,188.65453 4.43922,-11.45524 h -0.91846 l -4.43922,11.45524 z"
           style="font-family:'IBM Plex Mono';-inkscape-font-specification:'IBM Plex Mono'"
           id="path9723" />
        <path
           d="m 1003.0608,188.65453 4.4392,-11.45524 h -0.9184 l -4.4392,11.45524 z"
           style="font-family:'IBM Plex Mono';-inkscape-font-specification:'IBM Plex Mono'"
           id="path9725" />
        <path
           d="m 1016.7146,188.65453 4.4393,-11.45524 h -0.9185 l -4.4392,11.45524 z"
           style="font-family:'IBM Plex Mono';-inkscape-font-specification:'IBM Plex Mono'"
           id="path9727" />
        <path
           d="m 1030.3685,188.65453 4.4392,-11.45524 h -0.9185 l -4.4392,11.45524 z"
           style="font-family:'IBM Plex Mono';-inkscape-font-specification:'IBM Plex Mono'"
           id="path9729" />
        <path
           d="m 1044.0223,188.65453 4.4392,-11.45524 h -0.9184 l -4.4393,11.45524 z"
           style="font-family:'IBM Plex Mono';-inkscape-font-specification:'IBM Plex Mono'"
           id="path9731" />
        <path
           d="m 1057.6761,188.65453 4.4392,-11.45524 h -0.9184 l -4.4393,11.45524 z"
           style="font-family:'IBM Plex Mono';-inkscape-font-specification:'IBM Plex Mono'"
           id="path9733" />
        <path
           d="m 1071.3299,188.65453 4.4392,-11.45524 h -0.9184 l -4.4392,11.45524 z"
           style="font-family:'IBM Plex Mono';-inkscape-font-specification:'IBM Plex Mono'"
           id="path9735" />
        <path
           d="m 1084.9837,188.65453 4.4393,-11.45524 h -0.9185 l -4.4392,11.45524 z"
           style="font-family:'IBM Plex Mono';-inkscape-font-specification:'IBM Plex Mono'"
           id="path9737" />
        <path
           d="m 1098.6376,188.65453 4.4392,-11.45524 h -0.9185 l -4.4392,11.45524 z"
           style="font-family:'IBM Plex Mono';-inkscape-font-specification:'IBM Plex Mono'"
           id="path9739" />
        <path
           d="m 1112.2914,188.65453 4.4392,-11.45524 h -0.9184 l -4.4393,11.45524 z"
           style="font-family:'IBM Plex Mono';-inkscape-font-specification:'IBM Plex Mono'"
           id="path9741" />
        <path
           d="m 1125.9452,188.65453 4.4392,-11.45524 h -0.9184 l -4.4393,11.45524 z"
           style="font-family:'IBM Plex Mono';-inkscape-font-specification:'IBM Plex Mono'"
           id="path9743" />
        <path
           d="m 1139.599,188.65453 4.4393,-11.45524 h -0.9185 l -4.4392,11.45524 z"
           style="font-family:'IBM Plex Mono';-inkscape-font-specification:'IBM Plex Mono'"
           id="path9745" />
        <path
           d="m 1153.2528,188.65453 4.4393,-11.45524 h -0.9185 l -4.4392,11.45524 z"
           style="font-family:'IBM Plex Mono';-inkscape-font-specification:'IBM Plex Mono'"
           id="path9747" />
        <path
           d="m 1166.9067,188.65453 4.4392,-11.45524 h -0.9185 l -4.4392,11.45524 z"
           style="font-family:'IBM Plex Mono';-inkscape-font-specification:'IBM Plex Mono'"
           id="path9749" />
        <path
           d="m 1180.5605,188.65453 4.4392,-11.45524 h -0.9184 l -4.4393,11.45524 z"
           style="font-family:'IBM Plex Mono';-inkscape-font-specification:'IBM Plex Mono'"
           id="path9751" />
        <path
           d="m 1194.2143,188.65453 4.4392,-11.45524 h -0.9184 l -4.4393,11.45524 z"
           style="font-family:'IBM Plex Mono';-inkscape-font-specification:'IBM Plex Mono'"
           id="path9753" />
        <path
           d="m 1207.8681,188.65453 4.4393,-11.45524 h -0.9185 l -4.4392,11.45524 z"
           style="font-family:'IBM Plex Mono';-inkscape-font-specification:'IBM Plex Mono'"
           id="path9755" />
        <path
           d="m 1221.522,188.65453 4.4392,-11.45524 h -0.9185 l -4.4392,11.45524 z"
           style="font-family:'IBM Plex Mono';-inkscape-font-specification:'IBM Plex Mono'"
           id="path9757" />
        <path
           d="m 1235.1758,188.65453 4.4392,-11.45524 h -0.9185 l -4.4392,11.45524 z"
           style="font-family:'IBM Plex Mono';-inkscape-font-specification:'IBM Plex Mono'"
           id="path9759" />
        <path
           d="m 1248.8296,188.65453 4.4392,-11.45524 h -0.9184 l -4.4393,11.45524 z"
           style="font-family:'IBM Plex Mono';-inkscape-font-specification:'IBM Plex Mono'"
           id="path9761" />
        <path
           d="m 1262.4834,188.65453 4.4392,-11.45524 h -0.9184 l -4.4393,11.45524 z"
           style="font-family:'IBM Plex Mono';-inkscape-font-specification:'IBM Plex Mono'"
           id="path9763" />
        <path
           d="m 1276.1372,188.65453 4.4392,-11.45524 h -0.9184 l -4.4392,11.45524 z"
           style="font-family:'IBM Plex Mono';-inkscape-font-specification:'IBM Plex Mono'"
           id="path9765" />
        <path
           d="m 1289.7911,188.65453 4.4392,-11.45524 h -0.9185 l -4.4392,11.45524 z"
           style="font-family:'IBM Plex Mono';-inkscape-font-specification:'IBM Plex Mono'"
           id="path9767" />
        <path
           d="m 1303.4449,188.65453 4.4392,-11.45524 h -0.9185 l -4.4392,11.45524 z"
           style="font-family:'IBM Plex Mono';-inkscape-font-specification:'IBM Plex Mono'"
           id="path9769" />
        <path
           d="m 1317.0987,188.65453 4.4392,-11.45524 h -0.9184 l -4.4393,11.45524 z"
           style="font-family:'IBM Plex Mono';-inkscape-font-specification:'IBM Plex Mono'"
           id="path9771" />
        <path
           d="m 1330.7525,188.65453 4.4392,-11.45524 h -0.9184 l -4.4392,11.45524 z"
           style="font-family:'IBM Plex Mono';-inkscape-font-specification:'IBM Plex Mono'"
           id="path9773" />
        <path
           d="m 1344.4063,188.65453 4.4392,-11.45524 h -0.9184 l -4.4392,11.45524 z"
           style="font-family:'IBM Plex Mono';-inkscape-font-specification:'IBM Plex Mono'"
           id="path9775" />
        <path
           d="m 1358.0601,188.65453 4.4393,-11.45524 h -0.9185 l -4.4392,11.45524 z"
           style="font-family:'IBM Plex Mono';-inkscape-font-specification:'IBM Plex Mono'"
           id="path9777" />
        <path
           d="m 1371.714,188.65453 4.4392,-11.45524 h -0.9184 l -4.4393,11.45524 z"
           style="font-family:'IBM Plex Mono';-inkscape-font-specification:'IBM Plex Mono'"
           id="path9779" />
        <path
           d="m 1385.3678,188.65453 4.4392,-11.45524 h -0.9184 l -4.4393,11.45524 z"
           style="font-family:'IBM Plex Mono';-inkscape-font-specification:'IBM Plex Mono'"
           id="path9781" />
        <path
           d="m 1399.0216,188.65453 4.4392,-11.45524 h -0.9184 l -4.4392,11.45524 z"
           style="font-family:'IBM Plex Mono';-inkscape-font-specification:'IBM Plex Mono'"
           id="path9783" />
        <path
           d="m 1412.6754,188.65453 4.4393,-11.45524 h -0.9185 l -4.4392,11.45524 z"
           style="font-family:'IBM Plex Mono';-inkscape-font-specification:'IBM Plex Mono'"
           id="path9785" />
        <path
           d="m 1426.3292,188.65453 4.4393,-11.45524 h -0.9185 l -4.4392,11.45524 z"
           style="font-family:'IBM Plex Mono';-inkscape-font-specification:'IBM Plex Mono'"
           id="path9787" />
        <path
           d="m 1439.9831,188.65453 4.4392,-11.45524 h -0.9184 l -4.4393,11.45524 z"
           style="font-family:'IBM Plex Mono';-inkscape-font-specification:'IBM Plex Mono'"
           id="path9789" />
        <path
           d="m 1453.6369,188.65453 4.4392,-11.45524 h -0.9184 l -4.4393,11.45524 z"
           style="font-family:'IBM Plex Mono';-inkscape-font-specification:'IBM Plex Mono'"
           id="path9791" />
        <path
           d="m 1467.2907,188.65453 4.4392,-11.45524 h -0.9184 l -4.4392,11.45524 z"
           style="font-family:'IBM Plex Mono';-inkscape-font-specification:'IBM Plex Mono'"
           id="path9793" />
        <path
           d="m 1480.9445,188.65453 4.4393,-11.45524 h -0.9185 l -4.4392,11.45524 z"
           style="font-family:'IBM Plex Mono';-inkscape-font-specification:'IBM Plex Mono'"
           id="path9795" />
        <path
           d="m 1494.5983,188.65453 4.4393,-11.45524 h -0.9185 l -4.4392,11.45524 z"
           style="font-family:'IBM Plex Mono';-inkscape-font-specification:'IBM Plex Mono'"
           id="path9797" />
        <path
           d="m 1508.2522,188.65453 4.4392,-11.45524 h -0.9184 l -4.4393,11.45524 z"
           style="font-family:'IBM Plex Mono';-inkscape-font-specification:'IBM Plex Mono'"
           id="path9799" />
        <path
           d="m 1521.906,188.65453 4.4392,-11.45524 h -0.9184 l -4.4392,11.45524 z"
           style="font-family:'IBM Plex Mono';-inkscape-font-specification:'IBM Plex Mono'"
           id="path9801" />
        <path
           d="m 1535.5598,188.65453 4.4393,-11.45524 h -0.9185 l -4.4392,11.45524 z"
           style="font-family:'IBM Plex Mono';-inkscape-font-specification:'IBM Plex Mono'"
           id="path9803" />
        <path
           d="m 1549.2136,188.65453 4.4393,-11.45524 h -0.9185 l -4.4392,11.45524 z"
           style="font-family:'IBM Plex Mono';-inkscape-font-specification:'IBM Plex Mono'"
           id="path9805" />
        <path
           d="m 1562.8674,188.65453 4.4393,-11.45524 h -0.9185 l -4.4392,11.45524 z"
           style="font-family:'IBM Plex Mono';-inkscape-font-specification:'IBM Plex Mono'"
           id="path9807" />
        <path
           d="m 1576.5213,188.65453 4.4392,-11.45524 h -0.9184 l -4.4393,11.45524 z"
           style="font-family:'IBM Plex Mono';-inkscape-font-specification:'IBM Plex Mono'"
           id="path9809" />
        <path
           d="m 1590.1751,188.65453 4.4392,-11.45524 h -0.9184 l -4.4392,11.45524 z"
           style="font-family:'IBM Plex Mono';-inkscape-font-specification:'IBM Plex Mono'"
           id="path9811" />
        <path
           d="m 1603.8289,188.65453 4.4393,-11.45524 h -0.9185 l -4.4392,11.45524 z"
           style="font-family:'IBM Plex Mono';-inkscape-font-specification:'IBM Plex Mono'"
           id="path9813" />
        <path
           d="m 1617.4827,188.65453 4.4393,-11.45524 h -0.9185 l -4.4392,11.45524 z"
           style="font-family:'IBM Plex Mono';-inkscape-font-specification:'IBM Plex Mono'"
           id="path9815" />
        <path
           d="m 1631.1365,188.65453 4.4393,-11.45524 h -0.9185 l -4.4392,11.45524 z"
           style="font-family:'IBM Plex Mono';-inkscape-font-specification:'IBM Plex Mono'"
           id="path9817" />
        <path
           d="m 1644.7904,188.65453 4.4392,-11.45524 h -0.9184 l -4.4392,11.45524 z"
           style="font-family:'IBM Plex Mono';-inkscape-font-specification:'IBM Plex Mono'"
           id="path9819" />
        <path
           d="m 1658.4442,188.65453 4.4392,-11.45524 h -0.9184 l -4.4392,11.45524 z"
           style="font-family:'IBM Plex Mono';-inkscape-font-specification:'IBM Plex Mono'"
           id="path9821" />
        <path
           d="m 1672.098,188.65453 4.4393,-11.45524 h -0.9185 l -4.4392,11.45524 z"
           style="font-family:'IBM Plex Mono';-inkscape-font-specification:'IBM Plex Mono'"
           id="path9823" />
        <path
           d="m 1685.7518,188.65453 4.4393,-11.45524 h -0.9185 l -4.4392,11.45524 z"
           style="font-family:'IBM Plex Mono';-inkscape-font-specification:'IBM Plex Mono'"
           id="path9825" />
        <path
           d="m 1699.4056,188.65453 4.4393,-11.45524 h -0.9185 l -4.4392,11.45524 z"
           style="font-family:'IBM Plex Mono';-inkscape-font-specification:'IBM Plex Mono'"
           id="path9827" />
        <path
           d="m 1713.0595,188.65453 4.4392,-11.45524 h -0.9185 l -4.4392,11.45524 z"
           style="font-family:'IBM Plex Mono';-inkscape-font-specification:'IBM Plex Mono'"
           id="path9829" />
        <path
           d="m 1726.7133,188.65453 4.4393,-11.45524 h -0.9185 l -4.4392,11.45524 z"
           style="font-family:'IBM Plex Mono';-inkscape-font-specification:'IBM Plex Mono'"
           id="path9831" />
        <path
           d="m 1740.3671,188.65453 4.4393,-11.45524 h -0.9185 l -4.4392,11.45524 z"
           style="font-family:'IBM Plex Mono';-inkscape-font-specification:'IBM Plex Mono'"
           id="path9833" />
        <path
           d="m 1754.0209,188.65453 4.4393,-11.45524 h -0.9185 l -4.4392,11.45524 z"
           style="font-family:'IBM Plex Mono';-inkscape-font-specification:'IBM Plex Mono'"
           id="path9835" />
        <path
           d="m 1767.6748,188.65453 4.4392,-11.45524 h -0.9185 l -4.4392,11.45524 z"
           style="font-family:'IBM Plex Mono';-inkscape-font-specification:'IBM Plex Mono'"
           id="path9837" />
        <path
           d="m 1781.3286,188.65453 4.4392,-11.45524 h -0.9185 l -4.4392,11.45524 z"
           style="font-family:'IBM Plex Mono';-inkscape-font-specification:'IBM Plex Mono'"
           id="path9839" />
        <path
           d="m 1794.9824,188.65453 4.4393,-11.45524 h -0.9185 l -4.4392,11.45524 z"
           style="font-family:'IBM Plex Mono';-inkscape-font-specification:'IBM Plex Mono'"
           id="path9841" />
      </g>
    </g>
  </g>
</svg>
