<?xml version="1.0" encoding="UTF-8" standalone="no"?>
<!-- Created with Inkscape (http://www.inkscape.org/) -->

<svg
   width="263.6597mm"
   height="44.960308mm"
   viewBox="0 0 263.6597 44.960308"
   version="1.1"
   id="svg485236"
   sodipodi:docname="slashes.svg"
   inkscape:version="1.2 (dc2aedaf03, 2022-05-15)"
   xmlns:inkscape="http://www.inkscape.org/namespaces/inkscape"
   xmlns:sodipodi="http://sodipodi.sourceforge.net/DTD/sodipodi-0.dtd"
   xmlns="http://www.w3.org/2000/svg"
   xmlns:svg="http://www.w3.org/2000/svg">
  <sodipodi:namedview
     id="namedview11"
     pagecolor="#ffffff"
     bordercolor="#666666"
     borderopacity="1.0"
     inkscape:pageshadow="2"
     inkscape:pageopacity="0.0"
     inkscape:pagecheckerboard="0"
     inkscape:document-units="mm"
     showgrid="false"
     inkscape:zoom="0.71757536"
     inkscape:cx="643.83482"
     inkscape:cy="42.504247"
     inkscape:window-width="1920"
     inkscape:window-height="1055"
     inkscape:window-x="1920"
     inkscape:window-y="0"
     inkscape:window-maximized="1"
     inkscape:current-layer="layer1"
     inkscape:showpageshadow="2"
     inkscape:deskcolor="#d1d1d1" />
  <defs
     id="defs485233" />
  <g
     id="layer1"
     transform="matrix(1.1421348,0,0,1.008517,129.27472,-164.12834)">
    <g
       aria-label="////////////////////////////////////////////////////"
       id="text223603-8-3-1-1-3-7-9-8-8-9-7-7-0-1-3-4-3"
       style="font-size:12.7px;line-height:0.85;fill:#e6e6e6;stroke-width:0.501399">
      <path
         d="m -113.18692,173.79126 h 0.762 l 3.3909,-11.049 h -0.762 z"
         style="font-family:'IBM Plex Mono';-inkscape-font-specification:'IBM Plex Mono'"
         id="path302" />
      <path
         d="m -108.74191,173.79126 h 0.762 l 3.3909,-11.049 h -0.762 z"
         style="font-family:'IBM Plex Mono';-inkscape-font-specification:'IBM Plex Mono'"
         id="path304" />
      <path
         d="m -104.29691,173.79126 h 0.762 l 3.3909,-11.049 h -0.762 z"
         style="font-family:'IBM Plex Mono';-inkscape-font-specification:'IBM Plex Mono'"
         id="path306" />
      <path
         d="m -99.851905,173.79126 h 0.762 l 3.3909,-11.049 h -0.762 z"
         style="font-family:'IBM Plex Mono';-inkscape-font-specification:'IBM Plex Mono'"
         id="path308" />
      <path
         d="m -95.406899,173.79126 h 0.762 l 3.3909,-11.049 h -0.762 z"
         style="font-family:'IBM Plex Mono';-inkscape-font-specification:'IBM Plex Mono'"
         id="path310" />
      <path
         d="m -90.961894,173.79126 h 0.762 l 3.3909,-11.049 h -0.762 z"
         style="font-family:'IBM Plex Mono';-inkscape-font-specification:'IBM Plex Mono'"
         id="path312" />
      <path
         d="m -86.51689,173.79126 h 0.762 l 3.3909,-11.049 h -0.762 z"
         style="font-family:'IBM Plex Mono';-inkscape-font-specification:'IBM Plex Mono'"
         id="path314" />
      <path
         d="m -82.071885,173.79126 h 0.762 l 3.3909,-11.049 h -0.762 z"
         style="font-family:'IBM Plex Mono';-inkscape-font-specification:'IBM Plex Mono'"
         id="path316" />
      <path
         d="m -77.62688,173.79126 h 0.762 l 3.3909,-11.049 h -0.762 z"
         style="font-family:'IBM Plex Mono';-inkscape-font-specification:'IBM Plex Mono'"
         id="path318" />
      <path
         d="m -73.181876,173.79126 h 0.762 l 3.3909,-11.049 h -0.762 z"
         style="font-family:'IBM Plex Mono';-inkscape-font-specification:'IBM Plex Mono'"
         id="path320" />
      <path
         d="m -68.736869,173.79126 h 0.762 l 3.3909,-11.049 h -0.762 z"
         style="font-family:'IBM Plex Mono';-inkscape-font-specification:'IBM Plex Mono'"
         id="path322" />
      <path
         d="m -64.291865,173.79126 h 0.762 l 3.3909,-11.049 h -0.762 z"
         style="font-family:'IBM Plex Mono';-inkscape-font-specification:'IBM Plex Mono'"
         id="path324" />
      <path
         d="m -59.846862,173.79126 h 0.762 l 3.3909,-11.049 h -0.762 z"
         style="font-family:'IBM Plex Mono';-inkscape-font-specification:'IBM Plex Mono'"
         id="path326" />
      <path
         d="m -55.401854,173.79126 h 0.762 l 3.3909,-11.049 h -0.762 z"
         style="font-family:'IBM Plex Mono';-inkscape-font-specification:'IBM Plex Mono'"
         id="path328" />
      <path
         d="m -50.956851,173.79126 h 0.762 l 3.3909,-11.049 h -0.762 z"
         style="font-family:'IBM Plex Mono';-inkscape-font-specification:'IBM Plex Mono'"
         id="path330" />
      <path
         d="m -46.511847,173.79126 h 0.762 l 3.3909,-11.049 h -0.762 z"
         style="font-family:'IBM Plex Mono';-inkscape-font-specification:'IBM Plex Mono'"
         id="path332" />
      <path
         d="m -42.06684,173.79126 h 0.762 l 3.3909,-11.049 h -0.762 z"
         style="font-family:'IBM Plex Mono';-inkscape-font-specification:'IBM Plex Mono'"
         id="path334" />
      <path
         d="m -37.621833,173.79126 h 0.762 l 3.3909,-11.049 h -0.762 z"
         style="font-family:'IBM Plex Mono';-inkscape-font-specification:'IBM Plex Mono'"
         id="path336" />
      <path
         d="m -33.176833,173.79126 h 0.762 l 3.3909,-11.049 h -0.762 z"
         style="font-family:'IBM Plex Mono';-inkscape-font-specification:'IBM Plex Mono'"
         id="path338" />
      <path
         d="m -28.731826,173.79126 h 0.762 l 3.3909,-11.049 h -0.762 z"
         style="font-family:'IBM Plex Mono';-inkscape-font-specification:'IBM Plex Mono'"
         id="path340" />
      <path
         d="m -24.286818,173.79126 h 0.762 l 3.3909,-11.049 h -0.762 z"
         style="font-family:'IBM Plex Mono';-inkscape-font-specification:'IBM Plex Mono'"
         id="path342" />
      <path
         d="m -19.841819,173.79126 h 0.762 l 3.3909,-11.049 h -0.762 z"
         style="font-family:'IBM Plex Mono';-inkscape-font-specification:'IBM Plex Mono'"
         id="path344" />
      <path
         d="m -15.396811,173.79126 h 0.762 l 3.3909,-11.049 h -0.762 z"
         style="font-family:'IBM Plex Mono';-inkscape-font-specification:'IBM Plex Mono'"
         id="path346" />
      <path
         d="m -10.951804,173.79126 h 0.762 l 3.3908999,-11.049 h -0.762 z"
         style="font-family:'IBM Plex Mono';-inkscape-font-specification:'IBM Plex Mono'"
         id="path348" />
      <path
         d="m -6.5068043,173.79126 h 0.762 l 3.3908999,-11.049 h -0.762 z"
         style="font-family:'IBM Plex Mono';-inkscape-font-specification:'IBM Plex Mono'"
         id="path350" />
      <path
         d="m -2.061797,173.79126 h 0.762 l 3.3908999,-11.049 H 1.329103 Z"
         style="font-family:'IBM Plex Mono';-inkscape-font-specification:'IBM Plex Mono'"
         id="path352" />
      <path
         d="m 2.3832103,173.79126 h 0.762 l 3.3909,-11.049 h -0.762 z"
         style="font-family:'IBM Plex Mono';-inkscape-font-specification:'IBM Plex Mono'"
         id="path354" />
      <path
         d="m 6.8282176,173.79126 h 0.762 l 3.3909004,-11.049 h -0.762 z"
         style="font-family:'IBM Plex Mono';-inkscape-font-specification:'IBM Plex Mono'"
         id="path356" />
      <path
         d="m 11.273217,173.79126 h 0.762 l 3.3909,-11.049 h -0.762 z"
         style="font-family:'IBM Plex Mono';-inkscape-font-specification:'IBM Plex Mono'"
         id="path358" />
      <path
         d="m 15.718217,173.79126 h 0.762 l 3.3909,-11.049 h -0.762 z"
         style="font-family:'IBM Plex Mono';-inkscape-font-specification:'IBM Plex Mono'"
         id="path360" />
      <path
         d="m 20.163224,173.79126 h 0.762 l 3.3909,-11.049 h -0.762 z"
         style="font-family:'IBM Plex Mono';-inkscape-font-specification:'IBM Plex Mono'"
         id="path362" />
      <path
         d="m 24.608232,173.79126 h 0.762 l 3.3909,-11.049 h -0.762 z"
         style="font-family:'IBM Plex Mono';-inkscape-font-specification:'IBM Plex Mono'"
         id="path364" />
      <path
         d="m 29.053239,173.79126 h 0.762 l 3.3909,-11.049 h -0.762 z"
         style="font-family:'IBM Plex Mono';-inkscape-font-specification:'IBM Plex Mono'"
         id="path366" />
      <path
         d="m 33.498246,173.79126 h 0.762 l 3.3909,-11.049 h -0.762 z"
         style="font-family:'IBM Plex Mono';-inkscape-font-specification:'IBM Plex Mono'"
         id="path368" />
      <path
         d="m 37.943254,173.79126 h 0.762 l 3.3909,-11.049 h -0.762 z"
         style="font-family:'IBM Plex Mono';-inkscape-font-specification:'IBM Plex Mono'"
         id="path370" />
      <path
         d="m 42.388261,173.79126 h 0.762 l 3.3909,-11.049 h -0.762 z"
         style="font-family:'IBM Plex Mono';-inkscape-font-specification:'IBM Plex Mono'"
         id="path372" />
      <path
         d="m 46.833253,173.79126 h 0.762 l 3.3909,-11.049 h -0.762 z"
         style="font-family:'IBM Plex Mono';-inkscape-font-specification:'IBM Plex Mono'"
         id="path374" />
      <path
         d="m 51.27826,173.79126 h 0.762 l 3.3909,-11.049 h -0.762 z"
         style="font-family:'IBM Plex Mono';-inkscape-font-specification:'IBM Plex Mono'"
         id="path376" />
      <path
         d="m 55.723268,173.79126 h 0.762 l 3.3909,-11.049 h -0.762 z"
         style="font-family:'IBM Plex Mono';-inkscape-font-specification:'IBM Plex Mono'"
         id="path378" />
      <path
         d="m 60.168275,173.79126 h 0.762 l 3.3909,-11.049 h -0.762 z"
         style="font-family:'IBM Plex Mono';-inkscape-font-specification:'IBM Plex Mono'"
         id="path380" />
      <path
         d="m 64.613282,173.79126 h 0.762 l 3.3909,-11.049 h -0.762 z"
         style="font-family:'IBM Plex Mono';-inkscape-font-specification:'IBM Plex Mono'"
         id="path382" />
      <path
         d="m 69.05829,173.79126 h 0.762 l 3.3909,-11.049 h -0.762 z"
         style="font-family:'IBM Plex Mono';-inkscape-font-specification:'IBM Plex Mono'"
         id="path384" />
      <path
         d="m 73.503282,173.79126 h 0.762 l 3.3909,-11.049 h -0.762 z"
         style="font-family:'IBM Plex Mono';-inkscape-font-specification:'IBM Plex Mono'"
         id="path386" />
      <path
         d="m 77.948289,173.79126 h 0.762 l 3.3909,-11.049 h -0.762 z"
         style="font-family:'IBM Plex Mono';-inkscape-font-specification:'IBM Plex Mono'"
         id="path388" />
      <path
         d="m 82.393296,173.79126 h 0.762 l 3.3909,-11.049 h -0.762 z"
         style="font-family:'IBM Plex Mono';-inkscape-font-specification:'IBM Plex Mono'"
         id="path390" />
      <path
         d="m 86.838304,173.79126 h 0.762 l 3.3909,-11.049 h -0.762 z"
         style="font-family:'IBM Plex Mono';-inkscape-font-specification:'IBM Plex Mono'"
         id="path392" />
      <path
         d="m 91.283311,173.79126 h 0.762 l 3.3909,-11.049 h -0.762 z"
         style="font-family:'IBM Plex Mono';-inkscape-font-specification:'IBM Plex Mono'"
         id="path394" />
      <path
         d="m 95.728318,173.79126 h 0.762 l 3.3909,-11.049 h -0.762 z"
         style="font-family:'IBM Plex Mono';-inkscape-font-specification:'IBM Plex Mono'"
         id="path396" />
      <path
         d="m 100.17331,173.79126 h 0.762 l 3.3909,-11.049 h -0.762 z"
         style="font-family:'IBM Plex Mono';-inkscape-font-specification:'IBM Plex Mono'"
         id="path398" />
      <path
         d="m 104.61832,173.79126 h 0.762 l 3.3909,-11.049 h -0.762 z"
         style="font-family:'IBM Plex Mono';-inkscape-font-specification:'IBM Plex Mono'"
         id="path400" />
      <path
         d="m 109.06333,173.79126 h 0.762 l 3.3909,-11.049 h -0.762 z"
         style="font-family:'IBM Plex Mono';-inkscape-font-specification:'IBM Plex Mono'"
         id="path402" />
      <path
         d="m 113.50833,173.79126 h 0.762 l 3.3909,-11.049 h -0.762 z"
         style="font-family:'IBM Plex Mono';-inkscape-font-specification:'IBM Plex Mono'"
         id="path404" />
    </g>
    <g
       aria-label="////////////////////////////////////////////////////"
       id="text223603-8-3-1-1-3-7-9-8-8-9-7-7-0-1-3-4-3-4"
       style="font-size:12.7px;line-height:0.85;fill:#e6e6e6;stroke-width:0.501399">
      <path
         d="m -113.18692,190.55712 h 0.762 l 3.3909,-11.049 h -0.762 z"
         style="font-family:'IBM Plex Mono';-inkscape-font-specification:'IBM Plex Mono'"
         id="path407" />
      <path
         d="m -108.74191,190.55712 h 0.762 l 3.3909,-11.049 h -0.762 z"
         style="font-family:'IBM Plex Mono';-inkscape-font-specification:'IBM Plex Mono'"
         id="path409" />
      <path
         d="m -104.29691,190.55712 h 0.762 l 3.3909,-11.049 h -0.762 z"
         style="font-family:'IBM Plex Mono';-inkscape-font-specification:'IBM Plex Mono'"
         id="path411" />
      <path
         d="m -99.851905,190.55712 h 0.762 l 3.3909,-11.049 h -0.762 z"
         style="font-family:'IBM Plex Mono';-inkscape-font-specification:'IBM Plex Mono'"
         id="path413" />
      <path
         d="m -95.406899,190.55712 h 0.762 l 3.3909,-11.049 h -0.762 z"
         style="font-family:'IBM Plex Mono';-inkscape-font-specification:'IBM Plex Mono'"
         id="path415" />
      <path
         d="m -90.961894,190.55712 h 0.762 l 3.3909,-11.049 h -0.762 z"
         style="font-family:'IBM Plex Mono';-inkscape-font-specification:'IBM Plex Mono'"
         id="path417" />
      <path
         d="m -86.51689,190.55712 h 0.762 l 3.3909,-11.049 h -0.762 z"
         style="font-family:'IBM Plex Mono';-inkscape-font-specification:'IBM Plex Mono'"
         id="path419" />
      <path
         d="m -82.071885,190.55712 h 0.762 l 3.3909,-11.049 h -0.762 z"
         style="font-family:'IBM Plex Mono';-inkscape-font-specification:'IBM Plex Mono'"
         id="path421" />
      <path
         d="m -77.62688,190.55712 h 0.762 l 3.3909,-11.049 h -0.762 z"
         style="font-family:'IBM Plex Mono';-inkscape-font-specification:'IBM Plex Mono'"
         id="path423" />
      <path
         d="m -73.181876,190.55712 h 0.762 l 3.3909,-11.049 h -0.762 z"
         style="font-family:'IBM Plex Mono';-inkscape-font-specification:'IBM Plex Mono'"
         id="path425" />
      <path
         d="m -68.736869,190.55712 h 0.762 l 3.3909,-11.049 h -0.762 z"
         style="font-family:'IBM Plex Mono';-inkscape-font-specification:'IBM Plex Mono'"
         id="path427" />
      <path
         d="m -64.291865,190.55712 h 0.762 l 3.3909,-11.049 h -0.762 z"
         style="font-family:'IBM Plex Mono';-inkscape-font-specification:'IBM Plex Mono'"
         id="path429" />
      <path
         d="m -59.846862,190.55712 h 0.762 l 3.3909,-11.049 h -0.762 z"
         style="font-family:'IBM Plex Mono';-inkscape-font-specification:'IBM Plex Mono'"
         id="path431" />
      <path
         d="m -55.401854,190.55712 h 0.762 l 3.3909,-11.049 h -0.762 z"
         style="font-family:'IBM Plex Mono';-inkscape-font-specification:'IBM Plex Mono'"
         id="path433" />
      <path
         d="m -50.956851,190.55712 h 0.762 l 3.3909,-11.049 h -0.762 z"
         style="font-family:'IBM Plex Mono';-inkscape-font-specification:'IBM Plex Mono'"
         id="path435" />
      <path
         d="m -46.511847,190.55712 h 0.762 l 3.3909,-11.049 h -0.762 z"
         style="font-family:'IBM Plex Mono';-inkscape-font-specification:'IBM Plex Mono'"
         id="path437" />
      <path
         d="m -42.06684,190.55712 h 0.762 l 3.3909,-11.049 h -0.762 z"
         style="font-family:'IBM Plex Mono';-inkscape-font-specification:'IBM Plex Mono'"
         id="path439" />
      <path
         d="m -37.621833,190.55712 h 0.762 l 3.3909,-11.049 h -0.762 z"
         style="font-family:'IBM Plex Mono';-inkscape-font-specification:'IBM Plex Mono'"
         id="path441" />
      <path
         d="m -33.176833,190.55712 h 0.762 l 3.3909,-11.049 h -0.762 z"
         style="font-family:'IBM Plex Mono';-inkscape-font-specification:'IBM Plex Mono'"
         id="path443" />
      <path
         d="m -28.731826,190.55712 h 0.762 l 3.3909,-11.049 h -0.762 z"
         style="font-family:'IBM Plex Mono';-inkscape-font-specification:'IBM Plex Mono'"
         id="path445" />
      <path
         d="m -24.286818,190.55712 h 0.762 l 3.3909,-11.049 h -0.762 z"
         style="font-family:'IBM Plex Mono';-inkscape-font-specification:'IBM Plex Mono'"
         id="path447" />
      <path
         d="m -19.841819,190.55712 h 0.762 l 3.3909,-11.049 h -0.762 z"
         style="font-family:'IBM Plex Mono';-inkscape-font-specification:'IBM Plex Mono'"
         id="path449" />
      <path
         d="m -15.396811,190.55712 h 0.762 l 3.3909,-11.049 h -0.762 z"
         style="font-family:'IBM Plex Mono';-inkscape-font-specification:'IBM Plex Mono'"
         id="path451" />
      <path
         d="m -10.951804,190.55712 h 0.762 l 3.3908999,-11.049 h -0.762 z"
         style="font-family:'IBM Plex Mono';-inkscape-font-specification:'IBM Plex Mono'"
         id="path453" />
      <path
         d="m -6.5068043,190.55712 h 0.762 l 3.3908999,-11.049 h -0.762 z"
         style="font-family:'IBM Plex Mono';-inkscape-font-specification:'IBM Plex Mono'"
         id="path455" />
      <path
         d="m -2.061797,190.55712 h 0.762 l 3.3908999,-11.049 H 1.329103 Z"
         style="font-family:'IBM Plex Mono';-inkscape-font-specification:'IBM Plex Mono'"
         id="path457" />
      <path
         d="m 2.3832103,190.55712 h 0.762 l 3.3909,-11.049 h -0.762 z"
         style="font-family:'IBM Plex Mono';-inkscape-font-specification:'IBM Plex Mono'"
         id="path459" />
      <path
         d="m 6.8282176,190.55712 h 0.762 l 3.3909004,-11.049 h -0.762 z"
         style="font-family:'IBM Plex Mono';-inkscape-font-specification:'IBM Plex Mono'"
         id="path461" />
      <path
         d="m 11.273217,190.55712 h 0.762 l 3.3909,-11.049 h -0.762 z"
         style="font-family:'IBM Plex Mono';-inkscape-font-specification:'IBM Plex Mono'"
         id="path463" />
      <path
         d="m 15.718217,190.55712 h 0.762 l 3.3909,-11.049 h -0.762 z"
         style="font-family:'IBM Plex Mono';-inkscape-font-specification:'IBM Plex Mono'"
         id="path465" />
      <path
         d="m 20.163224,190.55712 h 0.762 l 3.3909,-11.049 h -0.762 z"
         style="font-family:'IBM Plex Mono';-inkscape-font-specification:'IBM Plex Mono'"
         id="path467" />
      <path
         d="m 24.608232,190.55712 h 0.762 l 3.3909,-11.049 h -0.762 z"
         style="font-family:'IBM Plex Mono';-inkscape-font-specification:'IBM Plex Mono'"
         id="path469" />
      <path
         d="m 29.053239,190.55712 h 0.762 l 3.3909,-11.049 h -0.762 z"
         style="font-family:'IBM Plex Mono';-inkscape-font-specification:'IBM Plex Mono'"
         id="path471" />
      <path
         d="m 33.498246,190.55712 h 0.762 l 3.3909,-11.049 h -0.762 z"
         style="font-family:'IBM Plex Mono';-inkscape-font-specification:'IBM Plex Mono'"
         id="path473" />
      <path
         d="m 37.943254,190.55712 h 0.762 l 3.3909,-11.049 h -0.762 z"
         style="font-family:'IBM Plex Mono';-inkscape-font-specification:'IBM Plex Mono'"
         id="path475" />
      <path
         d="m 42.388261,190.55712 h 0.762 l 3.3909,-11.049 h -0.762 z"
         style="font-family:'IBM Plex Mono';-inkscape-font-specification:'IBM Plex Mono'"
         id="path477" />
      <path
         d="m 46.833253,190.55712 h 0.762 l 3.3909,-11.049 h -0.762 z"
         style="font-family:'IBM Plex Mono';-inkscape-font-specification:'IBM Plex Mono'"
         id="path479" />
      <path
         d="m 51.27826,190.55712 h 0.762 l 3.3909,-11.049 h -0.762 z"
         style="font-family:'IBM Plex Mono';-inkscape-font-specification:'IBM Plex Mono'"
         id="path481" />
      <path
         d="m 55.723268,190.55712 h 0.762 l 3.3909,-11.049 h -0.762 z"
         style="font-family:'IBM Plex Mono';-inkscape-font-specification:'IBM Plex Mono'"
         id="path483" />
      <path
         d="m 60.168275,190.55712 h 0.762 l 3.3909,-11.049 h -0.762 z"
         style="font-family:'IBM Plex Mono';-inkscape-font-specification:'IBM Plex Mono'"
         id="path485" />
      <path
         d="m 64.613282,190.55712 h 0.762 l 3.3909,-11.049 h -0.762 z"
         style="font-family:'IBM Plex Mono';-inkscape-font-specification:'IBM Plex Mono'"
         id="path487" />
      <path
         d="m 69.05829,190.55712 h 0.762 l 3.3909,-11.049 h -0.762 z"
         style="font-family:'IBM Plex Mono';-inkscape-font-specification:'IBM Plex Mono'"
         id="path489" />
      <path
         d="m 73.503282,190.55712 h 0.762 l 3.3909,-11.049 h -0.762 z"
         style="font-family:'IBM Plex Mono';-inkscape-font-specification:'IBM Plex Mono'"
         id="path491" />
      <path
         d="m 77.948289,190.55712 h 0.762 l 3.3909,-11.049 h -0.762 z"
         style="font-family:'IBM Plex Mono';-inkscape-font-specification:'IBM Plex Mono'"
         id="path493" />
      <path
         d="m 82.393296,190.55712 h 0.762 l 3.3909,-11.049 h -0.762 z"
         style="font-family:'IBM Plex Mono';-inkscape-font-specification:'IBM Plex Mono'"
         id="path495" />
      <path
         d="m 86.838304,190.55712 h 0.762 l 3.3909,-11.049 h -0.762 z"
         style="font-family:'IBM Plex Mono';-inkscape-font-specification:'IBM Plex Mono'"
         id="path497" />
      <path
         d="m 91.283311,190.55712 h 0.762 l 3.3909,-11.049 h -0.762 z"
         style="font-family:'IBM Plex Mono';-inkscape-font-specification:'IBM Plex Mono'"
         id="path499" />
      <path
         d="m 95.728318,190.55712 h 0.762 l 3.3909,-11.049 h -0.762 z"
         style="font-family:'IBM Plex Mono';-inkscape-font-specification:'IBM Plex Mono'"
         id="path501" />
      <path
         d="m 100.17331,190.55712 h 0.762 l 3.3909,-11.049 h -0.762 z"
         style="font-family:'IBM Plex Mono';-inkscape-font-specification:'IBM Plex Mono'"
         id="path503" />
      <path
         d="m 104.61832,190.55712 h 0.762 l 3.3909,-11.049 h -0.762 z"
         style="font-family:'IBM Plex Mono';-inkscape-font-specification:'IBM Plex Mono'"
         id="path505" />
      <path
         d="m 109.06333,190.55712 h 0.762 l 3.3909,-11.049 h -0.762 z"
         style="font-family:'IBM Plex Mono';-inkscape-font-specification:'IBM Plex Mono'"
         id="path507" />
      <path
         d="m 113.50833,190.55712 h 0.762 l 3.3909,-11.049 h -0.762 z"
         style="font-family:'IBM Plex Mono';-inkscape-font-specification:'IBM Plex Mono'"
         id="path509" />
    </g>
    <g
       aria-label="////////////////////////////////////////////////////"
       id="text223603-8-3-1-1-3-7-9-8-8-9-7-7-0-1-3-4-3-4-5"
       style="font-size:12.7px;line-height:0.85;fill:#e6e6e6;stroke-width:0.501399">
      <path
         d="m -113.18692,207.32288 h 0.762 l 3.3909,-11.049 h -0.762 z"
         style="font-family:'IBM Plex Mono';-inkscape-font-specification:'IBM Plex Mono'"
         id="path512" />
      <path
         d="m -108.74191,207.32288 h 0.762 l 3.3909,-11.049 h -0.762 z"
         style="font-family:'IBM Plex Mono';-inkscape-font-specification:'IBM Plex Mono'"
         id="path514" />
      <path
         d="m -104.29691,207.32288 h 0.762 l 3.3909,-11.049 h -0.762 z"
         style="font-family:'IBM Plex Mono';-inkscape-font-specification:'IBM Plex Mono'"
         id="path516" />
      <path
         d="m -99.851905,207.32288 h 0.762 l 3.3909,-11.049 h -0.762 z"
         style="font-family:'IBM Plex Mono';-inkscape-font-specification:'IBM Plex Mono'"
         id="path518" />
      <path
         d="m -95.406899,207.32288 h 0.762 l 3.3909,-11.049 h -0.762 z"
         style="font-family:'IBM Plex Mono';-inkscape-font-specification:'IBM Plex Mono'"
         id="path520" />
      <path
         d="m -90.961894,207.32288 h 0.762 l 3.3909,-11.049 h -0.762 z"
         style="font-family:'IBM Plex Mono';-inkscape-font-specification:'IBM Plex Mono'"
         id="path522" />
      <path
         d="m -86.51689,207.32288 h 0.762 l 3.3909,-11.049 h -0.762 z"
         style="font-family:'IBM Plex Mono';-inkscape-font-specification:'IBM Plex Mono'"
         id="path524" />
      <path
         d="m -82.071885,207.32288 h 0.762 l 3.3909,-11.049 h -0.762 z"
         style="font-family:'IBM Plex Mono';-inkscape-font-specification:'IBM Plex Mono'"
         id="path526" />
      <path
         d="m -77.62688,207.32288 h 0.762 l 3.3909,-11.049 h -0.762 z"
         style="font-family:'IBM Plex Mono';-inkscape-font-specification:'IBM Plex Mono'"
         id="path528" />
      <path
         d="m -73.181876,207.32288 h 0.762 l 3.3909,-11.049 h -0.762 z"
         style="font-family:'IBM Plex Mono';-inkscape-font-specification:'IBM Plex Mono'"
         id="path530" />
      <path
         d="m -68.736869,207.32288 h 0.762 l 3.3909,-11.049 h -0.762 z"
         style="font-family:'IBM Plex Mono';-inkscape-font-specification:'IBM Plex Mono'"
         id="path532" />
      <path
         d="m -64.291865,207.32288 h 0.762 l 3.3909,-11.049 h -0.762 z"
         style="font-family:'IBM Plex Mono';-inkscape-font-specification:'IBM Plex Mono'"
         id="path534" />
      <path
         d="m -59.846862,207.32288 h 0.762 l 3.3909,-11.049 h -0.762 z"
         style="font-family:'IBM Plex Mono';-inkscape-font-specification:'IBM Plex Mono'"
         id="path536" />
      <path
         d="m -55.401854,207.32288 h 0.762 l 3.3909,-11.049 h -0.762 z"
         style="font-family:'IBM Plex Mono';-inkscape-font-specification:'IBM Plex Mono'"
         id="path538" />
      <path
         d="m -50.956851,207.32288 h 0.762 l 3.3909,-11.049 h -0.762 z"
         style="font-family:'IBM Plex Mono';-inkscape-font-specification:'IBM Plex Mono'"
         id="path540" />
      <path
         d="m -46.511847,207.32288 h 0.762 l 3.3909,-11.049 h -0.762 z"
         style="font-family:'IBM Plex Mono';-inkscape-font-specification:'IBM Plex Mono'"
         id="path542" />
      <path
         d="m -42.06684,207.32288 h 0.762 l 3.3909,-11.049 h -0.762 z"
         style="font-family:'IBM Plex Mono';-inkscape-font-specification:'IBM Plex Mono'"
         id="path544" />
      <path
         d="m -37.621833,207.32288 h 0.762 l 3.3909,-11.049 h -0.762 z"
         style="font-family:'IBM Plex Mono';-inkscape-font-specification:'IBM Plex Mono'"
         id="path546" />
      <path
         d="m -33.176833,207.32288 h 0.762 l 3.3909,-11.049 h -0.762 z"
         style="font-family:'IBM Plex Mono';-inkscape-font-specification:'IBM Plex Mono'"
         id="path548" />
      <path
         d="m -28.731826,207.32288 h 0.762 l 3.3909,-11.049 h -0.762 z"
         style="font-family:'IBM Plex Mono';-inkscape-font-specification:'IBM Plex Mono'"
         id="path550" />
      <path
         d="m -24.286818,207.32288 h 0.762 l 3.3909,-11.049 h -0.762 z"
         style="font-family:'IBM Plex Mono';-inkscape-font-specification:'IBM Plex Mono'"
         id="path552" />
      <path
         d="m -19.841819,207.32288 h 0.762 l 3.3909,-11.049 h -0.762 z"
         style="font-family:'IBM Plex Mono';-inkscape-font-specification:'IBM Plex Mono'"
         id="path554" />
      <path
         d="m -15.396811,207.32288 h 0.762 l 3.3909,-11.049 h -0.762 z"
         style="font-family:'IBM Plex Mono';-inkscape-font-specification:'IBM Plex Mono'"
         id="path556" />
      <path
         d="m -10.951804,207.32288 h 0.762 l 3.3908999,-11.049 h -0.762 z"
         style="font-family:'IBM Plex Mono';-inkscape-font-specification:'IBM Plex Mono'"
         id="path558" />
      <path
         d="m -6.5068043,207.32288 h 0.762 l 3.3908999,-11.049 h -0.762 z"
         style="font-family:'IBM Plex Mono';-inkscape-font-specification:'IBM Plex Mono'"
         id="path560" />
      <path
         d="m -2.061797,207.32288 h 0.762 l 3.3908999,-11.049 H 1.329103 Z"
         style="font-family:'IBM Plex Mono';-inkscape-font-specification:'IBM Plex Mono'"
         id="path562" />
      <path
         d="m 2.3832103,207.32288 h 0.762 l 3.3909,-11.049 h -0.762 z"
         style="font-family:'IBM Plex Mono';-inkscape-font-specification:'IBM Plex Mono'"
         id="path564" />
      <path
         d="m 6.8282176,207.32288 h 0.762 l 3.3909004,-11.049 h -0.762 z"
         style="font-family:'IBM Plex Mono';-inkscape-font-specification:'IBM Plex Mono'"
         id="path566" />
      <path
         d="m 11.273217,207.32288 h 0.762 l 3.3909,-11.049 h -0.762 z"
         style="font-family:'IBM Plex Mono';-inkscape-font-specification:'IBM Plex Mono'"
         id="path568" />
      <path
         d="m 15.718217,207.32288 h 0.762 l 3.3909,-11.049 h -0.762 z"
         style="font-family:'IBM Plex Mono';-inkscape-font-specification:'IBM Plex Mono'"
         id="path570" />
      <path
         d="m 20.163224,207.32288 h 0.762 l 3.3909,-11.049 h -0.762 z"
         style="font-family:'IBM Plex Mono';-inkscape-font-specification:'IBM Plex Mono'"
         id="path572" />
      <path
         d="m 24.608232,207.32288 h 0.762 l 3.3909,-11.049 h -0.762 z"
         style="font-family:'IBM Plex Mono';-inkscape-font-specification:'IBM Plex Mono'"
         id="path574" />
      <path
         d="m 29.053239,207.32288 h 0.762 l 3.3909,-11.049 h -0.762 z"
         style="font-family:'IBM Plex Mono';-inkscape-font-specification:'IBM Plex Mono'"
         id="path576" />
      <path
         d="m 33.498246,207.32288 h 0.762 l 3.3909,-11.049 h -0.762 z"
         style="font-family:'IBM Plex Mono';-inkscape-font-specification:'IBM Plex Mono'"
         id="path578" />
      <path
         d="m 37.943254,207.32288 h 0.762 l 3.3909,-11.049 h -0.762 z"
         style="font-family:'IBM Plex Mono';-inkscape-font-specification:'IBM Plex Mono'"
         id="path580" />
      <path
         d="m 42.388261,207.32288 h 0.762 l 3.3909,-11.049 h -0.762 z"
         style="font-family:'IBM Plex Mono';-inkscape-font-specification:'IBM Plex Mono'"
         id="path582" />
      <path
         d="m 46.833253,207.32288 h 0.762 l 3.3909,-11.049 h -0.762 z"
         style="font-family:'IBM Plex Mono';-inkscape-font-specification:'IBM Plex Mono'"
         id="path584" />
      <path
         d="m 51.27826,207.32288 h 0.762 l 3.3909,-11.049 h -0.762 z"
         style="font-family:'IBM Plex Mono';-inkscape-font-specification:'IBM Plex Mono'"
         id="path586" />
      <path
         d="m 55.723268,207.32288 h 0.762 l 3.3909,-11.049 h -0.762 z"
         style="font-family:'IBM Plex Mono';-inkscape-font-specification:'IBM Plex Mono'"
         id="path588" />
      <path
         d="m 60.168275,207.32288 h 0.762 l 3.3909,-11.049 h -0.762 z"
         style="font-family:'IBM Plex Mono';-inkscape-font-specification:'IBM Plex Mono'"
         id="path590" />
      <path
         d="m 64.613282,207.32288 h 0.762 l 3.3909,-11.049 h -0.762 z"
         style="font-family:'IBM Plex Mono';-inkscape-font-specification:'IBM Plex Mono'"
         id="path592" />
      <path
         d="m 69.05829,207.32288 h 0.762 l 3.3909,-11.049 h -0.762 z"
         style="font-family:'IBM Plex Mono';-inkscape-font-specification:'IBM Plex Mono'"
         id="path594" />
      <path
         d="m 73.503282,207.32288 h 0.762 l 3.3909,-11.049 h -0.762 z"
         style="font-family:'IBM Plex Mono';-inkscape-font-specification:'IBM Plex Mono'"
         id="path596" />
      <path
         d="m 77.948289,207.32288 h 0.762 l 3.3909,-11.049 h -0.762 z"
         style="font-family:'IBM Plex Mono';-inkscape-font-specification:'IBM Plex Mono'"
         id="path598" />
      <path
         d="m 82.393296,207.32288 h 0.762 l 3.3909,-11.049 h -0.762 z"
         style="font-family:'IBM Plex Mono';-inkscape-font-specification:'IBM Plex Mono'"
         id="path600" />
      <path
         d="m 86.838304,207.32288 h 0.762 l 3.3909,-11.049 h -0.762 z"
         style="font-family:'IBM Plex Mono';-inkscape-font-specification:'IBM Plex Mono'"
         id="path602" />
      <path
         d="m 91.283311,207.32288 h 0.762 l 3.3909,-11.049 h -0.762 z"
         style="font-family:'IBM Plex Mono';-inkscape-font-specification:'IBM Plex Mono'"
         id="path604" />
      <path
         d="m 95.728318,207.32288 h 0.762 l 3.3909,-11.049 h -0.762 z"
         style="font-family:'IBM Plex Mono';-inkscape-font-specification:'IBM Plex Mono'"
         id="path606" />
      <path
         d="m 100.17331,207.32288 h 0.762 l 3.3909,-11.049 h -0.762 z"
         style="font-family:'IBM Plex Mono';-inkscape-font-specification:'IBM Plex Mono'"
         id="path608" />
      <path
         d="m 104.61832,207.32288 h 0.762 l 3.3909,-11.049 h -0.762 z"
         style="font-family:'IBM Plex Mono';-inkscape-font-specification:'IBM Plex Mono'"
         id="path610" />
      <path
         d="m 109.06333,207.32288 h 0.762 l 3.3909,-11.049 h -0.762 z"
         style="font-family:'IBM Plex Mono';-inkscape-font-specification:'IBM Plex Mono'"
         id="path612" />
      <path
         d="m 113.50833,207.32288 h 0.762 l 3.3909,-11.049 h -0.762 z"
         style="font-family:'IBM Plex Mono';-inkscape-font-specification:'IBM Plex Mono'"
         id="path614" />
    </g>
  </g>
</svg>
