<?xml version="1.0" encoding="UTF-8"?>
<svg width="67.911mm" height="67.646mm" version="1.1" viewBox="0 0 67.911 67.646" xmlns="http://www.w3.org/2000/svg">
<g transform="translate(-59.128 34.598)">
<g transform="matrix(.26458 0 0 .26458 -202.25 -555.57)">
<ellipse transform="matrix(-.99803 .0627 .075202 .99717 0 0)" cx="-887.48" cy="2253.6" rx="61.461" ry="6.6854" opacity=".1"/>
<g transform="matrix(2.0805 0 0 2.0805 1079.9 1967.1)">
<path d="m-17.494 3.6722 2.0535 16.96-3.4986-0.15211 0.38028-16.732z" fill="#474747" fill-rule="evenodd"/>
<g transform="matrix(.087757 -.0051592 .0051592 .087757 -50.83 89.722)" stroke-width="11.375">
<path d="m197.5-735.93 450.37 26.899 3.076 358.09-475.8-2.0987z" fill="#ccdae0" fill-rule="evenodd"/>
<ellipse transform="rotate(2.0893)" cx="267.33" cy="-482.24" rx="33.836" ry="30.592" fill="#333"/>
<ellipse transform="rotate(2.0893)" cx="527.57" cy="-483.47" rx="33.614" ry="30.392" fill="#333"/>
<path d="m166.12-545.36a83.454 82.768 2.0893 0 0-63.57 77.348 83.454 82.768 2.0893 0 0 57.767 81.713z" fill="#3897c0"/>
<path d="m667.33-542.52a83.454 82.768 2.0893 0 1 57.765 81.774 83.454 82.768 2.0893 0 1-63.568 77.286z" fill="#3897c0"/>
<path d="m424.38-774.15a143 94.685 2.0893 0 0-121.76 39.213l240.5 8.7738a143 94.685 2.0893 0 0-118.74-47.987z" fill="#6e96a8"/>
<ellipse transform="rotate(2.0893)" cx="397.39" cy="-974.29" rx="30.188" ry="27.293" fill="#3897c0"/>
<path d="m295.86-353.07 0.46078 47.128 235.23-15.01-7.9504-32.442z" fill="#6e96a8" fill-rule="evenodd"/>
</g>
<path d="m-8.8906 84.648 3.6591 13.558 3.3599-0.0462-4.6112-14.533z" fill="#6e96a8" fill-rule="evenodd"/>
<path d="m-19.528 83.71-2.0362 13.894-3.342 0.35 2.8668-14.975z" fill="#6e96a8" fill-rule="evenodd"/>
<path d="m-27.313 61.936 23.796-1.833 2.6382 25.255-26.572 1.3786z" fill="#ccdae0" fill-rule="evenodd"/>
<path d="m-26.406 96.015c-6.751 0.5452-11.6 6.7283-11.193 12.505 0.21108 0.77686 0.71949 1.3802 1.3873 1.8094l17.665-1.0596c2.5332-2.5616 2.3761-6.737 0.27841-9.4891-1.9078-2.2317-4.9136-3.8406-8.1378-3.7661z" fill="#ccdae0" fill-rule="evenodd"/>
<path d="m-0.24775 94.553c-3.2242-0.0631-6.2304 1.2982-8.1383 3.1861-2.1585 2.3957-2.2628 6.0667 0.50491 8.2129 0.1502 0.077 0.30263 0.14794 0.45601 0.21664l17.092 0.42898c0.61278-0.35827 1.0792-0.84528 1.2784-1.4654 0.40717-4.8871-4.4416-10.118-11.193-10.579z" fill="#ccdae0" fill-rule="evenodd"/>
<path d="m-3.4816 59.991-23.796 1.8331-0.09781 17.594 25.76-1.5658z" fill="#333" fill-rule="evenodd"/>
<path d="m-17.601 76.284c-0.0081-0.0193-0.0222-0.66733-0.03138-1.4398-0.0091-0.77248-0.02372-1.6399-0.03239-1.9276l-0.01577-0.52309-0.66375-0.0976c-1.5997-0.23517-3.1484-0.47256-3.1611-0.48457-0.0076-7e-3 0.0051-0.0291 0.0281-0.0487 0.02305-0.0196 0.15334-0.13189 0.28951-0.24944 0.13618-0.11757 0.62569-0.5278 1.0878-0.91164 1.1527-0.95743 1.53-1.2834 1.5289-1.3209-0.0012-0.0409-0.26506-0.51488-0.9705-1.7434-0.57351-0.99882-0.88907-1.5694-0.89025-1.6097-4.61e-4 -0.0145 0.0231-0.0181 0.0663-0.0105 0.30514 0.0544 1.0821 0.21658 2.2336 0.46628 0.74951 0.16255 1.395 0.30061 1.4344 0.30681 0.06436 0.0101 0.07416 6e-3 0.09677-0.0474 0.01385-0.0322 0.31715-0.78648 0.67402-1.6761 0.35687-0.8896 0.67087-1.6717 0.69777-1.7379 0.04019-0.099 0.05378-0.11583 0.0763-0.0944 0.04142 0.0393 0.3872 0.69443 0.87138 1.6509 0.23894 0.47199 0.53934 1.0593 0.66757 1.3052l0.23313 0.44701 0.38898-0.11297c0.34686-0.10073 2.7827-0.83164 3.1566-0.94718l0.14723-0.0455 0.0012 0.0413c2e-3 0.0686-0.22332 0.57978-0.91548 2.0769l-0.65965 1.4268 0.89287 0.61458c1.8035 1.2414 2.2808 1.587 2.2545 1.6324-0.01762 0.0305-1.0755 0.29056-2.7261 0.67024-1.0227 0.23527-0.94647 0.21999-0.9472 0.18977-3.08e-4 -0.0138 0.06317-0.17039 0.14113-0.34801 0.26546-0.6048 0.34882-0.9393 0.37836-1.5184 0.04203-0.82369-0.20495-1.6713-0.68048-2.3352-0.4382-0.61186-1.1028-1.1045-1.7754-1.316-0.45686-0.14365-0.82372-0.1859-1.3325-0.15349-0.66432 0.0423-1.307 0.25892-1.7776 0.59909-0.35114 0.25381-0.79792 0.72204-1.0028 1.0509-0.43995 0.70627-0.6626 1.6586-0.55795 2.3865 0.16847 1.1717 0.77514 2.1425 1.7013 2.7225 0.22458 0.14063 0.5711 0.29876 0.67333 0.30726 0.14739 0.0123 0.16338-0.0197 0.48841-0.97234 0.16388-0.48036 0.41895-1.3018 0.41768-1.3451-3.08e-4 -0.01-0.04515-0.046-0.0997-0.0805-0.46942-0.29748-0.70858-0.72062-0.65458-1.1582 0.03459-0.28027 0.22764-0.60792 0.44628-0.75745 0.38739-0.26494 0.96474-0.22876 1.2933 0.081 0.20292 0.19136 0.32196 0.42803 0.34652 0.68896 0.03592 0.38156-0.13283 0.73022-0.50458 1.0426l-0.1574 0.13225 0.01409 0.12342c0.02101 0.18407 0.56572 1.5764 0.77114 1.9711l0.10767 0.2069 0.07641-2e-3c0.24768-9e-3 0.81988-0.4104 1.3358-0.93746l0.28177-0.28785 0.01742 0.1122c0.0096 0.0617 0.04198 0.45729 0.07201 0.87908 0.04804 0.67486 0.07161 1.0511 0.15572 2.4855 0.01053 0.18018 0.01263 0.33895 0.0047 0.35283-0.01699 0.0293-0.02647 0.0223-1.302-0.96078-0.98954-0.7627-1.5777-1.2066-1.7059-1.2873l-0.08148-0.0513-0.15202 0.125c-0.17421 0.14326-0.88588 0.78995-1.9461 1.7684-0.40364 0.37251-0.74673 0.68509-0.76243 0.69463-0.01894 0.0115-0.03351 6e-3 -0.04329-0.0179z" fill="#3897c0"/>
<path d="m18.857 57.052-2.7002-2.1272s-0.14109 4.321-5.1921 7.0179c-5.051 2.6968-7.8956 1.6902-7.8956 1.6902l1.0953 2.8825s4.2566-0.42594 7.9872-2.2085c3.7306-1.7826 6.7054-7.2549 6.7054-7.2549z" fill="#6e96a8" fill-rule="evenodd"/>
<path d="m-2.0668 61.396c0.33245 3.2518 0.67992 6.5021 1.0684 9.7477 2.1852-0.0305 4.4661-1.3052 5.1904-3.4475 0.49008-1.8611-0.50699-3.818-1.9839-4.9367-1.2914-1.2098-2.8619-2.056-4.4096-2.8875 0.04487 0.50803 0.08973 1.0161 0.13467 1.5241z" fill="#333" fill-rule="evenodd"/>
<g transform="translate(-89.88 -39.575)">
<path d="m49.679 120.94 3.33 0.85269s-1.6194-4.0086 1.9084-8.5186c3.5278-4.51 6.5364-4.7405 6.5364-4.7405l-2.168-2.1928s-3.7203 2.1119-6.4105 5.2516c-2.6902 3.1397-3.1963 9.3477-3.1963 9.3477z" fill="#6e96a8" fill-rule="evenodd"/>
<path d="m61.523 103.5c0.02285 3.2686 0.03059 6.5375-0.0029 9.8061-2.1756 0.20708-4.5814-0.81216-5.5343-2.8632-0.68941-1.7968 0.08906-3.8505 1.4357-5.123 1.1523-1.343 2.6215-2.3548 4.0697-3.3496 0.01059 0.50989 0.02119 1.0198 0.03172 1.5297z" fill="#333" fill-rule="evenodd"/>
<ellipse transform="scale(-1,1)" cx="-51.071" cy="123.92" rx="4.6937" ry="4.0209" fill="#ccdae0"/>
</g>
<ellipse transform="rotate(22.69)" cx="38.77" cy="42.68" rx="4.6937" ry="4.0209" fill="#ccdae0"/>
<path d="m17.256 55.071c-0.77155-1.6658-2.4374-4.3099-4.5826-3.4176-2.0208 2.0774 1.7197 4.4075 3.7525 3.9891 0.33833-0.06784 0.65-0.27516 0.83009-0.57154z" fill="#ccdae0" fill-rule="evenodd"/>
<path d="m23.467 53.256a4.6937 4.0209 6.6029 0 1 0.29191 1.8566 4.6937 4.0209 6.6029 0 1-5.125 3.4543 4.6937 4.0209 6.6029 0 1-4.2004-4.5338 4.6937 4.0209 6.6029 0 1 0.5373-1.4942 4.371 3.4294 6.6029 0 0 3.9026 3.024 4.371 3.4294 6.6029 0 0 4.5936-2.307z" fill="#b3c8d1"/>
</g>
<path d="m1164.8 1990.8c23.608-0.023 48.187 9.2735 51.174 32.521-6.9686 35.114-50.911 27.686-78.038 22.828-6.5725 1.6759-13.145 3.3518-19.717 5.0278l9.184-7.7204 0.043-0.7349c-14.657-9.7276-9.5004-38.396 7.8842-46.549 8.2099-3.4266 18.74-5.3625 29.471-5.373z" fill="#ee5d4d" fill-rule="evenodd"/>
<path d="m1164.2 2036.6c0.091-0.025 3.7485-2.9846 8.0049-6.2077 5.8183-4.4061 7.7446-5.6811 8.068-6.0541 0.8571-0.9893 1.4126-1.956 1.8178-3.1634 0.3415-1.0182 0.5208-2.836 0.3824-3.8777-0.2153-1.622-0.8283-3.0734-1.8438-4.3673-1.4874-1.8953-3.3688-2.9784-5.7506-3.3108-2.4133-0.3368-4.6425 1.5482-6.7044 3.0527l-0.8641 0.6301-0.5883-0.7569c-0.7095-0.912-0.9022-2.6467-1.7718-3.2466-3.709-2.7052-8.8119-2.1865-11.845 1.2044-1.2496 1.3968-1.9118 2.8163-2.1718 4.6554-0.222 1.5658-0.1298 2.6533 0.3483 4.1014 0.1661 0.5042 0.4452 1.1687 0.6201 1.4773 0.419 0.7394 11.866 15.882 12.017 15.896 0.064 0.021 0.1915-0.021 0.2813-0.034z" fill="#fff" stroke-width="2.1293"/>
<ellipse transform="matrix(.99619 .087207 -.054043 .99854 0 0)" cx="1314.1" cy="2105.5" rx="44.189" ry="6.6762" opacity=".1"/>
<g transform="matrix(10.94 0 0 10.925 -2929.8 -9316.7)" stroke-width=".098819">
<path d="m375.35 1053.2s-0.84536 1.2348-1.5979 1.8238c-0.33673 0.2636-0.25572 0.4941 0.0712 0.7487 0.21846 0.1756 0.89098 0.1952 1.1232 0.05 0.31973-0.1528-0.0374-0.6472 0.51711-1.4513 0.34929-0.4567 0.92592-0.6433 1.3426-1.0251 0.20815-0.1395 0.29792-0.4096 0.51478-0.5231 0.3215-0.023 0.49575 0.3255 0.64665 0.5563 0.23462 0.3968 0.3302 0.9138 0.0956 1.3332-0.12206 0.3043-0.32622 0.6386-0.19935 0.9739 0.15466 0.2742 0.51308 0.2014 0.77567 0.2221 0.2361-0.013 0.60712 0.087 0.63394-0.2492 0.0739-0.3155-0.0114-0.6428 0.0524-0.9599 0.0328-0.5678 0.0206-1.1369 0.0234-1.7054-0.17188-0.5153-0.70902-0.7404-1.0954-1.0674-0.46365-0.3371-0.93037-0.6698-1.395-1.0055-0.64782 0.7776-1.0101 1.2352-1.666 2.006z" fill="#afa69d" fill-rule="evenodd"/>
<path d="m376.87 1050.9c-0.32683 0.6521-1.0606 1.0113-1.307 1.7131-0.0816 0.2662 2e-3 0.5639 0.19558 0.7606 0.33012 0.4595 0.37299 1.138 9e-3 1.5914-0.21383 0.1835-0.47814 0.4467-0.31062 0.7512 0.19813 0.334 1.0124 0.3841 1.313 0.2025 0.22052-0.1184 0.0681-0.3459-0.0632-0.7469 0.13381-1.627 0.89218-1.2675 1.4847-1.2753 0.4426-0.01 0.94871 0.06 0.73196 0.5647-0.21977 0.4184-0.56113 0.8148-0.44499 1.3028 0.035 0.242 0.41089 0.1477 0.57446 0.1084 0.21749-0.076 0.39427-0.3007 0.33437-0.5395-0.0596-0.2611-0.1121-0.5236-0.0918-0.7928 0.0107-0.5558 0.14402-1.1495-0.10921-1.6727-0.19377-0.3364-0.55528-0.5167-0.83238-0.7738-0.4942-0.3985-0.99077-0.7945-1.4844-1.1936z" fill="#cfc9c3" fill-rule="evenodd"/>
<path d="m379.07 1051.8 0.29768-0.8392 0.25407 0.3957 0.18541-1.0957 0.29019 0.401 0.50189-0.8902 0.19839 0.3658 0.69477-0.9031s0.18879 0.2374 0.0129 0.5793c-0.17586 0.3419-1.3812 1.5923-1.7236 1.9275-0.34242 0.3351-0.835 0.5258-0.835 0.5258z" fill="#cfc9c3" fill-rule="evenodd"/>
<path d="m377.65 1050.5c-0.34415 0.01-0.72501 0.049-0.98607 0.2987-0.0411 0.3273 0.35417 0.4167 0.51563 0.6327 0.5793 0.5507 1.2402 1.0383 1.6783 1.7188 0.17716 0.2786 0.10655 0.6307 0.18722 0.9391 0.0555 0.2558 0.13107 0.5531-0.10601 0.7463-0.17225 0.2131-0.30306 0.4518-0.43394 0.6858-0.12681 0.3176 0.17791 0.5332 0.44582 0.604 0.37745 0.1416 0.85174 0.1554 1.1755-0.1151 0.22009-0.2556 0.10783-0.6144 0.0268-0.9024-0.24085-0.9317-0.0777-1.8984-0.1361-2.8454-0.0444-0.6344-0.42526-1.2514-1.0168-1.5091-0.42148-0.1875-0.8935-0.2516-1.3503-0.2534z" fill="#cfc9c3" fill-rule="evenodd"/>
<g transform="matrix(.99904 -.043832 .043718 .99904 -45.571 17.377)">
<path d="m375.35 1047.4c-0.46437 0.1127-0.9378 0.3865-1.1355 0.836 0.10104 0.4331 0.64934 0.5381 0.92496 0.8438 0.27047 0.3903 0.81797 0.3017 0.81411-0.2096 0.11763-0.5106-0.0389-1.0899-0.41833-1.452-0.0555-0.031-0.12525-0.041-0.18524-0.018z" fill="#afa69d" fill-rule="evenodd"/>
<path d="m370.36 1049.4c-0.12658 0.1022-0.18929 0.2721-0.16308 0.4323 0.0365 0.4135 0.19872 0.8211 0.48284 1.1271 0.0991 0.055 0.22349 3e-4 0.27633-0.093 0.12076-0.1709 0.15835-0.391 0.30694-0.544 0.0732-0.1004 0.12471-0.2144 0.18859-0.3207 0.10998-0.2028 0.2062-0.4206 0.223-0.6535-0.01-0.1117-0.1254-0.1741-0.22814-0.1714-0.33881-0.043-0.85981 0.056-1.0865 0.2232z" fill="#afa69d" fill-rule="evenodd"/>
<path d="m373.85 1048.2c-1.5556 0.034-3.0873 1.2648-3.2217 2.8574-0.0658 1.0304 0.58962 2.0481 1.5424 2.4367 0.66428 0.371 1.4601 0.2263 2.1471 0.01 0.82867-0.1908 1.7757-0.4884 2.1776-1.312 0.62003-1.2053 0.11035-2.8098-1.0465-3.4937-0.4758-0.3036-1.0349-0.4774-1.5989-0.4935z" fill="#cfc9c3" fill-rule="evenodd"/>
<path d="m373.98 1051.4c-0.36572 0.052-0.72581 0.1669-1.0586 0.3227-0.22822 0.1993-0.0931 0.5568 0.12025 0.7115 0.26741 0.2164 0.68326 0.2935 0.98656 0.1111 0.28062-0.2009 0.44693-0.5853 0.35361-0.9232-0.0637-0.1575-0.24321-0.223-0.40178-0.2221z" fill="#ea9475" fill-rule="evenodd"/>
<ellipse transform="rotate(-10.529)" cx="173.97" cy="1101.5" rx=".3039" ry=".27477" fill="#333"/>
<ellipse transform="rotate(-10.529)" cx="176.3" cy="1101.4" rx=".30191" ry=".27297" fill="#333"/>
</g>
<path d="m376.57 1053.1c-0.33073 0.028-0.65219 0.141-0.9867 0.1271-0.31006 0.083-0.0576 0.4585 0.11439 0.5634 0.27577 0.1966 0.63253 0.1788 0.94424 0.2751 0.35281 0 0.12421-0.3568 0.10109-0.5461-0.0276-0.1487-0.0592-0.3101-0.17302-0.4195z" fill="#cfc9c3" fill-rule="evenodd"/>
<path d="m376.64 1050.9c-0.0549 0.4988-0.11322 1.0206-0.38534 1.4553-0.18573 0.2942-0.43098 0.5534-0.7194 0.7485-0.12537 0.083-0.26002 0.1495-0.39794 0.2081 0.12971 0.053 0.27361 0.042 0.40931 0.068 0.42952 0.04 0.88318-0.143 1.141-0.4932 0.20071-0.2978 0.25055-0.6709 0.23414-1.0226-0.0275-0.3358-0.14288-0.6612-0.28178-0.9637z" fill="#f26f54" fill-rule="evenodd"/>
</g>
</g>
</g>
</svg>
