<?xml version="1.0" encoding="UTF-8"?>
<svg width="63.061mm" height="59.152mm" version="1.1" viewBox="0 0 63.061 59.152" xmlns="http://www.w3.org/2000/svg">
<g transform="translate(-2.4498 -2.6189)">
<g transform="matrix(.26458 0 0 .26458 -84.717 -408.31)">
<g transform="translate(5.6503 25.305)">
<ellipse transform="matrix(-.99997 -.0077346 .0047974 .99999 0 0)" cx="-411.29" cy="1741.5" rx="61.461" ry="6.6854" opacity=".1"/>
<g transform="matrix(.33284 .35491 .35491 -.33284 -433.11 2183.9)">
<g transform="matrix(.21393 -.4151 .4151 .21393 -2436 1597.2)" stroke-width="2.4152">
<circle cx="2163.6" cy="5784.1" r="241.53" fill="#fec540"/>
<rect x="2107.6" y="6180.1" width="123.73" height="57.627" rx="120.76" ry="120.76" fill="#3e4b54"/>
<rect x="2107.6" y="6180.1" width="123.73" height="34.463" rx="120.76" ry="120.76" fill="#4b555f"/>
<rect x="2062.7" y="6140.4" width="213.56" height="57.627" rx="48.305" ry="48.305" fill="#3e4b54"/>
<rect x="2062.7" y="6140.4" width="213.56" height="34.463" rx="48.305" ry="48.305" fill="#4b555f"/>
<path d="m2155.7 5883.3 0.1368 6.9355-174.44 50.691s81.356 52.542 84.746 89.83c3.3899 37.288 0 100 0 100l94.615 10.348 0.029 1.5156 6.916-0.7559 6.9141 0.7559 0.029-1.5156 94.615-10.348s-3.3899-62.712 0-100c3.3898-37.288 84.744-89.83 84.744-89.83l-174.44-50.691 0.1367-6.9355-12 3.4863z" fill="#fec540" fill-rule="evenodd"/>
<path d="m2125.4 6106.3c3.9681-81.009 7.0063-162.07 12.268-243.01-18.624-74.941-139.71-8.4054-74.83 45.53 58.054 56.537 157.56 39.33 211.13-14.506 40.791-57.268-70.518-102.25-72.812-23.816-10.16 66.553-0.3296 135.12-4.9191 202.69-10.353 42.408 30.786 46.838 23.158 3.5302-0.2656-63.854-6.5933-127.92-2.1241-191.68-5.4212-51.427 61.115-30.031 30.816 9.1469-49.116 38.348-131.97 43.427-174.59-9.067 6.4275-64.052 67.182 8.1143 40.536 43.479-2.2227 59.9-5.6668 119.99-3.6129 179.88 0.1807 10.701 13.513-1.0032 14.97-2.1727z" fill="#dda73b" fill-rule="evenodd"/>
<rect x="2040.7" y="6096.8" width="257.63" height="57.627" rx="48.305" ry="48.305" fill="#3e4b54"/>
<rect x="2040.7" y="6096.8" width="257.63" height="34.463" rx="48.305" ry="48.305" fill="#4b555f"/>
<path d="m2173.2 5562.9a186.14 186.14 0 0 0-105.57 33.082 173.73 173.73 0 0 1 68.828-14.438 173.73 173.73 0 0 1 173.73 173.73 173.73 173.73 0 0 1-0.4296 8.5977l49.303-6.9648a186.14 186.14 0 0 0 0.2793-7.8653 186.14 186.14 0 0 0-186.14-186.14z" fill="#fee9cc"/>
</g>
<g transform="matrix(1.0184 -.48469 .48469 1.0184 -3150.4 -3592.2)" fill="#d6d6d6" stroke-width="1.982">
<rect transform="rotate(-59.949)" x="-4643.1" y="3372.3" width="12.309" height="60.008" rx="20" ry="20"/>
<rect transform="rotate(-76.539)" x="-5470.5" y="1901.9" width="12.309" height="60.008" rx="20" ry="20"/>
<rect transform="rotate(-86.162)" x="-5761.5" y="964.24" width="12.309" height="60.008" rx="20" ry="20"/>
</g>
</g>
</g>
<g transform="rotate(8.2678 244.26 1898.8)">
<path d="m466.38 1524.4 2.5298 35.455-7.2545-0.6744 2.5042-34.731z" fill="#474747" fill-rule="evenodd"/>
<g transform="matrix(.18288 .0022428 -.0022428 .18288 389.46 1694.3)" stroke-width="11.375">
<path d="m175.13-352.72c152.74-2.013 305.49-4.026 458.23-6.0391-3.6146-116.06-7.2292-232.11-10.844-348.17-141.68-9.666-283.35-19.332-425.03-28.998-7.4538 127.74-14.908 255.47-22.361 383.21z" fill="#ccdae0" fill-rule="evenodd"/>
<path transform="rotate(2.0893)" d="m263.8-511.6c-23.731 0.0557-39.733 33.369-22.452 50.817 16.092 18.642 53.333 11.729 58.158-13.596 3.8486-20.043-16.017-39.153-35.705-37.22z" fill="#333" stroke-linejoin="round" stroke-width="45.502"/>
<path transform="rotate(2.0893)" d="m506.03-514.4c-23.244 2.6289-34.647 37.285-15.7 52.097 16.993 15.355 50.163 4.0035 51.19-19.81 1.1975-18.68-17.044-35.145-35.49-32.287z" fill="#333" stroke-linejoin="round" stroke-width="45.502"/>
<path d="m154.7-541.72c-41.003 15.468-64.213 67.289-45.89 107.68 9.0746 21.85 27.656 39.707 50.161 47.24 3.6996-7.2213 0.5634-15.696 2.2141-23.415 1.6428-45.05 3.2857-90.101 4.9285-135.15-3.8047 1.2142-7.6094 2.4284-11.414 3.6426z" fill="#3897c0"/>
<path d="m639.71-541.84c-0.83155 50.299 0.81042 100.59 1.7031 150.88 45.734-11.38 71.425-70.67 47.334-111.52-10.01-19.374-27.462-35.049-48.278-41.882-0.25326 0.84244-0.50651 1.6849-0.75977 2.5273z" fill="#3897c0"/>
<path d="m396.97-773.17c-34.46 2.7536-68.89 14.997-94.855 38.299 74.85 3.6165 149.7 7.2331 224.55 10.85-30.932-37.869-82.577-51.326-129.7-49.148z" fill="#6e96a8"/>
<path d="m405.47-971.92c-21.149-2.8894-39.332 25.023-25.558 42.319 12.682 19.022 47.737 14.387 52.969-8.6246 5.0207-16.622-10.263-34.946-27.411-33.694z" fill="#3897c0" stroke-linejoin="round" stroke-width="45.502"/>
<path d="m294.92-350.76c0.13607 15.718 0.27213 31.436 0.4082 47.154 75.436-6.9922 150.87-13.984 226.31-20.977-2.9115-10.607-5.8229-21.214-8.7344-31.82-72.66 1.8809-145.32 3.7617-217.98 5.6426z" fill="#6e96a8" fill-rule="evenodd"/>
</g>
<path d="m481.84 1682.1c-1.347 0.8778-2.2132 2.2878-3.4746 3.2657-0.38969 1.1434 1.2565 1.0057 1.9297 1.2851 5.2743 1.6916 9.5149 5.511 13.105 9.5971 3.1794 3.628 6.148 7.76 7.0061 12.611 0.28544 0.8737 0.12906 1.7781 0.19688 2.6735 0.17871 1.0036 1.3576 0.6597 1.9748 0.3234 1.1326-0.6236 2.3976-0.9164 3.5898-1.3945 1.0517-0.5974-0.16227-2.0422-0.20789-2.9885-2.4106-7.5081-7.4487-14.032-13.754-18.704-3.1282-2.3573-6.4285-4.4847-9.739-6.5693-0.19772-0.079-0.41344-0.1234-0.62679-0.1z" fill="#6e96a8" fill-rule="evenodd"/>
<path d="m510.72 1692c-5.7889 3.3918-9.6434 9.0738-10.977 14.496-1.2262 6.596 2.5779 13.222 9.8206 14.023 0.35009-0.027 0.69768-0.067 1.0445-0.1113l30.79-17.812c0.69787-1.3015 0.99618-2.6724 0.67569-3.989-4.5884-9.1133-18.875-13.125-31.354-6.6067z" fill="#ccdae0" fill-rule="evenodd"/>
<path d="m458.38 1684.6c-1.5202 0.914-2.9025 2.0335-4.25 3.1817-0.491 0.8877 0.47388 1.7353 1.2812 1.9179 3.1432 0.7238 5.9913 2.3937 8.5745 4.2822 4.0584 3.059 7.4754 6.9307 10.223 11.194 2.0076 3.2171 3.4204 6.8143 4.0544 10.557-0.17327 1.0074 0.28453 2.1285 1.1953 2.6309 1.0995-0.1633 2.1702-0.4666 3.2461-0.7383 1.2412-1.0674 1.0097-2.9237 0.48633-4.2968-2.1573-7.8291-6.4168-15.245-12.815-20.358-3.666-3.0985-7.7478-5.6429-11.712-8.3317l-0.13672-0.041z" fill="#6e96a8" fill-rule="evenodd"/>
<g transform="matrix(-2.062 .2773 .2773 2.062 417.14 1516.8)" fill-rule="evenodd">
<path d="m-25.867 63.277c-0.34635 7.6361-0.69271 15.272-1.0391 22.908 8.6615-0.28906 17.323-0.57812 25.984-0.86719-0.99935-8.2383-1.9987-16.477-2.998-24.715-7.3158 0.89128-14.632 1.7826-21.947 2.6738z" fill="#ccdae0"/>
<path d="m-25.826 63.164c-0.20378 5.1003-0.40755 10.201-0.61133 15.301 8.2142-0.25391 16.428-0.50781 24.643-0.76172-0.69596-5.7383-1.3919-11.477-2.0879-17.215-7.3145 0.89193-14.629 1.7839-21.943 2.6758z" fill="#333"/>
</g>
<g transform="matrix(2.0794 -.069507 .069507 2.0794 304.18 1434.1)">
<path d="m59.213 106.93c-2.4531 2.6543-4.7027 5.9211-5.0082 9.7524-0.17281 1.7373-0.04352 3.4825 0.09446 5.2132 1.0452 2e-3 2.0904 4e-3 3.1355 6e-3 -1.6351-2.8965-1.0833-6.703 0.56307-9.4879 0.95822-1.8483 0.49858-3.6987 2.2724-4.683-0.69942-0.62506 0.28925-1.0113-0.5841-1.3053-0.1577 0.1681-0.31541 0.3362-0.47312 0.50429z" fill="#6e96a8" fill-rule="evenodd"/>
<path d="m60.537 102.43c-1.9525 1.3756-4.1126 2.9882-4.6152 5.4746-0.24033 2.371 1.9697 4.3519 4.2024 4.5908 0.43403 0.0329 1.1094 0.22625 1.4065 0.0283 0.06609-3.5998 0.09709-7.2004 0.07082-10.801-0.35482 0.23568-0.70964 0.47136-1.0645 0.70703z" fill="#333" fill-rule="evenodd"/>
<path d="m55.893 120.34c2.1954 0.13169 4.3473 2.1684 4.0098 4.4629-0.55761 2.3955-3.3762 3.6016-5.635 3.0568-2.0573-0.33574-3.9585-2.4261-3.4296-4.5778 0.61129-2.0964 2.9966-3.1976 5.0548-2.9419z" fill="#ccdae0" stroke-linejoin="round" stroke-width="4"/>
</g>
<g transform="matrix(2.0453 .38152 -.38152 2.0453 521.46 1520.8)">
<g transform="matrix(1 0 0 -1 -7.059 127.84)">
<path d="m14.13 57.434c-1.1985 3.598-4.537 6.2384-8.1334 6.7304-0.45597 0.52716 0.048263 1.1863 0.083681 1.7638 0.69093 0.74856 1.6828 0.06306 2.4586-0.16626 3.1023-1.1662 5.7522-3.5386 7.415-6.492-0.07379-1.0391-1.0411-1.5783-1.7198-2.1845-0.03469 0.1162-0.06938 0.23239-0.10406 0.34859zm-8.6247 6.748c0.092726 0.0521-0.072294-0.26041 0 0z" fill="#6e96a8" fill-rule="evenodd"/>
<path d="m17.683 52.297c-2.6439-1.1596-5.9268 1.6925-5.1174 4.4723 0.66661 2.5595 4.084 3.9166 6.2746 2.3642 1.4318-0.92902 1.8067-2.889 1.1981-4.4136-0.38788-1.0953-1.2429-2.0421-2.3553-2.4228z" fill="#ccdae0" stroke-linejoin="round" stroke-width="4"/>
</g>
<path d="m-4.5586 59.238c0.85078 3.0841 2.2942 5.9547 3.3906 8.9512 0.76644 0.23288 1.3287-0.55624 1.9104-0.91482 1.3879-1.2542 2.0918-3.583 0.9193-5.199-1.4974-1.8987-3.9177-2.7613-6.2418-3.0835 0.00716 0.08203 0.014323 0.16406 0.021484 0.24609z" fill="#333" fill-rule="evenodd"/>
</g>
<path d="m488.87 1707.1c-6.3828 2.0677-11.369 6.7881-13.837 11.797-2.6157 6.1781-0.32536 13.468 6.576 15.806 0.34768 0.049 0.69567 0.085 1.0439 0.1159l33.9-10.776c0.96138-1.121 1.5475-2.3957 1.5176-3.7505-2.5216-9.8866-15.612-16.876-29.2-13.194z" fill="#ccdae0" fill-rule="evenodd"/>
<path d="m499.66 1705.9c-0.56005 0-1.1251 0.024-1.6941 0.065 9.0715 2.2976 16.237 9.0097 18.381 17.384l0.93927-0.3262c0.84061-1.0698 1.3531-2.286 1.327-3.5789-1.7915-7.6663-9.6834-13.508-18.953-13.544z" fill="#a9c1cb" fill-rule="evenodd"/>
<path d="m461.86 1670c-0.0184-0.034-0.15398-1.2456-0.30132-2.6903-0.14715-1.4447-0.32073-3.0662-0.3854-3.6035l-0.11764-0.9766-1.2591-0.071c-3.0346-0.171-5.9741-0.3542-5.9999-0.3746-0.0154-0.013 5e-3 -0.056 0.0444-0.096 0.0399-0.041 0.26486-0.2729 0.50001-0.516 0.23516-0.2429 1.0825-1.0935 1.883-1.8899 1.9968-1.9868 2.6483-2.6606 2.6399-2.7307-9e-3 -0.076-0.583-0.9192-2.1107-3.1006-1.242-1.7734-1.9289-2.7885-1.9379-2.8637-4e-3 -0.027 0.0402-0.038 0.12235-0.031 0.58047 0.05 2.0624 0.2231 4.2603 0.4966 1.4306 0.178 2.6623 0.3279 2.7371 0.3329 0.12233 0.01 0.13993 0 0.17316-0.1054 0.0205-0.062 0.46129-1.526 0.97955-3.2515 0.51828-1.7258 0.97438-3.2428 1.0136-3.3713 0.0585-0.1922 0.0811-0.226 0.12694-0.1897 0.0842 0.067 0.84192 1.235 1.9095 2.944 0.52686 0.8435 1.1882 1.8924 1.4697 2.3312l0.51178 0.7975 0.70923-0.277c0.63243-0.247 5.0698-2.0258 5.7502-2.3051l0.26796-0.1103 9e-3 0.077c0.0151 0.1282-0.32043 1.1231-1.3641 4.0425l-0.99463 2.7825 1.7752 1.0002c3.5858 2.0204 4.5375 2.5869 4.496 2.6763-0.028 0.06-1.9647 0.7252-4.9909 1.7142-1.8751 0.6127-1.7349 0.5712-1.7414 0.5148-3e-3 -0.026 0.0896-0.3296 0.20559-0.6753 0.39511-1.1771 0.49481-1.8174 0.45258-2.9065-0.0601-1.5492-0.66526-3.0944-1.6674-4.2574-0.92347-1.0717-2.2507-1.8819-3.5456-2.1647-0.87953-0.1918-1.5735-0.2091-2.5206-0.063-1.2366 0.1911-2.4034 0.705-3.2272 1.4211-0.61465 0.5344-1.3722 1.4863-1.7004 2.1365-0.70468 1.3964-0.9611 3.217-0.64255 4.562 0.51282 2.1653 1.8122 3.8806 3.6439 4.8106 0.44416 0.2255 1.1196 0.4631 1.3124 0.4617 0.27803 0 0.30256-0.064 0.75058-1.9027 0.22588-0.9269 0.56505-2.5077 0.55536-2.5886-2e-3 -0.019-0.0923-0.079-0.20022-0.1339-0.92898-0.4779-1.448-1.2297-1.4206-2.0581 0.017-0.5306 0.32376-1.1765 0.70791-1.4933 0.68063-0.5613 1.7676-0.5907 2.4349-0.066 0.41214 0.324 0.67488 0.747 0.76483 1.2315 0.1315 0.7082-0.12563 1.3894-0.76904 2.0369l-0.27241 0.2741 0.0472 0.2286c0.0703 0.3411 1.3247 2.8561 1.7758 3.5604l0.23642 0.3694 0.14307-0.013c0.46216-0.059 1.4658-0.9065 2.343-1.9802l0.47905-0.5864 0.0514 0.2072c0.0284 0.1139 0.1556 0.8491 0.28291 1.6337 0.20368 1.2554 0.31116 1.9558 0.7103 4.6272 0.0501 0.3356 0.0808 0.6324 0.0684 0.6598-0.0268 0.058-0.0458 0.046-2.5996-1.5795-1.9811-1.2612-3.1571-1.993-3.4107-2.1226l-0.16117-0.083-0.26357 0.2596c-0.30202 0.2976-1.5254 1.6282-3.3456 3.6387-0.69295 0.7656-1.2826 1.4085-1.3104 1.429-0.0334 0.025-0.0617 0.017-0.0841-0.027z" fill="#3897c0" stroke-width="1.8798"/>
</g>
</g>
</g>
</svg>
