<?xml version="1.0" encoding="UTF-8"?>
<svg width="53.854mm" height="63.441mm" version="1.1" viewBox="0 0 53.854 63.441" xmlns="http://www.w3.org/2000/svg">
<g transform="translate(-72.598 -80.965)">
<g transform="matrix(.91414 0 0 .91414 96.212 772.47)">
<ellipse transform="matrix(.99851 .054641 .054641 -.99851 0 0)" cx="-24.503" cy="690.11" rx="15.715" ry="3.2581" fill="#aea79f" opacity=".2"/>
<g transform="matrix(-.6185 0 0 .6185 61.632 -781.5)" stroke-width="1.2904">
<path d="m72.915 43.247 2.0535 16.96-3.4986-0.15211 0.38028-16.732z" fill="#474747" fill-rule="evenodd"/>
<g transform="matrix(.087757 -.0051592 .0051592 .087757 39.578 129.3)" stroke-width="18.392">
<path d="m175.15-353.04c156.42-0.63606 312.84-1.2721 469.25-1.9082 1.1562-118.03 2.3125-236.06 3.4688-354.08-150.12-8.9668-300.25-17.934-450.37-26.9-7.4499 127.63-14.9 255.26-22.35 382.89z" fill="#ccdae0" fill-rule="evenodd"/>
<path transform="rotate(2.0893)" d="m264.94-512.76c-11.976 0.74822-23.837 7.7795-28.874 18.896-4.417 9.5011-2.8672 21.395 3.8323 29.454 8.2641 10.355 22.718 14.811 35.505 11.827 10.743-2.333 20.598-9.9575 24.191-20.541 2.9233-8.4412 1.5402-18.211-3.7037-25.459-6.8781-9.8011-19.147-14.921-30.951-14.177z" fill="#333"/>
<path transform="rotate(2.0893)" d="m524.26-513.62c-13.95 0.676-27.421 10.557-30.983 24.276-3.4761 13.155 3.9136 28.212 16.504 33.43 15.317 7.0087 35.449 1.5266 44.555-12.794 6.0705-9.4273 6.2642-22.694-0.67598-31.735-6.6753-9.0901-18.269-13.854-29.4-13.177z" fill="#333"/>
<path d="m166.12-545.36a83.454 82.768 2.0893 0 0-63.57 77.348 83.454 82.768 2.0893 0 0 57.767 81.713z" fill="#3897c0"/>
<path d="m661.1-539.32c1.1407 39.316 1.5963 78.651 1.403 117.98-0.0555 12.673-0.14215 25.346-0.20989 38.019 25.052-8.0053 46.626-27.328 55.967-52.08 10.122-27.137 3.8735-59.817-16.163-80.866-10.946-11.706-25.37-20.031-40.889-23.953-0.0361 0.29864-0.0721 0.59728-0.10821 0.89592z" fill="#3897c0"/>
<path d="m424.38-774.15a143 94.685 2.0893 0 0-121.76 39.213l240.5 8.7738a143 94.685 2.0893 0 0-118.74-47.987z" fill="#6e96a8"/>
<ellipse transform="rotate(2.0893)" cx="392.53" cy="-974.4" rx="30.188" ry="27.293" fill="#3897c0"/>
<path d="m295.16-352.95c-0.0996 15.749-0.19922 31.497-0.29883 47.246 76.704-6.3112 153.41-12.622 230.11-18.934-2.405-10.243-4.8099-20.486-7.2148-30.729-74.199 0.80533-148.4 1.6107-222.6 2.416z" fill="#6e96a8" fill-rule="evenodd"/>
</g>
<path d="m81.215 123.13c1.4349 4.526 2.8698 9.0521 4.3047 13.578 1.084-0.056 2.168-0.11198 3.252-0.16797-1.7682-4.8516-3.5365-9.7031-5.3047-14.555-0.75065 0.38151-1.5013 0.76302-2.252 1.1445z" fill="#6e96a8" fill-rule="evenodd"/>
<path d="m64.781 137.05c1.1556-0.0312 2.3112-0.0625 3.4668-0.0937 1.1087-4.6087 2.2174-9.2174 3.3262-13.826-0.8099-0.29166-1.6198-0.58333-2.4297-0.875-1.4544 4.9316-2.9089 9.8633-4.3633 14.795z" fill="#6e96a8" fill-rule="evenodd"/>
<path d="m62.982 101.54c-0.01693 8.2266-0.03385 16.453-0.05078 24.68 8.6471-0.91927 17.294-1.8385 25.941-2.7578-0.88216-8.0651-1.7643-16.13-2.6465-24.195-7.748 0.75781-15.496 1.5156-23.244 2.2734z" fill="#ccdae0" fill-rule="evenodd"/>
<path d="m64.102 135.86c-2.1638 0.14365-4.2654 0.90588-6.0788 2.0832-2.5958 1.6895-4.5423 4.376-5.2706 7.3926-0.25673 1.085-0.40056 2.2239-0.19391 3.3296 0.2121 0.68688 0.72392 1.2729 1.3715 1.5833 5.9846-0.37699 11.967-0.78542 17.951-1.1699 1.5294-1.5343 2.2535-3.805 1.9536-5.9443-0.26081-1.9857-1.3376-3.8689-2.9728-5.0387-1.5975-1.2045-3.5181-1.9945-5.5145-2.1852-0.41398-0.0411-0.82958-0.0586-1.2456-0.0505z" fill="#ccdae0" fill-rule="evenodd"/>
<path d="m89.602 135.29c-2.3128 0.10015-4.5576 1.0456-6.3113 2.5447-0.96415 0.79752-1.7625 1.8278-2.1623 3.023-0.51362 1.4628-0.50337 3.1389 0.17767 4.5469 0.39887 0.84054 1.019 1.5941 1.8253 2.0696 0.52395 0.24081 1.1125 0.12167 1.6681 0.15453 5.1236 0.0523 10.247 0.11797 15.371 0.15729 0.4944-0.18682 0.83745-0.6294 1.0836-1.0784 0.27886-0.61869 0.1783-1.3182 0.0683-1.964-0.32153-1.9071-1.2568-3.6756-2.5113-5.1333-1.8524-2.1368-4.4353-3.6385-7.2189-4.1532-0.65626-0.11585-1.3231-0.18554-1.9901-0.16711z" fill="#ccdae0" fill-rule="evenodd"/>
<path d="m63.018 101.42c-0.04297 5.8346-0.08594 11.669-0.12891 17.504 8.3424-0.9401 16.685-1.8802 25.027-2.8203-0.54948-5.6484-1.099-11.297-1.6484-16.945-7.75 0.75391-15.5 1.5078-23.25 2.2617z" fill="#333" fill-rule="evenodd"/>
<path d="m74.742 102.54c-0.47526 1.1647-0.95052 2.3294-1.4258 3.4941-1.2346-0.19761-2.4663-0.4129-3.6992-0.6211 0.53697 1.0746 1.1671 2.0984 1.7695 3.1367-1e-3 0.18167-0.20433 0.25274-0.30046 0.38106-0.80788 0.76496-1.6497 1.4928-2.4808 2.2322 0.05472 0.10932 0.20374 0.042 0.29933 0.0826 1.141 0.15079 2.2878 0.25125 3.4331 0.36268 0.04893 1.2618 0.09359 2.5237 0.15039 3.7852 0.63744-0.49742 1.1616-1.1194 1.7603-1.6602 0.34424-0.33073 0.68847-0.66146 1.0327-0.99218 0.99916 0.67202 1.9872 1.3604 2.9805 2.041 0.10832-0.32316-0.02857-0.65929-0.01572-0.98903-0.06667-0.88666-0.14445-1.7725-0.23038-2.6574-0.46523 0.43196-0.87299 0.97548-1.4941 1.1914-0.20728 0.0273-0.28399-0.21232-0.35072-0.36342-0.24282-0.56256-0.52601-1.1164-0.65123-1.7206 0.22044-0.30747 0.57865-0.56636 0.59543-0.97613 0.07715-0.55007-0.40131-1.125-0.96903-1.0915-0.60906-4e-3 -1.1659 0.60255-1.0458 1.2148 0.06482 0.35779 0.32372 0.64537 0.6225 0.83424 0.15537 0.17171 0.0041 0.40173-0.04074 0.58736-0.17391 0.57846-0.3593 1.1538-0.5745 1.7184-0.42127 0.0639-0.77986-0.21747-1.1119-0.43232-1.2409-0.89094-1.7441-2.6654-1.1594-4.0762 0.50965-1.2737 1.7581-2.251 3.1404-2.3391 1.2378-0.0889 2.5298 0.53899 3.1387 1.6367 0.55658 0.99857 0.57921 2.2503 0.13477 3.2949-0.03047 0.11681-0.13059 0.21782-0.10742 0.3457 0.41536-3e-3 0.79318-0.2012 1.1942-0.28338 0.74564-0.20998 1.4893-0.42691 2.2316-0.64826-0.14358-0.24388-0.42474-0.34831-0.64042-0.5154-0.7721-0.51451-1.5559-1.0111-2.3381-1.51 0.49871-1.1434 1.0239-2.2749 1.5234-3.418-0.76177 0.15981-1.4785 0.47376-2.2215 0.69826-0.46522 0.15527-0.93045 0.31054-1.3957 0.4658-0.57695-1.0727-1.1501-2.1475-1.7441-3.2109z" fill="#3897c0" stroke-width="1.6168"/>
<path d="m106.06 94.26c-0.28102 1.5058-1.0524 2.8916-2.0868 4.0106-1.2575 1.351-2.8766 2.311-4.5669 3.0205-1.3644 0.55554-2.7776 1.0288-4.2438 1.2187-0.83212 0.10489-1.6811 0.10508-2.5068-0.0526-0.04755 0.24411 0.14628 0.44434 0.18753 0.67497 0.24348 0.6715 0.48696 1.343 0.73044 2.0145 2.3039-0.34274 4.5973-0.83101 6.7844-1.6454 1.2015-0.42345 2.3633-0.98989 3.3666-1.7824 1.2816-0.9845 2.4118-2.1541 3.4353-3.4014 0.53937-0.65841 1.0421-1.3457 1.5368-2.038-0.8776-0.68945-1.7552-1.3789-2.6328-2.0684-1e-3 0.01628-3e-3 0.03255-4e-3 0.04883z" fill="#6e96a8" fill-rule="evenodd"/>
<path d="m87.555 99.053c0.07992 1.9745 0.27839 3.9414 0.45171 5.9092 0.14448 1.5612 0.30547 3.1208 0.4643 4.6806 1.66-0.11036 3.3031-0.85597 4.377-2.1445 0.62233-0.76071 0.978-1.7719 0.826-2.7566-0.15804-1.1721-0.84626-2.2183-1.7356-2.9744-1.2999-1.1434-2.8377-1.966-4.3794-2.7318l-0.0037 0.01682z" fill="#333" fill-rule="evenodd"/>
<g transform="translate(.52917)" stroke-width="1.2904">
<path d="m59.045 106.46c-2.1816 1.3844-4.26 2.9731-5.9668 4.9248-0.53387 0.59991-0.99387 1.2651-1.3537 1.9836-0.8309 1.6029-1.3163 3.3587-1.6735 5.1209-0.15708 0.80616-0.27332 1.6198-0.3674 2.4356 0.10714 0.083 0.25735 0.0697 0.38032 0.12102 0.97935 0.25132 1.9587 0.50265 2.938 0.75398-0.61775-1.9492-0.41686-4.1056 0.39146-5.9692 0.6655-1.5502 1.7-2.9156 2.8667-4.123 1.0662-1.0657 2.233-2.077 3.6255-2.6897 0.43988-0.19405 0.89653-0.35441 1.3683-0.45059-0.14209-0.2536-0.39153-0.42061-0.57105-0.6454-0.49129-0.51924-0.98258-1.0385-1.4739-1.5577-0.05469 0.0319-0.10938 0.0638-0.16406 0.0957z" fill="#6e96a8" fill-rule="evenodd"/>
<path d="m61.286 102.56c-1.5011 0.88431-2.9727 1.862-4.1742 3.1363-0.91645 0.92743-1.5066 2.2062-1.4896 3.5212 0.02125 0.74374 0.27557 1.4764 0.72108 2.0724 0.90532 1.265 2.3977 2.0618 3.9392 2.1966 0.21473 0.0242 0.43094 0.0294 0.64688 0.0277 0.28401-3.5203 0.59542-7.0384 0.86167-10.56 0.01781-0.2419 0.03562-0.4838 0.05343-0.7257-0.18614 0.11048-0.37229 0.22096-0.55843 0.33143z" fill="#333" fill-rule="evenodd"/>
<path transform="scale(-1,1)" d="m-51.373 119.91c-1.3862 0.0703-2.7622 0.7203-3.6052 1.8388-0.77834 0.98635-0.95088 2.3937-0.47651 3.5517 0.23314 0.58435 0.63105 1.0945 1.1226 1.4848 1.5961 1.3477 4.0361 1.5174 5.8374 0.48358 1.0459-0.58148 1.8816-1.6121 2.0658-2.8129 0.1805-1.1874-0.28002-2.4489-1.184-3.2403-0.9955-0.9411-2.4072-1.3682-3.7601-1.3056z" fill="#ccdae0"/>
</g>
<path transform="rotate(22.69)" d="m136.91 40.316c-1.4401 0.10925-2.8605 0.77301-3.7734 1.9082-0.77905 0.97223-1.0514 2.3693-0.57606 3.5365 0.42782 1.0288 1.3677 1.7773 2.4033 2.139 2.0453 0.72707 4.516 0.06124 5.8897-1.6273 0.71735-0.89374 1.0087-2.1471 0.65027-3.2484-0.22966-0.7085-0.72409-1.3093-1.3093-1.758-0.69894-0.53037-1.5522-0.8377-2.4232-0.91915-0.28587-0.02873-0.57403-0.03924-0.86127-0.03081z" fill="#ccdae0"/>
<path d="m105.03 91.978c-0.86403 1.1501-0.83726 2.8883 0.0921 3.9937 0.90098 1.108 2.3134 1.7272 3.7248 1.7987 1.3652 0.07568 2.7816-0.32698 3.8276-1.226 0.70671-0.61275 1.1866-1.5062 1.2162-2.4497 0.0244-0.45237-0.0517-0.91347-0.23765-1.3276-0.56922 1.0582-1.6587 1.7844-2.8274 2.0114-1.55 0.35355-3.2696 0.05202-4.5414-0.92344-0.59865-0.46812-1.0696-1.1255-1.2328-1.8751l-6e-3 -0.0039z" fill="#b3c8d1"/>
</g>
<path d="m-22.016-738.62c-0.2759 0.0333-0.55451 0.14539-0.734 0.36507-0.19849 0.19564-0.3918 0.41307-0.47541 0.6848-0.21029 0.69295-0.34089 1.4063-0.50051 2.1118-0.19198 0.88113-0.37399 1.7644-0.55017 2.6488-0.062 0.34122-0.14261 0.68156-0.15402 1.0294 0 0.058 0.0101 0.13598 0.075 0.14986 0.096 0.0244 0.196-2e-3 0.2935-2e-3 1.0007-0.0541 2.0007-0.12366 3.0027-0.14986 0.44241-0.0101 0.89691-0.0213 1.3226 0.11881 0.21399 0.0823 0.40108 0.22696 0.53848 0.4101 0.2962 0.37193 0.52191 0.80305 0.64211 1.2639 0.15439 0.554 0.14589 1.1417 0.05 1.705-0.098 0.54025-0.2876 1.068-0.58989 1.5283-0.2605 0.39587-0.6051 0.74193-1.0188 0.97664-0.18299 0.10107-0.37939 0.19326-0.5924 0.19725-0.30059 0.0157-0.59129-0.0837-0.8713-0.18071-0.5838-0.22092-1.1443-0.49696-1.712-0.75511-0.60931-0.28121-1.2169-0.5672-1.8241-0.85202-0.042-0.0206-0.1-0.0691-0.14521-0.0336-0.05 0.0587-0.0201 0.14269-0.04 0.21222-0.1465 1.1544-0.2836 2.31-0.3951 3.4683-0.056 0.52982-0.10059 1.0608-0.12631 1.593-0.014 0.31671-0.0201 0.63589 0.019 0.95109 0.03 0.2168 0.10469 0.42848 0.23482 0.60577 0.16197 0.24468 0.37798 0.46307 0.64637 0.58804 0.31671 0.14286 0.66051 0.20564 0.99571 0.28864 0.7575 0.17612 1.5185 0.33741 2.2811 0.48976 0.78869 0.15503 1.5793 0.30399 2.3681 0.45662 0.08 0.0236 0.063 0.12428 0.046 0.1864-0.16751 0.53248-0.36642 1.0545-0.5656 1.5758-0.25331 0.66173-0.5316 1.3151-0.74142 1.9925-0.095 0.3059-0.17579 0.62916-0.12851 0.95114 0.068 0.39685 0.26961 0.75621 0.50433 1.0777 0.28127 0.35785 0.6845 0.60881 1.1188 0.73707 0.45579 0.1465 0.94519 0.19885 1.4201 0.13097 0.33452-0.0547 0.66202-0.16891 0.94412-0.35922 0.3275-0.21937 0.61769-0.50032 0.83007-0.83341 0.15791-0.2532 0.24382-0.54439 0.28022-0.83905 0.079-0.55833 0.06-1.1236 0.055-1.6857-0.013-0.83582-0.0259-1.6717-0.0259-2.5076 0.04-0.0637 0.11699-0.0123 0.1747-0.0145 0.8232 0.0821 1.6454 0.17438 2.4669 0.27175 0.69299 0.0807 1.3844 0.17443 2.0772 0.25647 0.26699 0.024 0.53411 0.0597 0.8025 0.0574 0.1849-4e-3 0.3627-0.0605 0.53089-0.13341 0.25051-0.0948 0.5148-0.20524 0.67802-0.42876 0.23199-0.29729 0.3777-0.64879 0.527-0.99197 0.26599-0.64324 0.50318-1.2979 0.74769-1.9495 0.27331-0.74713 0.54869-1.4936 0.80729-2.246 0.2853-0.81659 0.54052-1.6434 0.77901-2.4748 0.2249-0.78348 0.4045-1.579 0.57719-2.3753 0.15762-0.76476 0.30181-1.5322 0.44972-2.2989 0.16528-0.87683 0.33078-1.7538 0.46979-2.6353 0.038-0.31791 0.11531-0.64101 0.053-0.96094-0.048-0.2035-0.17341-0.37659-0.28829-0.5474-0.18241-0.25328-0.39982-0.47839-0.61992-0.69869-0.063-0.0356-0.1383-0.0354-0.20648-0.0556-0.3642-0.0756-0.73031-0.14149-1.0941-0.2191-4.0394-0.79897-8.0786-1.599-12.119-2.3938-0.7198-0.13792-1.4405-0.27308-2.1669-0.37175-0.29019-0.0393-0.5806-0.0835-0.87399-0.0864-0.083-4e-3 -0.16571-1e-3 -0.24861-2.7e-4z" fill="#ef6b30"/>
<path d="m-6.4719-735.75c-0.0111 0.0754-0.0209 0.15134-0.03 0.22635-0.16549 1.0485-0.3625 2.0917-0.55919 3.1347-0.17593 0.91201-0.34732 1.825-0.53481 2.7347-0.20542 0.94724-0.41881 1.8932-0.6863 2.8251-0.28371 0.98896-0.58772 1.9727-0.9271 2.944-0.3076 0.89499-0.635 1.783-0.96012 2.6717-0.29078 0.77506-0.57298 1.5536-0.8894 2.3187-0.14388 0.33082-0.28789 0.66624-0.48318 0.97049 0.1714 0.0214 0.34269 0.0432 0.51419 0.0635 0.26699 0.0241 0.5342 0.0602 0.80262 0.0579 0.18489-4e-3 0.36298-0.0609 0.53117-0.13383 0.25051-0.0948 0.5148-0.20488 0.67803-0.4284 0.23198-0.2973 0.37729-0.64901 0.5266-0.9922 0.26598-0.64323 0.50318-1.2976 0.74768-1.9492 0.27332-0.74713 0.5492-1.494 0.8078-2.2464 0.2853-0.81659 0.5402-1.6434 0.7787-2.4748 0.22489-0.78349 0.40449-1.5788 0.57721-2.3751 0.15759-0.76475 0.30171-1.5324 0.44958-2.2991 0.16531-0.87682 0.33081-1.7541 0.46982-2.6355 0.038-0.31789 0.11549-0.64071 0.053-0.96064-0.048-0.2035-0.17352-0.37646-0.2884-0.54727-0.1824-0.25329-0.39999-0.47837-0.6201-0.69865-0.063-0.0356-0.13801-0.0356-0.20622-0.0558-0.25029-0.052-0.50109-0.10065-0.75189-0.15038z" fill="#ed5816"/>
<path d="m-8.2696-725.86c-0.26731 0.13323-0.46281 0.43074-0.40902 0.73504 0.0249 0.42855 0.39031 0.77283 0.79822 0.86025 0.69009 0.22192 1.453 0.13615 2.117-0.1331 0.2803-0.12589 0.56811-0.3463 0.6187-0.66715-0.03-0.13952-0.20198-0.15961-0.29509-0.24568-0.65241-0.40936-1.3904-0.76438-2.1785-0.74125-0.22802 0.014-0.45299 0.0779-0.6513 0.19189z" fill="#ccdae0" fill-rule="evenodd"/>
</g>
</g>
</svg>
