<?xml version="1.0" encoding="UTF-8"?>
<svg width="58.629mm" height="62.436mm" version="1.1" viewBox="0 0 58.629 62.436" xmlns="http://www.w3.org/2000/svg">
<g transform="translate(-91.64 -76.452)">
<g transform="matrix(-.89822 0 0 .89822 205.16 -46.522)">
<g transform="translate(-1905.9 418.46)"></g>
<g transform="translate(-1877.9 400.7)">
<g transform="matrix(-.99928 .038047 .038047 .99928 3951 -72.56)">
<ellipse cx="1984.4" cy="-200.06" rx="21.538" ry="2.5646" opacity=".1"/>
<path d="m1997.2-254.54-23.44 0.30289-1.0289 18.578 24.7 1.046z" fill="#ccdae0" fill-rule="evenodd"/>
<rect transform="matrix(-.93235 .36156 .36156 .93235 0 0)" x="-1931.3" y="513.54" width="1.7242" height="15.517" fill="#6e96a8"/>
<rect transform="rotate(20.477)" x="1777.4" y="-897.71" width="1.7242" height="15.517" fill="#6e96a8"/>
<path d="m1993.5-231.02-16.07-1.404-1.9582 17.05 17.949 1.1162z" fill="#ccdae0" fill-rule="evenodd"/>
<ellipse transform="matrix(-.99995 -.01027 -.01027 .99995 0 0)" cx="-1989.5" cy="-261.51" rx="1.7581" ry="1.5895" fill="#333"/>
<ellipse transform="matrix(-.99995 -.01027 -.01027 .99995 0 0)" cx="-1976" cy="-261.57" rx="1.7465" ry="1.5791" fill="#333"/>
<path d="m1974.2-206.64c2.1772 0.10319 4.1429 1.1571 5.3441 2.5165 1.3473 1.7131 1.2517 4.1935-0.7117 5.5156-0.1047 0.0452-0.2108 0.0861-0.3173 0.12549l-11.545-0.48333c-0.3971-0.26932-0.6897-0.61881-0.7959-1.046-0.054-3.3141 3.4526-6.6224 8.0261-6.6283z" fill="#ccdae0" fill-rule="evenodd"/>
<path d="m1962.1-234.47c-0.3149 0.0167-0.6389 0.0402-0.9326 0.16318-0.2582 0.13316-0.3524 0.4798-0.2424 0.7399 0.1266 0.38067 0.4063 0.73441 0.7972 0.86229 0.2316 0.0727 0.5004 0.0237 0.6842-0.13714 0.1787-0.13188 0.3624-0.26434 0.5784-0.32745 0.424-0.15491 0.8806-0.1844 1.328-0.19786 0.6199-0.0121 1.2387 0.068 1.8419 0.20838 0.4267 0.0924 0.847 0.21337 1.2613 0.35074 0.7947 0.27065 1.5807 0.56999 2.3395 0.93025 1.2236 0.57094 2.4299 1.1783 3.6513 1.7539 0.4304 0.19644 0.9177 0.30464 1.3885 0.21243 0.1621-0.027 0.3249-0.0794 0.459-0.17578 0.051-0.0574 0.038-0.15307-0.035-0.18398-0.1765-0.12409-0.3818-0.19747-0.569-0.3034-1.0119-0.52255-2.0269-1.0404-3.0618-1.5161-0.7654-0.33911-1.5392-0.65943-2.3209-0.95889-0.9833-0.36349-1.9829-0.68555-3.0002-0.93981-0.6603-0.16119-1.328-0.294-2.0033-0.37351-0.6638-0.0821-1.3332-0.12324-2.002-0.11322l-0.162 6e-3z" fill="#6e96a8" fill-rule="evenodd"/>
<path d="m1975.9-232.41c-0.5263 0.0183-1.058 0.10928-1.5389 0.3308-0.5936 0.26351-1.0885 0.74061-1.3731 1.3244-0.2257 0.43159-0.3338 0.93433-0.2538 1.4185 0.082 0.53587 0.3363 1.028 0.638 1.472 0.4646 0.69115 1.0598 1.2821 1.6863 1.8261 0.3676 0.31562 0.7513 0.61241 1.1442 0.89575 0.082-0.0239 0.043-0.12808 0.055-0.19034 0.045-2.1785 0.086-4.3571 0.099-6.536v-0.52565c-0.1529-0.018-0.3071-0.0232-0.4609-0.0156z" fill="#333" fill-rule="evenodd"/>
<path d="m1996.2-227.2c1.5699 1.1311 3.07 2.5326 3.7575 4.3869 0.3985 1.115 0.5193 2.4139-0.01 3.5064-0.3532 0.59983-1.0387 1.0886-1.7612 0.97213-0.2774-0.2182-0.011-0.58957 0.1712-0.77823 0.6501-0.73972 1.1592-1.7599 0.8802-2.7615-0.3222-1.2014-1.3715-1.9689-2.1706-2.8476-0.5431-0.58566-1.0757-1.2915-1.1102-2.1194 0.015-0.13566 0.074-0.36708 0.2426-0.35868z" fill="#6e96a8" fill-rule="evenodd"/>
<path d="m1994.2-230.13c-0.1936 1.8507 0.1676 7.0674 0.1676 7.0674s3.2034 0.71535 3.269-2.1865c0.066-2.9019-3.4366-4.8809-3.4366-4.8809z" fill="#333" fill-rule="evenodd"/>
<path d="m1998.4-244.57a4.3361 4.3005 0.58843 0 1 3.1117 4.1688 4.3361 4.3005 0.58843 0 1-3.1966 4.1008z" fill="#3897c0"/>
<path d="m1972.4-245.64a4.3361 4.3005 0.58843 0 0-3.1966 4.104 4.3361 4.3005 0.58843 0 0 3.1116 4.1656z" fill="#3897c0"/>
<path d="m1977.4-232.5 16.09 1.4042-0.056 11.891-17.421-1.2373z" fill="#333" fill-rule="evenodd"/>
<path d="m1986.3-265.97c0.5204 1.1208 0.078 2.5375 0.178 3.7706 0.051 2.2124 0.015 4.4282 0.032 6.6419-0.6603 0.1606-2.0066 0.54872-2.0596-0.51046 0.3786-3.1427 0.7516-6.3379 1.2778-9.4298 0.2063-0.13452 0.3217-0.41187 0.5718-0.47221z" fill="#474747" fill-rule="evenodd"/>
<path d="m1985.5-257.07a7.4299 4.9197 0.58843 0 1 6.2244 2.3308l-12.504-0.12842a7.4299 4.9197 0.58843 0 1 6.2794-2.2024z" fill="#acc3ce"/>
<ellipse transform="matrix(-.99995 -.01027 -.01027 .99995 0 0)" cx="-1983.2" cy="-285.95" rx="1.5685" ry="1.4181" fill="#3897c0"/>
<path d="m1991.2-235.03-0.094 2.447-12.197-1.1078 0.4581-1.6739z" fill="#6e96a8" fill-rule="evenodd"/>
<ellipse transform="matrix(-.99932 .036782 .036782 .99932 0 0)" cx="-2004.8" cy="-143.94" rx="2.4771" ry="2.5477" fill="#ccdae0"/>
<path d="m1986.8-221.39c0.011-0.0128 0.017-0.45093 0.028-0.973 0.01-0.52207 0.028-1.1081 0.035-1.3025l0.014-0.35341 0.4493-0.0613c1.0828-0.14784 2.1311-0.29753 2.1397-0.30556 2e-4 -5e-3 8e-4 -0.0196-0.019-0.0331-0.015-0.0134-0.1027-0.0902-0.194-0.17059-0.091-0.0804-0.4192-0.36106-0.7288-0.62367-0.7724-0.65507-1.0252-0.87801-1.0241-0.90335 8e-4 -0.0277 0.1827-0.34613 0.6679-1.1716 0.3946-0.67107 0.6118-1.0545 0.6129-1.0817 4e-4 -0.01-0.016-0.0124-0.045-8e-3 -0.2065 0.0347-0.7327 0.13887-1.5127 0.29964-0.5077 0.10465-0.9449 0.19348-0.9716 0.19739-0.043 6e-3 -0.05 3e-3 -0.065-0.0327-0.01-0.0219-0.2089-0.53374-0.4439-1.1374-0.235-0.60371-0.4418-1.1344-0.4595-1.1794-0.026-0.0672-0.036-0.0786-0.051-0.0644-0.028 0.0263-0.2665 0.46663-0.6003 1.1097-0.1647 0.31733-0.3719 0.71219-0.4602 0.87745l-0.1607 0.30049-0.2621-0.0791c-0.2338-0.0705-1.875-0.58139-2.1269-0.66206l-0.099-0.0317v0.0279c0 0.0463 0.1469 0.39338 0.6043 1.41l0.4359 0.96887-0.6077 0.40916c-1.2276 0.8265-1.5525 1.0567-1.5351 1.0876 0.012 0.0207 0.7249 0.20383 1.8378 0.4719 0.6896 0.16611 0.6382 0.15525 0.6389 0.13483 3e-4 -9e-3 -0.042-0.1156-0.093-0.23618-0.1752-0.41059-0.2292-0.63724-0.2452-1.0288-0.023-0.55697 0.1502-1.1281 0.4761-1.5735 0.3004-0.41047 0.753-0.73879 1.2091-0.87705 0.3097-0.0939 0.5579-0.11992 0.9016-0.0945 0.4486 0.0332 0.8816 0.18407 1.1972 0.41723 0.2356 0.17398 0.5343 0.49353 0.6705 0.71722 0.2924 0.48038 0.4362 1.1256 0.3604 1.6168-0.1216 0.79072-0.5387 1.4426-1.1687 1.8282-0.1527 0.0935-0.388 0.19796-0.4572 0.20299-0.099 7e-3 -0.1103-0.0145-0.3234-0.66054-0.1074-0.32578-0.274-0.88272-0.2728-0.91196 2e-4 -7e-3 0.031-0.0307 0.068-0.0537 0.3193-0.1978 0.4838-0.48211 0.4504-0.77819-0.022-0.18966-0.1496-0.41243-0.2963-0.51501-0.26-0.18175-0.6505-0.1613-0.8747 0.0458-0.1384 0.12792-0.2205 0.28705-0.2389 0.46322-0.027 0.25763 0.085 0.49444 0.3338 0.70811l0.1054 0.0904-0.013 0.0833c-0.016 0.12424-0.3933 1.0615-0.5348 1.3268l-0.074 0.13908-0.052-2e-3c-0.1673-7e-3 -0.5512-0.28305-0.8962-0.64284l-0.1884-0.19649-0.013 0.0757c-0.012 0.0414-0.032 0.30874-0.055 0.5936-0.037 0.45576-0.055 0.7099-0.1227 1.6787 0 0.12185-0.01 0.22907-0.01 0.2383 0.011 0.0199 0.017 0.0153 0.8866-0.64031 0.674-0.50859 1.0746-0.80448 1.1618-0.85815l0.055-0.0341 0.1019 0.0855c0.1167 0.098 0.5932 0.54003 1.303 1.2087 0.2701 0.25454 0.4999 0.46819 0.5104 0.47475 0.013 7e-3 0.023 4e-3 0.03-0.0118z" fill="#3897c0" stroke-width="1.3453"/>
<path d="m1991.3-208.36c4.5588 0.41533 7.7929 4.6278 7.4775 8.5293-0.1484 0.52348-0.4958 0.92783-0.9501 1.2133l-11.931-0.83874c-1.6943-1.7488-1.5591-4.5696-0.1223-6.4151 1.3049-1.495 3.3475-2.5615 5.5261-2.4888z" fill="#ccdae0" fill-rule="evenodd"/>
<path d="m1960-235.85c-0.2573 0.016-0.5143 0.0852-0.7358 0.21918-0.2046 0.13058-0.3832 0.31388-0.4764 0.54062-0.073 0.18279-0.091 0.38718-0.044 0.57875 0.033 0.15288 0.1134 0.29085 0.2123 0.41054 0.1573 0.19198 0.3775 0.32526 0.6102 0.40569 0.3126 0.10217 0.6562 0.11399 0.9727 0.0219 0.233-0.0703 0.4554-0.1904 0.6234-0.36886 0.1107-0.11837 0.1945-0.26247 0.2453-0.4163 0.053-0.16792 0.051-0.34965 0.01-0.51927-0.047-0.17042-0.1404-0.32635-0.2644-0.45186-0.1512-0.152-0.3395-0.26436-0.542-0.33329-0.1685-0.066-0.3516-0.0853-0.5313-0.0875-0.025 1.6e-4 -0.051 3.1e-4 -0.076 4.7e-4z" fill="#ccdae0"/>
</g>
</g>
<g transform="translate(334.83 -372.59)">
<g transform="matrix(.17559 .039641 -.039641 .17559 20.776 495.67)">
<g stroke-width="5.5554">
<g transform="translate(-136.24 34.964)" stroke-width="5.5554">
<rect x="-1235.1" y="370.32" width="152.6" height="10.23" fill="#deaa19"/>
<path d="m-1239 387.65c-1.5712 0.0762-3.0998 0.69382-4.3161 1.6848-1.3011 1.0746-2.2604 2.5065-2.9792 4.0206-0.8814 1.8814-1.4098 3.9094-1.7376 5.9555-0.3832 2.3927-0.4967 4.8185-0.5558 7.2379-0.058 2.4884-0.031 4.9796 0.1218 7.4644 0.1218 2.0259 0.3244 4.0469 0.598 6.0579 0.4541 3.2603 1.1128 6.4948 2.0339 9.6563 0.7958 2.7317 1.7832 5.4092 2.9812 7.9905 1.238 2.6675 2.7093 5.2285 4.4109 7.6275 1.0426 1.4646 2.1702 2.8695 3.3942 4.1868 1.7587 1.8882 3.6857 3.6103 5.6484 5.2822 2.5857 2.2097 5.2671 4.3048 7.9874 6.3455 2.8891 2.1663 5.821 4.275 8.7725 6.3555 1.736 1.2194 3.4798 2.4278 5.2324 3.6234 1.7417 1.1878 3.4872 2.3701 5.2393 3.5425 4.059 2.7135 8.14 5.3944 12.262 8.0108 1.5997 1.02 3.2039 2.033 4.8106 3.0419-1.6341-3.1084-3.3151-6.1919-4.998-9.274-0.2177-0.38637-0.4139-0.78721-0.649-1.1623-0.2481-0.20179-0.5507-0.3189-0.8206-0.48737-4.6571-2.6012-9.2956-5.2364-13.889-7.9494-4.0712-2.4138-8.123-4.863-12.092-7.4421-1.7759-1.1534-3.538-2.3285-5.2786-3.5346-2.0574-1.4358-4.0845-2.9185-6.0195-4.5165-1.483-1.2157-2.9119-2.5051-4.1858-3.9413-1.7904-1.9956-3.364-4.1844-4.7012-6.5078-1.0085-1.7555-1.8855-3.5862-2.6222-5.472-1.2537-3.2009-2.1221-6.5471-2.6525-9.9419-0.4614-2.9245-0.6771-5.8856-0.6952-8.8454 0-2.114 0.073-4.2294 0.2625-6.3352 0.1098-1.1359 0.2284-2.2729 0.4512-3.3932 0.3235-1.6784 0.8278-3.3276 1.5726-4.8685 0.1705-0.35591 0.3291-0.71908 0.4227-1.1037 0.1203-0.45074 0.2626-0.91703 0.5888-1.2655 0.3206-0.36032 0.7552-0.58506 1.1802-0.7968 0.5415-0.34592 0.9831-0.82855 1.5474-1.1417 1.1936-0.72934 2.5748-1.151 3.9739-1.1952 1.0286-0.0414 2.0537 0.13023 3.0416 0.40733 1.1499 0.32206 2.2617 0.7619 3.3905 1.1483 3.2436 1.1464 6.4871 2.2928 9.7307 3.4393-0.646-1.8875-1.318-3.7658-1.9769-5.6488-0.4381-1.2447-0.8761-2.4893-1.3141-3.734 0.082 0.72201 0.164 1.444 0.2461 2.166-4.2489-1.7326-8.4904-3.4835-12.748-5.1942-0.8773-0.35133-1.7528-0.7076-2.6344-1.0478-0.9716-0.34093-2.0087-0.46936-3.0354-0.44545z" fill="#ffcd2e" fill-rule="evenodd"/>
<path d="m-1159.4 380.12v8e-3l-70.334 0.4186s2e-4 49.873 18.33 86.105c5.9433 11.748 27.281 36.659 37.938 36.659h29.412c10.657 0 31.994-24.91 37.938-36.659 18.329-36.233 18.329-86.105 18.329-86.105l-70.334-0.4186v-8e-3l-0.6398 4e-3z" fill="#ffcd2e" fill-rule="evenodd"/>
<path transform="scale(.26458)" d="m-4428.9 1899.1v54.877l-4.834 1.5098-64.443 93.443v43.5l116 1.6094 116-1.6094v-43.5l-64.443-93.443-1.6094-0.502v-55.885z" fill="#ffcd2e"/>
<path d="m-1080.3 387.43c1.5712 0.0762 3.0998 0.69382 4.3161 1.6848 1.3011 1.0746 2.2604 2.5065 2.9792 4.0206 0.8814 1.8814 1.4098 3.9094 1.7376 5.9555 0.3832 2.3927 0.4967 4.8185 0.5558 7.2379 0.058 2.4884 0.031 4.9796-0.1218 7.4644-0.1218 2.0259-0.3244 4.0469-0.598 6.0579-0.4541 3.2603-1.1128 6.4949-2.0339 9.6563-0.7958 2.7317-1.7832 5.4092-2.9812 7.9905-1.238 2.6675-2.7093 5.2285-4.4109 7.6276-1.0426 1.4646-2.1702 2.8695-3.3942 4.1868-1.7587 1.8882-3.6857 3.6103-5.6484 5.2822-2.5857 2.2098-5.2671 4.3048-7.9874 6.3455-2.8891 2.1663-5.821 4.275-8.7725 6.3555-1.736 1.2194-3.4798 2.4278-5.2324 3.6234-1.7417 1.1878-3.4872 2.3701-5.2393 3.5425-4.059 2.7135-8.14 5.3944-12.262 8.0108-1.5997 1.02-3.2039 2.033-4.8106 3.0419 1.6341-3.1084 3.3151-6.1919 4.998-9.274 0.2177-0.38637 0.4139-0.78721 0.649-1.1623 0.2481-0.20179 0.5507-0.3189 0.8206-0.48738 4.6571-2.6012 9.2956-5.2364 13.889-7.9494 4.0712-2.4138 8.123-4.863 12.092-7.4421 1.7759-1.1534 3.538-2.3285 5.2786-3.5346 2.0574-1.4358 4.0845-2.9185 6.0195-4.5165 1.483-1.2157 2.9119-2.5051 4.1858-3.9413 1.7904-1.9956 3.364-4.1844 4.7012-6.5078 1.0085-1.7555 1.8855-3.5862 2.6222-5.472 1.2537-3.2009 2.1221-6.5471 2.6525-9.942 0.4614-2.9245 0.6771-5.8856 0.6952-8.8454 0-2.114-0.073-4.2294-0.2625-6.3352-0.1098-1.1359-0.2284-2.2729-0.4512-3.3932-0.3235-1.6784-0.8278-3.3276-1.5726-4.8685-0.1705-0.35591-0.3291-0.71908-0.4227-1.1037-0.1203-0.45074-0.2626-0.91703-0.5888-1.2655-0.3206-0.36032-0.7552-0.58506-1.1802-0.7968-0.5415-0.34592-0.9831-0.82855-1.5474-1.1417-1.1936-0.72934-2.5748-1.151-3.9739-1.1952-1.0286-0.0414-2.0537 0.13023-3.0416 0.40733-1.1499 0.32206-2.2617 0.7619-3.3905 1.1483-3.2436 1.1464-6.4871 2.2928-9.7307 3.4393 0.646-1.8875 1.318-3.7658 1.9769-5.6488 0.4381-1.2447 0.8761-2.4893 1.3141-3.734-0.082 0.72201-0.164 1.444-0.2461 2.166 4.2489-1.7326 8.4904-3.4835 12.748-5.1942 0.8773-0.35133 1.7528-0.7076 2.6344-1.0478 0.9716-0.34093 2.0087-0.46936 3.0354-0.44545z" fill="#ffcd2e" fill-rule="evenodd"/>
<path d="m-1159.4 380.12v8e-3l-70.334 0.41857s0 0.25762 0.01 0.68524l42.194-0.25114v-8e-3l0.6388 4e-3 0.6402-4e-3v8e-3l70.334 0.41857s3e-4 49.873-18.329 86.105c-5.2901 10.457-22.777 31.342-34.072 35.806h24.267c10.656 0 31.994-24.91 37.938-36.659 18.329-36.233 18.329-86.105 18.329-86.105l-70.334-0.41857v-8e-3l-0.6397 4e-3z" fill="#e5b829" fill-rule="evenodd"/>
<path d="m-1172.2 502.33v14.52l0.4258 0.13282 17.051 24.724v11.509l-27.513 0.38187 22.397 0.31057 30.691-0.42579v-11.509l-17.051-24.724-0.4258-0.13282v-14.786z" fill="#e5b829"/>
<ellipse cx="-1159.9" cy="433.06" rx="31.294" ry="31.166" fill="#ffdc6c"/>
</g>
<rect x="-1334.3" y="588.58" width="78.514" height="56.86" fill="#8d6339"/>
<rect x="-1351.2" y="645.44" width="112.27" height="16.879" fill="#8d6339"/>
<rect x="-1315.9" y="599.67" width="40.505" height="46.027" fill="#ebebeb"/>
<path d="m-1294.7 588.84v56.86h16.879v16.879h38.046v-16.879h-16.879v-56.86z" fill="#333" opacity=".2"/>
</g>
<g transform="matrix(1.635 0 0 1.635 -1208.3 289.79)" stroke-width="3.3979">
<path d="m-59.158 121.3c0.01473-0.60405 0.05592-2.8973 0.10667-5.938 0.01389-0.83542 0.02139-1.5229 0.01647-1.5278-5e-3 -4e-3 -0.99761-0.18476-2.2061-0.39978-1.9397-0.34513-4.3022-0.7697-5.3098-0.95427l-0.34159-0.0626 0.1355-0.12388c0.29884-0.27321 1.4186-1.1581 2.9751-2.351 1.8881-1.4471 3.1187-2.4171 3.1414-2.476 0.0188-0.049-0.48462-1.0036-2.1061-3.9936-1.396-2.5742-1.6653-3.0798-1.6442-3.0869 0.02937-0.01 0.77615 0.17247 4.4885 1.0962 1.8189 0.45258 3.3088 0.82028 3.3109 0.81711 0.10057-0.1525 0.25838-0.51274 1.3969-3.1888 1.276-2.9991 1.7526-4.0971 1.7986-4.1434 0.03254-0.03271 0.40961 0.76329 1.7623 3.7197 0.62132 1.358 1.2517 2.6961 1.4726 3.1258l0.1648 0.3206 0.0862-6e-3c0.16968-0.01 1.4057-0.33338 3.7152-0.97197 2.5555-0.70664 3.9037-1.0725 3.9521-1.0725 0.01214 0-0.78272 1.6025-1.7663 3.5611s-1.785 3.5784-1.7809 3.5996c0.01114 0.0585 0.72765 0.59025 3.2104 2.383 2.8292 2.0429 3.2642 2.3672 3.2065 2.391-0.08243 0.0339-4.2472 0.90842-6.6271 1.3916-1.1381 0.23103-1.0305 0.2132-1.0305 0.17083 0-0.0195 0.13795-0.30526 0.30655-0.6349 0.35577-0.69555 0.46027-0.93332 0.61062-1.3894 0.26441-0.80196 0.35324-1.6111 0.31678-2.8854-0.01567-0.54822-0.0469-0.77082-0.18169-1.2938-0.36298-1.409-1.0076-2.5566-1.9812-3.5272-1.2823-1.2784-2.7505-1.9874-4.4365-2.1424-0.42894-0.0394-1.4266-0.0148-1.8303 0.0452-1.4762 0.21952-2.6734 0.7941-3.8077 1.8276-1.3265 1.2086-2.133 2.7301-2.4194 4.564-0.04535 0.29023-0.05192 0.42002-0.05251 1.0305-4.96e-4 0.54764 0.0083 0.76027 0.03986 0.9847 0.12351 0.87272 0.3486 1.6207 0.71518 2.3766 0.41142 0.8483 0.83712 1.4497 1.4875 2.1013 0.61231 0.61348 1.263 1.0758 2.0124 1.43 0.47257 0.22332 0.67756 0.27488 0.75229 0.18923 0.09918-0.11365 0.58765-1.3476 1.1218-2.8338 0.35957-1.0005 0.63651-1.8475 0.63651-1.9468 0-0.0524-0.13715-0.17064-0.28342-0.24441-0.07713-0.0389-0.1969-0.1145-0.26618-0.16804-0.28153-0.21753-0.65913-0.66852-0.80095-0.95659-0.15136-0.30745-0.20905-0.90665-0.126-1.3087 0.17467-0.84567 0.77308-1.4921 1.5835-1.7107 0.24425-0.0659 0.72486-0.0705 0.95788-9e-3 0.62766 0.16507 1.1523 0.58386 1.4538 1.1606 0.25489 0.48756 0.27103 1.2758 0.03795 1.8529-0.0835 0.20671-0.25991 0.45068-0.5068 0.70089-0.2076 0.21039-0.33295 0.30536-0.6748 0.51124-0.14478 0.0872-0.1706 0.14045-0.13731 0.28319 0.12749 0.5465 1.2278 3.5785 1.5966 4.3996 0.12053 0.26833 0.15361 0.31003 0.24595 0.31003 0.10581 0 0.35906-0.0934 0.6868-0.25326 0.92243-0.44996 1.7997-1.1476 2.5533-2.0305l0.21754-0.25486 0.0164 0.46209c0.0089 0.25415 0.06291 1.4359 0.11982 2.6261 0.05683 1.1902 0.11876 2.5608 0.13751 3.0457 0.01873 0.48491 0.03878 1.0002 0.0446 1.145 0.01119 0.28076-0.0058 0.64119-0.03062 0.64119-0.0083 0-0.39572-0.31572-0.8612-0.7016-3.3972-2.8162-4.7679-3.9405-5.2144-4.277l-0.08578-0.0647-0.16611 0.13396c-0.48383 0.3902-4.0884 3.5199-5.5476 4.8168-0.16373 0.14551-0.31701 0.27972-0.34062 0.29822-0.04185 0.0328-0.04252 0.0177-0.0278-0.58409z" fill="#fff" stroke-width=".070515"/>
</g>
</g>
<ellipse transform="matrix(-.85378 -.52064 -.46562 .88498 0 0)" cx="-51.144" cy="581.14" rx="2.3842" ry="2.2734" fill="#ccdae0"/>
</g>
</g>
</g>
</svg>
