<?xml version="1.0" encoding="UTF-8" standalone="no"?>
<!-- Created with Inkscape (http://www.inkscape.org/) -->

<svg
   width="67.911156mm"
   height="67.64566mm"
   viewBox="0 0 67.911157 67.64566"
   version="1.1"
   id="svg57651"
   inkscape:version="1.1.2 (08b2f3d93c, 2022-04-05)"
   sodipodi:docname="bot-4.svg"
   xmlns:inkscape="http://www.inkscape.org/namespaces/inkscape"
   xmlns:sodipodi="http://sodipodi.sourceforge.net/DTD/sodipodi-0.dtd"
   xmlns="http://www.w3.org/2000/svg"
   xmlns:svg="http://www.w3.org/2000/svg">
  <sodipodi:namedview
     id="namedview57653"
     pagecolor="#ffffff"
     bordercolor="#666666"
     borderopacity="1.0"
     inkscape:pageshadow="2"
     inkscape:pageopacity="0.0"
     inkscape:pagecheckerboard="0"
     inkscape:document-units="mm"
     showgrid="false"
     fit-margin-top="0"
     fit-margin-left="0"
     fit-margin-right="0"
     fit-margin-bottom="0"
     inkscape:zoom="0.733172"
     inkscape:cx="-5.4557457"
     inkscape:cy="330.07262"
     inkscape:window-width="1920"
     inkscape:window-height="1016"
     inkscape:window-x="0"
     inkscape:window-y="27"
     inkscape:window-maximized="1"
     inkscape:current-layer="layer1" />
  <defs
     id="defs57648" />
  <g
     inkscape:label="Layer 1"
     inkscape:groupmode="layer"
     id="layer1"
     transform="translate(-59.128382,34.598047)">
    <g
       id="g57538"
       transform="matrix(0.26458333,0,0,0.26458333,-202.24996,-555.57123)">
      <ellipse
         style="opacity:0.1;fill:#000000;fill-opacity:1;stroke:none;stroke-width:16.3647;stroke-linecap:butt;stroke-linejoin:miter;stroke-miterlimit:4;stroke-dasharray:none;stroke-dashoffset:0;stroke-opacity:1"
         id="path4996-1-5-7-0-7-8-3-9"
         cx="-887.48187"
         cy="2253.5664"
         rx="61.461426"
         ry="6.685411"
         inkscape:export-filename="/media/issa/f46a2e62-019e-4bdf-9e7a-616962b8730a/home/yugi/Dropbox/JOSA/Design and Branding/Members Hub/home.png"
         inkscape:export-xdpi="96.025314"
         inkscape:export-ydpi="96.025314"
         transform="matrix(-0.99803243,0.06269978,0.07520189,0.99716833,0,0)" />
      <g
         id="g10213-3-6"
         transform="matrix(2.0805471,0,0,2.0805471,1079.9455,1967.1237)"
         inkscape:export-filename="/media/issa/f46a2e62-019e-4bdf-9e7a-616962b8730a/home/yugi/Dropbox/JOSA/Design and Branding/Members Hub/home.png"
         inkscape:export-xdpi="96.025314"
         inkscape:export-ydpi="96.025314">
        <path
           style="fill:#474747;fill-opacity:1;fill-rule:evenodd;stroke:none;stroke-width:0.264583px;stroke-linecap:butt;stroke-linejoin:miter;stroke-opacity:1"
           d="m -17.493939,3.6721855 2.0535,16.9604515 -3.498566,-0.152112 0.380281,-16.7322835 z"
           id="path2070-8-2"
           inkscape:connector-curvature="0" />
        <g
           id="g11068-0-1"
           transform="matrix(0.08775739,-0.00515921,0.00515921,0.08775739,-50.830428,89.722046)"
           style="stroke-width:11.3754">
          <path
             inkscape:connector-curvature="0"
             id="path8208-4-2"
             d="m 197.49592,-735.93314 450.3723,26.89914 3.07596,358.09169 -475.79812,-2.09873 z"
             style="fill:#ccdae0;fill-opacity:1;fill-rule:evenodd;stroke:none;stroke-width:3.00974px;stroke-linecap:butt;stroke-linejoin:miter;stroke-opacity:1" />
          <ellipse
             ry="30.592337"
             rx="33.836285"
             cy="-482.24481"
             cx="267.32971"
             id="path8216-7-0"
             style="opacity:1;fill:#333333;fill-opacity:1;stroke:none;stroke-width:45.5016;stroke-linecap:butt;stroke-linejoin:round;stroke-miterlimit:4;stroke-dasharray:none;stroke-dashoffset:0;stroke-opacity:1"
             transform="rotate(2.0892722)" />
          <ellipse
             ry="30.391726"
             rx="33.614403"
             cy="-483.47006"
             cx="527.56915"
             id="path8216-0-6-7"
             style="opacity:1;fill:#333333;fill-opacity:1;stroke:none;stroke-width:45.5016;stroke-linecap:butt;stroke-linejoin:round;stroke-miterlimit:4;stroke-dasharray:none;stroke-dashoffset:0;stroke-opacity:1"
             transform="rotate(2.0892722)" />
          <path
             inkscape:connector-curvature="0"
             id="path8278-8-3"
             d="m 166.11766,-545.35974 a 83.453811,82.76823 2.0892738 0 0 -63.56986,77.34774 83.453811,82.76823 2.0892738 0 0 57.76721,81.71252 z"
             style="opacity:1;fill:#3897c0;fill-opacity:1;stroke:none;stroke-width:45.5016;stroke-linecap:butt;stroke-linejoin:round;stroke-miterlimit:4;stroke-dasharray:none;stroke-dashoffset:0;stroke-opacity:1" />
          <path
             inkscape:connector-curvature="0"
             id="path8278-1-9-1"
             d="m 667.33298,-542.52114 a 83.453811,82.768231 2.0892738 0 1 57.76492,81.77414 83.453811,82.768231 2.0892738 0 1 -63.56757,77.28612 z"
             style="opacity:1;fill:#3897c0;fill-opacity:1;stroke:none;stroke-width:45.5016;stroke-linecap:butt;stroke-linejoin:round;stroke-miterlimit:4;stroke-dasharray:none;stroke-dashoffset:0;stroke-opacity:1" />
          <path
             inkscape:connector-curvature="0"
             id="path8331-0-1"
             d="m 424.37706,-774.14802 a 142.99676,94.685193 2.0892723 0 0 -121.76107,39.21326 l 240.50468,8.77381 a 142.99676,94.685193 2.0892723 0 0 -118.74361,-47.98707 z"
             style="opacity:1;fill:#6e96a8;fill-opacity:1;stroke:none;stroke-width:45.5016;stroke-linecap:butt;stroke-linejoin:round;stroke-miterlimit:4;stroke-dasharray:none;stroke-dashoffset:0;stroke-opacity:1" />
          <ellipse
             ry="27.293428"
             rx="30.187569"
             cy="-974.29102"
             cx="397.38562"
             id="path8216-0-2-6-9"
             style="opacity:1;fill:#3897c0;fill-opacity:1;stroke:none;stroke-width:45.5016;stroke-linecap:butt;stroke-linejoin:round;stroke-miterlimit:4;stroke-dasharray:none;stroke-dashoffset:0;stroke-opacity:1"
             transform="rotate(2.0892722)" />
          <path
             inkscape:connector-curvature="0"
             id="path8353-8-0"
             d="m 295.85609,-353.06538 0.46078,47.12821 235.23305,-15.00997 -7.95041,-32.44218 z"
             style="fill:#6e96a8;fill-opacity:1;fill-rule:evenodd;stroke:none;stroke-width:3.00974px;stroke-linecap:butt;stroke-linejoin:miter;stroke-opacity:1" />
        </g>
        <path
           style="fill:#6e96a8;fill-opacity:1;fill-rule:evenodd;stroke:none;stroke-width:0.264583px;stroke-linecap:butt;stroke-linejoin:miter;stroke-opacity:1"
           d="m -8.8905927,84.647696 3.659079,13.55762 3.359937,-0.0462 -4.611231,-14.53261 z"
           id="path8248-7-5"
           inkscape:connector-curvature="0" />
        <path
           style="fill:#6e96a8;fill-opacity:1;fill-rule:evenodd;stroke:none;stroke-width:0.264583px;stroke-linecap:butt;stroke-linejoin:miter;stroke-opacity:1"
           d="m -19.52826,83.709718 -2.036207,13.894298 -3.341978,0.349996 2.86685,-14.974701 z"
           id="path8248-9-9-6"
           inkscape:connector-curvature="0" />
        <path
           style="fill:#ccdae0;fill-opacity:1;fill-rule:evenodd;stroke:none;stroke-width:0.264583px;stroke-linecap:butt;stroke-linejoin:miter;stroke-opacity:1"
           d="m -27.313132,61.936286 23.7963343,-1.833005 2.63821797,25.255165 -26.57207227,1.37861 z"
           id="path8212-0-7"
           inkscape:connector-curvature="0" />
        <path
           style="fill:#ccdae0;fill-opacity:1;fill-rule:evenodd;stroke:none;stroke-width:0.264583px;stroke-linecap:butt;stroke-linejoin:miter;stroke-opacity:1"
           d="m -26.405764,96.014572 c -6.751044,0.5452 -11.599782,6.728328 -11.192618,12.505318 0.211083,0.77686 0.719493,1.38025 1.387334,1.80945 l 17.664696,-1.05959 c 2.533241,-2.56161 2.376091,-6.73696 0.278411,-9.489124 -1.907808,-2.231664 -4.913624,-3.840604 -8.137823,-3.766054 z"
           id="path8214-33-7"
           inkscape:connector-curvature="0" />
        <path
           style="fill:#ccdae0;fill-opacity:1;fill-rule:evenodd;stroke:none;stroke-width:0.264583px;stroke-linecap:butt;stroke-linejoin:miter;stroke-opacity:1"
           d="m -0.24775157,94.553247 c -3.22420093,-0.0631 -6.23044493,1.29816 -8.13825093,3.186074 -2.1584575,2.395689 -2.2628305,6.066709 0.504914,8.212889 0.150196,0.077 0.302626,0.14794 0.456009,0.21664 l 17.091574,0.42898 c 0.6127825,-0.35827 1.0792025,-0.84528 1.2783725,-1.46541 0.40717,-4.88712 -4.4415755,-10.117953 -11.19261857,-10.579173 z"
           id="path8214-4-3-4"
           inkscape:connector-curvature="0" />
        <path
           style="fill:#333333;fill-opacity:1;fill-rule:evenodd;stroke:none;stroke-width:0.264583px;stroke-linecap:butt;stroke-linejoin:miter;stroke-opacity:1"
           d="m -3.4816237,59.991163 -23.7961613,1.833053 -0.09781,17.59391 25.7596213,-1.56579 z"
           id="path8212-2-7-0"
           inkscape:connector-curvature="0" />
        <path
           style="fill:#3897c0;fill-opacity:1;stroke-width:1"
           d="m -17.601416,76.283956 c -0.0081,-0.0193 -0.0222,-0.66733 -0.03138,-1.43981 -0.0091,-0.77248 -0.02372,-1.6399 -0.03239,-1.92759 l -0.01577,-0.52309 -0.663746,-0.0976 c -1.599698,-0.23517 -3.148408,-0.47256 -3.161132,-0.48457 -0.0076,-0.007 0.0051,-0.0291 0.0281,-0.0487 0.02305,-0.0196 0.153335,-0.13189 0.289514,-0.24944 0.13618,-0.11757 0.625691,-0.5278 1.087803,-0.91164 1.152689,-0.95743 1.530012,-1.28341 1.528911,-1.32092 -0.0012,-0.0409 -0.265064,-0.51488 -0.970496,-1.74344 -0.573512,-0.99882 -0.889068,-1.56939 -0.890252,-1.60971 -4.61e-4,-0.0145 0.0231,-0.0181 0.0663,-0.0105 0.305138,0.0544 1.082106,0.21658 2.233571,0.46628 0.749514,0.16255 1.394978,0.30061 1.434365,0.30681 0.06436,0.0101 0.07416,0.006 0.09677,-0.0474 0.01385,-0.0322 0.317151,-0.78648 0.674023,-1.67608 0.356874,-0.8896 0.670869,-1.67166 0.69777,-1.73791 0.04019,-0.099 0.05378,-0.11583 0.0763,-0.0944 0.04142,0.0393 0.387203,0.69443 0.87138,1.65088 0.238939,0.47199 0.539343,1.05933 0.667566,1.30517 l 0.233133,0.44701 0.388985,-0.11297 c 0.346864,-0.10073 2.782734,-0.83164 3.1566053,-0.94718 l 0.147234,-0.0455 0.0012,0.0413 c 0.002,0.0686 -0.223323,0.57978 -0.9154803,2.07688 l -0.659651,1.42679 0.892867,0.61458 c 1.8035463,1.24144 2.2807853,1.58699 2.2545263,1.63241 -0.01762,0.0305 -1.075523,0.29056 -2.7261023,0.67024 -1.022737,0.23527 -0.94647,0.21999 -0.947204,0.18977 -3.08e-4,-0.0138 0.06317,-0.17039 0.141131,-0.34801 0.265462,-0.6048 0.348817,-0.9393 0.378364,-1.51837 0.04203,-0.82369 -0.204948,-1.67126 -0.680475,-2.33523 -0.438196,-0.61186 -1.102799,-1.10447 -1.775385,-1.31595 -0.456858,-0.14365 -0.823717,-0.1859 -1.332485,-0.15349 -0.66432,0.0423 -1.307043,0.25892 -1.777643,0.59909 -0.351143,0.25381 -0.79792,0.72204 -1.002777,1.05092 -0.439947,0.70627 -0.662605,1.65864 -0.557952,2.3865 0.168467,1.17169 0.775135,2.1425 1.701336,2.72252 0.224584,0.14063 0.571102,0.29876 0.673329,0.30726 0.147387,0.0123 0.163382,-0.0197 0.488406,-0.97234 0.163876,-0.48036 0.418947,-1.3018 0.417676,-1.34509 -3.08e-4,-0.01 -0.04515,-0.046 -0.0997,-0.0805 -0.469424,-0.29748 -0.708578,-0.72062 -0.654579,-1.15815 0.03459,-0.28027 0.227639,-0.60792 0.446276,-0.75745 0.387386,-0.26494 0.964738,-0.22876 1.29328,0.081 0.20292,0.19136 0.321958,0.42803 0.346519,0.68896 0.03592,0.38156 -0.132831,0.73022 -0.504576,1.04256 l -0.157401,0.13225 0.01409,0.12342 c 0.02101,0.18407 0.565717,1.57642 0.771135,1.97113 l 0.107666,0.2069 0.07641,-0.002 c 0.247677,-0.009 0.819875,-0.4104 1.335805,-0.93746 l 0.281774,-0.28785 0.01742,0.1122 c 0.0096,0.0617 0.04198,0.45729 0.07201,0.87908 0.04804,0.67486 0.07161,1.05111 0.155725,2.48554 0.01053,0.18018 0.01263,0.33895 0.0047,0.35283 -0.01699,0.0293 -0.02647,0.0223 -1.302045,-0.96078 -0.989537,-0.7627 -1.577744,-1.20655 -1.705912,-1.28728 l -0.08148,-0.0513 -0.152022,0.125 c -0.174211,0.14326 -0.885878,0.78995 -1.94612,1.76843 -0.403639,0.37251 -0.746734,0.68509 -0.762432,0.69463 -0.01894,0.0115 -0.03351,0.006 -0.04329,-0.0179 z"
           id="path8402-3-6"
           inkscape:connector-curvature="0" />
        <path
           sodipodi:nodetypes="cczcczc"
           inkscape:connector-curvature="0"
           id="path1928-2-2-4"
           d="m 18.857379,57.051548 -2.70016,-2.127204 c 0,0 -0.14109,4.321012 -5.19212,7.017852 -5.0510397,2.69681 -7.8955617,1.69023 -7.8955617,1.69023 l 1.095255,2.88253 c 0,0 4.25665,-0.42594 7.9872067,-2.20851 3.73057,-1.78258 6.70538,-7.254898 6.70538,-7.254898 z"
           style="fill:#6e96a8;fill-opacity:1;fill-rule:evenodd;stroke:none;stroke-width:0.264583px;stroke-linecap:butt;stroke-linejoin:miter;stroke-opacity:1" />
        <path
           inkscape:connector-curvature="0"
           id="path8265-8-4-6-6-7"
           d="m -2.0668447,61.395986 c 0.33245,3.25177 0.679922,6.5021 1.06835697,9.7477 2.18519403,-0.0305 4.46605003,-1.30515 5.19042203,-3.44753 0.490084,-1.86108 -0.506988,-3.81798 -1.983884,-4.93672 -1.29139703,-1.2098 -2.86185103,-2.05604 -4.409575,-2.887529 0.04487,0.508028 0.08973,1.016059 0.13467,1.524079 z"
           style="fill:#333333;fill-opacity:1;fill-rule:evenodd;stroke:none;stroke-width:0.264583px;stroke-linecap:butt;stroke-linejoin:miter;stroke-opacity:1" />
        <g
           id="g12187-5-4"
           transform="translate(-89.879724,-39.574714)">
          <path
             style="fill:#6e96a8;fill-opacity:1;fill-rule:evenodd;stroke:none;stroke-width:0.264583px;stroke-linecap:butt;stroke-linejoin:miter;stroke-opacity:1"
             d="m 49.678888,120.94401 3.32997,0.85269 c 0,0 -1.619423,-4.00856 1.908369,-8.5186 3.527802,-4.51004 6.536369,-4.74053 6.536369,-4.74053 l -2.16797,-2.19282 c 0,0 -3.720256,2.11192 -6.41046,5.25157 -2.690215,3.13966 -3.196278,9.34769 -3.196278,9.34769 z"
             id="path1928-26-8"
             inkscape:connector-curvature="0"
             sodipodi:nodetypes="cczcczc" />
          <path
             style="fill:#333333;fill-opacity:1;fill-rule:evenodd;stroke:none;stroke-width:0.264583px;stroke-linecap:butt;stroke-linejoin:miter;stroke-opacity:1"
             d="m 61.523259,103.50417 c 0.02285,3.26864 0.03059,6.53749 -0.0029,9.80608 -2.175556,0.20708 -4.581427,-0.81216 -5.53427,-2.86315 -0.689409,-1.79681 0.08906,-3.85047 1.435731,-5.12305 1.152291,-1.34297 2.6215,-2.35483 4.069717,-3.34956 0.01059,0.50989 0.02119,1.01979 0.03172,1.52968 z"
             id="path8265-8-4-5-5"
             inkscape:connector-curvature="0" />
          <ellipse
             transform="scale(-1,1)"
             style="opacity:1;fill:#ccdae0;fill-opacity:1;stroke:none;stroke-width:4;stroke-linecap:butt;stroke-linejoin:round;stroke-miterlimit:4;stroke-dasharray:none;stroke-dashoffset:0;stroke-opacity:1"
             id="path8355-4-4-7-8-8"
             cx="-51.070698"
             cy="123.92035"
             rx="4.6937208"
             ry="4.0209317" />
        </g>
        <ellipse
           ry="4.0209317"
           rx="4.6937208"
           cy="42.680031"
           cx="38.7696"
           id="path8355-4-4-7-1-7-2"
           style="opacity:1;fill:#ccdae0;fill-opacity:1;stroke:none;stroke-width:4;stroke-linecap:butt;stroke-linejoin:round;stroke-miterlimit:4;stroke-dasharray:none;stroke-dashoffset:0;stroke-opacity:1"
           transform="rotate(22.689512)" />
        <path
           style="fill:#ccdae0;fill-opacity:1;fill-rule:evenodd;stroke:none;stroke-width:0.264583px;stroke-linecap:butt;stroke-linejoin:miter;stroke-opacity:1"
           d="m 17.255639,55.071373 c -0.77155,-1.66579 -2.43738,-4.309935 -4.58258,-3.417564 -2.0208,2.077448 1.71967,4.407512 3.75249,3.989102 0.33833,-0.06784 0.65,-0.275156 0.83009,-0.571538 z"
           id="path1945-2-9-6"
           inkscape:connector-curvature="0" />
        <path
           inkscape:connector-curvature="0"
           id="path8355-4-4-7-7-3-6-0"
           d="m 23.466869,53.255554 a 4.693721,4.0209316 6.60289 0 1 0.29191,1.856648 4.693721,4.0209316 6.60289 0 1 -5.12504,3.454345 4.693721,4.0209316 6.60289 0 1 -4.20037,-4.533809 4.693721,4.0209316 6.60289 0 1 0.5373,-1.494193 4.3710432,3.4293561 6.60289 0 0 3.90257,3.023974 4.3710432,3.4293561 6.60289 0 0 4.59363,-2.306965 z"
           style="opacity:1;fill:#b3c8d1;fill-opacity:1;stroke:none;stroke-width:4;stroke-linecap:butt;stroke-linejoin:round;stroke-miterlimit:4;stroke-dasharray:none;stroke-dashoffset:0;stroke-opacity:1" />
      </g>
      <path
         style="fill:#ee5d4d;fill-opacity:1;fill-rule:evenodd;stroke:none;stroke-width:0.612879px;stroke-linecap:butt;stroke-linejoin:miter;stroke-opacity:1"
         d="m 1164.76,1990.7585 c 23.6075,-0.023 48.1874,9.2735 51.174,32.5208 -6.9686,35.1135 -50.9113,27.6863 -78.0385,22.8283 -6.5725,1.6759 -13.1449,3.3518 -19.7173,5.0278 l 9.184,-7.7204 0.043,-0.7349 c -14.6566,-9.7276 -9.5004,-38.3965 7.8842,-46.5486 8.2099,-3.4266 18.7399,-5.3625 29.4706,-5.373 z"
         id="path4977-8-9-2-4-0-3-0-08-0-6"
         inkscape:connector-curvature="0"
         inkscape:export-filename="/media/issa/f46a2e62-019e-4bdf-9e7a-616962b8730a/home/yugi/Dropbox/JOSA/Design and Branding/Members Hub/home.png"
         inkscape:export-xdpi="96.025314"
         inkscape:export-ydpi="96.025314" />
      <path
         style="fill:#ffffff;stroke-width:2.12927"
         d="m 1164.2148,2036.5737 c 0.091,-0.025 3.7485,-2.9846 8.0049,-6.2077 5.8183,-4.4061 7.7446,-5.6811 8.068,-6.0541 0.8571,-0.9893 1.4126,-1.956 1.8178,-3.1634 0.3415,-1.0182 0.5208,-2.836 0.3824,-3.8777 -0.2153,-1.622 -0.8283,-3.0734 -1.8438,-4.3673 -1.4874,-1.8953 -3.3688,-2.9784 -5.7506,-3.3108 -2.4133,-0.3368 -4.6425,1.5482 -6.7044,3.0527 l -0.8641,0.6301 -0.5883,-0.7569 c -0.7095,-0.912 -0.9022,-2.6467 -1.7718,-3.2466 -3.709,-2.7052 -8.8119,-2.1865 -11.8451,1.2044 -1.2496,1.3968 -1.9118,2.8163 -2.1718,4.6554 -0.222,1.5658 -0.1298,2.6533 0.3483,4.1014 0.1661,0.5042 0.4452,1.1687 0.6201,1.4773 0.419,0.7394 11.8657,15.8819 12.0167,15.8964 0.064,0.021 0.1915,-0.021 0.2813,-0.034 z"
         id="path12131-12-4-6"
         inkscape:connector-curvature="0"
         sodipodi:nodetypes="cccccccccccccccccc"
         inkscape:export-filename="/media/issa/f46a2e62-019e-4bdf-9e7a-616962b8730a/home/yugi/Dropbox/JOSA/Design and Branding/Members Hub/home.png"
         inkscape:export-xdpi="96.025314"
         inkscape:export-ydpi="96.025314" />
      <ellipse
         style="opacity:0.1;fill:#000000;fill-opacity:1;stroke:none;stroke-width:13.8665;stroke-linecap:butt;stroke-linejoin:miter;stroke-miterlimit:4;stroke-dasharray:none;stroke-dashoffset:0;stroke-opacity:1"
         id="path4996-1-5-7-0-7-8-9-4-2"
         cx="1314.1128"
         cy="2105.4778"
         rx="44.189209"
         ry="6.6762366"
         inkscape:export-filename="/media/issa/f46a2e62-019e-4bdf-9e7a-616962b8730a/home/yugi/Dropbox/JOSA/Design and Branding/Members Hub/home.png"
         inkscape:export-xdpi="96.025314"
         inkscape:export-ydpi="96.025314"
         transform="matrix(0.99619019,0.08720721,-0.05404262,0.99853863,0,0)" />
      <g
         style="stroke-width:0.0988187"
         id="g12245-5-4-8-8"
         transform="matrix(10.939716,0,0,10.925486,-2929.8085,-9316.7008)"
         inkscape:export-filename="/media/issa/f46a2e62-019e-4bdf-9e7a-616962b8730a/home/yugi/Dropbox/JOSA/Design and Branding/Members Hub/home.png"
         inkscape:export-xdpi="96.025314"
         inkscape:export-ydpi="96.025314">
        <path
           style="fill:#afa69d;fill-opacity:1;fill-rule:evenodd;stroke:none;stroke-width:0.0147224px;stroke-linecap:butt;stroke-linejoin:miter;stroke-opacity:1"
           d="m 375.34927,1053.1597 c 0,0 -0.84536,1.2348 -1.59789,1.8238 -0.33673,0.2636 -0.25572,0.4941 0.0712,0.7487 0.21846,0.1756 0.89098,0.1952 1.12325,0.05 0.31973,-0.1528 -0.0374,-0.6472 0.51711,-1.4513 0.34929,-0.4567 0.92592,-0.6433 1.3426,-1.0251 0.20815,-0.1395 0.29792,-0.4096 0.51478,-0.5231 0.3215,-0.023 0.49575,0.3255 0.64665,0.5563 0.23462,0.3968 0.3302,0.9138 0.0956,1.3332 -0.12206,0.3043 -0.32622,0.6386 -0.19935,0.9739 0.15466,0.2742 0.51308,0.2014 0.77567,0.2221 0.2361,-0.013 0.60712,0.087 0.63394,-0.2492 0.0739,-0.3155 -0.0114,-0.6428 0.0524,-0.9599 0.0328,-0.5678 0.0206,-1.1369 0.0234,-1.7054 -0.17188,-0.5153 -0.70902,-0.7404 -1.09535,-1.0674 -0.46365,-0.3371 -0.93037,-0.6698 -1.39499,-1.0055 -0.64782,0.7776 -1.01006,1.2352 -1.66595,2.006 z"
           id="path14395-3-0-4-4-7-9"
           inkscape:connector-curvature="0"
           sodipodi:nodetypes="cscccccccccccccccc" />
        <path
           style="fill:#cfc9c3;fill-opacity:1;fill-rule:evenodd;stroke:none;stroke-width:0.0147224px;stroke-linecap:butt;stroke-linejoin:miter;stroke-opacity:1"
           d="m 376.86753,1050.8768 c -0.32683,0.6521 -1.06063,1.0113 -1.30697,1.7131 -0.0816,0.2662 0.002,0.5639 0.19558,0.7606 0.33012,0.4595 0.37299,1.138 0.009,1.5914 -0.21383,0.1835 -0.47814,0.4467 -0.31062,0.7512 0.19813,0.334 1.01237,0.3841 1.31303,0.2025 0.22052,-0.1184 0.0681,-0.3459 -0.0632,-0.7469 0.13381,-1.627 0.89218,-1.2675 1.48472,-1.2753 0.4426,-0.01 0.94871,0.06 0.73196,0.5647 -0.21977,0.4184 -0.56113,0.8148 -0.44499,1.3028 0.035,0.242 0.41089,0.1477 0.57446,0.1084 0.21749,-0.076 0.39427,-0.3007 0.33437,-0.5395 -0.0596,-0.2611 -0.1121,-0.5236 -0.0918,-0.7928 0.0107,-0.5558 0.14402,-1.1495 -0.10921,-1.6727 -0.19377,-0.3364 -0.55528,-0.5167 -0.83238,-0.7738 -0.4942,-0.3985 -0.99077,-0.7945 -1.48435,-1.1936 z"
           id="path14395-0-0-3-6-2-0-6"
           inkscape:connector-curvature="0"
           sodipodi:nodetypes="cccccccsccccccccc" />
        <path
           style="fill:#cfc9c3;fill-opacity:1;fill-rule:evenodd;stroke:none;stroke-width:0.0147224px;stroke-linecap:butt;stroke-linejoin:miter;stroke-opacity:1"
           d="m 379.06886,1051.7788 0.29768,-0.8392 0.25407,0.3957 0.18541,-1.0957 0.29019,0.401 0.50189,-0.8902 0.19839,0.3658 0.69477,-0.9031 c 0,0 0.18879,0.2374 0.0129,0.5793 -0.17586,0.3419 -1.38122,1.5923 -1.72365,1.9275 -0.34242,0.3351 -0.835,0.5258 -0.835,0.5258 z"
           id="path14391-7-6-7-1-8-0"
           inkscape:connector-curvature="0" />
        <path
           style="fill:#cfc9c3;fill-opacity:1;fill-rule:evenodd;stroke:none;stroke-width:0.0147224px;stroke-linecap:butt;stroke-linejoin:miter;stroke-opacity:1"
           d="m 377.64613,1050.4959 c -0.34415,0.01 -0.72501,0.049 -0.98607,0.2987 -0.0411,0.3273 0.35417,0.4167 0.51563,0.6327 0.5793,0.5507 1.24015,1.0383 1.67829,1.7188 0.17716,0.2786 0.10655,0.6307 0.18722,0.9391 0.0555,0.2558 0.13107,0.5531 -0.10601,0.7463 -0.17225,0.2131 -0.30306,0.4518 -0.43394,0.6858 -0.12681,0.3176 0.17791,0.5332 0.44582,0.604 0.37745,0.1416 0.85174,0.1554 1.17546,-0.1151 0.22009,-0.2556 0.10783,-0.6144 0.0268,-0.9024 -0.24085,-0.9317 -0.0777,-1.8984 -0.1361,-2.8454 -0.0444,-0.6344 -0.42526,-1.2514 -1.01675,-1.5091 -0.42148,-0.1875 -0.8935,-0.2516 -1.35032,-0.2534 z"
           id="path14393-4-2-7-0-6-7"
           inkscape:connector-curvature="0" />
        <g
           id="g15597-2-0"
           transform="matrix(0.99904142,-0.04383189,0.04371794,0.99904142,-45.57106,17.377076)">
          <path
             inkscape:connector-curvature="0"
             id="path14385-5-8-0-8-4-1"
             d="m 375.34517,1047.448 c -0.46437,0.1127 -0.9378,0.3865 -1.1355,0.836 0.10104,0.4331 0.64934,0.5381 0.92496,0.8438 0.27047,0.3903 0.81797,0.3017 0.81411,-0.2096 0.11763,-0.5106 -0.0389,-1.0899 -0.41833,-1.452 -0.0555,-0.031 -0.12525,-0.041 -0.18524,-0.018 z"
             style="fill:#afa69d;fill-opacity:1;fill-rule:evenodd;stroke:none;stroke-width:0.0147224px;stroke-linecap:butt;stroke-linejoin:miter;stroke-opacity:1" />
          <path
             sodipodi:nodetypes="ccccccccc"
             inkscape:connector-curvature="0"
             id="path14387-6-0-5-0-7-0"
             d="m 370.35756,1049.3719 c -0.12658,0.1022 -0.18929,0.2721 -0.16308,0.4323 0.0365,0.4135 0.19872,0.8211 0.48284,1.1271 0.0991,0.055 0.22349,3e-4 0.27633,-0.093 0.12076,-0.1709 0.15835,-0.391 0.30694,-0.544 0.0732,-0.1004 0.12471,-0.2144 0.18859,-0.3207 0.10998,-0.2028 0.2062,-0.4206 0.223,-0.6535 -0.01,-0.1117 -0.1254,-0.1741 -0.22814,-0.1714 -0.33881,-0.043 -0.85981,0.056 -1.08648,0.2232 z"
             style="fill:#afa69d;fill-opacity:1;fill-rule:evenodd;stroke:none;stroke-width:0.0147224px;stroke-linecap:butt;stroke-linejoin:miter;stroke-opacity:1" />
          <path
             inkscape:connector-curvature="0"
             id="path14383-2-1-5-9-9-1"
             d="m 373.84529,1048.1964 c -1.55565,0.034 -3.08729,1.2648 -3.22169,2.8574 -0.0658,1.0304 0.58962,2.0481 1.54241,2.4367 0.66428,0.371 1.46014,0.2263 2.14708,0.01 0.82867,-0.1908 1.77569,-0.4884 2.17757,-1.312 0.62003,-1.2053 0.11035,-2.8098 -1.04647,-3.4937 -0.4758,-0.3036 -1.03486,-0.4774 -1.5989,-0.4935 z"
             style="fill:#cfc9c3;fill-opacity:1;fill-rule:evenodd;stroke:none;stroke-width:0.0147224px;stroke-linecap:butt;stroke-linejoin:miter;stroke-opacity:1" />
          <path
             inkscape:connector-curvature="0"
             id="path14389-0-1-0-6-3-3"
             d="m 373.97653,1051.3649 c -0.36572,0.052 -0.72581,0.1669 -1.05864,0.3227 -0.22822,0.1993 -0.0931,0.5568 0.12025,0.7115 0.26741,0.2164 0.68326,0.2935 0.98656,0.1111 0.28062,-0.2009 0.44693,-0.5853 0.35361,-0.9232 -0.0637,-0.1575 -0.24321,-0.223 -0.40178,-0.2221 z"
             style="fill:#ea9475;fill-opacity:1;fill-rule:evenodd;stroke:none;stroke-width:0.0147224px;stroke-linecap:butt;stroke-linejoin:miter;stroke-opacity:1" />
          <ellipse
             transform="rotate(-10.528915)"
             style="opacity:1;fill:#333333;fill-opacity:1;stroke:none;stroke-width:0.222576;stroke-linecap:butt;stroke-linejoin:round;stroke-miterlimit:4;stroke-dasharray:none;stroke-dashoffset:0;stroke-opacity:1"
             id="path8216-42-2-2-9-2-7-6-4-4-9-7"
             cx="173.96736"
             cy="1101.5146"
             rx="0.30390382"
             ry="0.27476797" />
          <ellipse
             transform="rotate(-10.528915)"
             style="opacity:1;fill:#333333;fill-opacity:1;stroke:none;stroke-width:0.222576;stroke-linecap:butt;stroke-linejoin:round;stroke-miterlimit:4;stroke-dasharray:none;stroke-dashoffset:0;stroke-opacity:1"
             id="path8216-0-5-6-4-3-9-3-6-5-2-2-7"
             cx="176.30019"
             cy="1101.4178"
             rx="0.301911"
             ry="0.27296618" />
        </g>
        <path
           style="fill:#cfc9c3;fill-opacity:1;fill-rule:evenodd;stroke:none;stroke-width:0.0261458px;stroke-linecap:butt;stroke-linejoin:miter;stroke-opacity:1"
           d="m 376.56868,1053.1403 c -0.33073,0.028 -0.65219,0.141 -0.9867,0.1271 -0.31006,0.083 -0.0576,0.4585 0.11439,0.5634 0.27577,0.1966 0.63253,0.1788 0.94424,0.2751 0.35281,0 0.12421,-0.3568 0.10109,-0.5461 -0.0276,-0.1487 -0.0592,-0.3101 -0.17302,-0.4195 z"
           id="path15571-8-2"
           inkscape:connector-curvature="0" />
        <path
           style="fill:#f26f54;fill-opacity:1;fill-rule:evenodd;stroke:none;stroke-width:0.0147224px;stroke-linecap:butt;stroke-linejoin:miter;stroke-opacity:1"
           d="m 376.63737,1050.855 c -0.0549,0.4988 -0.11322,1.0206 -0.38534,1.4553 -0.18573,0.2942 -0.43098,0.5534 -0.7194,0.7485 -0.12537,0.083 -0.26002,0.1495 -0.39794,0.2081 0.12971,0.053 0.27361,0.042 0.40931,0.068 0.42952,0.04 0.88318,-0.143 1.14101,-0.4932 0.20071,-0.2978 0.25055,-0.6709 0.23414,-1.0226 -0.0275,-0.3358 -0.14288,-0.6612 -0.28178,-0.9637 z"
           id="path14383-9-0-68-0-2-3-6"
           inkscape:connector-curvature="0" />
      </g>
    </g>
  </g>
</svg>
