<?xml version="1.0" encoding="UTF-8" standalone="no"?>
<!-- Created with Inkscape (http://www.inkscape.org/) -->

<svg
   width="63.061272mm"
   height="59.152481mm"
   viewBox="0 0 63.061272 59.152481"
   version="1.1"
   id="svg57651"
   inkscape:version="1.1.2 (08b2f3d93c, 2022-04-05)"
   sodipodi:docname="bot-1.svg"
   xmlns:inkscape="http://www.inkscape.org/namespaces/inkscape"
   xmlns:sodipodi="http://sodipodi.sourceforge.net/DTD/sodipodi-0.dtd"
   xmlns="http://www.w3.org/2000/svg"
   xmlns:svg="http://www.w3.org/2000/svg">
  <sodipodi:namedview
     id="namedview57653"
     pagecolor="#ffffff"
     bordercolor="#666666"
     borderopacity="1.0"
     inkscape:pageshadow="2"
     inkscape:pageopacity="0.0"
     inkscape:pagecheckerboard="0"
     inkscape:document-units="mm"
     showgrid="false"
     fit-margin-top="0"
     fit-margin-left="0"
     fit-margin-right="0"
     fit-margin-bottom="0"
     inkscape:zoom="0.733172"
     inkscape:cx="208.68227"
     inkscape:cy="188.22323"
     inkscape:window-width="1920"
     inkscape:window-height="1016"
     inkscape:window-x="0"
     inkscape:window-y="27"
     inkscape:window-maximized="1"
     inkscape:current-layer="layer1" />
  <defs
     id="defs57648" />
  <g
     inkscape:label="Layer 1"
     inkscape:groupmode="layer"
     id="layer1"
     transform="translate(-2.4498149,-2.6189025)">
    <g
       id="g57440"
       transform="matrix(0.26458333,0,0,0.26458333,-84.71699,-408.30708)">
      <g
         id="g145076"
         transform="translate(5.6503016,25.305472)"
         inkscape:export-filename="/media/issa/f46a2e62-019e-4bdf-9e7a-616962b8730a/home/yugi/Dropbox/JOSA/Design and Branding/Members Hub/home.png"
         inkscape:export-xdpi="96.025314"
         inkscape:export-ydpi="96.025314">
        <ellipse
           style="opacity:0.1;fill:#000000;fill-opacity:1;stroke:none;stroke-width:16.3647;stroke-linecap:butt;stroke-linejoin:miter;stroke-miterlimit:4;stroke-dasharray:none;stroke-dashoffset:0;stroke-opacity:1"
           id="path4996-1-5-7-0-7-8"
           cx="-411.2915"
           cy="1741.5057"
           rx="61.461426"
           ry="6.685411"
           inkscape:export-filename="/home/issa/flowRoot7051-3-9-1-0-2.png"
           inkscape:export-xdpi="96"
           inkscape:export-ydpi="96"
           transform="matrix(-0.99997009,-0.00773455,0.00479737,0.99998849,0,0)" />
        <g
           id="g129520"
           transform="matrix(0.33284146,0.35491286,0.35491286,-0.33284146,-433.10946,2183.9142)">
          <g
             id="g24713-9-9"
             transform="matrix(0.21393097,-0.41509646,0.41509646,0.21393097,-2435.998,1597.241)"
             style="stroke-width:2.41525">
            <circle
               r="241.52542"
               cy="5784.1021"
               cx="2163.5593"
               id="path24613-0-4"
               style="opacity:1;fill:#fec540;fill-opacity:1;stroke:none;stroke-width:3.5345px;stroke-linecap:butt;stroke-linejoin:miter;stroke-miterlimit:4;stroke-dasharray:none;stroke-dashoffset:0;stroke-opacity:1" />
            <rect
               ry="120.76271"
               y="6180.0674"
               x="2107.6272"
               height="57.627117"
               width="123.72881"
               id="rect24633-6-2-2-9"
               style="opacity:1;fill:#3e4b54;fill-opacity:1;stroke:none;stroke-width:3.5345px;stroke-linecap:butt;stroke-linejoin:miter;stroke-miterlimit:4;stroke-dasharray:none;stroke-dashoffset:0;stroke-opacity:1"
               rx="120.76271" />
            <rect
               ry="120.76271"
               y="6180.0674"
               x="2107.6272"
               height="34.46323"
               width="123.72881"
               id="rect24633-6-2-6-8-0"
               style="opacity:1;fill:#4b555f;fill-opacity:1;stroke:none;stroke-width:3.5345px;stroke-linecap:butt;stroke-linejoin:miter;stroke-miterlimit:4;stroke-dasharray:none;stroke-dashoffset:0;stroke-opacity:1"
               rx="120.76271" />
            <rect
               ry="48.305084"
               y="6140.4404"
               x="2062.7119"
               height="57.627117"
               width="213.55931"
               id="rect24633-6-3-9"
               style="opacity:1;fill:#3e4b54;fill-opacity:1;stroke:none;stroke-width:3.5345px;stroke-linecap:butt;stroke-linejoin:miter;stroke-miterlimit:4;stroke-dasharray:none;stroke-dashoffset:0;stroke-opacity:1"
               rx="48.305084" />
            <rect
               ry="48.305084"
               y="6140.4404"
               x="2062.7119"
               height="34.46323"
               width="213.55931"
               id="rect24633-6-7-8-1"
               style="opacity:1;fill:#4b555f;fill-opacity:1;stroke:none;stroke-width:3.5345px;stroke-linecap:butt;stroke-linejoin:miter;stroke-miterlimit:4;stroke-dasharray:none;stroke-dashoffset:0;stroke-opacity:1"
               rx="48.305084" />
            <path
               id="path24615-0-7"
               d="m 2155.6608,5883.2552 0.1368,6.9355 -174.4415,50.6914 c 0,0 81.3563,52.5419 84.7461,89.8301 3.3899,37.2881 0,100 0,100 l 94.6153,10.3477 0.029,1.5156 6.916,-0.7559 6.9141,0.7559 0.029,-1.5156 94.6153,-10.3477 c 0,0 -3.3899,-62.7119 0,-100 3.3898,-37.2882 84.7441,-89.8301 84.7441,-89.8301 l -174.4414,-50.6914 0.1367,-6.9355 -12,3.4863 z"
               style="fill:#fec540;fill-opacity:1;fill-rule:evenodd;stroke:none;stroke-width:2.41525px;stroke-linecap:butt;stroke-linejoin:miter;stroke-opacity:1" />
            <path
               id="path24686-4-7"
               d="m 2125.3925,6106.2659 c 3.9681,-81.0091 7.0063,-162.0699 12.2683,-243.0107 -18.6237,-74.9407 -139.7144,-8.4054 -74.8296,45.5301 58.0536,56.5369 157.5572,39.3302 211.1344,-14.5065 40.791,-57.2675 -70.5179,-102.2522 -72.8118,-23.8155 -10.1595,66.5534 -0.3296,135.1179 -4.9191,202.6854 -10.3534,42.4078 30.7864,46.8379 23.1583,3.5302 -0.2656,-63.8542 -6.5933,-127.9197 -2.1241,-191.6759 -5.4212,-51.427 61.1149,-30.0309 30.8162,9.1469 -49.1163,38.3477 -131.9733,43.4274 -174.5864,-9.067 6.4275,-64.0518 67.1815,8.1143 40.5363,43.4794 -2.2227,59.9003 -5.6668,119.9888 -3.6129,179.8763 0.1807,10.7007 13.5128,-1.0032 14.9704,-2.1727 z"
               style="fill:#dda73b;fill-opacity:1;fill-rule:evenodd;stroke:none;stroke-width:2.41525px;stroke-linecap:butt;stroke-linejoin:miter;stroke-opacity:1" />
            <rect
               ry="48.305084"
               y="6096.8135"
               x="2040.678"
               height="57.627117"
               width="257.62711"
               id="rect24633-0-1"
               style="opacity:1;fill:#3e4b54;fill-opacity:1;stroke:none;stroke-width:3.5345px;stroke-linecap:butt;stroke-linejoin:miter;stroke-miterlimit:4;stroke-dasharray:none;stroke-dashoffset:0;stroke-opacity:1"
               rx="48.305084" />
            <rect
               ry="48.305084"
               y="6096.8135"
               x="2040.678"
               height="34.46323"
               width="257.62711"
               id="rect24633-7-9-1"
               style="opacity:1;fill:#4b555f;fill-opacity:1;stroke:none;stroke-width:3.5345px;stroke-linecap:butt;stroke-linejoin:miter;stroke-miterlimit:4;stroke-dasharray:none;stroke-dashoffset:0;stroke-opacity:1"
               rx="48.305084" />
            <path
               id="path24695-1-5"
               d="m 2173.181,5562.9153 a 186.14079,186.14079 0 0 0 -105.5684,33.082 173.72882,173.72882 0 0 1 68.8281,-14.4375 173.72882,173.72882 0 0 1 173.7285,173.7285 173.72882,173.72882 0 0 1 -0.4296,8.5977 l 49.3027,-6.9648 a 186.14079,186.14079 0 0 0 0.2793,-7.8653 186.14079,186.14079 0 0 0 -186.1406,-186.1406 z"
               style="opacity:1;fill:#fee9cc;fill-opacity:1;stroke:none;stroke-width:3.5345px;stroke-linecap:butt;stroke-linejoin:miter;stroke-miterlimit:4;stroke-dasharray:none;stroke-dashoffset:0;stroke-opacity:1" />
          </g>
          <g
             style="fill:#d6d6d6;stroke-width:1.98204"
             transform="matrix(1.0184219,-0.4846925,0.4846925,1.0184219,-3150.4458,-3592.2399)"
             id="g25190-6-6">
            <rect
               transform="rotate(-59.948534)"
               rx="20"
               ry="20"
               y="3372.325"
               x="-4643.1265"
               height="60.007526"
               width="12.309237"
               id="rect24715-9-3"
               style="opacity:1;fill:#d6d6d6;fill-opacity:1;stroke:none;stroke-width:1.46341px;stroke-linecap:butt;stroke-linejoin:miter;stroke-miterlimit:4;stroke-dasharray:none;stroke-dashoffset:0;stroke-opacity:1" />
            <rect
               transform="rotate(-76.538915)"
               rx="20"
               ry="20"
               y="1901.8628"
               x="-5470.4927"
               height="60.007526"
               width="12.309237"
               id="rect24715-7-4-8"
               style="opacity:1;fill:#d6d6d6;fill-opacity:1;stroke:none;stroke-width:1.46341px;stroke-linecap:butt;stroke-linejoin:miter;stroke-miterlimit:4;stroke-dasharray:none;stroke-dashoffset:0;stroke-opacity:1" />
            <rect
               transform="rotate(-86.162016)"
               rx="20"
               ry="20"
               y="964.24377"
               x="-5761.5283"
               height="60.007526"
               width="12.309237"
               id="rect24715-7-5-2-5"
               style="opacity:1;fill:#d6d6d6;fill-opacity:1;stroke:none;stroke-width:1.46341px;stroke-linecap:butt;stroke-linejoin:miter;stroke-miterlimit:4;stroke-dasharray:none;stroke-dashoffset:0;stroke-opacity:1" />
          </g>
        </g>
      </g>
      <g
         id="g145124"
         transform="rotate(8.2678301,244.26025,1898.82)"
         inkscape:export-filename="/media/issa/f46a2e62-019e-4bdf-9e7a-616962b8730a/home/yugi/Dropbox/JOSA/Design and Branding/Members Hub/home.png"
         inkscape:export-xdpi="96.025314"
         inkscape:export-ydpi="96.025314">
        <path
           style="fill:#474747;fill-opacity:1;fill-rule:evenodd;stroke:none;stroke-width:0.550477px;stroke-linecap:butt;stroke-linejoin:miter;stroke-opacity:1"
           d="m 466.38092,1524.4342 2.52985,35.4546 -7.25453,-0.6744 2.50425,-34.7312 z"
           id="path2070-8-8"
           inkscape:connector-curvature="0" />
        <g
           id="g11068-0-9"
           transform="matrix(0.18288488,0.00224285,-0.00224285,0.18288488,389.46082,1694.3008)"
           style="stroke-width:11.3754">
          <path
             inkscape:connector-curvature="0"
             id="path8208-4-1"
             d="m 175.13477,-352.72461 c 152.74414,-2.01302 305.48828,-4.02604 458.23242,-6.03906 -3.61459,-116.05729 -7.22917,-232.11459 -10.84375,-348.17188 -141.67578,-9.66601 -283.35156,-19.33203 -425.02735,-28.99804 -7.45377,127.73632 -14.90755,255.47265 -22.36132,383.20898 z"
             style="fill:#ccdae0;fill-opacity:1;fill-rule:evenodd;stroke:none;stroke-width:3.00974px;stroke-linecap:butt;stroke-linejoin:miter;stroke-opacity:1" />
          <path
             id="path8216-7-5"
             style="opacity:1;fill:#333333;stroke-width:45.5016;stroke-linejoin:round"
             transform="rotate(2.0892722)"
             d="m 263.80078,-511.59961 c -23.73074,0.0557 -39.73333,33.3688 -22.45249,50.81676 16.0921,18.64207 53.33276,11.72856 58.15772,-13.59645 3.84864,-20.0434 -16.01663,-39.1533 -35.70523,-37.22031 z" />
          <path
             id="path8216-0-6-4"
             style="opacity:1;fill:#333333;stroke-width:45.5016;stroke-linejoin:round"
             transform="rotate(2.0892722)"
             d="m 506.02734,-514.40039 c -23.24419,2.62892 -34.64691,37.28511 -15.70003,52.09661 16.99258,15.35543 50.16312,4.00354 51.19027,-19.8095 1.19747,-18.67983 -17.04391,-35.14458 -35.49024,-32.28711 z" />
          <path
             inkscape:connector-curvature="0"
             id="path8278-8-9"
             d="m 154.70312,-541.7168 c -41.00291,15.46776 -64.212956,67.28922 -45.88953,107.68359 9.07464,21.85045 27.65577,39.70668 50.16102,47.24024 3.69956,-7.22134 0.5634,-15.69616 2.21406,-23.41526 1.64284,-45.05038 3.28568,-90.10076 4.92852,-135.15115 -3.80469,1.2142 -7.60938,2.42839 -11.41407,3.64258 z"
             style="opacity:1;fill:#3897c0;fill-opacity:1;stroke:none;stroke-width:45.5016;stroke-linecap:butt;stroke-linejoin:round;stroke-miterlimit:4;stroke-dasharray:none;stroke-dashoffset:0;stroke-opacity:1" />
          <path
             inkscape:connector-curvature="0"
             id="path8278-1-9-2"
             d="m 639.70898,-541.83789 c -0.83155,50.29881 0.81042,100.5889 1.70313,150.875 45.73396,-11.38047 71.42497,-70.67041 47.33434,-111.52052 -10.01028,-19.37409 -27.46206,-35.04946 -48.2777,-41.88182 -0.25326,0.84244 -0.50651,1.68489 -0.75977,2.52734 z"
             style="opacity:1;fill:#3897c0;fill-opacity:1;stroke:none;stroke-width:45.5016;stroke-linecap:butt;stroke-linejoin:round;stroke-miterlimit:4;stroke-dasharray:none;stroke-dashoffset:0;stroke-opacity:1" />
          <path
             inkscape:connector-curvature="0"
             id="path8331-0-5"
             d="m 396.9707,-773.16797 c -34.46012,2.75362 -68.89012,14.99672 -94.85547,38.29883 74.85026,3.61654 149.70053,7.23307 224.55079,10.84961 -30.93172,-37.86869 -82.57746,-51.32644 -129.69532,-49.14844 z"
             style="opacity:1;fill:#6e96a8;fill-opacity:1;stroke:none;stroke-width:45.5016;stroke-linecap:butt;stroke-linejoin:round;stroke-miterlimit:4;stroke-dasharray:none;stroke-dashoffset:0;stroke-opacity:1" />
          <path
             id="path8216-0-2-6-7"
             style="opacity:1;fill:#3897c0;stroke-width:45.5016;stroke-linejoin:round"
             d="m 405.47056,-971.9188 c -21.14876,-2.88935 -39.33154,25.0232 -25.55785,42.31904 12.68228,19.02234 47.73717,14.38728 52.9688,-8.62459 5.02068,-16.62245 -10.26259,-34.94607 -27.41095,-33.69445 z" />
          <path
             inkscape:connector-curvature="0"
             id="path8353-8-4"
             d="m 294.92383,-350.75586 c 0.13607,15.7181 0.27213,31.4362 0.4082,47.1543 75.43555,-6.99219 150.87109,-13.98438 226.30664,-20.97656 -2.91146,-10.60678 -5.82291,-21.21355 -8.73437,-31.82032 -72.66016,1.88086 -145.32032,3.76172 -217.98047,5.64258 z"
             style="fill:#6e96a8;fill-opacity:1;fill-rule:evenodd;stroke:none;stroke-width:3.00974px;stroke-linecap:butt;stroke-linejoin:miter;stroke-opacity:1" />
        </g>
        <path
           sodipodi:nodetypes="cczcczc"
           inkscape:connector-curvature="0"
           id="path1928-2-2-7-5"
           d="m 481.84375,1682.0859 c -1.34697,0.8778 -2.21325,2.2878 -3.47461,3.2657 -0.38969,1.1434 1.25647,1.0057 1.92969,1.2851 5.27427,1.6916 9.51494,5.511 13.10545,9.5971 3.17945,3.628 6.14799,7.76 7.00607,12.6111 0.28544,0.8737 0.12906,1.7781 0.19688,2.6735 0.17871,1.0036 1.35762,0.6597 1.9748,0.3234 1.13257,-0.6236 2.39759,-0.9164 3.58985,-1.3945 1.05173,-0.5974 -0.16227,-2.0422 -0.20789,-2.9885 -2.4106,-7.5081 -7.44867,-14.0319 -13.75441,-18.7039 -3.12825,-2.3573 -6.42849,-4.4847 -9.73904,-6.5693 -0.19772,-0.079 -0.41344,-0.1234 -0.62679,-0.1 z"
           style="fill:#6e96a8;fill-opacity:1;fill-rule:evenodd;stroke:none;stroke-width:0.550477px;stroke-linecap:butt;stroke-linejoin:miter;stroke-opacity:1" />
        <path
           style="fill:#ccdae0;fill-opacity:1;fill-rule:evenodd;stroke:none;stroke-width:0.550477px;stroke-linecap:butt;stroke-linejoin:miter;stroke-opacity:1"
           d="m 510.71986,1691.9895 c -5.78893,3.3918 -9.64335,9.0738 -10.97658,14.4965 -1.2262,6.596 2.57787,13.2225 9.82065,14.0226 0.35009,-0.027 0.69768,-0.067 1.04446,-0.1113 l 30.79001,-17.8122 c 0.69787,-1.3015 0.99618,-2.6724 0.67569,-3.989 -4.58841,-9.1133 -18.87534,-13.1247 -31.35424,-6.6067 z"
           id="path8214-4-3-9"
           inkscape:connector-curvature="0" />
        <path
           sodipodi:nodetypes="cczcczc"
           inkscape:connector-curvature="0"
           id="path1928-2-2-7-5-3"
           d="m 458.375,1684.6152 c -1.52025,0.914 -2.90252,2.0335 -4.25,3.1817 -0.491,0.8877 0.47388,1.7353 1.28125,1.9179 3.14317,0.7238 5.99131,2.3937 8.57447,4.2822 4.05838,3.059 7.47536,6.9307 10.22268,11.194 2.00759,3.2171 3.42038,6.8143 4.05441,10.557 -0.17327,1.0074 0.28453,2.1285 1.19531,2.6309 1.09954,-0.1633 2.17016,-0.4666 3.2461,-0.7383 1.2412,-1.0674 1.00967,-2.9237 0.48633,-4.2968 -2.15727,-7.8291 -6.41682,-15.2453 -12.81515,-20.3578 -3.66597,-3.0985 -7.74777,-5.6429 -11.7122,-8.3317 l -0.13672,-0.041 z"
           style="fill:#6e96a8;fill-opacity:1;fill-rule:evenodd;stroke:none;stroke-width:0.550477px;stroke-linecap:butt;stroke-linejoin:miter;stroke-opacity:1" />
        <g
           id="g133302"
           transform="matrix(-2.0619845,0.27730193,0.27730193,2.0619845,417.13952,1516.7811)">
          <path
             style="fill:#ccdae0;fill-opacity:1;fill-rule:evenodd;stroke:none;stroke-width:0.264583px;stroke-linecap:butt;stroke-linejoin:miter;stroke-opacity:1"
             d="m -25.867188,63.277344 c -0.346354,7.636067 -0.692708,15.272135 -1.039062,22.908203 8.661458,-0.289063 17.3229167,-0.578125 25.984375,-0.867188 -0.999349,-8.238281 -1.9986979,-16.476562 -2.9980469,-24.714843 -7.3157551,0.891276 -14.6315101,1.782552 -21.9472661,2.673828 z"
             id="path8212-0-4"
             inkscape:connector-curvature="0" />
          <path
             style="fill:#333333;fill-opacity:1;fill-rule:evenodd;stroke:none;stroke-width:0.264583px;stroke-linecap:butt;stroke-linejoin:miter;stroke-opacity:1"
             d="m -25.826172,63.164062 c -0.203776,5.100261 -0.407552,10.200521 -0.611328,15.300782 8.214193,-0.253907 16.428385,-0.507813 24.6425781,-0.761719 -0.6959635,-5.738281 -1.3919271,-11.476562 -2.0878906,-17.214844 -7.3144535,0.891927 -14.6289065,1.783854 -21.9433595,2.675781 z"
             id="path8212-2-7-3"
             inkscape:connector-curvature="0" />
        </g>
        <g
           id="g12187-5-8"
           transform="matrix(2.0793857,-0.0695069,0.0695069,2.0793857,304.18063,1434.1153)">
          <path
             style="fill:#6e96a8;fill-opacity:1;fill-rule:evenodd;stroke:none;stroke-width:0.255038px;stroke-linecap:butt;stroke-linejoin:miter;stroke-opacity:1"
             d="m 59.21345,106.93488 c -2.45311,2.65433 -4.702679,5.92114 -5.008214,9.75239 -0.17281,1.73731 -0.04352,3.48248 0.09446,5.21321 1.045176,0.002 2.09035,0.004 3.135525,0.006 -1.635131,-2.89648 -1.083272,-6.70298 0.563069,-9.48787 0.958217,-1.84827 0.498581,-3.69867 2.272377,-4.68301 -0.699423,-0.62506 0.289249,-1.01127 -0.5841,-1.3053 -0.157705,0.1681 -0.315412,0.3362 -0.473118,0.50429 z"
             id="path1928-26-1"
             inkscape:connector-curvature="0"
             sodipodi:nodetypes="cczcczcsc" />
          <path
             style="fill:#333333;fill-opacity:1;fill-rule:evenodd;stroke:none;stroke-width:0.264583px;stroke-linecap:butt;stroke-linejoin:miter;stroke-opacity:1"
             d="m 60.537109,102.42773 c -1.952545,1.37561 -4.112623,2.98815 -4.615234,5.47461 -0.240333,2.371 1.969715,4.35188 4.202396,4.59084 0.434032,0.0329 1.109365,0.22625 1.406473,0.0283 0.06609,-3.59983 0.09709,-7.20042 0.07082,-10.80082 -0.354817,0.23568 -0.709635,0.47136 -1.064453,0.70703 z"
             id="path8265-8-4-5-9"
             inkscape:connector-curvature="0" />
          <path
             id="path8355-4-4-7-8-9"
             style="opacity:1;fill:#ccdae0;stroke-width:4;stroke-linejoin:round"
             d="m 55.892683,120.33644 c 2.195367,0.13169 4.347258,2.16845 4.009766,4.46289 -0.557606,2.39549 -3.376204,3.60164 -5.634952,3.05681 -2.057259,-0.33574 -3.958538,-2.42606 -3.429593,-4.57776 0.611291,-2.09642 2.996589,-3.19759 5.054779,-2.94194 z" />
        </g>
        <g
           id="g133307"
           transform="matrix(2.0452666,0.38152391,-0.38152391,2.0452666,521.45985,1520.8225)">
          <g
             id="g133974"
             transform="matrix(1,0,0,-1,-7.0589532,127.83643)">
            <path
               sodipodi:nodetypes="cczcczc"
               inkscape:connector-curvature="0"
               id="path1928-2-2-7"
               d="m 14.130233,57.433512 c -1.198549,3.597954 -4.5370201,6.238428 -8.1334038,6.730378 -0.4559729,0.527164 0.048263,1.186298 0.083681,1.763766 0.6909334,0.748559 1.6828048,0.06306 2.4586424,-0.166255 3.1022554,-1.166201 5.7521894,-3.538649 7.4149554,-6.492003 -0.07379,-1.039084 -1.04112,-1.57828 -1.719814,-2.184478 -0.03469,0.116198 -0.06938,0.232394 -0.104061,0.348592 z m -8.6246627,6.748022 c 0.092726,0.0521 -0.072294,-0.260413 0,0 z"
               style="fill:#6e96a8;fill-opacity:1;fill-rule:evenodd;stroke:none;stroke-width:0.247429px;stroke-linecap:butt;stroke-linejoin:miter;stroke-opacity:1" />
            <path
               id="path8355-4-4-7-1-7-7"
               style="opacity:1;fill:#ccdae0;stroke-width:4;stroke-linejoin:round"
               d="m 17.683363,52.297213 c -2.643914,-1.159555 -5.926803,1.69252 -5.117434,4.472287 0.666607,2.559529 4.08395,3.91664 6.27463,2.364171 1.431757,-0.929023 1.806728,-2.888958 1.198098,-4.413634 -0.38788,-1.09529 -1.242853,-2.042061 -2.355294,-2.422824 z" />
          </g>
          <path
             inkscape:connector-curvature="0"
             id="path8265-8-4-6-6-0"
             d="m -4.5585938,59.238281 c 0.8507796,3.084101 2.2941581,5.954742 3.390625,8.951172 0.76644252,0.232879 1.32867603,-0.556238 1.91037675,-0.914823 C 2.130271,66.020466 2.8342517,63.691616 1.6617069,62.075669 0.1642935,60.176957 -2.255996,59.314402 -4.5800781,58.992188 c 0.00716,0.08203 0.014323,0.164062 0.021484,0.246093 z"
             style="fill:#333333;fill-opacity:1;fill-rule:evenodd;stroke:none;stroke-width:0.264583px;stroke-linecap:butt;stroke-linejoin:miter;stroke-opacity:1" />
        </g>
        <path
           style="fill:#ccdae0;fill-opacity:1;fill-rule:evenodd;stroke:none;stroke-width:0.550477px;stroke-linecap:butt;stroke-linejoin:miter;stroke-opacity:1"
           d="m 488.87191,1707.1161 c -6.38282,2.0677 -11.36875,6.7881 -13.83674,11.7973 -2.61571,6.1781 -0.32536,13.4675 6.57601,15.8062 0.34768,0.049 0.69567,0.085 1.04394,0.1159 L 516.5548,1724.06 c 0.96138,-1.121 1.54748,-2.3957 1.51755,-3.7505 -2.52165,-9.8866 -15.61197,-16.876 -29.20043,-13.1935 z"
           id="path8214-4-3-9-4"
           inkscape:connector-curvature="0" />
        <path
           id="path8214-4-3-9-4-9"
           style="fill:#a9c1cb;fill-opacity:1;fill-rule:evenodd;stroke:none;stroke-width:0.50286px;stroke-linecap:butt;stroke-linejoin:miter;stroke-opacity:1"
           d="m 499.65753,1705.8958 c -0.56005,0 -1.12508,0.024 -1.69411,0.065 9.07146,2.2976 16.23685,9.0097 18.38073,17.3837 l 0.93927,-0.3262 c 0.84061,-1.0698 1.35311,-2.286 1.32695,-3.5789 -1.79147,-7.6663 -9.6834,-13.5081 -18.95284,-13.5439 z" />
        <path
           style="fill:#3897c0;fill-opacity:1;stroke-width:1.87977"
           d="m 461.8627,1669.9924 c -0.0184,-0.034 -0.15398,-1.2456 -0.30132,-2.6903 -0.14715,-1.4447 -0.32073,-3.0662 -0.3854,-3.6035 l -0.11764,-0.9766 -1.25909,-0.071 c -3.03457,-0.171 -5.9741,-0.3542 -5.99994,-0.3746 -0.0154,-0.013 0.005,-0.056 0.0444,-0.096 0.0399,-0.041 0.26486,-0.2729 0.50001,-0.516 0.23516,-0.2429 1.08251,-1.0935 1.88302,-1.8899 1.99676,-1.9868 2.64828,-2.6606 2.63989,-2.7307 -0.009,-0.076 -0.583,-0.9192 -2.1107,-3.1006 -1.24199,-1.7734 -1.92891,-2.7885 -1.93791,-2.8637 -0.004,-0.027 0.0402,-0.038 0.12235,-0.031 0.58047,0.05 2.06242,0.2231 4.26027,0.4966 1.43061,0.178 2.66233,0.3279 2.7371,0.3329 0.12233,0.01 0.13993,0 0.17316,-0.1054 0.0205,-0.062 0.46129,-1.526 0.97955,-3.2515 0.51828,-1.7258 0.97438,-3.2428 1.01359,-3.3713 0.0585,-0.1922 0.0811,-0.226 0.12694,-0.1897 0.0842,0.067 0.84192,1.235 1.90952,2.944 0.52686,0.8435 1.18824,1.8924 1.46972,2.3312 l 0.51178,0.7975 0.70923,-0.277 c 0.63243,-0.247 5.06975,-2.0258 5.75024,-2.3051 l 0.26796,-0.1103 0.009,0.077 c 0.0151,0.1282 -0.32043,1.1231 -1.36408,4.0425 l -0.99463,2.7825 1.77518,1.0002 c 3.58576,2.0204 4.53746,2.5869 4.49596,2.6763 -0.028,0.06 -1.96467,0.7252 -4.99093,1.7142 -1.87513,0.6127 -1.73491,0.5712 -1.74138,0.5148 -0.003,-0.026 0.0896,-0.3296 0.20559,-0.6753 0.39511,-1.1771 0.49481,-1.8174 0.45258,-2.9065 -0.0601,-1.5492 -0.66526,-3.0944 -1.66742,-4.2574 -0.92347,-1.0717 -2.25074,-1.8819 -3.54557,-2.1647 -0.87953,-0.1918 -1.57349,-0.2091 -2.52057,-0.063 -1.2366,0.1911 -2.40343,0.705 -3.22718,1.4211 -0.61465,0.5344 -1.37223,1.4863 -1.70036,2.1365 -0.70468,1.3964 -0.9611,3.217 -0.64255,4.562 0.51282,2.1653 1.81217,3.8806 3.64393,4.8106 0.44416,0.2255 1.11955,0.4631 1.31238,0.4617 0.27803,0 0.30256,-0.064 0.75058,-1.9027 0.22588,-0.9269 0.56505,-2.5077 0.55536,-2.5886 -0.002,-0.019 -0.0923,-0.079 -0.20022,-0.1339 -0.92898,-0.4779 -1.448,-1.2297 -1.42061,-2.0581 0.017,-0.5306 0.32376,-1.1765 0.70791,-1.4933 0.68063,-0.5613 1.76765,-0.5907 2.43493,-0.066 0.41214,0.324 0.67488,0.747 0.76483,1.2315 0.1315,0.7082 -0.12563,1.3894 -0.76904,2.0369 l -0.27241,0.2741 0.0472,0.2286 c 0.0703,0.3411 1.32472,2.8561 1.7758,3.5604 l 0.23642,0.3694 0.14307,-0.013 c 0.46216,-0.059 1.46585,-0.9065 2.34297,-1.9802 l 0.47905,-0.5864 0.0514,0.2072 c 0.0284,0.1139 0.1556,0.8491 0.28291,1.6337 0.20368,1.2554 0.31116,1.9558 0.7103,4.6272 0.0501,0.3356 0.0808,0.6324 0.0684,0.6598 -0.0268,0.058 -0.0458,0.046 -2.59956,-1.5795 -1.98112,-1.2612 -3.15712,-1.993 -3.41069,-2.1226 l -0.16117,-0.083 -0.26357,0.2596 c -0.30202,0.2976 -1.52545,1.6282 -3.3456,3.6387 -0.69295,0.7656 -1.28263,1.4085 -1.31041,1.429 -0.0334,0.025 -0.0617,0.017 -0.0841,-0.027 z"
           id="path8402-3-2"
           inkscape:connector-curvature="0" />
      </g>
    </g>
  </g>
</svg>
