<?xml version="1.0" encoding="UTF-8" standalone="no"?>
<!-- Created with Inkscape (http://www.inkscape.org/) -->

<svg
   width="58.629379mm"
   height="62.436127mm"
   viewBox="0 0 58.62938 62.436126"
   version="1.1"
   id="svg57651"
   inkscape:version="1.1.2 (08b2f3d93c, 2022-04-05)"
   sodipodi:docname="bot-3.svg"
   xmlns:inkscape="http://www.inkscape.org/namespaces/inkscape"
   xmlns:sodipodi="http://sodipodi.sourceforge.net/DTD/sodipodi-0.dtd"
   xmlns="http://www.w3.org/2000/svg"
   xmlns:svg="http://www.w3.org/2000/svg">
  <sodipodi:namedview
     id="namedview57653"
     pagecolor="#ffffff"
     bordercolor="#666666"
     borderopacity="1.0"
     inkscape:pageshadow="2"
     inkscape:pageopacity="0.0"
     inkscape:pagecheckerboard="0"
     inkscape:document-units="mm"
     showgrid="false"
     fit-margin-top="0"
     fit-margin-left="0"
     fit-margin-right="0"
     fit-margin-bottom="0"
     inkscape:zoom="0.733172"
     inkscape:cx="-128.21002"
     inkscape:cy="-90.019805"
     inkscape:window-width="1920"
     inkscape:window-height="1016"
     inkscape:window-x="0"
     inkscape:window-y="27"
     inkscape:window-maximized="1"
     inkscape:current-layer="layer1" />
  <defs
     id="defs57648" />
  <g
     inkscape:label="Layer 1"
     inkscape:groupmode="layer"
     id="layer1"
     transform="translate(-91.640462,-76.451998)">
    <g
       inkscape:label="Layer 1"
       id="layer1-7"
       transform="matrix(-0.89821709,0,0,0.89821709,205.16205,-46.521553)">
      <g
         id="g13408-9-1-6"
         transform="translate(-1905.9393,418.45587)"
         inkscape:export-filename="/home/issa/membershub-homepage.png"
         inkscape:export-xdpi="96"
         inkscape:export-ydpi="96">
        <g
           transform="matrix(0.87295947,0,0,0.73660306,352.61384,-53.030752)"
           id="g12936-2-6-7"
           style="stroke-width:1.24706" />
        <g
           id="g14815-1-9"
           transform="matrix(-1,0,0,1,3943.6066,2.6151044)" />
      </g>
      <g
         id="g13408-9-1-5"
         transform="translate(-1877.8861,400.7031)"
         inkscape:export-filename="/home/issa/membershub-homepage.png"
         inkscape:export-xdpi="96"
         inkscape:export-ydpi="96">
        <g
           transform="matrix(0.87295947,0,0,0.73660306,352.61384,-53.030752)"
           id="g12936-2-6-8"
           style="stroke-width:1.24706" />
        <g
           id="g14815-1-4"
           transform="matrix(-0.99927594,0.03804726,0.03804726,0.99927594,3951.05,-72.560121)">
          <ellipse
             inkscape:export-ydpi="96"
             inkscape:export-xdpi="96"
             inkscape:export-filename="/home/issa/flowRoot7051-3-9-1-0-2.png"
             ry="2.5645969"
             rx="21.53775"
             cy="-200.05797"
             cx="1984.3542"
             id="path4996-1-5-7-0-7-5-8"
             style="opacity:0.1;fill:#000000;fill-opacity:1;stroke:none;stroke-width:6;stroke-linecap:butt;stroke-linejoin:miter;stroke-miterlimit:4;stroke-dasharray:none;stroke-dashoffset:0;stroke-opacity:1" />
          <path
             inkscape:connector-curvature="0"
             id="path8208-1-4-8-1-79-1-0-4-6-5-7-4-7-0-7-9-1"
             d="m 1997.227,-254.54067 -23.4403,0.30289 -1.0289,18.57801 24.6998,1.04604 z"
             style="fill:#ccdae0;fill-opacity:1;fill-rule:evenodd;stroke:none;stroke-width:0.355934px;stroke-linecap:butt;stroke-linejoin:miter;stroke-opacity:1" />
          <rect
             style="opacity:1;fill:#6e96a8;fill-opacity:1;stroke:none;stroke-width:0.377749px;stroke-linecap:butt;stroke-linejoin:miter;stroke-miterlimit:4;stroke-dasharray:none;stroke-dashoffset:0;stroke-opacity:1"
             id="rect10559-7-2-4-3-4-0"
             width="1.7241536"
             height="15.517384"
             x="-1931.2758"
             y="513.53772"
             transform="matrix(-0.93234968,0.36155785,0.36155785,0.93234968,0,0)" />
          <rect
             style="opacity:1;fill:#6e96a8;fill-opacity:1;stroke:none;stroke-width:0.377749px;stroke-linecap:butt;stroke-linejoin:miter;stroke-miterlimit:4;stroke-dasharray:none;stroke-dashoffset:0;stroke-opacity:1"
             id="rect10559-2-6-2-8-7-9-3"
             width="1.7241536"
             height="15.517384"
             x="1777.4188"
             y="-897.71191"
             transform="rotate(20.476892)" />
          <path
             inkscape:connector-curvature="0"
             id="path8212-3-3-8-7-32-72-5-3-7-6-3-5-1-7-1-0-0"
             d="m 1993.4913,-231.01621 -16.0699,-1.40399 -1.9582,17.05019 17.9489,1.11617 z"
             style="fill:#ccdae0;fill-opacity:1;fill-rule:evenodd;stroke:none;stroke-width:0.355934px;stroke-linecap:butt;stroke-linejoin:miter;stroke-opacity:1" />
          <ellipse
             ry="1.589522"
             rx="1.7580715"
             cy="-261.5087"
             cx="-1989.4783"
             id="path8216-42-7-6-6-5-6-0-7-1-1-0-3-6-1-2-91-4"
             style="opacity:1;fill:#333333;fill-opacity:1;stroke:none;stroke-width:5.38105;stroke-linecap:butt;stroke-linejoin:round;stroke-miterlimit:4;stroke-dasharray:none;stroke-dashoffset:0;stroke-opacity:1"
             transform="matrix(-0.99994726,-0.0102699,-0.0102699,0.99994726,0,0)" />
          <ellipse
             ry="1.5790987"
             rx="1.7465432"
             cy="-261.57236"
             cx="-1975.9567"
             id="path8216-0-5-1-9-2-9-1-7-8-3-4-6-7-3-7-2-7-4"
             style="opacity:1;fill:#333333;fill-opacity:1;stroke:none;stroke-width:5.38105;stroke-linecap:butt;stroke-linejoin:round;stroke-miterlimit:4;stroke-dasharray:none;stroke-dashoffset:0;stroke-opacity:1"
             transform="matrix(-0.99994726,-0.0102699,-0.0102699,0.99994726,0,0)" />
          <path
             id="path8214-4-9-5-1-8-2-0-3-1-2-3-2-4-0-2-1-7-4"
             d="m 1974.2175,-206.64459 c 2.1772,0.10319 4.1429,1.15709 5.3441,2.51648 1.3473,1.71313 1.2517,4.19346 -0.7117,5.51564 -0.1047,0.0452 -0.2108,0.0861 -0.3173,0.12549 l -11.5453,-0.48333 c -0.3971,-0.26932 -0.6897,-0.61881 -0.7959,-1.04599 -0.054,-3.31412 3.4526,-6.62242 8.0261,-6.62827 z"
             style="fill:#ccdae0;fill-opacity:1;fill-rule:evenodd;stroke:none;stroke-width:0.355934px;stroke-linecap:butt;stroke-linejoin:miter;stroke-opacity:1"
             inkscape:connector-curvature="0"
             inkscape:transform-center-x="3.4162201"
             inkscape:transform-center-y="2.9476145" />
          <path
             inkscape:transform-center-y="-1.9754153"
             inkscape:transform-center-x="-3.8003012"
             inkscape:connector-curvature="0"
             id="path8269-2-41-6-1-9-3-61-8-3-1-7-6-5-2-7-5-1-4"
             d="m 1962.1438,-234.47159 c -0.3149,0.0167 -0.6389,0.0402 -0.9326,0.16318 -0.2582,0.13316 -0.3524,0.4798 -0.2424,0.7399 0.1266,0.38067 0.4063,0.73441 0.7972,0.86229 0.2316,0.0727 0.5004,0.0237 0.6842,-0.13714 0.1787,-0.13188 0.3624,-0.26434 0.5784,-0.32745 0.424,-0.15491 0.8806,-0.1844 1.328,-0.19786 0.6199,-0.0121 1.2387,0.068 1.8419,0.20838 0.4267,0.0924 0.847,0.21337 1.2613,0.35074 0.7947,0.27065 1.5807,0.56999 2.3395,0.93025 1.2236,0.57094 2.4299,1.1783 3.6513,1.75387 0.4304,0.19644 0.9177,0.30464 1.3885,0.21243 0.1621,-0.027 0.3249,-0.0794 0.459,-0.17578 0.051,-0.0574 0.038,-0.15307 -0.035,-0.18398 -0.1765,-0.12409 -0.3818,-0.19747 -0.569,-0.3034 -1.0119,-0.52255 -2.0269,-1.0404 -3.0618,-1.51614 -0.7654,-0.33911 -1.5392,-0.65943 -2.3209,-0.95889 -0.9833,-0.36349 -1.9829,-0.68555 -3.0002,-0.93981 -0.6603,-0.16119 -1.328,-0.294 -2.0033,-0.37351 -0.6638,-0.0821 -1.3332,-0.12324 -2.002,-0.11322 -0.054,0.002 -0.108,0.004 -0.162,0.006 z"
             style="fill:#6e96a8;fill-opacity:1;fill-rule:evenodd;stroke:none;stroke-width:0.355934px;stroke-linecap:butt;stroke-linejoin:miter;stroke-opacity:1" />
          <path
             inkscape:connector-curvature="0"
             id="path8265-8-9-8-5-7-5-2-5-5-2-1-2-1-2-0-1-7"
             d="m 1975.8997,-232.413 c -0.5263,0.0183 -1.058,0.10928 -1.5389,0.3308 -0.5936,0.26351 -1.0885,0.74061 -1.3731,1.32435 -0.2257,0.43159 -0.3338,0.93433 -0.2538,1.41853 0.082,0.53587 0.3363,1.02799 0.638,1.47201 0.4646,0.69115 1.0598,1.28214 1.6863,1.82614 0.3676,0.31562 0.7513,0.61241 1.1442,0.89575 0.082,-0.0239 0.043,-0.12808 0.055,-0.19034 0.045,-2.17846 0.086,-4.35706 0.099,-6.53597 0,-0.17522 0,-0.35043 0,-0.52565 -0.1529,-0.018 -0.3071,-0.0232 -0.4609,-0.0156 z"
             style="fill:#333333;fill-opacity:1;fill-rule:evenodd;stroke:none;stroke-width:0.355934px;stroke-linecap:butt;stroke-linejoin:miter;stroke-opacity:1" />
          <path
             inkscape:connector-curvature="0"
             id="path8269-4-3-9-0-8-9-3-9-9-7-8-5-5-2-9-59-6"
             d="m 1996.1519,-227.19732 c 1.5699,1.13107 3.07,2.53259 3.7575,4.38691 0.3985,1.11495 0.5193,2.41388 -0.01,3.50635 -0.3532,0.59983 -1.0387,1.08861 -1.7612,0.97213 -0.2774,-0.2182 -0.011,-0.58957 0.1712,-0.77823 0.6501,-0.73972 1.1592,-1.75993 0.8802,-2.76147 -0.3222,-1.20135 -1.3715,-1.96891 -2.1706,-2.84765 -0.5431,-0.58566 -1.0757,-1.29149 -1.1102,-2.11936 0.015,-0.13566 0.074,-0.36708 0.2426,-0.35868 z"
             style="fill:#6e96a8;fill-opacity:1;fill-rule:evenodd;stroke:none;stroke-width:0.355934px;stroke-linecap:butt;stroke-linejoin:miter;stroke-opacity:1" />
          <path
             inkscape:connector-curvature="0"
             id="path8267-1-8-4-2-4-4-0-5-9-3-7-4-6-6-0-7-3"
             d="m 1994.1787,-230.12505 c -0.1936,1.85069 0.1676,7.06741 0.1676,7.06741 0,0 3.2034,0.71535 3.269,-2.18651 0.066,-2.90187 -3.4366,-4.8809 -3.4366,-4.8809 z"
             style="fill:#333333;fill-opacity:1;fill-rule:evenodd;stroke:none;stroke-width:0.355934px;stroke-linecap:butt;stroke-linejoin:miter;stroke-opacity:1" />
          <path
             inkscape:connector-curvature="0"
             id="path8278-7-0-7-7-7-9-7-8-1-3-9-7-5-1-4-7-1"
             d="m 1998.3929,-244.57346 a 4.3361078,4.3004864 0.58843266 0 1 3.1117,4.16877 4.3361078,4.3004864 0.58843266 0 1 -3.1966,4.10077 z"
             style="opacity:1;fill:#3897c0;fill-opacity:1;stroke:none;stroke-width:5.38105;stroke-linecap:butt;stroke-linejoin:round;stroke-miterlimit:4;stroke-dasharray:none;stroke-dashoffset:0;stroke-opacity:1" />
          <path
             inkscape:connector-curvature="0"
             id="path8278-1-7-7-8-2-3-0-7-1-4-9-2-4-0-0-0-6-7"
             d="m 1972.3723,-245.64276 a 4.3361078,4.3004864 0.58843266 0 0 -3.1966,4.10397 4.3361078,4.3004864 0.58843266 0 0 3.1116,4.16557 z"
             style="opacity:1;fill:#3897c0;fill-opacity:1;stroke:none;stroke-width:5.38105;stroke-linecap:butt;stroke-linejoin:round;stroke-miterlimit:4;stroke-dasharray:none;stroke-dashoffset:0;stroke-opacity:1" />
          <path
             inkscape:connector-curvature="0"
             id="path8212-2-9-8-7-8-6-9-7-8-9-2-0-4-0-6-1-73-5"
             d="m 1977.4226,-232.49597 16.0905,1.40424 -0.056,11.89139 -17.4211,-1.23726 z"
             style="fill:#333333;fill-opacity:1;fill-rule:evenodd;stroke:none;stroke-width:0.356164px;stroke-linecap:butt;stroke-linejoin:miter;stroke-opacity:1" />
          <path
             inkscape:connector-curvature="0"
             id="path8336-4-6-49-1-3-1-6-2-1-4-2-3-3-1-3-6-9"
             d="m 1986.3171,-265.96667 c 0.5204,1.12078 0.078,2.5375 0.178,3.77063 0.051,2.21243 0.015,4.42816 0.032,6.64189 -0.6603,0.1606 -2.0066,0.54872 -2.0596,-0.51046 0.3786,-3.14273 0.7516,-6.33788 1.2778,-9.42985 0.2063,-0.13452 0.3217,-0.41187 0.5718,-0.47221 z"
             style="fill:#474747;fill-rule:evenodd;stroke:none;stroke-width:0.355934px;stroke-linecap:butt;stroke-linejoin:miter;stroke-opacity:1" />
          <path
             inkscape:connector-curvature="0"
             id="path8331-0-5-9-7-6-7-9-8-0-4-3-0-4-5-7-56-6"
             d="m 1985.5443,-257.07479 a 7.4298508,4.9196699 0.58843266 0 1 6.2244,2.33078 l -12.5038,-0.12842 a 7.4298508,4.9196699 0.58843266 0 1 6.2794,-2.20236 z"
             style="opacity:1;fill:#acc3ce;fill-opacity:1;stroke:none;stroke-width:5.38105;stroke-linecap:butt;stroke-linejoin:round;stroke-miterlimit:4;stroke-dasharray:none;stroke-dashoffset:0;stroke-opacity:1" />
          <ellipse
             ry="1.4181166"
             rx="1.568491"
             cy="-285.95428"
             cx="-1983.2118"
             id="path8216-0-2-8-5-0-7-9-7-1-6-7-4-7-7-6-9-4-3-2"
             style="opacity:1;fill:#3897c0;fill-opacity:1;stroke:none;stroke-width:5.38105;stroke-linecap:butt;stroke-linejoin:round;stroke-miterlimit:4;stroke-dasharray:none;stroke-dashoffset:0;stroke-opacity:1"
             transform="matrix(-0.99994726,-0.0102699,-0.0102699,0.99994726,0,0)" />
          <path
             inkscape:connector-curvature="0"
             id="path8353-7-8-9-9-2-1-1-2-5-9-5-8-6-4-1-9-1"
             d="m 1991.1794,-235.02593 -0.094,2.44699 -12.1968,-1.1078 0.4581,-1.67394 z"
             style="fill:#6e96a8;fill-opacity:1;fill-rule:evenodd;stroke:none;stroke-width:0.355934px;stroke-linecap:butt;stroke-linejoin:miter;stroke-opacity:1" />
          <ellipse
             transform="matrix(-0.99932329,0.0367825,0.0367825,0.99932329,0,0)"
             ry="2.5477242"
             rx="2.4770575"
             cy="-143.93669"
             cx="-2004.7642"
             id="path8355-5-3-9-7-7-1-9-5-8-9-9-6-0-9-1-4-7"
             style="opacity:1;fill:#ccdae0;fill-opacity:1;stroke:none;stroke-width:5.38105;stroke-linecap:butt;stroke-linejoin:round;stroke-miterlimit:4;stroke-dasharray:none;stroke-dashoffset:0;stroke-opacity:1" />
          <path
             inkscape:connector-curvature="0"
             id="path8402-0-7-3-8-0-9-8-3-0-8-2-8-5-9-3-81-8"
             d="m 1986.8281,-221.38686 c 0.011,-0.0128 0.017,-0.45093 0.028,-0.973 0.01,-0.52207 0.028,-1.10814 0.035,-1.30253 l 0.014,-0.35341 0.4493,-0.0613 c 1.0828,-0.14784 2.1311,-0.29753 2.1397,-0.30556 2e-4,-0.005 8e-4,-0.0196 -0.019,-0.0331 -0.015,-0.0134 -0.1027,-0.0902 -0.194,-0.17059 -0.091,-0.0804 -0.4192,-0.36106 -0.7288,-0.62367 -0.7724,-0.65507 -1.0252,-0.87801 -1.0241,-0.90335 8e-4,-0.0277 0.1827,-0.34613 0.6679,-1.17155 0.3946,-0.67107 0.6118,-1.0545 0.6129,-1.08174 4e-4,-0.01 -0.016,-0.0124 -0.045,-0.008 -0.2065,0.0347 -0.7327,0.13887 -1.5127,0.29964 -0.5077,0.10465 -0.9449,0.19348 -0.9716,0.19739 -0.043,0.006 -0.05,0.003 -0.065,-0.0327 -0.01,-0.0219 -0.2089,-0.53374 -0.4439,-1.13744 -0.235,-0.60371 -0.4418,-1.13444 -0.4595,-1.1794 -0.026,-0.0672 -0.036,-0.0786 -0.051,-0.0644 -0.028,0.0263 -0.2665,0.46663 -0.6003,1.10969 -0.1647,0.31733 -0.3719,0.71219 -0.4602,0.87745 l -0.1607,0.30049 -0.2621,-0.0791 c -0.2338,-0.0705 -1.875,-0.58139 -2.1269,-0.66206 l -0.099,-0.0317 v 0.0279 c 0,0.0463 0.1469,0.39338 0.6043,1.40999 l 0.4359,0.96887 -0.6077,0.40916 c -1.2276,0.8265 -1.5525,1.05672 -1.5351,1.0876 0.012,0.0207 0.7249,0.20383 1.8378,0.4719 0.6896,0.16611 0.6382,0.15525 0.6389,0.13483 3e-4,-0.009 -0.042,-0.1156 -0.093,-0.23618 -0.1752,-0.41059 -0.2292,-0.63724 -0.2452,-1.02881 -0.023,-0.55697 0.1502,-1.12808 0.4761,-1.57352 0.3004,-0.41047 0.753,-0.73879 1.2091,-0.87705 0.3097,-0.0939 0.5579,-0.11992 0.9016,-0.0945 0.4486,0.0332 0.8816,0.18407 1.1972,0.41723 0.2356,0.17398 0.5343,0.49353 0.6705,0.71722 0.2924,0.48038 0.4362,1.12558 0.3604,1.61677 -0.1216,0.79072 -0.5387,1.44261 -1.1687,1.82818 -0.1527,0.0935 -0.388,0.19796 -0.4572,0.20299 -0.099,0.007 -0.1103,-0.0145 -0.3234,-0.66054 -0.1074,-0.32578 -0.274,-0.88272 -0.2728,-0.91196 2e-4,-0.007 0.031,-0.0307 0.068,-0.0537 0.3193,-0.1978 0.4838,-0.48211 0.4504,-0.77819 -0.022,-0.18966 -0.1496,-0.41243 -0.2963,-0.51501 -0.26,-0.18175 -0.6505,-0.1613 -0.8747,0.0458 -0.1384,0.12792 -0.2205,0.28705 -0.2389,0.46322 -0.027,0.25763 0.085,0.49444 0.3338,0.70811 l 0.1054,0.0904 -0.013,0.0833 c -0.016,0.12424 -0.3933,1.06148 -0.5348,1.32682 l -0.074,0.13908 -0.052,-0.002 c -0.1673,-0.007 -0.5512,-0.28305 -0.8962,-0.64284 l -0.1884,-0.19649 -0.013,0.0757 c -0.012,0.0414 -0.032,0.30874 -0.055,0.5936 -0.037,0.45576 -0.055,0.7099 -0.1227,1.67874 0,0.12185 -0.01,0.22907 -0.01,0.2383 0.011,0.0199 0.017,0.0153 0.8866,-0.64031 0.674,-0.50859 1.0746,-0.80448 1.1618,-0.85815 l 0.055,-0.0341 0.1019,0.0855 c 0.1167,0.098 0.5932,0.54003 1.303,1.20869 0.2701,0.25454 0.4999,0.46819 0.5104,0.47475 0.013,0.007 0.023,0.004 0.03,-0.0118 z"
             style="fill:#3897c0;fill-opacity:1;stroke-width:1.34526" />
          <path
             id="path8214-9-7-9-0-6-2-5-4-6-1-6-9-8-7-0-2-5"
             d="m 1991.325,-208.35819 c 4.5588,0.41533 7.7929,4.6278 7.4775,8.5293 -0.1484,0.52348 -0.4958,0.92783 -0.9501,1.21328 l -11.9312,-0.83874 c -1.6943,-1.74881 -1.5591,-4.56962 -0.1223,-6.41507 1.3049,-1.49502 3.3475,-2.56154 5.5261,-2.48877 z"
             style="fill:#ccdae0;fill-opacity:1;fill-rule:evenodd;stroke:none;stroke-width:0.355934px;stroke-linecap:butt;stroke-linejoin:miter;stroke-opacity:1"
             inkscape:connector-curvature="0" />
          <path
             style="opacity:1;fill:#ccdae0;fill-opacity:1;stroke:none;stroke-width:5.38105;stroke-linecap:butt;stroke-linejoin:round;stroke-miterlimit:4;stroke-dasharray:none;stroke-dashoffset:0;stroke-opacity:1"
             d="m 1960.0341,-235.84738 c -0.2573,0.016 -0.5143,0.0852 -0.7358,0.21918 -0.2046,0.13058 -0.3832,0.31388 -0.4764,0.54062 -0.073,0.18279 -0.091,0.38718 -0.044,0.57875 0.033,0.15288 0.1134,0.29085 0.2123,0.41054 0.1573,0.19198 0.3775,0.32526 0.6102,0.40569 0.3126,0.10217 0.6562,0.11399 0.9727,0.0219 0.233,-0.0703 0.4554,-0.1904 0.6234,-0.36886 0.1107,-0.11837 0.1945,-0.26247 0.2453,-0.4163 0.053,-0.16792 0.051,-0.34965 0.01,-0.51927 -0.047,-0.17042 -0.1404,-0.32635 -0.2644,-0.45186 -0.1512,-0.152 -0.3395,-0.26436 -0.542,-0.33329 -0.1685,-0.066 -0.3516,-0.0853 -0.5313,-0.0875 -0.025,1.6e-4 -0.051,3.1e-4 -0.076,4.7e-4 z"
             id="path14031-9-4-7-8-7-8-2-9-4-1-5-7-1-6"
             inkscape:connector-curvature="0" />
        </g>
      </g>
      <g
         id="g13966"
         transform="translate(334.83382,-372.58918)"
         inkscape:export-filename="/home/issa/membershub-homepage.png"
         inkscape:export-xdpi="96"
         inkscape:export-ydpi="96">
        <g
           style="stroke-width:5.55541"
           transform="matrix(0.17558557,0.03964092,-0.03964092,0.17558557,20.776303,495.66674)"
           id="g13929">
          <g
             style="stroke-width:5.55541"
             id="g13845">
            <g
               style="stroke-width:5.55541"
               transform="translate(-136.2396,34.964147)"
               id="g13785">
              <rect
                 style="opacity:1;fill:#deaa19;fill-opacity:1;stroke:none;stroke-width:8.33312;stroke-linecap:round;stroke-linejoin:miter;stroke-miterlimit:4;stroke-dasharray:none;stroke-dashoffset:0;stroke-opacity:1"
                 id="rect13606"
                 width="152.60297"
                 height="10.230366"
                 x="-1235.067"
                 y="370.31793" />
              <path
                 style="fill:#ffcd2e;fill-opacity:1;fill-rule:evenodd;stroke:none;stroke-width:1.46987px;stroke-linecap:butt;stroke-linejoin:miter;stroke-opacity:1"
                 d="m -1239.0293,387.6543 c -1.5712,0.0762 -3.0998,0.69382 -4.3161,1.68477 -1.3011,1.07461 -2.2604,2.50647 -2.9792,4.02065 -0.8814,1.88143 -1.4098,3.90938 -1.7376,5.95549 -0.3832,2.39273 -0.4967,4.81847 -0.5558,7.2379 -0.058,2.48842 -0.031,4.97961 0.1218,7.46439 0.1218,2.02588 0.3244,4.04693 0.598,6.05789 0.4541,3.26033 1.1128,6.49485 2.0339,9.65626 0.7958,2.73171 1.7832,5.40915 2.9812,7.9905 1.238,2.66752 2.7093,5.22849 4.4109,7.62754 1.0426,1.46455 2.1702,2.86954 3.3942,4.18676 1.7587,1.88823 3.6857,3.61034 5.6484,5.28225 2.5857,2.20974 5.2671,4.30475 7.9874,6.34553 2.8891,2.1663 5.821,4.275 8.7725,6.35549 1.736,1.21942 3.4798,2.42776 5.2324,3.62339 1.7417,1.18775 3.4872,2.37011 5.2393,3.54253 4.059,2.7135 8.14,5.39439 12.2624,8.01078 1.5997,1.02 3.2039,2.03301 4.8106,3.04186 -1.6341,-3.1084 -3.3151,-6.19187 -4.998,-9.27403 -0.2177,-0.38637 -0.4139,-0.78721 -0.649,-1.16234 -0.2481,-0.20179 -0.5507,-0.3189 -0.8206,-0.48737 -4.6571,-2.60119 -9.2956,-5.23642 -13.8887,-7.94939 -4.0712,-2.41383 -8.123,-4.86301 -12.0922,-7.44212 -1.7759,-1.15341 -3.538,-2.32849 -5.2786,-3.53459 -2.0574,-1.43577 -4.0845,-2.91849 -6.0195,-4.51654 -1.483,-1.21568 -2.9119,-2.50513 -4.1858,-3.94128 -1.7904,-1.99559 -3.364,-4.18444 -4.7012,-6.50775 -1.0085,-1.7555 -1.8855,-3.58625 -2.6222,-5.47201 -1.2537,-3.20089 -2.1221,-6.54711 -2.6525,-9.94194 -0.4614,-2.92451 -0.6771,-5.88557 -0.6952,-8.84541 0,-2.11405 0.073,-4.22937 0.2625,-6.33518 0.1098,-1.13587 0.2284,-2.27286 0.4512,-3.39317 0.3235,-1.67836 0.8278,-3.32759 1.5726,-4.86854 0.1705,-0.35591 0.3291,-0.71908 0.4227,-1.10368 0.1203,-0.45074 0.2626,-0.91703 0.5888,-1.26552 0.3206,-0.36032 0.7552,-0.58506 1.1802,-0.7968 0.5415,-0.34592 0.9831,-0.82855 1.5474,-1.14174 1.1936,-0.72934 2.5748,-1.15096 3.9739,-1.19523 1.0286,-0.0414 2.0537,0.13023 3.0416,0.40733 1.1499,0.32206 2.2617,0.7619 3.3905,1.14834 3.2436,1.14643 6.4871,2.29285 9.7307,3.43927 -0.646,-1.88746 -1.318,-3.76584 -1.9769,-5.6488 -0.4381,-1.24467 -0.8761,-2.48934 -1.3141,-3.73401 0.082,0.72201 0.164,1.44401 0.2461,2.16602 -4.2489,-1.7326 -8.4904,-3.48351 -12.7482,-5.19424 -0.8773,-0.35133 -1.7528,-0.7076 -2.6344,-1.04781 -0.9716,-0.34093 -2.0087,-0.46936 -3.0354,-0.44545 z"
                 id="path13646"
                 inkscape:connector-curvature="0" />
              <path
                 style="fill:#ffcd2e;fill-opacity:1;fill-rule:evenodd;stroke:none;stroke-width:1.46987px;stroke-linecap:butt;stroke-linejoin:miter;stroke-opacity:1"
                 d="m -1159.4417,380.12171 v 0.008 l -70.3337,0.4186 c 0,0 2e-4,49.87277 18.3296,86.10534 5.9433,11.74827 27.2811,36.65873 37.9378,36.65873 h 14.0663 1.279 14.0668 c 10.6566,0 31.9945,-24.91046 37.9378,-36.65873 18.3294,-36.23257 18.3291,-86.10534 18.3291,-86.10534 l -70.3337,-0.4186 v -0.008 l -0.6398,0.004 z"
                 id="path13608"
                 inkscape:connector-curvature="0" />
              <path
                 inkscape:connector-curvature="0"
                 style="opacity:1;fill:#ffcd2e;fill-opacity:1;stroke:none;stroke-width:31.4952;stroke-linecap:round;stroke-linejoin:miter;stroke-miterlimit:4;stroke-dasharray:none;stroke-dashoffset:0;stroke-opacity:1"
                 d="m -4428.8613,1899.0605 v 54.877 l -4.834,1.5098 -64.4434,93.4433 v 43.5 l 115.9961,1.6094 115.9981,-1.6094 v -43.5 l -64.4434,-93.4433 -1.6094,-0.502 v -55.8848 z"
                 transform="scale(0.26458333)"
                 id="rect13626" />
              <path
                 style="fill:#ffcd2e;fill-opacity:1;fill-rule:evenodd;stroke:none;stroke-width:1.46987px;stroke-linecap:butt;stroke-linejoin:miter;stroke-opacity:1"
                 d="m -1080.3473,387.42749 c 1.5712,0.0762 3.0998,0.69382 4.3161,1.68477 1.3011,1.07461 2.2604,2.50647 2.9792,4.02065 0.8814,1.88143 1.4098,3.90938 1.7376,5.95549 0.3832,2.39273 0.4967,4.81847 0.5558,7.2379 0.058,2.48842 0.031,4.97961 -0.1218,7.46439 -0.1218,2.02588 -0.3244,4.04694 -0.598,6.05789 -0.4541,3.26033 -1.1128,6.49486 -2.0339,9.65627 -0.7958,2.73171 -1.7832,5.40915 -2.9812,7.99049 -1.238,2.66753 -2.7093,5.22849 -4.4109,7.62755 -1.0426,1.46455 -2.1702,2.86953 -3.3942,4.18675 -1.7587,1.88823 -3.6857,3.61034 -5.6484,5.28225 -2.5857,2.20975 -5.2671,4.30476 -7.9874,6.34554 -2.8891,2.1663 -5.821,4.275 -8.7725,6.35549 -1.736,1.21942 -3.4798,2.42776 -5.2324,3.62339 -1.7417,1.18775 -3.4872,2.37011 -5.2393,3.54253 -4.059,2.7135 -8.14,5.39439 -12.2624,8.01078 -1.5997,1.01999 -3.2039,2.033 -4.8106,3.04186 1.6341,-3.1084 3.3151,-6.19187 4.998,-9.27403 0.2177,-0.38637 0.4139,-0.78721 0.649,-1.16234 0.2481,-0.20179 0.5507,-0.3189 0.8206,-0.48738 4.6571,-2.60119 9.2956,-5.23641 13.8887,-7.94939 4.0712,-2.41382 8.123,-4.86301 12.0922,-7.44211 1.7759,-1.15341 3.538,-2.3285 5.2786,-3.53459 2.0574,-1.43578 4.0845,-2.9185 6.0195,-4.51654 1.483,-1.21569 2.9119,-2.50513 4.1858,-3.94129 1.7904,-1.99559 3.364,-4.18444 4.7012,-6.50775 1.0085,-1.75549 1.8855,-3.58624 2.6222,-5.472 1.2537,-3.20089 2.1221,-6.54712 2.6525,-9.94195 0.4614,-2.9245 0.6771,-5.88556 0.6952,-8.84541 0,-2.11405 -0.073,-4.22937 -0.2625,-6.33518 -0.1098,-1.13587 -0.2284,-2.27286 -0.4512,-3.39317 -0.3235,-1.67836 -0.8278,-3.32759 -1.5726,-4.86854 -0.1705,-0.35591 -0.3291,-0.71908 -0.4227,-1.10368 -0.1203,-0.45074 -0.2626,-0.91703 -0.5888,-1.26552 -0.3206,-0.36032 -0.7552,-0.58506 -1.1802,-0.7968 -0.5415,-0.34592 -0.9831,-0.82855 -1.5474,-1.14174 -1.1936,-0.72934 -2.5748,-1.15096 -3.9739,-1.19523 -1.0286,-0.0414 -2.0537,0.13023 -3.0416,0.40733 -1.1499,0.32206 -2.2617,0.7619 -3.3905,1.14834 -3.2436,1.14643 -6.4871,2.29285 -9.7307,3.43927 0.646,-1.88746 1.318,-3.76584 1.9769,-5.6488 0.4381,-1.24467 0.8761,-2.48934 1.3141,-3.73401 -0.082,0.72201 -0.164,1.44401 -0.2461,2.16602 4.2489,-1.7326 8.4904,-3.48351 12.7482,-5.19424 0.8773,-0.35133 1.7528,-0.7076 2.6344,-1.04781 0.9716,-0.34093 2.0087,-0.46936 3.0354,-0.44545 z"
                 id="path13646-1"
                 inkscape:connector-curvature="0" />
              <path
                 style="fill:#e5b829;fill-opacity:1;fill-rule:evenodd;stroke:none;stroke-width:1.46987px;stroke-linecap:butt;stroke-linejoin:miter;stroke-opacity:1"
                 d="m -1159.4417,380.12199 v 0.008 l -70.3337,0.41857 c 0,0 0,0.25762 0.01,0.68524 l 42.1937,-0.25114 v -0.008 l 0.6388,0.004 0.6402,-0.004 v 0.008 l 70.3337,0.41857 c 0,0 3e-4,49.87277 -18.3291,86.10534 -5.2901,10.45715 -22.777,31.34185 -34.0718,35.80609 h 8.9214 1.279 14.0669 c 10.6565,0 31.9944,-24.91047 37.9377,-36.65876 18.3294,-36.23255 18.3291,-86.10534 18.3291,-86.10534 l -70.3337,-0.41857 v -0.008 l -0.6397,0.004 z"
                 id="path13608-2"
                 inkscape:connector-curvature="0" />
              <path
                 style="opacity:1;fill:#e5b829;fill-opacity:1;stroke:none;stroke-width:8.33312;stroke-linecap:round;stroke-linejoin:miter;stroke-miterlimit:4;stroke-dasharray:none;stroke-dashoffset:0;stroke-opacity:1"
                 d="m -1172.2287,502.32696 v 14.51951 l 0.4258,0.13282 17.0507,24.72357 v 11.50937 l -27.5126,0.38187 22.3971,0.31057 30.6912,-0.42579 V 541.9695 l -17.0507,-24.72356 -0.4258,-0.13282 v -14.78616 z"
                 id="rect13626-7"
                 inkscape:connector-curvature="0" />
              <ellipse
                 style="opacity:1;fill:#ffdc6c;fill-opacity:1;stroke:none;stroke-width:8.33312;stroke-linecap:round;stroke-linejoin:miter;stroke-miterlimit:4;stroke-dasharray:none;stroke-dashoffset:0;stroke-opacity:1"
                 id="path13747"
                 cx="-1159.8984"
                 cy="433.05829"
                 rx="31.293848"
                 ry="31.165863" />
            </g>
            <rect
               y="588.57581"
               x="-1334.3097"
               height="56.859985"
               width="78.513786"
               id="rect13787"
               style="opacity:1;fill:#8d6339;fill-opacity:1;stroke:none;stroke-width:8.33312;stroke-linecap:round;stroke-linejoin:miter;stroke-miterlimit:4;stroke-dasharray:none;stroke-dashoffset:0;stroke-opacity:1" />
            <rect
               y="645.43579"
               x="-1351.189"
               height="16.879244"
               width="112.27229"
               id="rect13789"
               style="opacity:1;fill:#8d6339;fill-opacity:1;stroke:none;stroke-width:8.33312;stroke-linecap:round;stroke-linejoin:miter;stroke-miterlimit:4;stroke-dasharray:none;stroke-dashoffset:0;stroke-opacity:1" />
            <rect
               y="599.6709"
               x="-1315.8585"
               height="46.026615"
               width="40.504566"
               id="rect13791"
               style="opacity:1;fill:#ebebeb;fill-opacity:1;stroke:none;stroke-width:8.33312;stroke-linecap:round;stroke-linejoin:miter;stroke-miterlimit:4;stroke-dasharray:none;stroke-dashoffset:0;stroke-opacity:1" />
            <path
               inkscape:connector-curvature="0"
               id="rect13787-5"
               d="m -1294.6917,588.83741 v 56.8601 h 16.8791 v 16.87907 h 38.0457 v -16.87907 h -16.8791 v -56.8601 z"
               style="opacity:0.2;fill:#333333;fill-opacity:1;stroke:none;stroke-width:8.33312;stroke-linecap:round;stroke-linejoin:miter;stroke-miterlimit:4;stroke-dasharray:none;stroke-dashoffset:0;stroke-opacity:1" />
          </g>
          <g
             id="layer1-4-09-7"
             transform="matrix(1.63496,0,0,1.63496,-1208.2565,289.78612)"
             style="stroke-width:3.39789">
            <path
               style="fill:#ffffff;stroke-width:0.0705146"
               d="m -59.158054,121.29622 c 0.01473,-0.60405 0.05592,-2.89731 0.106672,-5.93804 0.01389,-0.83542 0.02139,-1.52292 0.01647,-1.52777 -0.005,-0.004 -0.997606,-0.18476 -2.206107,-0.39978 -1.939686,-0.34513 -4.302151,-0.7697 -5.309753,-0.95427 l -0.341594,-0.0626 0.135495,-0.12388 c 0.29884,-0.27321 1.418645,-1.15811 2.975081,-2.35101 1.888071,-1.44706 3.118747,-2.41709 3.141372,-2.47605 0.0188,-0.049 -0.48462,-1.00359 -2.106144,-3.99361 -1.396028,-2.57422 -1.665304,-3.07977 -1.644167,-3.08689 0.02937,-0.01 0.776146,0.17247 4.488522,1.0962 1.818895,0.45258 3.308787,0.82028 3.310876,0.81711 0.100571,-0.1525 0.258382,-0.51274 1.396942,-3.18884 1.276003,-2.999145 1.752609,-4.097096 1.79861,-4.143386 0.03254,-0.03271 0.409612,0.763288 1.762278,3.719729 0.621321,1.357997 1.251722,2.696097 1.472617,3.125837 l 0.164802,0.3206 0.0862,-0.006 c 0.16968,-0.01 1.405707,-0.33338 3.715167,-0.97197 2.555525,-0.70664 3.903673,-1.0725 3.952127,-1.0725 0.01214,0 -0.782717,1.6025 -1.76631,3.56111 -0.983593,1.95861 -1.785024,3.57845 -1.78093,3.59965 0.01114,0.0585 0.727653,0.59025 3.210437,2.38297 2.829221,2.04286 3.264222,2.36723 3.206455,2.391 -0.08243,0.0339 -4.247197,0.90842 -6.627137,1.39155 -1.138097,0.23103 -1.030487,0.2132 -1.030487,0.17083 0,-0.0195 0.137949,-0.30526 0.306554,-0.6349 0.355769,-0.69555 0.460268,-0.93332 0.610617,-1.38938 0.264414,-0.80196 0.353244,-1.61114 0.316785,-2.88538 -0.01567,-0.54822 -0.0469,-0.77082 -0.181687,-1.29384 -0.362977,-1.40899 -1.007576,-2.55663 -1.981185,-3.52724 -1.282309,-1.27837 -2.7505,-1.98738 -4.436513,-2.14243 -0.428944,-0.0394 -1.426584,-0.0148 -1.830272,0.0452 -1.476229,0.21952 -2.673353,0.7941 -3.80768,1.82757 -1.326494,1.20855 -2.133047,2.73006 -2.419396,4.56401 -0.04535,0.29023 -0.05192,0.42002 -0.05251,1.03049 -4.96e-4,0.54764 0.0083,0.76027 0.03986,0.9847 0.123511,0.87272 0.348601,1.6207 0.715185,2.37657 0.411418,0.8483 0.837123,1.44966 1.487528,2.10131 0.612309,0.61348 1.263005,1.07584 2.012415,1.42997 0.472571,0.22332 0.677563,0.27488 0.752288,0.18923 0.09918,-0.11365 0.587646,-1.34763 1.121818,-2.83385 0.359569,-1.00046 0.636508,-1.84748 0.636508,-1.94682 0,-0.0524 -0.13715,-0.17064 -0.283421,-0.24441 -0.07713,-0.0389 -0.196904,-0.1145 -0.266178,-0.16804 -0.281533,-0.21753 -0.659133,-0.66852 -0.800953,-0.95659 -0.151355,-0.30745 -0.209047,-0.90665 -0.125999,-1.30871 0.174671,-0.84567 0.773084,-1.49213 1.583521,-1.7107 0.244254,-0.0659 0.724863,-0.0705 0.957875,-0.009 0.627662,0.16507 1.152281,0.58386 1.453777,1.16055 0.254888,0.48756 0.271031,1.27583 0.03795,1.85291 -0.0835,0.20671 -0.259906,0.45068 -0.506796,0.70089 -0.207605,0.21039 -0.332949,0.30536 -0.674802,0.51124 -0.144782,0.0872 -0.170602,0.14045 -0.137309,0.28319 0.127488,0.5465 1.227807,3.57853 1.59662,4.39965 0.120534,0.26833 0.15361,0.31003 0.245951,0.31003 0.105812,0 0.359061,-0.0934 0.6868,-0.25326 0.922426,-0.44996 1.7997,-1.14759 2.553337,-2.03049 l 0.217542,-0.25486 0.0164,0.46209 c 0.0089,0.25415 0.06291,1.4359 0.119823,2.62612 0.05683,1.19022 0.118758,2.56078 0.137509,3.04568 0.01873,0.48491 0.03878,1.00015 0.0446,1.145 0.01119,0.28076 -0.0058,0.64119 -0.03062,0.64119 -0.0083,0 -0.395717,-0.31572 -0.861198,-0.7016 -3.397221,-2.8162 -4.767945,-3.94051 -5.214403,-4.27697 l -0.08578,-0.0647 -0.166108,0.13396 c -0.483829,0.3902 -4.088404,3.51992 -5.547582,4.81677 -0.163728,0.14551 -0.317013,0.27972 -0.340621,0.29822 -0.04185,0.0328 -0.04252,0.0177 -0.0278,-0.58409 z"
               id="path10007-3-4"
               inkscape:connector-curvature="0" />
          </g>
        </g>
        <ellipse
           transform="matrix(-0.8537762,-0.52064018,-0.46562418,0.88498256,0,0)"
           style="opacity:1;fill:#ccdae0;fill-opacity:1;stroke:none;stroke-width:5.38644;stroke-linecap:butt;stroke-linejoin:round;stroke-miterlimit:4;stroke-dasharray:none;stroke-dashoffset:0;stroke-opacity:1"
           id="path14031-9-4-7-8-7-8-2-9-4-6-3-5-1-9"
           cx="-51.144291"
           cy="581.14044"
           rx="2.3841689"
           ry="2.2734466" />
      </g>
    </g>
  </g>
</svg>
