<?xml version="1.0" encoding="UTF-8" standalone="no"?>
<!-- Created with Inkscape (http://www.inkscape.org/) -->

<svg
   width="53.85445mm"
   height="63.440807mm"
   viewBox="0 0 53.854451 63.440807"
   version="1.1"
   id="svg57651"
   inkscape:version="1.1.2 (08b2f3d93c, 2022-04-05)"
   sodipodi:docname="bot-2.svg"
   xmlns:inkscape="http://www.inkscape.org/namespaces/inkscape"
   xmlns:sodipodi="http://sodipodi.sourceforge.net/DTD/sodipodi-0.dtd"
   xmlns="http://www.w3.org/2000/svg"
   xmlns:svg="http://www.w3.org/2000/svg">
  <sodipodi:namedview
     id="namedview57653"
     pagecolor="#ffffff"
     bordercolor="#666666"
     borderopacity="1.0"
     inkscape:pageshadow="2"
     inkscape:pageopacity="0.0"
     inkscape:pagecheckerboard="0"
     inkscape:document-units="mm"
     showgrid="false"
     fit-margin-top="0"
     fit-margin-left="0"
     fit-margin-right="0"
     fit-margin-bottom="0"
     inkscape:zoom="0.733172"
     inkscape:cx="-55.921394"
     inkscape:cy="-107.75098"
     inkscape:window-width="1920"
     inkscape:window-height="1016"
     inkscape:window-x="0"
     inkscape:window-y="27"
     inkscape:window-maximized="1"
     inkscape:current-layer="layer1" />
  <defs
     id="defs57648" />
  <g
     inkscape:label="Layer 1"
     inkscape:groupmode="layer"
     id="layer1"
     transform="translate(-72.59792,-80.965322)">
    <g
       id="g17837"
       transform="matrix(0.91414295,0,0,0.91414295,96.211959,772.47126)"
       inkscape:export-filename="/media/issa/f46a2e62-019e-4bdf-9e7a-616962b8730a/home/yugi/Dropbox/JOSA/Design and Branding/Members Hub/home.png"
       inkscape:export-xdpi="96.025314"
       inkscape:export-ydpi="96.025314">
      <ellipse
         style="opacity:0.2;vector-effect:none;fill:#aea79f;fill-opacity:1;stroke:none;stroke-width:6;stroke-linecap:butt;stroke-linejoin:miter;stroke-miterlimit:4;stroke-dasharray:none;stroke-dashoffset:0;stroke-opacity:1"
         id="path4996-1-5-9-0-9"
         cx="-24.502983"
         cy="690.11029"
         rx="15.715044"
         ry="3.2581098"
         inkscape:export-filename="/home/issa/flowRoot7051-3-9-1-0-2.png"
         inkscape:export-xdpi="96"
         inkscape:export-ydpi="96"
         transform="matrix(0.99850606,0.05464109,0.05464109,-0.99850606,0,0)" />
      <g
         transform="matrix(-0.61850349,0,0,0.61850349,61.631646,-781.49729)"
         id="layer1-4-6-4"
         inkscape:label="Layer 1"
         style="stroke-width:1.29044">
        <path
           inkscape:connector-curvature="0"
           id="path2070-33-9-5-7"
           d="m 72.914952,43.2469 2.0535,16.960451 -3.498566,-0.152112 0.380281,-16.732283 z"
           style="fill:#474747;fill-opacity:1;fill-rule:evenodd;stroke:none;stroke-width:0.42778px;stroke-linecap:butt;stroke-linejoin:miter;stroke-opacity:1" />
        <g
           style="stroke-width:18.3918"
           transform="matrix(0.08775739,-0.00515921,0.00515921,0.08775739,39.578463,129.29676)"
           id="g11068-3-2-9">
          <path
             style="fill:#ccdae0;fill-opacity:1;fill-rule:evenodd;stroke:none;stroke-width:4.86617px;stroke-linecap:butt;stroke-linejoin:miter;stroke-opacity:1"
             d="m 175.14648,-353.04102 c 156.41797,-0.63606 312.83594,-1.27213 469.25391,-1.9082 1.15625,-118.02799 2.3125,-236.05599 3.46875,-354.08398 -150.12435,-8.9668 -300.2487,-17.9336 -450.37305,-26.90039 -7.44987,127.63086 -14.89974,255.26171 -22.34961,382.89257 z"
             id="path8208-8-2-3"
             inkscape:connector-curvature="0" />
          <path
             inkscape:connector-curvature="0"
             transform="rotate(2.0892722)"
             style="opacity:1;fill:#333333;fill-opacity:1;stroke:none;stroke-width:73.5673;stroke-linecap:butt;stroke-linejoin:round;stroke-miterlimit:4;stroke-dasharray:none;stroke-dashoffset:0;stroke-opacity:1"
             d="m 264.93555,-512.75977 c -11.97607,0.74822 -23.83654,7.77952 -28.8735,18.89642 -4.41697,9.50106 -2.86719,21.39489 3.83233,29.45374 8.26411,10.35475 22.71802,14.8108 35.50516,11.82676 10.74341,-2.33304 20.5977,-9.95753 24.19062,-20.54103 2.92326,-8.4412 1.54024,-18.21053 -3.7037,-25.4593 -6.87811,-9.80111 -19.14733,-14.92119 -30.95091,-14.17659 z"
             id="path8216-6-4-5" />
          <path
             transform="rotate(2.0892722)"
             style="opacity:1;fill:#333333;fill-opacity:1;stroke:none;stroke-width:73.5673;stroke-linecap:butt;stroke-linejoin:round;stroke-miterlimit:4;stroke-dasharray:none;stroke-dashoffset:0;stroke-opacity:1"
             d="m 524.25977,-513.62305 c -13.94973,0.676 -27.42093,10.55744 -30.98259,24.27593 -3.47606,13.15549 3.91364,28.21167 16.50352,33.43016 15.31687,7.00866 35.4492,1.52655 44.55479,-12.79395 6.07051,-9.42729 6.26418,-22.69383 -0.67598,-31.73512 -6.67526,-9.09009 -18.26852,-13.85409 -29.39974,-13.17702 z"
             id="path8216-0-0-7-7"
             inkscape:connector-curvature="0" />
          <path
             style="opacity:1;fill:#3897c0;fill-opacity:1;stroke:none;stroke-width:73.5673;stroke-linecap:butt;stroke-linejoin:round;stroke-miterlimit:4;stroke-dasharray:none;stroke-dashoffset:0;stroke-opacity:1"
             d="m 166.11766,-545.35974 a 83.453811,82.76823 2.0892738 0 0 -63.56986,77.34774 83.453811,82.76823 2.0892738 0 0 57.76721,81.71252 z"
             id="path8278-4-7-0"
             inkscape:connector-curvature="0" />
          <path
             style="opacity:1;fill:#3897c0;fill-opacity:1;stroke:none;stroke-width:73.5673;stroke-linecap:butt;stroke-linejoin:round;stroke-miterlimit:4;stroke-dasharray:none;stroke-dashoffset:0;stroke-opacity:1"
             d="m 661.10281,-539.3169 c 1.14073,39.31649 1.5963,78.65132 1.40295,117.98377 -0.0555,12.6731 -0.14215,25.34607 -0.20989,38.01913 25.05179,-8.00527 46.62621,-27.3282 55.96719,-52.07972 10.12214,-27.13705 3.87347,-59.81748 -16.16263,-80.86565 -10.94643,-11.70579 -25.3703,-20.03076 -40.88941,-23.95345 -0.0361,0.29864 -0.0721,0.59728 -0.10821,0.89592 z"
             id="path8278-1-8-5-8"
             inkscape:connector-curvature="0" />
          <path
             style="opacity:1;fill:#6e96a8;fill-opacity:1;stroke:none;stroke-width:73.5673;stroke-linecap:butt;stroke-linejoin:round;stroke-miterlimit:4;stroke-dasharray:none;stroke-dashoffset:0;stroke-opacity:1"
             d="m 424.37706,-774.14802 a 142.99676,94.685193 2.0892723 0 0 -121.76107,39.21326 l 240.50468,8.77381 a 142.99676,94.685193 2.0892723 0 0 -118.74361,-47.98707 z"
             id="path8331-8-4-1"
             inkscape:connector-curvature="0" />
          <ellipse
             transform="rotate(2.0892722)"
             style="opacity:1;fill:#3897c0;fill-opacity:1;stroke:none;stroke-width:73.5673;stroke-linecap:butt;stroke-linejoin:round;stroke-miterlimit:4;stroke-dasharray:none;stroke-dashoffset:0;stroke-opacity:1"
             id="path8216-0-2-8-8-9"
             cx="392.52631"
             cy="-974.39923"
             rx="30.187569"
             ry="27.293428" />
          <path
             style="fill:#6e96a8;fill-opacity:1;fill-rule:evenodd;stroke:none;stroke-width:4.86617px;stroke-linecap:butt;stroke-linejoin:miter;stroke-opacity:1"
             d="m 295.16406,-352.94922 c -0.0996,15.7487 -0.19922,31.4974 -0.29883,47.2461 76.70378,-6.3112 153.40756,-12.6224 230.11133,-18.9336 -2.40495,-10.24284 -4.80989,-20.48568 -7.21484,-30.72851 -74.19922,0.80533 -148.39844,1.61067 -222.59766,2.41601 z"
             id="path8353-9-1-9"
             inkscape:connector-curvature="0" />
        </g>
        <path
           inkscape:connector-curvature="0"
           id="path8248-7-2-7"
           d="m 81.214844,123.12695 c 1.434896,4.52604 2.869791,9.05209 4.304687,13.57813 1.083985,-0.056 2.167969,-0.11198 3.251953,-0.16797 -1.768229,-4.85156 -3.536458,-9.70313 -5.304687,-14.55469 -0.750651,0.38151 -1.501302,0.76302 -2.251953,1.14453 z"
           style="fill:#6e96a8;fill-opacity:1;fill-rule:evenodd;stroke:none;stroke-width:0.42778px;stroke-linecap:butt;stroke-linejoin:miter;stroke-opacity:1" />
        <path
           inkscape:connector-curvature="0"
           id="path8248-9-7-8-8"
           d="m 64.78125,137.05273 c 1.155599,-0.0312 2.311198,-0.0625 3.466797,-0.0937 1.108724,-4.60872 2.217448,-9.21744 3.326172,-13.82617 -0.809896,-0.29166 -1.619792,-0.58333 -2.429688,-0.875 -1.454427,4.93164 -2.908854,9.86328 -4.363281,14.79492 z"
           style="fill:#6e96a8;fill-opacity:1;fill-rule:evenodd;stroke:none;stroke-width:0.42778px;stroke-linecap:butt;stroke-linejoin:miter;stroke-opacity:1" />
        <path
           inkscape:connector-curvature="0"
           id="path8212-6-9-2"
           d="m 62.982422,101.53516 c -0.01693,8.22656 -0.03385,16.45312 -0.05078,24.67968 8.647135,-0.91927 17.29427,-1.83854 25.941406,-2.75781 -0.882162,-8.0651 -1.764323,-16.13021 -2.646485,-24.195311 -7.748046,0.757811 -15.496093,1.515621 -23.244141,2.273441 z"
           style="fill:#ccdae0;fill-opacity:1;fill-rule:evenodd;stroke:none;stroke-width:0.42778px;stroke-linecap:butt;stroke-linejoin:miter;stroke-opacity:1" />
        <path
           inkscape:connector-curvature="0"
           id="path8214-3-5"
           d="m 64.101562,135.86328 c -2.163805,0.14365 -4.26543,0.90588 -6.078828,2.08315 -2.595798,1.68951 -4.542348,4.376 -5.270638,7.39265 -0.256727,1.08503 -0.400558,2.22389 -0.193913,3.32961 0.212096,0.68688 0.723916,1.2729 1.371505,1.58326 5.984567,-0.37699 11.967089,-0.78542 17.951171,-1.16992 1.529391,-1.5343 2.253485,-3.805 1.953568,-5.94432 -0.260809,-1.9857 -1.337573,-3.8689 -2.972767,-5.03873 -1.597526,-1.20447 -3.518128,-1.9945 -5.514536,-2.18516 -0.413975,-0.0411 -0.829577,-0.0586 -1.245562,-0.0505 z"
           style="fill:#ccdae0;fill-opacity:1;fill-rule:evenodd;stroke:none;stroke-width:0.42778px;stroke-linecap:butt;stroke-linejoin:miter;stroke-opacity:1" />
        <path
           inkscape:connector-curvature="0"
           id="path8214-4-6-3"
           d="m 89.601562,135.28906 c -2.312793,0.10015 -4.557632,1.04556 -6.311266,2.54472 -0.964153,0.79752 -1.762494,1.8278 -2.162279,3.02302 -0.513621,1.46284 -0.503374,3.13886 0.177667,4.5469 0.398866,0.84054 1.019012,1.59408 1.825251,2.06964 0.523954,0.24081 1.112526,0.12167 1.668099,0.15453 5.123631,0.0523 10.24713,0.11797 15.370886,0.15729 0.4944,-0.18682 0.83745,-0.6294 1.08365,-1.07842 0.27886,-0.61869 0.1783,-1.31815 0.0683,-1.96403 -0.32153,-1.90708 -1.25679,-3.67565 -2.511283,-5.13333 -1.852362,-2.13684 -4.435255,-3.63849 -7.218925,-4.15321 -0.656262,-0.11585 -1.323057,-0.18554 -1.99006,-0.16711 z"
           style="fill:#ccdae0;fill-opacity:1;fill-rule:evenodd;stroke:none;stroke-width:0.42778px;stroke-linecap:butt;stroke-linejoin:miter;stroke-opacity:1" />
        <path
           inkscape:connector-curvature="0"
           id="path8212-2-4-8-4"
           d="m 63.017578,101.42188 c -0.04297,5.83463 -0.08594,11.66927 -0.128906,17.5039 8.342448,-0.9401 16.684896,-1.88021 25.027344,-2.82031 -0.54948,-5.64844 -1.098959,-11.29688 -1.648438,-16.945314 -7.75,0.753906 -15.5,1.507814 -23.25,2.261724 z"
           style="fill:#333333;fill-opacity:1;fill-rule:evenodd;stroke:none;stroke-width:0.42778px;stroke-linecap:butt;stroke-linejoin:miter;stroke-opacity:1" />
        <path
           inkscape:connector-curvature="0"
           id="path8402-3-0-9"
           d="m 74.742188,102.53516 c -0.475261,1.16471 -0.950521,2.32942 -1.425782,3.49414 -1.234638,-0.19761 -2.466342,-0.4129 -3.699218,-0.6211 0.536969,1.07464 1.167132,2.0984 1.769531,3.13672 -0.001,0.18167 -0.204329,0.25274 -0.300465,0.38106 -0.807885,0.76496 -1.649733,1.4928 -2.480785,2.23222 0.05472,0.10932 0.203743,0.042 0.299329,0.0826 1.141042,0.15079 2.287768,0.25125 3.433093,0.36268 0.04893,1.26176 0.09359,2.52371 0.15039,3.78515 0.637438,-0.49742 1.161584,-1.11945 1.760259,-1.66016 0.344237,-0.33073 0.688473,-0.66146 1.03271,-0.99218 0.999158,0.67202 1.987203,1.36035 2.980469,2.04101 0.108317,-0.32316 -0.02857,-0.65929 -0.01572,-0.98903 -0.06667,-0.88666 -0.144447,-1.77246 -0.230377,-2.65745 -0.46523,0.43196 -0.872989,0.97548 -1.494141,1.19141 -0.207277,0.0273 -0.28399,-0.21232 -0.35072,-0.36342 -0.242822,-0.56256 -0.526013,-1.11643 -0.651233,-1.72057 0.220443,-0.30747 0.578651,-0.56636 0.595431,-0.97613 0.07715,-0.55007 -0.40131,-1.12497 -0.969026,-1.09148 -0.609058,-0.004 -1.165948,0.60255 -1.04578,1.21475 0.06482,0.35779 0.323717,0.64537 0.622505,0.83424 0.155368,0.17171 0.0041,0.40173 -0.04074,0.58736 -0.173913,0.57846 -0.359303,1.1538 -0.574498,1.71837 -0.421267,0.0639 -0.779858,-0.21747 -1.111895,-0.43232 -1.240881,-0.89094 -1.744068,-2.66536 -1.15938,-4.0762 0.509649,-1.27372 1.758117,-2.25103 3.140415,-2.33914 1.237801,-0.0889 2.529797,0.53899 3.138672,1.63672 0.556584,0.99857 0.579206,2.25034 0.134766,3.29493 -0.03047,0.11681 -0.130586,0.21782 -0.107422,0.3457 0.415356,-0.003 0.793183,-0.2012 1.194178,-0.28338 0.745639,-0.20998 1.489263,-0.42691 2.231603,-0.64826 -0.143578,-0.24388 -0.424737,-0.34831 -0.640417,-0.5154 -0.772103,-0.51451 -1.555897,-1.01107 -2.338098,-1.50999 0.498709,-1.14338 1.023926,-2.27494 1.523437,-3.41797 -0.76177,0.15981 -1.478472,0.47376 -2.221512,0.69826 -0.465225,0.15527 -0.93045,0.31054 -1.395675,0.4658 -0.576949,-1.07271 -1.150116,-2.14753 -1.744141,-3.21094 z"
           style="fill:#3897c0;fill-opacity:1;stroke-width:1.61681" />
        <path
           style="fill:#6e96a8;fill-opacity:1;fill-rule:evenodd;stroke:none;stroke-width:0.42778px;stroke-linecap:butt;stroke-linejoin:miter;stroke-opacity:1"
           d="m 106.05664,94.259766 c -0.28102,1.505803 -1.05242,2.891622 -2.08677,4.010621 -1.25747,1.351024 -2.87661,2.310953 -4.566943,3.020523 -1.364417,0.55554 -2.777563,1.02877 -4.243821,1.21871 -0.832117,0.10489 -1.681147,0.10508 -2.506762,-0.0526 -0.04755,0.24411 0.146275,0.44434 0.187527,0.67497 0.243481,0.6715 0.486961,1.34299 0.730441,2.01448 2.303947,-0.34274 4.597328,-0.83101 6.784378,-1.64535 1.20147,-0.42345 2.36332,-0.98989 3.36662,-1.78241 1.28156,-0.9845 2.41182,-2.154097 3.43529,-3.401384 0.53937,-0.658408 1.04206,-1.345748 1.53676,-2.038039 -0.8776,-0.689453 -1.75521,-1.378906 -2.63281,-2.068359 -0.001,0.01628 -0.003,0.03255 -0.004,0.04883 z"
           id="path1928-2-0-2-0"
           inkscape:connector-curvature="0"
           sodipodi:nodetypes="cczcczc" />
        <path
           style="fill:#333333;fill-opacity:1;fill-rule:evenodd;stroke:none;stroke-width:0.42778px;stroke-linecap:butt;stroke-linejoin:miter;stroke-opacity:1"
           d="m 87.554688,99.052734 c 0.07992,1.974526 0.278394,3.941406 0.451713,5.909216 0.144479,1.56122 0.305468,3.12083 0.464302,4.68063 1.659958,-0.11036 3.303112,-0.85597 4.376953,-2.14453 0.622329,-0.76071 0.977995,-1.77189 0.825996,-2.75665 -0.158039,-1.17212 -0.846255,-2.21831 -1.735608,-2.97444 -1.299907,-1.14335 -2.83769,-1.96595 -4.37945,-2.731804 l -0.0037,0.01682 z"
           id="path8265-8-4-6-3-1-2"
           inkscape:connector-curvature="0" />
        <g
           transform="translate(0.52916667)"
           id="g12187-0-0-0"
           style="stroke-width:1.29044">
          <path
             sodipodi:nodetypes="cczcczc"
             inkscape:connector-curvature="0"
             id="path1928-92-5-1"
             d="m 59.044922,106.45703 c -2.181577,1.38442 -4.260006,2.97306 -5.966766,4.92477 -0.533873,0.59991 -0.993866,1.26512 -1.353674,1.98358 -0.830905,1.60289 -1.316346,3.35873 -1.673487,5.12094 -0.157079,0.80616 -0.273322,1.6198 -0.367401,2.43556 0.107141,0.083 0.257354,0.0697 0.380319,0.12102 0.979347,0.25132 1.958693,0.50265 2.93804,0.75398 -0.617753,-1.94924 -0.416859,-4.10562 0.391455,-5.96919 0.665502,-1.55022 1.699975,-2.91563 2.866727,-4.12298 1.066218,-1.06567 2.232999,-2.07702 3.625519,-2.68967 0.439883,-0.19405 0.896531,-0.35441 1.368252,-0.45059 -0.142086,-0.2536 -0.391534,-0.42061 -0.57105,-0.6454 -0.49129,-0.51924 -0.982581,-1.03848 -1.473872,-1.55772 -0.05469,0.0319 -0.109375,0.0638 -0.164062,0.0957 z"
             style="fill:#6e96a8;fill-opacity:1;fill-rule:evenodd;stroke:none;stroke-width:0.42778px;stroke-linecap:butt;stroke-linejoin:miter;stroke-opacity:1" />
          <path
             inkscape:connector-curvature="0"
             id="path8265-8-4-5-1-9"
             d="m 61.286031,102.55531 c -1.501064,0.88431 -2.972656,1.86203 -4.174197,3.1363 -0.916454,0.92743 -1.506648,2.20622 -1.489616,3.52117 0.02125,0.74374 0.27557,1.47645 0.721077,2.07244 0.905319,1.26498 2.397734,2.0618 3.939183,2.19664 0.214734,0.0242 0.430942,0.0294 0.64688,0.0277 0.284014,-3.52027 0.595419,-7.03835 0.861672,-10.56002 0.01781,-0.2419 0.03562,-0.4838 0.05343,-0.7257 -0.186145,0.11048 -0.372289,0.22096 -0.558433,0.33143 z"
             style="fill:#333333;fill-opacity:1;fill-rule:evenodd;stroke:none;stroke-width:0.42778px;stroke-linecap:butt;stroke-linejoin:miter;stroke-opacity:1" />
          <path
             transform="scale(-1,1)"
             style="opacity:1;fill:#ccdae0;fill-opacity:1;stroke:none;stroke-width:6.46722;stroke-linecap:butt;stroke-linejoin:round;stroke-miterlimit:4;stroke-dasharray:none;stroke-dashoffset:0;stroke-opacity:1"
             d="m -51.373047,119.91016 c -1.386155,0.0703 -2.762212,0.7203 -3.605209,1.83884 -0.778337,0.98635 -0.950881,2.39369 -0.47651,3.55166 0.233137,0.58435 0.631046,1.09449 1.122595,1.48476 1.596105,1.34766 4.036052,1.51739 5.837428,0.48358 1.045851,-0.58148 1.881564,-1.61213 2.06578,-2.81292 0.180495,-1.18743 -0.280023,-2.44891 -1.184016,-3.2403 -0.995499,-0.9411 -2.407156,-1.36818 -3.760068,-1.30562 z"
             id="path8355-4-4-7-4-1-6"
             inkscape:connector-curvature="0" />
        </g>
        <path
           transform="rotate(22.689512)"
           style="opacity:1;fill:#ccdae0;fill-opacity:1;stroke:none;stroke-width:6.46722;stroke-linecap:butt;stroke-linejoin:round;stroke-miterlimit:4;stroke-dasharray:none;stroke-dashoffset:0;stroke-opacity:1"
           d="m 136.90625,40.316406 c -1.44006,0.109247 -2.86053,0.773006 -3.77344,1.908203 -0.77905,0.972232 -1.05143,2.369316 -0.57606,3.536477 0.42782,1.02884 1.36773,1.777295 2.40329,2.138983 2.04529,0.72707 4.51596,0.06124 5.8897,-1.627278 0.71735,-0.893738 1.00867,-2.147148 0.65027,-3.248436 -0.22966,-0.7085 -0.72409,-1.309311 -1.30931,-1.757989 -0.69894,-0.53037 -1.55222,-0.837701 -2.42318,-0.919151 -0.28587,-0.02873 -0.57403,-0.03924 -0.86127,-0.03081 z"
           id="path8355-4-4-7-1-0-0-2"
           inkscape:connector-curvature="0" />
        <path
           style="opacity:1;fill:#b3c8d1;fill-opacity:1;stroke:none;stroke-width:6.46722;stroke-linecap:butt;stroke-linejoin:round;stroke-miterlimit:4;stroke-dasharray:none;stroke-dashoffset:0;stroke-opacity:1"
           d="m 105.02823,91.978244 c -0.86403,1.150056 -0.83726,2.888282 0.0921,3.99371 0.90098,1.108008 2.31343,1.727214 3.72484,1.798746 1.36524,0.07568 2.78165,-0.326977 3.82765,-1.226049 0.70671,-0.612752 1.18664,-1.506243 1.21616,-2.4497 0.0244,-0.452371 -0.0517,-0.913469 -0.23765,-1.327644 -0.56922,1.058204 -1.65866,1.784398 -2.8274,2.011407 -1.54998,0.353548 -3.26962,0.05202 -4.54139,-0.923445 -0.59865,-0.468123 -1.06957,-1.125517 -1.23277,-1.875071 l -0.006,-0.0039 z"
           id="path8355-4-4-7-7-3-9-5-1"
           inkscape:connector-curvature="0" />
      </g>
      <path
         style="fill:#ef6b30;fill-opacity:1;stroke-width:1"
         d="m -22.016354,-738.61788 c -0.2759,0.0333 -0.55451,0.14539 -0.734,0.36507 -0.19849,0.19564 -0.3918,0.41307 -0.47541,0.6848 -0.21029,0.69295 -0.34089,1.4063 -0.50051,2.11181 -0.19198,0.88113 -0.37399,1.76443 -0.55017,2.64881 -0.062,0.34122 -0.14261,0.68156 -0.15402,1.02936 0,0.058 0.0101,0.13598 0.075,0.14986 0.096,0.0244 0.196,-0.002 0.2935,-0.002 1.00068,-0.0541 2.0007,-0.12366 3.00268,-0.14986 0.44241,-0.0101 0.89691,-0.0213 1.32263,0.11881 0.21399,0.0823 0.40108,0.22696 0.53848,0.4101 0.2962,0.37193 0.52191,0.80305 0.64211,1.26394 0.15439,0.554 0.14589,1.14171 0.05,1.705 -0.098,0.54025 -0.2876,1.06796 -0.58989,1.52831 -0.2605,0.39587 -0.6051,0.74193 -1.0188,0.97664 -0.18299,0.10107 -0.37939,0.19326 -0.5924,0.19725 -0.30059,0.0157 -0.59129,-0.0837 -0.8713,-0.18071 -0.5838,-0.22092 -1.1443,-0.49696 -1.71199,-0.75511 -0.60931,-0.28121 -1.2169,-0.5672 -1.82411,-0.85202 -0.042,-0.0206 -0.1,-0.0691 -0.14521,-0.0336 -0.05,0.0587 -0.0201,0.14269 -0.04,0.21222 -0.1465,1.15436 -0.2836,2.31001 -0.3951,3.46832 -0.056,0.52982 -0.10059,1.06081 -0.12631,1.59299 -0.014,0.31671 -0.0201,0.63589 0.019,0.95109 0.03,0.2168 0.10469,0.42848 0.23482,0.60577 0.16197,0.24468 0.37798,0.46307 0.64637,0.58804 0.31671,0.14286 0.66051,0.20564 0.99571,0.28864 0.7575,0.17612 1.5185,0.33741 2.28111,0.48976 0.78869,0.15503 1.57929,0.30399 2.3681,0.45662 0.08,0.0236 0.063,0.12428 0.046,0.1864 -0.16751,0.53248 -0.36642,1.05454 -0.5656,1.57585 -0.25331,0.66173 -0.5316,1.31507 -0.74142,1.99254 -0.095,0.3059 -0.17579,0.62916 -0.12851,0.95114 0.068,0.39685 0.26961,0.75621 0.50433,1.0777 0.28127,0.35785 0.6845,0.60881 1.11879,0.73707 0.45579,0.1465 0.94519,0.19885 1.42009,0.13097 0.33452,-0.0547 0.66202,-0.16891 0.94412,-0.35922 0.3275,-0.21937 0.61769,-0.50032 0.83007,-0.83341 0.15791,-0.2532 0.24382,-0.54439 0.28022,-0.83905 0.079,-0.55833 0.06,-1.12363 0.055,-1.68574 -0.013,-0.83582 -0.0259,-1.67167 -0.0259,-2.50762 0.04,-0.0637 0.11699,-0.0123 0.1747,-0.0145 0.8232,0.0821 1.64539,0.17438 2.4669,0.27175 0.69299,0.0807 1.3844,0.17443 2.07719,0.25647 0.26699,0.024 0.53411,0.0597 0.8025,0.0574 0.1849003,-0.004 0.3627003,-0.0605 0.5308903,-0.13341 0.25051,-0.0948 0.5148,-0.20524 0.67802,-0.42876 0.23199,-0.29729 0.3777,-0.64879 0.527,-0.99197 0.26599,-0.64324 0.50318,-1.29791 0.74769,-1.9495 0.27331,-0.74713 0.54869,-1.49357 0.80729,-2.24597 0.2853,-0.81659 0.54052,-1.64344 0.77901,-2.47483 0.2249,-0.78348 0.4045,-1.57898 0.57719,-2.3753 0.15762,-0.76476 0.30181,-1.53222 0.44972,-2.29892 0.16528,-0.87683 0.33078,-1.75385 0.46979,-2.63528 0.038,-0.31791 0.11531,-0.64101 0.053,-0.96094 -0.048,-0.2035 -0.17341,-0.37659 -0.28829,-0.5474 -0.18241,-0.25328 -0.39982,-0.47839 -0.61992,-0.69869 -0.063,-0.0356 -0.1383,-0.0354 -0.20648,-0.0556 -0.3642,-0.0756 -0.73031,-0.14149 -1.09411,-0.2191 -4.0393903,-0.79897 -8.0786003,-1.59904 -12.1188903,-2.39375 -0.7198,-0.13792 -1.4405,-0.27308 -2.16692,-0.37175 -0.29019,-0.0393 -0.5806,-0.0835 -0.87399,-0.0864 -0.083,-0.004 -0.16571,-10e-4 -0.24861,-2.7e-4 z"
         id="path4133-6-4-0"
         inkscape:connector-curvature="0"
         sodipodi:nodetypes="ccccscccccccccccccccccccscc" />
      <path
         style="fill:#ed5816;fill-opacity:1;stroke-width:1"
         d="m -6.4719437,-735.75271 c -0.0111,0.0754 -0.0209,0.15134 -0.03,0.22635 -0.16549,1.04847 -0.3625,2.09169 -0.55919,3.13469 -0.17593,0.91201 -0.34732,1.82501 -0.53481,2.73472 -0.20542,0.94724 -0.41881,1.89318 -0.6863,2.82514 -0.28371,0.98896 -0.58772,1.97266 -0.9271,2.94402 -0.3076,0.89499 -0.635,1.78295 -0.9601203,2.67167 -0.29078,0.77506 -0.57298,1.55357 -0.8894,2.31872 -0.14388,0.33082 -0.28789,0.66624 -0.48318,0.97049 0.1714,0.0214 0.34269,0.0432 0.51419,0.0635 0.26699,0.0241 0.5342,0.0602 0.80262,0.0579 0.18489,-0.004 0.3629803,-0.0609 0.5311703,-0.13383 0.25051,-0.0948 0.5148,-0.20488 0.67803,-0.4284 0.23198,-0.2973 0.37729,-0.64901 0.5266,-0.9922 0.26598,-0.64323 0.50318,-1.29765 0.74768,-1.94924 0.27332,-0.74713 0.5492,-1.49397 0.8078,-2.24636 0.2853,-0.81659 0.5402,-1.64338 0.7787,-2.47478 0.22489,-0.78349 0.40449,-1.57875 0.57721,-2.37506 0.15759,-0.76475 0.30171,-1.53239 0.44958,-2.29907 0.16531,-0.87682 0.33081,-1.75409 0.46982,-2.63552 0.038,-0.31789 0.11549,-0.64071 0.053,-0.96064 -0.048,-0.2035 -0.17352,-0.37646 -0.2884,-0.54727 -0.1824,-0.25329 -0.39999,-0.47837 -0.6201,-0.69865 -0.063,-0.0356 -0.13801,-0.0356 -0.20622,-0.0558 -0.25029,-0.052 -0.50109,-0.10065 -0.75189,-0.15038 z"
         id="path4133-6-4-6-7"
         inkscape:connector-curvature="0"
         sodipodi:nodetypes="ccccccccccccccccccccccccc" />
      <path
         inkscape:connector-curvature="0"
         id="path1945-2-5-8-3"
         d="m -8.2695537,-725.85608 c -0.26731,0.13323 -0.46281,0.43074 -0.40902,0.73504 0.0249,0.42855 0.39031,0.77283 0.79822,0.86025 0.69009,0.22192 1.45299,0.13615 2.11699,-0.1331 0.2803,-0.12589 0.56811,-0.3463 0.6187,-0.66715 -0.03,-0.13952 -0.20198,-0.15961 -0.29509,-0.24568 -0.65241,-0.40936 -1.39041,-0.76438 -2.1785,-0.74125 -0.22802,0.014 -0.45299,0.0779 -0.6513,0.19189 z"
         style="fill:#ccdae0;fill-opacity:1;fill-rule:evenodd;stroke:none;stroke-width:0.264583px;stroke-linecap:butt;stroke-linejoin:miter;stroke-opacity:1" />
    </g>
  </g>
</svg>
