<?xml version="1.0" encoding="UTF-8" standalone="no"?>
<!-- Created with Inkscape (http://www.inkscape.org/) -->
<svg xmlns:dc="http://purl.org/dc/elements/1.1/" xmlns:cc="http://creativecommons.org/ns#" xmlns:rdf="http://www.w3.org/1999/02/22-rdf-syntax-ns#" xmlns:svg="http://www.w3.org/2000/svg" xmlns="http://www.w3.org/2000/svg" xmlns:sodipodi="http://sodipodi.sourceforge.net/DTD/sodipodi-0.dtd" xmlns:inkscape="http://www.inkscape.org/namespaces/inkscape" width="16.403759mm" height="16.401651mm" viewBox="0 0 16.403759 16.401651" version="1.1" id="svg6763" inkscape:version="0.92.3 (unknown)" sodipodi:docname="cc.svg">
  <defs id="defs6757"/>
  <sodipodi:namedview id="base" pagecolor="#ffffff" bordercolor="#666666" borderopacity="1.0" inkscape:pageopacity="0.0" inkscape:pageshadow="2" inkscape:zoom="1.4519531" inkscape:cx="208.64494" inkscape:cy="231.1324" inkscape:document-units="mm" inkscape:current-layer="layer1" showgrid="false" fit-margin-top="0" fit-margin-left="0" fit-margin-right="0" fit-margin-bottom="0" inkscape:window-width="2560" inkscape:window-height="1392" inkscape:window-x="0" inkscape:window-y="48" inkscape:window-maximized="1"/>
  <metadata id="metadata6760">
    <rdf:RDF>
      <cc:Work rdf:about="">
        <dc:format>image/svg+xml</dc:format>
        <dc:type rdf:resource="http://purl.org/dc/dcmitype/StillImage"/>
        <dc:title/>
      </cc:Work>
    </rdf:RDF>
  </metadata>
  <g inkscape:label="Layer 1" inkscape:groupmode="layer" id="layer1" transform="translate(18.781181,-193.58546)">
    <path inkscape:connector-curvature="0" id="path9297" d="m -11.434113,209.96508 c -0.0587,-0.01 -0.251,-0.036 -0.42723,-0.061 -3.23093,-0.464 -6.07775,-3.1507 -6.74935,-6.3701 -0.21803,-1.045 -0.22778,-2.3885 -0.0244,-3.3572 0.35687,-1.6995 1.14224,-3.1093 2.42182,-4.3475 1.0721,-1.0373 2.17926,-1.6653 3.5402,-2.0081 1.19614,-0.3012 2.75113,-0.3147 4.0125098,-0.035 2.79265,0.6194 5.16082,2.8428 5.95499,5.5911 0.23873,0.8262 0.32764,1.488 0.32815,2.443 10e-4,2.0578 -0.65378,3.8568 -1.93361,5.3118 -1.33968,1.5231 -3.21956,2.5357 -5.1947797,2.7988 -0.4047699,0.054 -1.6458401,0.076 -1.9283201,0.035 z m 1.9725702,-1.5937 c 2.3853996,-0.4077 4.4668896,-2.1248 5.2216396,-4.3075 0.27207,-0.7868 0.34567,-1.2742 0.34339,-2.274 -0.002,-0.9651 -0.065,-1.3849 -0.32244,-2.1561 -0.64677,-1.9373 -2.26086,-3.5639 -4.17127,-4.2038 -0.7796798,-0.2611 -1.1784098,-0.3211 -2.1467398,-0.3233 -0.74584,0 -0.94697,0.013 -1.35547,0.095 -1.16656,0.2355 -2.108,0.6968 -3.00113,1.4705 -1.14349,0.9907 -1.94954,2.3557 -2.27412,3.8513 -0.12574,0.5793 -0.13616,1.8546 -0.0199,2.4349 0.56115,2.8004 2.7712,4.9512 5.58257,5.4327 0.51152,0.087 1.57372,0.078 2.1434703,-0.02 z m -3.9805102,-4.0849 c -0.85414,-0.184 -1.5088,-0.8222 -1.73755,-1.6937 -0.0863,-0.329 -0.0962,-1.1409 -0.0182,-1.5078 0.19099,-0.8987 0.89315,-1.6075 1.77707,-1.7939 0.88682,-0.187 1.7856,0.039 2.34705,0.5909 0.23076,0.2267 0.44504,0.5255 0.40098,0.5593 -0.008,0.01 -0.25602,0.1381 -0.55203,0.294 l -0.5382,0.2834 -0.13259,-0.2045 c -0.17485,-0.2699 -0.49777,-0.4522 -0.79894,-0.4511 -0.44082,0 -0.74908,0.1962 -0.92381,0.5827 -0.0913,0.2021 -0.10152,0.2845 -0.10152,0.8228 0,0.5372 0.0102,0.6207 0.10096,0.8213 0.2186,0.4835 0.66665,0.7165 1.17486,0.611 0.31931,-0.066 0.5484,-0.2465 0.71521,-0.5628 l 0.0596,-0.1131 0.52347,0.263 0.52346,0.263 -0.14443,0.2144 c -0.18675,0.2773 -0.5917,0.65 -0.86951,0.8004 -0.48682,0.2633 -1.20247,0.3509 -1.80595,0.2207 z m 4.7421398,0 c -0.8685197,-0.1872 -1.5278398,-0.8377 -1.7341898,-1.7111 -0.0913,-0.3866 -0.0902,-1.2256 0.002,-1.5759 0.23019,-0.8738 0.90341,-1.5298 1.7535098,-1.7085 0.81178,-0.1708 1.71233,0.024 2.24651,0.4869 0.1852,0.1602 0.5438,0.6281 0.50549,0.6594 -0.0101,0.01 -0.26103,0.1428 -0.55833,0.2992 l -0.54055,0.2847 -0.10679,-0.1817 c -0.26241,-0.4466 -0.84132,-0.611 -1.31136,-0.3723 -0.4001397,0.2032 -0.5699496,0.5913 -0.5692196,1.3014 7.144e-4,0.9601 0.3672496,1.4504 1.0815096,1.4476 0.4082,0 0.69933,-0.1764 0.92582,-0.5559 l 0.0797,-0.1336 0.52579,0.2637 0.5258,0.2635 -0.18745,0.2546 c -0.61519,0.8357 -1.60185,1.2014 -2.63829,0.978 z" style="opacity:0.63399999;fill:#f7f6f5;stroke-width:0.04272204" inkscape:export-filename="/home/issa/josa-homepage-final-draft-1600.png" inkscape:export-xdpi="95.999992" inkscape:export-ydpi="95.999992"/>
  </g>
</svg>